<?xml version="1.0" encoding="utf-8"?>
<!-- Generator: Adobe Illustrator 26.0.3, SVG Export Plug-In . SVG Version: 6.00 Build 0)  -->
<svg version="1.1" id="Layer_1" xmlns="http://www.w3.org/2000/svg" xmlns:xlink="http://www.w3.org/1999/xlink" x="0px" y="0px"
	 viewBox="0 0 230.1 187.2" style="enable-background:new 0 0 230.1 187.2;" xml:space="preserve">
<style type="text/css">
	.st0{fill:#FEDA00;}
	.st1{fill:#D5EEFB;}
	.st2{fill:#FFFFFF;}
	.st3{fill:#20201B;}
	.st4{fill:#231F20;}
	.st5{fill:#201F1A;}
	.st6{fill:#221F1F;}
	.st7{fill:#FFFFFF;stroke:#20201B;stroke-width:2.5;stroke-miterlimit:10;}
</style>
<polygon class="st0" points="101.8,184.6 93.7,35.8 188,35.8 180,184.6 "/>
<polygon class="st1" points="116,127.5 116,128.2 116.1,128.9 116,129.6 116.1,130.4 116,131.1 116,131.8 116,132.5 116,133.3 
	116.1,134 116.1,134.7 116,135.4 116,136.1 116.1,136.9 116.1,137.6 116,138.3 116,139 116.1,139.7 116,140.5 116.1,141.2 
	116,141.9 116.1,142.6 116,143.4 116.1,144.1 116,144.8 116,145.5 116.1,146.2 116.1,147 116.1,147.7 116,148.4 116.1,149.1 
	116,149.8 116.1,150.6 116.1,151.3 116,152 116.1,152.7 116.1,153.4 116,154.2 116,154.9 116.1,155.6 116,156.3 116,157.1 
	116,157.8 116.1,158.5 116.1,159.2 116.1,160 116,160.7 116,161.4 116,162.1 116.1,162.8 116.1,163.6 116.1,164.3 116,165 
	116,165.7 116,166.5 116,167.2 116.1,167.9 116.1,168.6 116,169.4 116.1,170.1 116.1,170.8 116,171.5 116,172.3 116,173 
	116.1,173.7 116.1,174.4 116,175.2 116,175.9 116,176.6 116.1,177.3 116.1,178.1 116,178.8 116.1,179.5 116.1,180.2 116,181 
	116.1,181.7 116.1,182.4 116.1,183.2 116,183.9 116.1,184.7 115.3,184.7 114.6,184.6 113.9,184.7 113.2,184.7 112.5,184.6 
	111.7,184.6 111,184.6 110.3,184.6 109.6,184.7 108.9,184.7 108.1,184.6 107.4,184.7 106.7,184.6 106,184.7 105.3,184.6 
	104.6,184.7 103.8,184.6 103.1,184.6 102.4,184.6 101.7,184.6 101,184.7 100.3,184.6 99.5,184.6 98.8,184.6 98.1,184.7 97.4,184.7 
	96.7,184.7 95.9,184.6 95.2,184.6 94.5,184.7 93.8,184.6 93.1,184.7 92.4,184.6 91.6,184.7 90.9,184.6 90.2,184.7 89.5,184.7 
	88.8,184.6 88.1,184.5 87.3,184.6 86.6,184.7 85.9,184.7 85.2,184.6 84.4,184.5 83.7,184.6 83,184.6 82.3,184.7 81.6,184.6 
	80.9,184.6 80.1,184.6 79.4,184.7 78.7,184.7 78,184.6 77.2,184.6 76.5,184.6 75.8,184.5 75.1,184.7 74.4,184.6 73.6,184.6 
	72.9,184.6 72.2,184.7 71.5,184.7 70.8,184.7 70,184.6 69.3,184.6 68.6,184.6 67.9,184.6 67.2,184.6 66.4,184.7 65.7,184.6 
	65,184.7 64.3,184.6 63.5,184.5 62.8,184.7 62.1,184.6 61.4,184.6 60.6,184.6 59.9,184.6 59.2,184.6 58.4,184.7 58.5,183.9 
	58.4,183.2 58.5,182.5 58.4,181.7 58.4,181 58.4,180.3 58.4,179.6 58.5,178.9 58.5,178.1 58.4,177.4 58.4,176.7 58.5,176 
	58.4,175.2 58.5,174.5 58.5,173.8 58.5,173.1 58.5,172.4 58.5,171.6 58.4,170.9 58.4,170.2 58.4,169.5 58.5,168.8 58.4,168 
	58.4,167.3 58.5,166.6 58.5,165.9 58.5,165.1 58.5,164.4 58.5,163.7 58.5,163 58.5,162.3 58.5,161.6 58.5,160.8 58.4,160.1 
	58.4,159.4 58.4,158.7 58.4,157.9 58.4,157.2 58.5,156.5 58.5,155.8 58.5,155.1 58.5,154.3 58.4,153.6 58.4,152.9 58.4,152.2 
	58.5,151.4 58.5,150.7 58.5,150 58.4,149.3 58.4,148.5 58.5,147.8 58.5,147.1 58.5,146.4 58.4,145.6 58.5,144.9 58.5,144.2 
	58.4,143.5 58.4,142.7 58.5,142 58.5,141.3 58.3,140.6 58.4,139.9 58.5,139.1 58.4,138.4 58.4,137.7 58.4,137 58.4,136.2 
	58.4,135.5 58.5,134.8 58.5,134 58.5,133.3 58.5,132.6 58.4,131.9 58.5,131.1 58.5,130.4 58.5,129.7 58.4,128.9 58.4,128.2 
	58.5,127.5 58.4,126.8 58.5,126 58.6,125.3 58.6,124.6 58.9,123.9 58.9,123.2 59.3,122.6 59.4,121.8 59.7,121.2 60.1,120.5 
	60.3,119.9 60.7,119.3 61.2,118.7 61.5,118.1 62,117.5 62.5,117 63,116.5 63.6,116 64.1,115.6 64.7,115.1 65.2,114.6 65.9,114.3 
	66.5,113.9 67,113.5 67.7,113.2 68.4,113 69.1,112.8 69.7,112.5 70.5,112.3 71.2,112.2 71.9,112.1 72.6,111.9 73.3,111.9 74,112 
	74.1,111.9 73.9,111.2 74,110.5 73.9,109.8 74,109.1 74.1,108.4 74,107.8 74.1,107.1 74,106.4 74,105.7 74.1,105 74.1,104.3 
	74.7,104.2 75.4,104.3 76.2,104.4 76.9,104.3 77.6,104.2 78.3,104.3 79,104.2 79.7,104.2 80.4,104.4 81.1,104.2 81.9,104.2 
	82.6,104.2 83.3,104.2 84,104.2 84.7,104.3 85.4,104.4 86.1,104.3 86.9,104.4 87.6,104.3 88.3,104.2 89,104.3 89.7,104.4 
	90.4,104.2 91.1,104.3 91.8,104.2 92.6,104.2 93.3,104.2 94,104.3 94.7,104.3 95.4,104.3 96.1,104.4 96.9,104.3 97.6,104.3 
	98.3,104.4 99,104.3 99.7,104.2 100.4,104.3 100.4,105 100.5,105.7 100.5,106.4 100.5,107.1 100.4,107.7 100.5,108.4 100.5,109.1 
	100.5,109.8 100.6,110.5 100.5,111.2 100.4,111.9 100.5,111.8 101.2,111.9 101.9,112 102.6,112 103.4,112.1 104,112.4 104.7,112.5 
	105.4,112.8 106.1,112.9 106.8,113.3 107.4,113.5 108.1,113.8 108.6,114.3 109.3,114.6 109.9,115 110.5,115.5 111,115.9 
	111.4,116.5 112,117 112.5,117.5 112.9,118.1 113.3,118.7 113.7,119.3 114.1,119.9 114.5,120.5 114.7,121.2 114.9,121.9 
	115.2,122.5 115.4,123.2 115.7,123.9 115.7,124.6 115.9,125.3 116,126 116.1,126.8 "/>
<polygon class="st2" points="104.6,104.3 103.9,104.4 103.1,104.2 102.4,104.4 101.7,104.3 101,104.3 100.3,104.3 99.6,104.2 
	98.8,104.2 98.1,104.3 97.4,104.2 96.7,104.3 95.9,104.4 95.2,104.3 94.5,104.4 93.8,104.2 93.1,104.3 92.3,104.2 91.6,104.2 
	90.9,104.2 90.2,104.3 89.5,104.2 88.7,104.2 88,104.3 87.3,104.3 86.6,104.3 85.8,104.3 85.1,104.3 84.4,104.3 83.7,104.2 
	83,104.3 82.2,104.2 81.5,104.3 80.8,104.4 80.1,104.3 79.4,104.4 78.6,104.3 77.9,104.4 77.2,104.4 76.5,104.2 75.7,104.3 
	75,104.3 74.3,104.3 73.6,104.2 72.8,104.3 72.1,104.3 71.4,104.3 70.6,104.3 69.9,104.3 69.8,103.6 69.9,102.8 69.9,102.1 
	69.8,101.4 69.9,100.7 70,99.9 70,99.2 69.9,98.5 69.9,97.8 69.8,97 69.9,96.3 69.8,95.6 69.8,94.8 69.9,94.1 70.6,94.1 71.3,94.1 
	72.1,94 72.8,94.2 73.5,94.1 74.2,94 74.9,94.1 75.7,94.1 76.4,94.1 77.1,94.2 77.8,94.2 78.5,94.2 79.3,94.1 80,94.1 80.7,94.1 
	81.4,94.1 82.1,94.2 82.9,94.2 83.6,94.1 84.3,94.2 85,94.1 85.8,94.2 86.5,94.2 87.2,94 87.9,94.1 88.7,94 89.4,94.1 90.1,94.1 
	90.8,94.1 91.5,94.2 92.3,94.2 93,94.2 93.7,94.1 94.4,94.2 95.1,94 95.9,94.2 96.6,94.1 97.3,94.1 98,94.1 98.8,94.1 99.5,94 
	100.2,94.2 100.9,94.1 101.7,94.1 102.4,94.2 103.1,94.1 103.9,94.2 104.6,94.1 104.6,94.8 104.5,95.6 104.5,96.3 104.6,97 
	104.5,97.7 104.7,98.5 104.6,99.2 104.5,99.9 104.5,100.6 104.5,101.4 104.7,102.1 104.6,102.8 104.5,103.6 "/>
<path class="st3" d="M103.8,105.9l-0.7-0.2l-0.6,0.1l-3.1-0.2H99l-0.8,0.1l-0.8-0.1l-1.4,0.1l-0.7-0.1l-0.8,0.1l-0.7-0.2l-0.7,0.1
	l-0.8-0.1H91l-0.9,0.1l-0.8-0.1l-2,0.1h-0.7l-0.8,0.1l-0.7-0.1l-0.8,0.1l-0.7-0.1H83l-0.8-0.1h-0.6l-0.8,0.1l-0.8-0.1l-0.7,0.1
	l-0.8-0.1l-1.5,0.1l-0.7-0.1h-0.6H75h-0.7l-0.7-0.1l-0.7,0.1h-0.8l-3.7,0.1v-2.3v-0.8v-1.4v-1l0.1-0.6v-0.6v-0.6l-0.1-1.6l0.1-0.7
	l-0.1-0.7v-0.8l0.2-2.2l2.7,0.2l0.9-0.2l0.8,0.2l1.4-0.1l0.7,0.1l0.7-0.1l1.5,0.1H78h0.7l0.6-0.1h1.5h0.8l0.8,0.1h0.5l0.8-0.1h0.7
	l0.8-0.1l0.8,0.1h0.5l0.8-0.1H88h0.8l0.7,0.1h0.6h1l0.6,0.1h1.2l0.8-0.1l0.7,0.1l0.7-0.1l0.8,0.1h1.3H98h0.6l0.9-0.1l0.8,0.1
	l1.4-0.1l0.6,0.1l0.8-0.1l0.7,0.2l2.3-0.3l-0.2,3.8l0.1,0.8l-0.1,0.7l0.1,0.7l-0.2,2.8l0.2,0.8l-0.2,1.6l0.1,1.9L103.8,105.9z
	 M95.2,102.8l0.7,0.1l1.5-0.1l0.7,0.1l0.7-0.1h0.7l2.8,0.1l0.8-0.2v-0.4l-0.2-0.7l0.1-1.7l0.1-1.3l-0.1-0.7l0-0.9l-0.1-0.7v-0.8
	l-0.6,0.1l-0.8-0.1l-1.5,0.1l-0.7-0.1l-0.6,0.1H98h-0.8h-1.5l-0.6-0.1l-0.7,0.1l-0.7-0.1L93,95.7h-1.8l-0.6-0.1H90h-0.8l-0.7-0.1
	h-0.7h-0.6l-0.8,0.1h-0.8l-0.6,0l-0.7,0.1h-0.7l-0.8,0.1H82l-0.7-0.1h-0.6h-0.8l-1.4,0.1h-0.8H77l-1.3-0.1l-0.8,0.1l-0.8-0.1
	l-1.5,0.1L72,95.5l-0.6,0.1h-0.1l0.1,0.7L71.3,97l0.2,2.1v0.9l-0.1,0.6v0.6v1.4H72h0.7l0.8-0.1l0.8,0.1h0.6h0.8h0.8l0.7,0.1l1.4-0.1
	l0.7,0.1l0.7-0.1l0.7,0.1l0.7-0.1h0.8l0.7,0.1l0.8-0.1l0.7,0.1l0.7-0.1l0.7,0.1l0.7-0.1h0.8l2.2-0.1l0.6,0.1l0.7-0.1h1.6l0.6,0.1
	l0.8-0.1l0.8,0.2L95.2,102.8z"/>
<path class="st4" d="M96.1,157.3l-0.8-0.1l-0.7,0.1l-0.8-0.1l-2.9,0.1l-0.7-0.1h-0.5l-0.8,0.1l-0.7-0.1l-0.7,0.1l-1.4-0.1l-0.7,0.1
	h-0.8h-0.8l-0.8-0.2h-0.4l-0.7,0.1l-0.8,0.1l-1.5-0.1H79l-0.8,0.1l-1.5-0.1l-0.7,0.1h-1l-0.6-0.1l-0.7,0.1h-0.8h-1.4l-1-0.1
	l-0.4-0.1l-0.7,0.1l-2.2-0.3l-0.1-2v-0.6l-0.1-0.7l0.1-1.5l-0.1-1.4V150v-0.8l0.1-0.8v-0.6v-0.7l-0.1-1.5l0.1-0.6l-0.1-0.7l0.2-2.3
	v-0.7v-0.6l-0.1-0.8v-0.7v-1l0.1-0.6v-0.5l-0.3-2.4l3.2,0.2l0.7-0.1l0.6,0.1l0.7-0.1l0.8-0.1l1.4,0.2l0.7-0.1h1l1.2,0.2l0.7-0.1h1
	l0.6,0.1l1.4-0.1l1.6,0.1l0.6,0.1l0.7-0.1l0.8,0.1h1.2l0.9-0.2l0.8,0.2h0.4l0.8-0.1l1.6,0.2l1.4-0.1l1.3,0.1l0.8-0.1l1.6,0.2h0.4
	l0.8-0.2l0.8,0.1l1.4-0.1l0.7,0.1l0.6-0.1h0.9l0.6,0.1l0.8-0.1l0.7,0.1l0.6-0.1h0.9h0.7h0.9l2.1,0.1l0.1,2.1v1.5v0.7v0.7l-0.1,0.6
	l0.1,0.7v0.8v0.8l-0.1,0.7v0.6l-0.1,1.4l0.1,0.7l-0.1,0.9v1.5l-0.1,0.8v0.5l0.1,0.8v0.8l-0.1,0.6l0.1,0.7l-0.2,1.4l0.1,0.7l0.1,2.3
	l-2.4,0.1l-1.4-0.2l-1.4,0.1l-0.7-0.1l-0.6,0.1l-1.4-0.1l-0.7,0.1h-1l-1.2-0.1H97L96.1,157.3z M75.4,154.3h0.5l0.8-0.1l1.4,0.1
	l0.8-0.1h0.8l1.4,0.1l2.3-0.1l0.7,0.2h0.6h0.6l0.7-0.1l1.4,0.1l0.7-0.1h0.7l0.8-0.1h0.8l0.7,0.1l2.8-0.1l0.7,0.1l0.7-0.1l0.7,0.1
	l0.6-0.1l0.8-0.1l2.1,0.1l0.8-0.1l1.4,0.1l0.8-0.1l0.7,0.1l1.4-0.1l0.6,0.1l0.1-1.3l-0.1-0.7l0.1-0.9v-0.6l-0.1-0.8v-1l0.1-0.6V147
	l0.1-0.6l-0.2-0.7l0.1-0.9v-0.6v-0.7l0.1-0.7v-0.7v-0.6l-0.1-0.7l0.1-0.8l-0.1-0.7l0.1-1.4H104l-0.8,0.2l-0.8-0.2l-0.7,0.1l-0.8-0.1
	h-0.5l-0.9,0.1l-0.8-0.1l-1.4,0.1l-0.6-0.1l-0.6,0.1l-1.8-0.1l-0.5-0.1l-0.7,0.1l-1.5-0.1l-1.4,0.1l-1.3-0.2l-0.8,0.1h-0.9l-0.6-0.1
	l-0.7,0.1h-1.5l-0.7-0.1l-0.7,0.1l-0.8-0.1h-1.4l-1.4,0.1l-1.2-0.1l-0.8,0.2l-1.6-0.2h-0.4l-0.9,0.2l-1.5-0.2h-0.5l-0.8,0.2
	l-0.8-0.1l-0.6,0.1l-0.1,0.7v1.1l0.2,0.8v0.8v0.9l-0.1,0.8l-0.1,1.2l0.1,0.7l-0.1,0.8l0.1,1.3v0.8v0.8l-0.1,0.6l0.1,0.6v0.8l0.1,1.5
	l-0.2,1.3l0.1,0.6l0.8,0.1h0.6h1.4h0.7l0.8-0.1L75.4,154.3z"/>
<polygon class="st2" points="190.6,62.1 189.8,62 189.1,62 188.4,62.1 187.7,62.1 186.9,61.9 186.2,62.1 185.5,62 184.8,62 
	184.1,62.1 183.4,61.9 182.6,62.1 181.9,62.1 181.2,62 180.5,62.1 179.8,62 179.1,62.1 178.3,62.1 177.6,62 176.9,62 176.2,62 
	175.5,61.9 174.7,62.1 174,62 173.3,62 172.6,62.1 171.9,62.1 171.2,62 170.4,62 169.7,62 169,62 168.3,62.1 167.6,62 166.8,62.1 
	166.1,62 165.4,62.1 164.7,62 164,62.1 163.3,62.1 162.5,62 161.8,62 161.1,62 160.4,62.1 159.7,62.1 159,62.1 158.2,62 157.5,62.1 
	156.8,62.1 156.1,62.1 155.4,62 154.6,62 153.9,62.1 153.2,62.1 152.5,62 151.8,62 151,62.1 150.3,62.1 149.6,62.1 148.9,62 
	148.2,62.1 147.4,62.1 146.7,62.1 146,62 145.3,62 144.6,62 143.9,62 143.1,62 142.4,62.1 141.7,62.1 141,62 140.3,62 139.5,62 
	138.8,62 138.1,62 137.4,62.1 136.7,62.1 135.9,62.1 135.2,62.1 134.5,62.1 133.8,62 133.1,62.1 132.4,62.1 131.6,62.1 130.9,62 
	130.2,62 129.5,62 128.8,62 128,62.1 127.3,62.1 126.6,62 125.9,62 125.2,62 124.5,62 123.7,62.1 123,62.1 122.3,62 121.6,62 
	120.9,62 120.1,62 119.4,61.9 118.7,62 118,62 117.3,62 116.5,62.1 115.8,62 115.1,62 114.4,62 113.7,62 112.9,62.1 112.2,62.1 
	111.5,62.1 110.8,62.1 110,62.1 109.3,62 108.6,62 107.9,62 107.2,62.1 106.4,61.9 105.7,62.1 105,62 104.3,62.1 103.6,62 102.8,62 
	102.1,62 101.4,62 100.7,62.1 99.9,62 99.2,62.1 98.5,62 97.8,62 97,62 96.3,62 95.6,62 94.9,62 94.1,62 93.4,62 92.7,61.9 92,62 
	91.2,62 91.3,61.3 91.3,60.6 91.1,59.9 91.2,59.1 91.2,58.4 91.3,57.7 91.3,56.9 91.3,56.2 91.2,55.5 91.3,54.8 91.2,54 91.3,53.3 
	91.3,52.6 91.2,51.8 91.3,51.1 91.1,50.4 91.3,49.7 91.1,48.9 91.2,48.2 91.3,47.5 91.2,46.8 91.2,46 91.1,45.3 91.3,44.6 
	91.2,43.8 91.2,43.1 91.2,42.4 91.1,41.6 91.3,40.9 91.1,40.2 91.3,39.5 91.2,38.7 91.1,38 91.2,37.3 91.2,36.5 91.2,35.8 
	91.9,35.8 92.7,35.7 93.4,35.8 94.1,35.9 94.8,35.8 95.5,35.8 96.2,35.7 97,35.8 97.7,35.7 98.4,35.8 99.1,35.8 99.8,35.7 
	100.5,35.9 101.3,35.8 102,35.8 102.7,35.8 103.4,35.8 104.1,35.8 104.8,35.8 105.6,35.7 106.3,35.9 107,35.8 107.7,35.8 
	108.4,35.9 109.2,35.8 109.9,35.8 110.6,35.8 111.3,35.7 112,35.8 112.8,35.8 113.5,35.9 114.2,35.7 114.9,35.9 115.6,35.8 
	116.3,35.8 117.1,35.9 117.8,35.7 118.5,35.8 119.2,35.8 119.9,35.7 120.6,35.7 121.4,35.9 122.1,35.8 122.8,35.7 123.5,35.8 
	124.2,35.7 125,35.7 125.7,35.8 126.4,35.7 127.1,35.7 127.8,35.8 128.6,35.8 129.3,35.8 130,35.8 130.7,35.8 131.4,35.9 
	132.1,35.8 132.9,35.8 133.6,35.8 134.3,35.8 135,35.8 135.7,35.9 136.5,35.9 137.2,35.7 137.9,35.7 138.6,35.7 139.3,35.8 
	140.1,35.7 140.8,35.8 141.5,35.9 142.2,35.8 142.9,35.7 143.7,35.9 144.4,35.7 145.1,35.8 145.8,35.9 146.5,35.7 147.2,35.8 
	148,35.7 148.7,35.8 149.4,35.8 150.1,35.9 150.8,35.8 151.6,35.7 152.3,35.8 153,35.8 153.7,35.7 154.4,35.9 155.1,35.7 
	155.9,35.7 156.6,35.8 157.3,35.8 158,35.9 158.7,35.8 159.4,35.7 160.2,35.8 160.9,35.8 161.6,35.8 162.3,35.7 163.1,35.8 
	163.8,35.9 164.5,35.7 165.2,35.7 165.9,35.7 166.7,35.7 167.4,35.9 168.1,35.8 168.8,35.9 169.5,35.9 170.3,35.7 171,35.8 
	171.7,35.8 172.4,35.8 173.1,35.7 173.9,35.8 174.6,35.7 175.3,35.8 176,35.7 176.8,35.7 177.5,35.7 178.2,35.8 178.9,35.8 
	179.6,35.7 180.4,35.7 181.1,35.8 181.8,35.8 182.5,35.7 183.3,35.9 184,35.7 184.7,35.7 185.4,35.7 186.2,35.9 186.9,35.7 
	187.6,35.7 188.3,35.7 189.1,35.7 189.8,35.8 190.5,35.8 190.5,36.5 190.6,37.2 190.6,38 190.6,38.7 190.5,39.4 190.6,40.1 
	190.5,40.9 190.6,41.6 190.6,42.3 190.6,43.1 190.5,43.8 190.6,44.5 190.6,45.2 190.6,46 190.4,46.7 190.4,47.4 190.5,48.2 
	190.5,48.9 190.5,49.6 190.6,50.3 190.4,51.1 190.5,51.8 190.6,52.5 190.4,53.2 190.4,54 190.6,54.7 190.6,55.4 190.5,56.2 
	190.5,56.9 190.5,57.6 190.5,58.4 190.5,59.1 190.5,59.8 190.6,60.6 190.5,61.3 "/>
<path class="st3" d="M192.2,63.7l-3.1-0.3l-0.6,0.1h-1.1l-0.4-0.1l-0.7,0.2l-0.8-0.2l-1.4,0.2l-0.7-0.2l-0.6,0.1H182l-0.7-0.1
	l-0.7,0.1l-0.7-0.1l-0.6,0.1l-1.6-0.1H177l-1.3-0.1l-0.8,0.2l-1.5-0.2l-0.7,0.1l-3-0.1l-1.4,0.1h-0.7l-0.7,0.1h-0.8h-0.6h-0.7
	l-0.7,0.1l-1-0.1l-0.6-0.1H162l-1.5,0.1l-2.1-0.1l-0.7,0.1h-0.9H156l-0.7-0.1l-2.2,0.1l-0.7-0.1l-1.3,0.1h-0.7l-0.9,0.1l-0.7-0.1
	l-0.7,0.1l-0.9-0.1h-0.7l-1.4-0.2h-0.7H143l-0.7,0.1h-1.1l-0.6-0.1h-2l-2.2,0.2h-0.7H135l-1.4-0.1l-0.7,0.1h-0.8h-0.8l-0.8-0.1h-0.7
	l-0.7-0.1h-0.6l-0.8,0.1h-0.8l-0.8-0.1h-0.6h-0.6h-0.6l-0.8,0.2l-3-0.2l-0.8,0.1l-0.7-0.1l-0.7,0.1l-1.3-0.1l-0.8,0.2l-0.9-0.1H115
	h-0.6h-0.5l-0.8,0.1l-0.8-0.1h-0.7l-0.7-0.1l-0.8,0.1l-0.7-0.1h-0.6H108l-0.9,0.1l-0.7-0.1l-0.7,0.1l-0.7-0.1l-0.7,0.1l-0.9-0.1
	h-0.6H102l-1.4,0.1l-0.6-0.1l-0.7,0.2l-0.8-0.1H97l-1.4-0.1h-1.4l-1.4-0.1l-3.1,0.2l0.2-2.9l-0.2-0.8l0.1-0.9v-0.7l0.1-0.8V56
	l-0.1-0.8v-0.7l-0.1-0.8l0.1-0.8l-0.1-1.4l0.1-0.7L89.6,50l0.2-0.7L89.6,49l0.2-1.6l-0.1-2.1l0.2-0.7l-0.2-1.4v-0.8v-0.8l0.1-0.6
	l-0.2-0.7l0.1-0.8l-0.1-1.4l0.1-3.8h2.1l0.8-0.1l1.5,0.2l0.6-0.1h0.8l0.7-0.1l0.7,0.1l0.8-0.1l0.8,0.1l1.4-0.1l0.7,0.1l0.6-0.1h0.8
	h0.7l1.4,0.1l1.6-0.1l0.8,0.2h0.5h1.5h2l0.8-0.1l0.8,0.1h0.6h0.6l0.9-0.2l0.8,0.2l0.6-0.1l1.4,0.1l0.8-0.2l0.9,0.2h0.4l0.7-0.1h1.2
	l0.6,0.1h0.4l0.8-0.2l0.8,0.1l0.7-0.1h0.9l0.6,0.1l0.5-0.1l2.3,0.1h0.6h1.6l0.6,0.1l0.7-0.1l0.8,0.1l0.7-0.1l0.7,0.1l0.8-0.1
	l0.8,0.1h0.4l0.9-0.2h1.5l0.7,0.1h0.7l1.5,0.1l1.4-0.1l0.6,0.1l0.6-0.2l1.5,0.1l0.8-0.2l0.7,0.2l0.7-0.1l0.9,0.2h0.6h0.7h0.6
	l0.8-0.1l1.4,0.1l0.8-0.1l0.6,0.1l0.6-0.2l1.6,0.1h0.7l0.7,0.1l1.5-0.2l0.7,0.1h0.6h1.6l1.3,0.1l0.8-0.1h0.7h0.8h0.9l0.6,0.1
	l0.7-0.1l0.8,0.1h0.5l0.9-0.3l1.5,0.1h0.6l0.8-0.1l0.7,0.1l0.8-0.1l0.8,0.1l1.3-0.1h1l0.6,0.1h0.5l0.8-0.1l2.2,0.1l0.8-0.1l0.7,0.1
	l0.7-0.1h0.7h1l0.4,0.1l0.6-0.1h1.6l1.5,0.1l2.4-0.2l-0.3,2.4l0.1,0.7v1.6l-0.1,0.7l0.1,0.7l-0.1,0.7l0.1,0.7v0.8v0.8l-0.1,0.7
	l0.1,2.3l-0.2,0.7v0.5l0.1,0.8l-0.1,0.8l0.1,1.6l-0.1,0.7v0.4l0.2,1l-0.2,0.9v0.4l0.2,0.9v0.9l-0.1,0.8l-0.1,1.3v1.4v0.6l0.2,0.8
	l-0.1,0.8L192.2,63.7z M135.9,60.6h0.7l2.1-0.2h2.4l0.7,0.1h0.4l0.7-0.1h1.6h0.7l1.5,0.1h0.7l0.6,0.1l0.8-0.2l0.8,0.2l0.6-0.1h0.8
	l1.5-0.1l0.8,0.2l2.1-0.1l0.7,0.1h0.7h0.6l0.8-0.2l0.9,0.1h1.3l1.4-0.1h1l0.6,0.1h0.5l0.7-0.1h0.8h0.7h0.7l0.7-0.1h0.7l1.4-0.1
	l2.8,0.1l0.8-0.1l1.4,0.1l0.7-0.2l1.6,0.1h0.7l1.3,0.1l0.8-0.1l0.8,0.1l0.7-0.1l0.8,0.1h0.5l0.9-0.2l0.8,0.2l1.4-0.1l0.6,0.1
	l0.7-0.2l0.9,0.2h0.5l0.8-0.1l-0.1-0.5v-0.9v-1.4l0.1-1.7l0.1-0.6v-0.5l-0.2-0.9v-0.9l0.1-0.6l-0.1-0.6v-0.9l0.1-0.7l-0.1-1.3
	l0.1-0.7l-0.1-0.8v-0.9l0.2-0.7l-0.1-2.1l0.1-0.7v-0.6v-0.7l-0.1-0.8l0.1-0.7l-0.2-0.8l0.2-0.9v-1.2l-0.9,0.1H187l-0.9,0.2l-0.9-0.2
	h-0.6H184l-0.9,0.1l-0.8-0.1l-0.6,0.1l-2.1-0.1l-0.6,0.1h-0.9l-0.8-0.1h-0.6l-1.5,0.1l-0.7-0.1l-0.7,0.1l-0.8-0.1l-0.7,0.1h-0.8
	l-1.3-0.1l-0.8,0.1h-0.8l-0.6-0.1l-0.8,0.1l-0.8-0.2h-0.6H165h-0.5l-0.8,0.2l-1.6-0.1l-2.1,0.1l-0.7-0.1l-1.3,0.1l-0.8-0.1h-0.7
	h-1.2l-0.8,0.2l-0.8-0.2l-0.6,0.1l-1.4-0.1l-0.7,0.1h-0.8h-0.8h-0.8l-0.6-0.1l-0.7,0.2l-0.7-0.1l-0.7,0.2l-1.4-0.2l-0.8,0.2
	l-0.8-0.2l-1.4,0.1l-1.4-0.2h-0.7l-1.5-0.1h-0.5l-0.7,0.2h-1.1l-0.6-0.1l-0.7,0.1l-0.7-0.1l-0.7,0.1l-0.7-0.1l-0.7,0.1l-0.8-0.1
	h-1.4h-0.7l-2-0.1l-0.8,0.2l-0.8-0.1l-1.4,0.1H123l-0.7,0.1h-0.9l-0.7-0.2h-0.4l-0.7,0.1h-1.1l-0.4-0.1l-0.6,0.2l-1.5-0.1l-0.8,0.1
	l-0.7-0.1l-0.6,0.1H113h-1l-0.6-0.1l-0.7,0.1h-2.2H107h-0.8l-0.7-0.2l-1.3,0.1l-1.5-0.1h-0.6h-0.7l-0.9,0.1l-0.8-0.2l-1.4,0.1
	l-0.7-0.1L97,37.3l-0.8-0.1l-0.7,0.1h-0.7L94,37.4l-1.4-0.2l0,0V38l0.1,1.5l-0.1,0.7l0.2,0.8l-0.2,0.9V43l0.2,1.7l-0.2,0.8l0.1,2.1
	l-0.1,1.3l0.2,0.8l-0.2,0.8l0.1,0.7L92.6,52l0.1,1.5l-0.1,0.7l0.1,0.7l-0.1,0.7l0.1,0.7l-0.1,2.3v0.8L92.5,60l0.2,0.7l1.3,0.1h1.4
	l1.5,0.1h1.5L99,61l0.7-0.2l0.8,0.1l1.4-0.1h0.8h0.8l0.6,0.1l0.7-0.1l0.7,0.1l0.8-0.1l0.8,0.2h0.6h0.8h0.8l0.7,0.1h0.7l0.7,0.1
	l0.7-0.1l0.6,0.1l0.7-0.1h0.8l0.8,0.1h0.8l0.5,0.1l0.6-0.2h1l0.5,0.1l0.7-0.1l0.8,0.1l0.7-0.1l2.8,0.2l0.7-0.2h1h0.7l1,0.1l0.6,0.1
	h0.5l0.8-0.1h0.8h0.7h0.8l0.7,0.1h0.7h0.6l0.8-0.1l0.9,0.1h0.6L135.9,60.6z"/>
<polygon class="st3" points="164.3,62.2 164.1,59.1 164.2,58.3 164.3,56.3 164.2,55.5 164.1,53.9 164.2,53.3 164.1,52.7 164.2,51.2 
	164.2,50.4 164.2,49.6 164.2,48.2 164.2,47.4 164.1,46 164.2,45.2 164.2,44.5 164.3,43.8 164.2,43.2 164.2,42.4 164.1,41.6 
	164.2,41 164.1,40.1 164.3,39.3 164.3,38.9 164.1,38 164.2,37.2 164.2,36.6 164.2,35.8 167.2,35.8 167.2,36.5 167.2,37.3 167.2,38 
	167.3,38.7 167.3,39.6 167.1,40.2 167.3,40.9 167.2,41.7 167.2,42.3 167.2,43 167.3,43.8 167.2,44.6 167.2,45.4 167.1,46.1 
	167.2,47.5 167.2,48.3 167.2,49.7 167.2,50.4 167.2,51.1 167.1,52.5 167.3,53.3 167.1,54.1 167.3,56.2 167.2,58.6 167.1,59.2 
	167.2,60.5 167.3,61.9 "/>
<polygon class="st3" points="142.3,62.3 139.3,61.8 139.4,61.2 139.5,60.6 139.4,60 139.3,59.1 139.4,58.4 139.3,56.8 139.5,56.1 
	139.4,54.8 139.4,54.1 139.4,53.3 139.4,52.6 139.4,51.1 139.3,49.7 139.4,48.9 139.4,48.1 139.4,46.9 139.3,46 139.3,44.5 
	139.4,43.2 139.3,42.4 139.3,41.5 139.4,40.3 139.3,39.6 139.3,38.7 139.3,37.9 139.5,36.5 139.4,36 142.4,35.6 142.5,36.5 
	142.3,38 142.3,38.8 142.3,39.3 142.5,40.1 142.4,41.2 142.3,41.8 142.3,42.2 142.5,43 142.3,44.6 142.3,45.9 142.5,46.7 
	142.4,48.3 142.4,49 142.3,49.6 142.4,51.1 142.4,52.7 142.4,53.2 142.4,54 142.4,54.8 142.5,56.4 142.3,57.1 142.5,58.4 
	142.4,59.1 142.4,59.8 142.5,60.5 142.4,61.6 "/>
<polygon class="st3" points="114.6,62.2 114.5,60.5 114.6,59.7 114.6,58.5 114.5,57.7 114.6,56.9 114.5,56.2 114.6,55.5 114.5,54.8 
	114.6,53.3 114.6,52 114.5,51.1 114.6,50.4 114.5,49.7 114.5,48.2 114.5,47.5 114.5,46.8 114.5,46 114.5,45.3 114.5,44.5 
	114.6,43.7 114.6,43.1 114.6,42.5 114.5,41.6 114.6,40.9 114.5,40.2 114.6,39.5 114.5,38.8 114.5,38 114.5,37.3 114.6,35.7 
	117.6,35.8 117.5,37.2 117.5,37.9 117.5,38.7 117.6,39.4 117.5,40.1 117.7,40.9 117.5,41.7 117.6,42.3 117.6,43.1 117.6,44 
	117.5,44.7 117.5,45.3 117.5,46 117.5,46.7 117.5,47.5 117.5,48.2 117.5,49.6 117.6,50.4 117.5,51.1 117.6,51.8 117.6,53.3 
	117.5,54.7 117.6,55.4 117.6,56.2 117.7,57 117.5,57.7 117.6,58.3 117.5,60.6 117.6,61.9 "/>
<path class="st5" d="M73.7,187c-0.2,0-0.3,0-0.5-0.1l-1.2-0.3l-0.2-0.1l-0.7-0.3l-0.7,0.1h-0.8l-0.7,0.4c-0.5,0.3-1,0.3-1.6,0.1
	l-0.9-0.3h-0.6l-0.8,0.2c-0.3,0.1-0.6,0.1-0.9,0.1l-0.9-0.2l-0.9,0.1H62h-1.2c-0.1,0-0.2,0-0.2,0l-0.7-0.1l-0.7,0.2
	c-0.2,0.1-0.4,0.1-0.6,0.1l-2.3-0.1l-1.2-0.1c-0.2,0-0.4-0.1-0.6-0.1l-0.5-0.2l-0.5,0.1c-0.1,0.1-0.3,0.1-0.5,0.1l-3.3,0.2l-1.1,0.2
	c-0.1,0-0.3,0-0.4,0H47h-0.2l-1.2-0.1l-1.1-0.1c-0.2,0-0.4,0-0.6-0.1l-0.9-0.3h-0.5l-0.8,0.3l-1.2,0.3c-0.5,0.1-1,0.1-1.5-0.2
	l-0.2-0.1l-0.2,0.1c-0.4,0.2-0.9,0.3-1.3,0.2l-0.9-0.2h-0.9l-1.1,0.1c-0.4,0-0.8,0-1.1-0.2l-0.2-0.1l-0.2,0.1
	c-0.6,0.3-1.4,0.3-2-0.1l-0.2-0.1l-0.1,0.1c-0.3,0.2-0.7,0.3-1.1,0.2l-1.2-0.2h-0.1l-0.6-0.1l-0.6,0.3c-0.5,0.2-1.1,0.2-1.6,0
	l-0.3-0.1l-0.3,0.1c-0.5,0.2-1,0.3-1.5,0.1l-1-0.4l-0.9-0.1H21l-0.8-0.2l-0.6,0.1l-1,0.3c-0.1,0-0.3,0.1-0.5,0.1l-1.1,0.1l-1.1,0.1
	h-0.1h-1.2c-0.3,0-0.6,0-0.8-0.1l-0.4-0.2l-0.4,0.2c-0.3,0.1-0.6,0.2-0.9,0.2l-2.2-0.1c-0.2,0-0.3,0-0.5-0.1l-0.8-0.2l-0.8,0.1H7.6
	H6.5l-2.2,0.1c-0.1,0-0.3,0-0.4,0L3,186.6l-0.9,0.1c-0.3,0.1-0.7,0-1-0.1L0,186.2l1.4-3.8l0.7,0.2l0.6-0.1c0.2,0,0.4,0,0.5,0l1,0.1
	l2.2-0.1h1.1l1-0.1c0.3,0,0.5,0,0.8,0.1l0.9,0.3l1.6,0.1l0.7-0.3c0.5-0.2,1.1-0.2,1.6,0l0.8,0.3h0.6l1.1-0.1h0.1h0.9l0.9-0.3
	c0.1,0,0.2,0,0.3-0.1l1.2-0.1c0.2,0,0.5,0,0.7,0l1,0.2l1,0.1c0.2,0,0.3,0.1,0.5,0.1l0.4,0.1l0.4-0.2c0.5-0.2,1.1-0.2,1.7,0l0.4,0.2
	l0.4-0.1c0.3-0.1,0.7-0.2,1.1-0.1l1.6,0.2l0.6-0.3c0.6-0.3,1.4-0.3,2,0.1l0.2,0.1l0.1-0.1c0.6-0.3,1.2-0.3,1.8,0l0.6,0.3l0.6-0.1
	h0.1l1.2-0.1c0.2,0,0.3,0,0.5,0l0.5,0.1l0.5-0.3c0.6-0.3,1.3-0.3,1.9,0l0.5,0.2l1.5-0.4c0.2-0.1,0.5-0.1,0.7-0.1l1.2,0.1
	c0.2,0,0.4,0.1,0.6,0.1l0.9,0.3l0.9,0.1l1.2,0.1H48l1-0.2h0.2l1.2-0.1h0.1l2-0.1l0.9-0.3c0.4-0.1,0.9-0.1,1.3,0.1l0.9,0.3l2.8,0.1
	l0.8-0.2c0.3-0.1,0.6-0.1,0.9-0.1l1,0.2H62l1-0.1c0.2,0,0.3,0,0.5,0l0.7,0.1l0.7-0.2c0.2-0.1,0.5-0.1,0.7-0.1l1.2,0.1
	c0.2,0,0.3,0,0.5,0.1l0.4,0.1l0.4-0.2c0.3-0.2,0.6-0.2,0.9-0.2h1.1l1.1-0.1c0.3,0,0.6,0,0.9,0.1l1.4,0.5l0.5-0.2
	c0.2-0.1,0.4-0.1,0.6-0.2l1.2-0.2c0.4,0,0.8,0,1.2,0.2l0.3,0.1l0.3-0.1c0.4-0.2,0.9-0.3,1.3-0.1l1.1,0.3l1.9,0.3l0.8-0.1
	c0.2,0,0.3,0,0.5,0h1l1-0.1c0.2,0,0.4,0,0.6,0l0.8,0.2l0.6-0.1l1-0.4c0.4-0.1,0.9-0.1,1.3,0l0.9,0.3H91l0.9-0.2
	c0.4-0.1,0.8-0.1,1.2,0.1l0.4,0.2l0.4-0.2c0.5-0.2,1-0.2,1.5,0l0.8,0.3H97h0.8l0.8-0.3c0.6-0.3,1.3-0.2,1.9,0.1l0.3,0.2l0.2-0.1
	c0.3-0.1,0.7-0.2,1.1-0.1l0.9,0.1h0.7l0.9-0.3c0.2-0.1,0.5-0.1,0.7-0.1l1.2,0.1h1.1c0.2,0,0.3,0,0.4,0.1l0.9,0.2l5.6-0.3
	c0.1,0,0.2,0,0.3,0l1,0.1h1c0.1,0,0.2,0,0.4,0l1.2,0.2l0.2,0.1l0.6,0.2l0.6-0.2c0.1,0,0.2,0,0.4-0.1l2.4-0.2c0.2,0,0.3,0,0.5,0
	l0.8,0.1l0.8-0.1c0.2,0,0.4,0,0.5,0l0.9,0.1l0.9-0.2c0.2,0,0.3,0,0.5,0l1.2,0.1c0.2,0,0.5,0.1,0.7,0.2l0.6,0.2l0.6-0.1h0.3h0.9
	l0.9-0.3c0.4-0.1,0.8-0.1,1.2,0l1.8,0.4l0.7-0.2c0.3-0.1,0.5-0.1,0.8,0l0.8,0.1l2-0.3c0.3-0.1,0.7,0,1,0.1l0.9,0.3h0.4l0.7-0.3
	c0.3-0.1,0.5-0.1,0.8-0.1h0.9l1-0.2c0.2,0,0.4,0,0.5,0l2.4,0.2c0.2,0,0.3,0,0.5,0.1l0.3,0.1l0.4-0.2c0.5-0.2,1-0.3,1.5-0.2l1.9,0.5
	l0.8-0.1c0.2,0,0.4,0,0.6,0l1,0.1h0.8l0.9-0.2c0.1,0,0.2,0,0.3,0h1l1-0.2c0.5-0.1,0.9-0.1,1.4,0.1l0.3,0.1l0.3-0.1
	c0.6-0.3,1.2-0.3,1.8,0l0.7,0.4h0.3l0.8-0.4c0.2-0.1,0.4-0.1,0.7-0.2l1.2-0.1c0.3,0,0.6,0,0.9,0.1l0.8,0.3h0.9l1,0.1l1-0.1
	c0.2,0,0.3,0,0.5,0l0.6,0.1l0.7-0.2c0.3-0.1,0.6-0.1,0.9-0.1l0.6,0.1l0.6-0.3c0.4-0.2,0.9-0.2,1.3-0.1l0.9,0.2h0.8l1-0.1
	c0.3,0,0.6,0,0.9,0.1l0.6,0.2l0.6-0.1c0.1,0,0.2,0,0.4,0h1.2h0.2l1.2,0.1c0.2,0,0.3,0,0.5,0.1l0.4,0.1l0.4-0.2
	c0.5-0.3,1.2-0.3,1.7-0.1l0.6,0.2l0.5-0.1c0.2,0,0.3-0.1,0.5-0.1h1.2c0.2,0,0.4,0,0.6,0.1l0.3,0.1l0.4-0.2c0.5-0.3,1.1-0.4,1.7-0.1
	l0.9,0.3h0.9h0.2l0.8,0.1l0.6-0.1l1-0.4c0.4-0.2,0.8-0.2,1.2-0.1l1.2,0.3h0.1l0.6,0.2l0.6-0.2c0.2,0,0.4-0.1,0.6-0.1l1.2,0.1h0.1
	l1.2,0.1h0.1l1,0.2h0.5l0.8-0.4c0.6-0.3,1.2-0.3,1.8,0l0.4,0.2l0.3-0.1c0.4-0.2,0.9-0.2,1.4,0l0.5,0.2l0.5-0.2c0.3-0.1,0.7-0.1,1,0
	l0.8,0.2l0.7-0.1l1.1-0.3c0.4-0.1,0.9-0.1,1.3,0.1l0.6,0.2l0.6-0.1c0.1,0,0.3,0,0.4,0l2.3-0.1c0.1,0,0.3,0,0.4,0l0.7,0.1l0.8-0.2
	c0.5-0.1,1-0.1,1.4,0.1l0.8,0.4h0.7l0.8-0.1l0.9-0.3c0.1,0,0.3-0.1,0.4-0.1l1.2-0.2c0.2,0,0.4,0,0.7,0l1.2,0.2l-0.8,3.9l-0.9-0.2
	l-0.6,0.1l-1,0.4c-0.2,0.1-0.4,0.1-0.6,0.1l-1.2,0.1h-0.2h-1.2c-0.3,0-0.6-0.1-0.8-0.2l-0.5-0.2l-0.4,0.1c-0.3,0.1-0.6,0.1-0.9,0.1
	l-1-0.2l-2,0.1l-1,0.2c-0.4,0.1-0.8,0.1-1.2-0.1l-0.5-0.2l-0.5,0.1h-0.2l-1.2,0.2c-0.2,0-0.5,0-0.8,0l-0.7-0.1l-0.7,0.2
	c-0.4,0.1-0.9,0.1-1.3-0.1l-0.5-0.2l-0.5,0.2c-0.5,0.2-1.1,0.2-1.6-0.1l-0.3-0.1l-0.3,0.1c-0.3,0.1-0.5,0.2-0.8,0.2H205
	c-0.1,0-0.3,0-0.4,0l-1.1-0.2l-1.8-0.1l-0.9,0.2c-0.3,0.1-0.7,0.1-1.1,0l-1.6-0.4l-0.6,0.2c-0.1,0.1-0.3,0.1-0.4,0.1l-1.2,0.2
	c-0.2,0-0.5,0-0.7,0l-1.1-0.2l-1.1-0.1c-0.2,0-0.4-0.1-0.6-0.1l-0.3-0.1l-0.4,0.2c-0.5,0.3-1.1,0.4-1.7,0.2l-0.9-0.3h-0.6l-0.9,0.2
	c-0.4,0.1-0.8,0.1-1.2-0.1l-0.3-0.1l-0.3,0.2c-0.5,0.3-1,0.3-1.5,0.1l-0.9-0.3h-0.8h-0.9l-1,0.2c-0.4,0.1-0.8,0.1-1.1-0.1l-0.7-0.3
	l-0.7,0.1H178h-1.2c-0.1,0-0.3,0-0.4-0.1l-0.5-0.1l-0.5,0.2c-0.3,0.2-0.7,0.2-1.1,0.2l-0.7-0.1l-0.7,0.2c-0.3,0.1-0.7,0.1-1,0.1
	l-0.9-0.2l-0.9,0.1c-0.1,0-0.2,0-0.3,0l-1.1-0.1h-1.1c-0.3,0-0.5,0-0.8-0.2l-0.7-0.3h-0.3l-0.9,0.4c-0.2,0.1-0.5,0.2-0.8,0.2h-1.2
	c-0.3,0-0.6-0.1-0.9-0.2l-0.3-0.1l-0.3,0.1c-0.6,0.3-1.2,0.3-1.8,0l-0.5-0.2l-0.5,0.1c-0.1,0-0.3,0.1-0.4,0.1h-1l-1,0.2
	c-0.1,0-0.3,0-0.4,0h-1.2h-0.3l-0.9-0.1l-0.9,0.1c-0.3,0.1-0.5,0.1-0.8,0l-1.6-0.4l-0.5,0.2c-0.5,0.3-1.1,0.3-1.6,0.1l-0.9-0.3
	l-1.8-0.2l-0.9,0.2c-0.1,0-0.3,0-0.4,0h-0.8l-0.8,0.3c-0.3,0.1-0.6,0.2-0.9,0.1l-1.2-0.1c-0.2,0-0.3-0.1-0.5-0.1l-0.7-0.2l-1.8,0.3
	c-0.2,0-0.5,0-0.7,0l-0.8-0.1l-0.8,0.2c-0.3,0.1-0.6,0.1-0.9,0l-1.8-0.4l-0.6,0.2c-0.2,0.1-0.4,0.1-0.6,0.1h-1l-1,0.2
	c-0.4,0.1-0.8,0-1.2-0.1l-0.8-0.4h-0.6l-0.9,0.2c-0.2,0-0.4,0-0.6,0l-0.9-0.1l-0.9,0.1c-0.2,0-0.4,0-0.6,0l-0.9-0.2l-1.9,0.1l-1,0.3
	c-0.4,0.1-0.7,0.1-1.1,0l-1.1-0.3l-0.9-0.2h-1l-1-0.1l-5.6,0.3c-0.2,0-0.4,0-0.6,0l-0.9-0.2h-0.9h-0.9l-0.8,0.3
	c-0.2,0.1-0.3,0.1-0.5,0.1l-1.2,0.1c-0.2,0-0.3,0-0.5,0l-0.6-0.1l-0.6,0.3c-0.6,0.2-1.3,0.2-1.8-0.1l-0.3-0.2l-0.2,0.1
	c-0.3,0.1-0.6,0.2-0.9,0.2h-1.2h-1.1c-0.2,0-0.5,0-0.7-0.1l-0.4-0.2l-0.4,0.2c-0.5,0.2-1.1,0.2-1.6,0l-0.6-0.2l-0.5,0.1
	c-0.1,0-0.3,0-0.4,0H90c-0.2,0-0.4,0-0.6-0.1l-0.5-0.2l-0.5,0.2l-0.3,0.1l-1.2,0.2c-0.3,0.1-0.6,0.1-0.8,0l-0.9-0.2l-0.9,0.1H84
	h-0.9l-0.9,0.2c-0.2,0-0.5,0-0.7,0l-2.3-0.4H79l-0.4-0.1l-0.5,0.2c-0.6,0.3-1.2,0.3-1.8,0l-0.6-0.3h-0.2l-0.9,0.4
	C74.3,187.1,74,187.1,73.7,187z"/>
<path class="st2" d="M171,143.1c-0.2,0-0.4,0-0.6-0.1l-0.1-0.1l-0.1,0.1c-0.4,0.2-0.9,0.2-1.4-0.1c-0.2,0.1-0.4,0.2-0.7,0.2h-0.8
	c-0.1,0-0.2,0-0.4,0l-0.7-0.1l-1.1-0.1l-0.5,0.1c-0.3,0.1-0.6,0.1-0.9,0l-0.8-0.3l-0.2,0.1c-0.1,0.1-0.2,0.1-0.3,0.1l-0.8,0.2
	c-0.2,0-0.4,0-0.6,0l-0.6-0.1h-0.6c-0.2,0-0.3,0-0.5-0.1l-0.1,0.1c-0.4,0.3-1,0.3-1.4,0.1l-0.5-0.2h-0.2l-0.5,0.1
	c-0.4,0.1-0.7,0.1-1.1-0.1l0,0c-0.4,0.2-0.9,0.3-1.3,0.1l-0.5-0.2h-0.4h-0.5l-0.6,0.2c-0.3,0.1-0.7,0.1-1-0.1l-0.4-0.2h-0.3
	c-0.1,0-0.1,0-0.2,0h-0.7c-0.1,0-0.3,0-0.4-0.1H149l-0.2,0.1c-0.3,0.2-0.6,0.2-0.9,0.2l-0.3-0.1l-0.3,0.1c-0.3,0.1-0.6,0.1-0.9,0.1
	l-0.5-0.1h-0.5h-0.3l-0.7-0.1h-0.7c-0.2,0-0.5,0-0.7-0.2l-0.4-0.2l0,0l-0.5,0.2c-0.2,0.1-0.4,0.2-0.7,0.2h-0.7
	c-0.3,0-0.5-0.1-0.7-0.2c-0.5,0.3-1.1,0.3-1.5,0l-0.2-0.1h-0.1c-0.1,0-0.2,0.1-0.4,0.1h-0.6l-0.7,0.2c-0.1,0-0.2,0-0.3,0h-0.8H135
	l-0.3-0.1c-0.8-0.1-1.3-0.9-1.2-1.7v-0.3l-0.1-0.5c-0.1-0.2-0.1-0.4,0-0.6c0.1-0.3,0.2-0.6,0.2-0.9v-0.1l-0.1-0.1
	c-0.3-0.4-0.3-0.9-0.1-1.4l0.2-0.5l0.1-1l-0.1-0.5c0-0.1,0-0.2,0-0.4v-0.4l-0.2-0.4c-0.1-0.3-0.2-0.5-0.1-0.8l0.1-0.8
	c0-0.1,0.1-0.3,0.1-0.4l0.1-0.3l-0.2-1c0-0.2,0-0.4,0-0.6l0.1-0.4l-0.1-0.4c-0.1-0.3-0.1-0.6,0-0.8l0.3-1l-0.1-0.2
	c-0.1-0.2-0.1-0.3-0.1-0.5v-0.6l-0.1-0.6c-0.1-0.3,0-0.7,0.1-1l0.2-0.5v-0.2l-0.1-0.5c0-0.2,0-0.3,0-0.5l0.1-0.5l-0.1-0.5
	c0-0.2,0-0.4,0-0.6l0.1-0.5l-0.1-1.1l-0.2-0.6c-0.1-0.3-0.1-0.6,0-0.9l0.2-0.7l0.1-0.5v-0.6c0-0.1,0-0.1,0-0.2l0.1-0.6l-0.2-3.5
	c0-0.2,0-0.3,0.1-0.5l0.1-0.5v-0.5V110l-0.2-0.4c-0.1-0.1-0.1-0.3-0.1-0.4l-0.1-0.7c0-0.1,0-0.3,0-0.4v-0.2l-0.1-0.3
	c-0.2-0.5-0.2-1.1,0.1-1.5c-0.1-0.2-0.1-0.4-0.1-0.6v-0.7v-0.7c0-0.2,0-0.4,0.1-0.6v-0.1l-0.1-0.1c-0.2-0.4-0.2-0.9,0-1.3l0.1-0.2
	l-0.1-0.2c0-0.1,0-0.3,0-0.4v-0.7c0-0.2,0-0.4,0.1-0.5l0.1-0.2l-0.1-0.2c0-0.1-0.1-0.1-0.1-0.2l-0.2-0.7c-0.1-0.2-0.1-0.5,0-0.7
	l0.1-0.5l-0.1-0.5c0-0.1,0-0.2,0-0.2v-0.6l-0.1-0.7c0-0.2,0-0.4,0-0.6l0.1-0.5c0.2-0.8,0.9-1.3,1.7-1.2l1.2,0.2h0.1l0.2,0.1l0.2-0.1
	c0.5-0.3,1-0.3,1.5,0l0.2,0.2l0.5-0.3c0.4-0.2,0.8-0.2,1.2-0.1l0.7,0.2l0.2,0.1l0.4,0.2h0.3h0.6l0.4-0.2c0.4-0.3,0.9-0.3,1.3-0.1
	l0.5,0.2h0.2l0.4-0.2c0.3-0.1,0.5-0.1,0.8,0l0.5,0.1h0.5h0.2h0.7h0.2l0.4,0.1l0.4-0.1c0.2-0.1,0.4-0.1,0.6-0.1l2.3,0.2
	c0.2,0,0.3,0.1,0.5,0.1l0.2,0.1l0.2-0.1c0.1,0,0.3-0.1,0.4-0.1l2.1-0.1l0.7-0.1c0.1,0,0.2,0,0.4,0h0.8h0.1l1.4,0.2
	c0.2,0,0.3,0,0.5,0.1l0.5,0.2h0.2l1.3-0.4c0.4-0.1,0.8-0.1,1.2,0.1c0.3-0.2,0.7-0.2,1.1-0.2l0.5,0.1l1.2-0.1c0.3,0,0.6,0,0.9,0.2
	c0.5-0.3,1.1-0.3,1.6,0c0.3-0.1,0.5-0.2,0.8-0.1l0.7,0.1h0.1h0.3l0.3-0.1c0.4-0.2,0.9-0.2,1.4,0l0,0l0,0c0.4-0.2,0.9-0.2,1.3-0.1
	l0.6,0.2l0.5,0.1c0.1,0,0.2,0,0.2,0l0.4,0.1h0.3l0.6-0.2c0.1,0,0.3-0.1,0.4-0.1l1.4-0.1h0.1h0.7c0.3,0,0.5,0,0.7,0.2h0.1h0.1
	c0.2-0.1,0.5-0.2,0.8-0.2l1.4,0.1c0.2,0,0.3,0,0.4,0.1l0.4,0.2h0.4h0.9l1.3-0.1c0.1,0,0.2,0,0.3,0l0.5,0.1l0.5-0.1
	c0.3,0,0.6,0,0.8,0.1l0.7,0.3l-1.1,2.5l0,0l-0.1,0.2l-0.3-0.1H185c-0.2,0-0.3,0-0.5,0l-0.6-0.1l-1.4,0.1h-0.7l-0.6,0.1
	c-0.2,0-0.5,0-0.7-0.1l-0.5-0.2l-0.9-0.1l-0.4,0.2c-0.4,0.2-0.9,0.2-1.3,0l-0.4-0.2h-0.3l-1.3,0.1l-0.6,0.2c-0.1,0-0.2,0.1-0.3,0.1
	l-0.7,0.1c-0.2,0-0.4,0-0.6,0l-0.6-0.2l-0.6-0.1c-0.1,0-0.3,0-0.4-0.1h-0.1l-0.1,0.1c-0.4,0.2-1,0.2-1.4,0h0h-0.1
	c-0.3,0.1-0.6,0.2-0.9,0.1l-0.9-0.2l-0.3,0.2c-1,0-2,0-3-0.1l-0.3-0.2h-0.2h-0.1h-0.7c-0.1,0-0.3,0-0.4,0H163l-0.2,0.1
	c-0.5,0.3-1.1,0.3-1.6,0l-0.1-0.1l-0.8,0.3c-0.2,0.1-0.4,0.1-0.6,0.1l-0.7-0.1c-0.2,0-0.3,0-0.5-0.1l-0.5-0.2l-1.7-0.2l-0.6,0.1
	h-0.2l-0.7,0.1h-0.1h-1.2l-0.6,0.2c-0.4,0.1-0.8,0.1-1.1,0l-0.5-0.2l-1.6-0.1l-0.5,0.2c-0.2,0.1-0.5,0.1-0.8,0.1l-0.6-0.1h-0.5
	l-0.6,0.1c-0.1,0-0.3,0-0.4,0l-0.3-0.1l-0.4,0.1c-0.2,0.1-0.4,0.1-0.6,0.1h-0.7c-0.2,0-0.3,0-0.4-0.1l0,0l-0.1,0.1
	c-0.2,0.1-0.5,0.2-0.8,0.2h-1l-0.7,0.1c-0.3,0-0.5,0-0.8-0.1l-0.7-0.3l-0.2,0.1c-0.2,0.1-0.3,0.1-0.5,0.2l-0.7,0.1
	c-0.3,0.1-0.7,0-1-0.2c-0.3,0.2-0.7,0.2-1.1,0.1v0.3l0.1,0.6c0,0.2,0,0.3,0,0.5l-0.1,0.4l0.1,0.3l0.3,0.6c0.1,0.4,0.1,0.8,0,1.1
	l-0.2,0.5v0.3l0.1,0.6c0.1,0.4,0.1,0.7-0.1,1.1v0.1v0.1c0.2,0.4,0.2,0.9,0,1.3l-0.2,0.4v0.8l0.2,0.4c0.3,0.5,0.2,1.1-0.1,1.6l0,0
	c0.1,0.3,0.2,0.6,0.1,0.9l-0.1,0.5v0.3l0.2,0.5c0.1,0.2,0.1,0.4,0.1,0.6v0.7v0.7c0,0.1,0,0.3-0.1,0.4l-0.1,0.5l0.2,3.5
	c0,0.1,0,0.2,0,0.3l-0.1,0.6v0.6c0,0.1,0,0.2,0,0.3l-0.2,0.7c0,0.1,0,0.1-0.1,0.2l-0.1,0.3l0.1,0.3c0,0.1,0.1,0.2,0.1,0.3l0.1,1.5
	c0,0.1,0,0.3,0,0.4l-0.1,0.5l0.1,0.4c0,0.2,0,0.3,0,0.5l-0.1,0.5l0.1,0.5c0,0.1,0,0.3,0,0.4v0.8c0,0.2-0.1,0.4-0.1,0.6l-0.1,0.2
	l0.1,0.2c0,0.1,0,0.2,0,0.3v0.5l0.2,0.5c0.1,0.3,0.1,0.7,0,1l-0.3,1l0.1,0.3c0.1,0.2,0.1,0.5,0,0.7l-0.1,0.4l0.2,1.2
	c0.1,0.3,0,0.6-0.1,0.9l-0.2,0.7l0.2,0.4c0.1,0.2,0.1,0.4,0.1,0.7v0.6l0.1,0.6c0,0.2,0,0.3,0,0.5l-0.2,1.5c0,0.1-0.1,0.3-0.1,0.4
	l0,0l0.1,0.1c0.2,0.4,0.3,0.8,0.2,1.3l-0.2,0.8c0,0,0,0,0,0.1h0.1h0.3h0.6l0.6-0.2c0.4-0.1,0.8-0.1,1.1,0.1c0.5-0.3,1.1-0.3,1.5,0
	l0.4,0.2l0.4-0.2c0.2-0.1,0.4-0.1,0.6-0.2l0.8-0.1c0.3,0,0.5,0,0.8,0.1l0.4,0.2h0.5l0.6,0.1l0.6-0.1c0.1,0,0.3,0,0.4,0l0.3,0.1
	l0.3-0.1c0.3-0.1,0.5-0.1,0.8-0.1h0.2l0.3-0.1c0.3-0.2,0.7-0.2,1.1-0.1l0.6,0.1h0.4l0.6-0.1c0.3,0,0.5,0,0.8,0.1l0.3,0.1l0.2-0.1
	c0.1,0,0.2,0,0.3-0.1h0.8h0.1l0.8,0.1c0.2,0,0.3,0,0.4,0.1h0.1l0.1-0.1c0.4-0.3,1-0.3,1.4-0.1l0.2,0.1h0.2c0.1,0,0.3-0.1,0.4-0.1
	h0.7c0.2,0,0.4,0,0.5,0.1h0.1c0.4-0.3,1-0.4,1.4-0.1l0.5,0.2h0.5h0.2l0.4,0.1l0.3-0.1l0.6-0.3c0.3-0.2,0.7-0.2,1-0.1l0.8,0.2h0.1
	l0.3,0.1l0.3-0.1c0.2,0,0.3-0.1,0.5-0.1h0.8h0.1l0.8,0.1h0.1l0.6,0.1h0.2l0.4-0.2c0.5-0.3,1.1-0.3,1.5,0l0.1,0.1l0,0
	c0.4-0.2,0.8-0.2,1.2,0l0.2,0.1l0.2-0.1c0.3-0.1,0.6-0.1,0.9,0l0.4,0.1l0.3-0.1l0.7-0.2c0.4-0.1,0.8-0.1,1.1,0.1l0.2,0.1h0.2
	c0.1,0,0.2,0,0.3-0.1l1.4-0.1c0.1,0,0.3,0,0.4,0l0.4,0.1l0.4-0.1c0.4-0.1,0.8-0.1,1.2,0.1l0.4,0.2h0.3h0.4l0.5-0.2
	c0.1,0,0.2-0.1,0.3-0.1l0.8-0.1c0.2,0,0.4,0,0.6,0l0.8,0.2l-0.7,2.9l-0.5-0.1l-0.3,0.1l-0.6,0.2c-0.2,0.1-0.3,0.1-0.5,0.1l-0.8,0.1
	h-0.2h-0.8c-0.2,0-0.5-0.1-0.7-0.2l-0.2-0.1h-0.1c-0.2,0.1-0.5,0.1-0.8,0l-0.6-0.1l-1.2,0.1l-0.6,0.2c-0.4,0.1-0.7,0.1-1.1-0.1
	l-0.2-0.1l-0.2,0.1h-0.2l-0.8,0.1c-0.2,0-0.4,0-0.6,0l-0.3-0.1l-0.3,0.1C171.3,143,171.2,143,171,143.1z"/>
<path class="st6" d="M68,64.1c-0.2,0-0.3,0-0.5-0.1l-1.1-0.4l-0.2-0.1l-1-0.5H64c-0.2,0-0.3-0.1-0.5-0.1l-0.6-0.2h-0.6
	c-0.2,0-0.4-0.1-0.7-0.2l-1.3-0.7h-0.5c-0.1,0-0.3,0-0.4,0l-0.8-0.2h-0.8c-0.3,0-0.6-0.1-0.8-0.3l-0.6-0.4L56,60.7l-0.8-0.1
	c-0.1,0-0.3,0-0.4-0.1l-0.7-0.2l-0.7-0.1c-0.2,0-0.3-0.1-0.5-0.1l-0.7-0.3l-1.5-0.3H50c-0.3,0-0.5-0.1-0.8-0.2l-0.8-0.4l-0.6-0.3
	L47,58.4h-0.2l-0.2-0.1h-0.3l-4.4,0.2c-0.1,0-0.3,0-0.4,0L41,58.4c-0.3,0-0.6,0-0.8,0l-0.7-0.1l0,0c-0.3,0.1-0.5,0.1-0.8,0.2
	c-0.1,0-0.2,0-0.3,0l-0.9-0.1c-0.1,0-0.2,0-0.3-0.1l-0.5-0.2h-0.4H36c-0.5,0.1-0.9-0.1-1.3-0.4l-0.2-0.2h-0.3c-0.2,0-0.4,0-0.6-0.1
	l-0.8-0.3c-0.3-0.1-0.7-0.2-1-0.4c-0.1-0.1-0.3-0.2-0.4-0.3l-0.3-0.3c-0.2,0-0.4,0-0.6-0.1c-0.4-0.1-0.7-0.3-0.9-0.6L29.3,55l-0.6,0
	c-0.1,0-0.3-0.1-0.4-0.2l-0.7-0.5c-0.1-0.1-0.2-0.2-0.3-0.3L27,53.6l-0.2-0.1l-0.3-0.2c-0.1,0-0.1-0.1-0.2-0.1l-0.8-0.5
	c-0.1-0.1-0.3-0.2-0.4-0.3c-0.2-0.2-0.4-0.5-0.5-0.8L24,51l-0.1-0.1c-0.2-0.3-0.4-0.5-0.6-0.7l-0.5-0.5c-0.1-0.1-0.2-0.3-0.3-0.4
	c0-0.1-0.1-0.1-0.1-0.2c-0.1-0.2-0.3-0.5-0.3-0.8l-0.3-0.8v-0.1L21.7,47l-0.4-0.3c-0.4-0.3-0.6-0.7-0.6-1.2v-0.6l-0.1-0.2v-0.1
	L19.8,44c-0.2-0.2-0.4-0.5-0.4-0.8c0-0.4-0.1-0.8-0.1-1.2c0-0.1,0-0.1,0-0.2l0.1-0.6c-0.1-0.2-0.2-0.5-0.2-0.8l-0.1-0.6l-0.4-0.6
	c-0.3-0.4-0.3-0.8-0.2-1.2l0.2-0.8v-0.5c-0.1-0.2-0.1-0.4-0.2-0.6v-0.2c-0.1-0.2-0.1-0.5,0-0.7l0.2-0.7c0-0.3,0-0.6,0-0.9l0.2-1
	c0-0.1,0-0.1,0-0.2l0.2-0.6v-0.7c0-0.2,0-0.3,0.1-0.5l0.2-0.9c0.1-0.2,0.2-0.5,0.3-0.7c0-0.1,0.1-0.2,0.1-0.2l0.4-0.9
	c0-0.1,0.1-0.2,0.2-0.3c0.1-0.2,0.3-0.3,0.4-0.5l0.1-0.4c0-0.1,0.1-0.2,0.1-0.3l0.1-0.2c0.1-0.3,0.2-0.6,0.4-0.8l0.5-1
	c0.1-0.2,0.2-0.4,0.3-0.6l0.4-0.8c0-0.1,0.1-0.2,0.2-0.2l0.6-0.7c0.1-0.1,0.1-0.1,0.2-0.2l1.3-1.2c0.1-0.1,0.2-0.2,0.3-0.2
	c0.2-0.1,0.5-0.2,0.8-0.4H26l0.3-0.3c0.2-0.3,0.3-0.5,0.5-0.7l0.6-0.8c0.2-0.1,0.6-0.3,0.9-0.4h0.3l0.1-0.2c0.3-0.3,0.6-0.5,0.9-0.7
	l0.3-0.1l0.5-0.2l1.4-0.8c0.3-0.2,0.6-0.3,0.9-0.2H33l0.2-0.2c0.3-0.4,0.8-0.5,1.3-0.5c0.1,0,0.3,0,0.4,0.1L35,15
	c0.2-0.2,0.4-0.3,0.7-0.3c0.4-0.1,0.8-0.1,1.1-0.1h0.5c0.2-0.1,0.4-0.2,0.6-0.3c0.4-0.2,0.8-0.2,1.2,0l0.3,0.1l0.3-0.2
	c0.5-0.2,0.9-0.2,1.2-0.2c0.2,0.1,0.5,0.1,0.7,0.2h0.2l0.7,0.1h0.2l0.6,0.1l0.5-0.1l0.8-0.2c0.1,0,0.2,0,0.3,0l1.8-0.1h0.1h0.9
	c0.2,0,0.4,0,0.6,0.1l0.3,0.1l0.3-0.1c0.3,0,0.5-0.1,0.7-0.1l1.8,0.1c0.1,0,0.3,0,0.4,0.1l0.6,0.2l0.6-0.1h0.2H54l1.7-0.1H56
	l0.7,0.1l0.7-0.1c0.2,0,0.5,0,0.7,0.1l0.8,0.3l0.1-0.3l0.7,0.2h0.5l0.7-0.1h0.3c0.1,0,0.3,0,0.4,0l0.9,0.1c0.4,0.1,0.8,0.2,1.2,0.3
	c0.2,0,0.3,0.1,0.5,0.2l0.4,0.3c0.2,0,0.4,0,0.6,0s0.4,0.1,0.5,0.2l0.7,0.4l0.7,0.1l0.2,0.1l0.7,0.3l0.8,0.2
	c0.3,0.1,0.6,0.2,0.8,0.5c0.1,0.2,0.3,0.3,0.4,0.5l0.4,0.1c0.3,0.1,0.6,0.2,0.9,0.4l0.2,0.1c0.2,0.1,0.3,0.2,0.4,0.3l0.3,0.5
	c0.2,0.1,0.5,0.2,0.7,0.3c0.3,0.1,0.5,0.4,0.6,0.6l0.2,0.4c0.2,0.1,0.4,0.2,0.6,0.3c0.3,0.2,0.6,0.5,0.7,0.9l0.1,0.3l0.4,0.2
	c0.2,0.1,0.4,0.2,0.5,0.4l0.6,0.7c0.1,0.1,0.1,0.2,0.2,0.2l1.1,2.2c0.1,0.1,0.2,0.3,0.3,0.4l0.2,0.2c0.2,0.2,0.3,0.5,0.4,0.7
	l0.2,0.9c0,0.2,0.1,0.4,0.1,0.6l0.3,0.4c0.1,0.1,0.1,0.2,0.2,0.2l0.1,0.2c0.2,0.3,0.3,0.6,0.4,0.8c0.1,0.1,0.1,0.3,0.1,0.4l0.1,1.1
	c0,0.2,0.1,0.4,0.1,0.7c0,0.2,0,0.3,0,0.5l-0.1,0.3l0.2,0.3c0.3,0.3,0.4,0.8,0.3,1.2c-0.1,0.3-0.1,0.5-0.2,0.8v0.1v0.5
	c0.1,0.3,0.2,0.6,0.2,0.9s0,0.6-0.1,0.8l-0.1,0.3c0,0.1,0.1,0.3,0.2,0.4c0.1,0.4,0.1,0.8-0.1,1.1L80.4,40c0,0.2-0.1,0.5-0.2,0.7v0.1
	l-0.1,0.7c0,0.2,0,0.4,0,0.6s0,0.2,0,0.3c0,0.3-0.1,0.6-0.3,0.8l-0.4,0.5L79.3,44l-0.1,0.3c0,0.1,0,0.1-0.1,0.2l-0.3,0.8
	c-0.1,0.1-0.1,0.3-0.2,0.4L78.3,46c0,0.2,0,0.4,0,0.6c0,0.3-0.1,0.5-0.3,0.7l-0.3,0.4c-0.1,0.2-0.1,0.5-0.2,0.8
	c-0.1,0.2-0.2,0.4-0.4,0.6l-0.5,0.5c-0.2,0.3-0.3,0.5-0.5,0.7L76,50.6l-0.6,0.6c-0.2,0.2-0.3,0.3-0.5,0.5l-0.2,0.2
	c-0.1,0.1-0.3,0.3-0.5,0.3l-0.6,0.3c-0.1,0.1-0.2,0.2-0.2,0.2l0,0c-0.1,0.2-0.2,0.5-0.4,0.7c-0.1,0.2-0.2,0.3-0.4,0.5l-0.7,0.6
	c-0.2,0.1-0.4,0.2-0.7,0.3l-0.2,0l0,0l-0.2,0.3c-0.2,0.4-0.6,0.6-1.1,0.7c-0.2,0-0.4,0.1-0.6,0.1l-0.3,0.3c-0.1,0.1-0.1,0.1-0.2,0.2
	c-0.3,0.2-0.6,0.3-0.8,0.4c-0.2,0.2-0.4,0.3-0.5,0.4c-0.1,0.1-0.2,0.1-0.3,0.2h-0.1v0.1c0.2,0.1,0.4,0.2,0.6,0.4
	c0.3,0.2,0.5,0.5,0.6,0.8c0.1,0.2,0.1,0.5,0.2,0.7l0.5,0.8l0.7,0.7l0.2,0.2l0.3,0.5c0.5,0.7,0.3,1.6-0.4,2.1
	c-0.1,0.1-0.2,0.1-0.3,0.2L69.2,64C68.8,64,68.4,64.1,68,64.1z M64.5,60l0.7,0.1c0,0,0,0,0-0.1l0,0l-0.3-0.2
	c-0.3-0.2-0.6-0.4-0.8-0.8L64,58.8c-0.1-0.2-0.2-0.5-0.3-0.7s-0.1-0.2-0.1-0.4l-0.3-0.3l0,0c-0.6-0.6-0.7-1.5-0.1-2.1l0.1-0.1
	c0.1-0.1,0.2-0.1,0.3-0.2c0.2-0.1,0.4-0.2,0.5-0.2l0.8-0.2l0.2-0.1l0.2-0.1l0.5-0.4c0.1-0.1,0.2-0.1,0.3-0.2
	c0.2-0.1,0.4-0.2,0.6-0.3l0.6-0.5c0.3-0.2,0.6-0.4,1-0.4h0.1l0.1-0.2c0.3-0.4,0.7-0.7,1.2-0.7c0.2,0,0.3,0,0.5-0.1l0.2-0.1
	c0.1-0.1,0.1-0.2,0.2-0.3l0.1-0.2c0.1-0.1,0.2-0.3,0.3-0.4l0.2-0.2c0.1-0.1,0.2-0.2,0.3-0.3c0.1-0.2,0.3-0.3,0.5-0.4l0.6-0.3
	c0.1-0.1,0.2-0.2,0.3-0.3L73,49l0.6-0.6c0.1-0.2,0.2-0.3,0.3-0.5c0.1-0.1,0.1-0.2,0.2-0.3l0.4-0.4l0.1-0.3v-0.2
	c0.1-0.2,0.1-0.4,0.3-0.6l0.3-0.4c0,0,0-0.1,0-0.2v-0.3c0-0.3,0.1-0.6,0.3-0.9l0.4-0.6l0.3-0.8c0-0.2,0.1-0.3,0.1-0.5
	s0.1-0.4,0.3-0.6l0.3-0.4c0-0.1,0-0.2,0-0.3s0-0.2,0-0.3l0.2-0.9v-0.1v-0.2c0.1-0.2,0.1-0.4,0.1-0.6c0-0.1,0.1-0.3,0.1-0.4l0.1-0.3
	l-0.1-0.2c-0.2-0.4-0.2-0.9,0-1.3l0.2-0.4c0-0.1,0-0.2-0.1-0.3c0-0.1-0.1-0.3-0.1-0.4v-0.9c0-0.1,0-0.3,0.1-0.4c0-0.1,0-0.1,0-0.2
	L77.2,34c-0.3-0.3-0.4-0.8-0.3-1.2l0.1-0.7c0-0.1,0-0.2,0-0.2l-0.1-0.4v-0.1l-0.1-0.7c-0.1-0.1-0.1-0.2-0.2-0.3v-0.1L76.4,30
	c-0.2-0.2-0.3-0.5-0.4-0.8c0-0.2-0.1-0.5-0.1-0.7c0-0.1,0-0.1,0-0.2l-0.1-0.5c-0.1-0.1-0.1-0.2-0.2-0.2c-0.1-0.1-0.2-0.2-0.3-0.4
	l-1.2-2.4l-0.3-0.3l-0.3-0.1l-0.3-0.1c-0.4-0.2-0.7-0.6-0.8-1L72.3,23l-0.2-0.1c-0.3-0.1-0.6-0.4-0.7-0.7l-0.2-0.4l-0.3-0.1
	c-0.2-0.1-0.5-0.2-0.6-0.4l-0.4-0.5c-0.1-0.1-0.3-0.1-0.4-0.2l-0.8-0.2c-0.4-0.2-0.7-0.4-0.9-0.7l-0.2-0.3l-0.1-0.1l-0.4-0.1
	c-0.1,0-0.2-0.1-0.3-0.1l-0.7-0.3l-0.8-0.2c-0.1,0-0.2-0.1-0.3-0.1l-0.5-0.3H64c-0.3,0-0.7-0.1-0.9-0.3l-0.5-0.4l-0.4-0.1l-0.6-0.1
	h-0.2c-0.1,0-0.3,0-0.4,0.1c-0.1,0-0.2,0.1-0.3,0.1l-0.9,0.1c-0.2,0-0.3,0-0.5,0l-0.9-0.2l0.5-2l-0.9,2l-0.6-0.2l-0.5,0.1
	c-0.1,0-0.3,0-0.4,0l-0.8-0.1L54,17.3h-0.9l-0.8,0.1c-0.2,0-0.4,0-0.6-0.1L51,17.1L49.8,17l-0.6,0.2c-0.4,0.2-0.8,0.2-1.1,0L47.5,17
	H47l-1.7,0.2l-0.7,0.2h-0.2l-0.9,0.1c-0.2,0-0.3,0-0.5,0l-0.8-0.2l-0.8-0.1c-0.1,0-0.2,0-0.3-0.1L40.8,17l-0.3,0.2
	c-0.4,0.2-0.8,0.2-1.2,0.1L39,17.2l-0.2,0.1c-0.2,0.1-0.5,0.2-0.7,0.2h-0.9H37L36.2,18c-0.4,0.3-0.9,0.5-1.4,0.3h-0.1l-0.1,0.1
	c-0.3,0.3-0.8,0.5-1.2,0.5h-0.5L32.6,19l-0.9,0.5c-0.1,0.1-0.2,0.1-0.3,0.1s-0.2,0-0.2,0.1l-0.3,0.4c-0.3,0.4-0.7,0.7-1.2,0.7h-0.3
	l-0.2,0.3c-0.1,0.2-0.3,0.4-0.4,0.6c-0.1,0.2-0.2,0.3-0.4,0.4l-0.7,0.6c-0.1,0.1-0.2,0.2-0.3,0.2L27,23.1l-0.3,0.1l-1.1,1l-0.4,0.5
	l-0.3,0.7l-0.1,0.1c-0.1,0.1-0.1,0.3-0.2,0.4l-0.2,0.3L24,27c-0.1,0.1-0.1,0.3-0.2,0.4l0,0l-0.1,0.8c-0.1,0.3-0.2,0.6-0.5,0.9
	l-0.4,0.4l-0.3,0.6c0,0.1-0.1,0.2-0.1,0.3c-0.1,0.1-0.1,0.2-0.1,0.4L22,31.4v0.7c0,0.2,0,0.3-0.1,0.5l-0.2,0.8l-0.2,0.8
	c0,0.1,0,0.2,0,0.4v0.2c0,0.1,0,0.2,0,0.3l-0.1,0.6c0,0.1,0.1,0.2,0.1,0.4c0.1,0.2,0.1,0.4,0.1,0.6v0.9c0,0.1,0,0.2,0,0.4l-0.1,0.3
	l0.2,0.3c0.1,0.2,0.2,0.4,0.2,0.7l0.1,0.9c0,0.1,0.1,0.2,0.1,0.4l0.1,0.3c0.1,0.2,0.1,0.4,0.1,0.6l-0.1,0.9v0.2l0.3,0.3
	c0.1,0.1,0.2,0.2,0.2,0.3c0.1,0.1,0.1,0.2,0.2,0.3c0.1,0.1,0.1,0.2,0.2,0.4c0.2,0.2,0.3,0.5,0.2,0.8V45l0.2,0.2
	c0.2,0.2,0.4,0.4,0.5,0.7l0.3,0.8l0.3,0.8c0.1,0.1,0.1,0.3,0.2,0.4V48l0.5,0.5c0.1,0.1,0.2,0.2,0.2,0.3c0.1,0.2,0.2,0.3,0.3,0.5
	l0.6,0.6c0.1,0.1,0.2,0.2,0.3,0.3l0.1,0.2l0.2,0.3l0.7,0.4c0.2,0.1,0.3,0.1,0.4,0.2c0.3,0.1,0.6,0.3,0.8,0.5l0.4,0.6l0.4,0.3
	l0.7,0.2c0.3,0.1,0.5,0.3,0.7,0.5l0.2,0.2h0.3c0.4,0,0.7,0.2,1,0.4l0.5,0.5l0.4,0.2l0.6,0.2c0.2,0,0.3,0,0.5,0
	c0.5-0.1,1,0.1,1.3,0.4l0.2,0.2h0.2c0.2-0.1,0.5-0.1,0.7,0l0.7,0.2h0.5l0.3-0.1l0.4-0.1c0.2,0,0.3,0,0.5,0l0.9,0.1
	c0.2,0,0.5,0,0.7,0c0.1,0,0.2,0,0.4,0l0.7,0.2l4.3-0.2h0.2l0.6,0.1c0.1,0,0.2,0,0.3,0.1l0.2,0.1l0.8,0.2c0.1,0,0.2,0,0.2,0.1
	l0.8,0.4l0.1,0.1l0.5,0.3H51h0.3l1.8,0.3c0.1,0,0.2,0.1,0.3,0.1l0.6,0.3l0.7,0.1c0.1,0,0.3,0,0.4,0.1l0.7,0.2h0.7
	c0.1,0,0.2,0,0.3,0.1l0.9,0.3c0.2,0.1,0.3,0.1,0.5,0.2l0.4,0.3H59c0.1,0,0.2,0,0.2,0l0.7,0.1l0.7-0.1c0.3,0,0.6,0,0.8,0.2l1.3,0.7
	h0.5c0.2,0,0.4,0.1,0.6,0.1L64.5,60z"/>
<circle class="st7" cx="49.2" cy="36.4" r="12.3"/>
<path class="st4" d="M51.5,42.1v1.6h-4.7v-1.6h1.4V35h-1.4v-1.6h3.3v8.8h1.4V42.1z M50.1,31.5h-2.2v-2.4h2.2V31.5z"/>
<path class="st4" d="M51.8,43.9h-5.2v-2.1H48v-6.6h-1.4V33h3.8v8.8h1.4V43.9z M47.1,43.4h4.2v-1.1h-1.4v-8.8h-2.8v1.1h1.4v7.6h-1.4
	V43.4z M50.4,31.7h-2.7v-2.9h2.7V31.7z M48.1,31.2h1.7v-1.8h-1.7V31.2z"/>
</svg>
