<?xml version="1.0" encoding="utf-8"?>
<!-- Generator: Adobe Illustrator 26.0.3, SVG Export Plug-In . SVG Version: 6.00 Build 0)  -->
<svg version="1.1" id="Layer_1" xmlns="http://www.w3.org/2000/svg" xmlns:xlink="http://www.w3.org/1999/xlink" x="0px" y="0px"
	 viewBox="0 0 229.5 150.8" style="enable-background:new 0 0 229.5 150.8;" xml:space="preserve">
<style type="text/css">
	.st0{fill:#FEDA00;}
	.st1{fill:#FFFFFF;}
	.st2{fill:#20201B;}
	.st3{fill:none;stroke:#20201B;stroke-width:2.5;stroke-miterlimit:10;}
	.st4{fill:none;stroke:#201F1A;stroke-width:2.5;stroke-linejoin:round;}
	.st5{fill:none;stroke:#FFFFFF;stroke-width:2.5;stroke-linejoin:round;}
	.st6{fill:none;stroke:#201F1B;stroke-width:2.5;stroke-linejoin:round;}
</style>
<polygon class="st0" points="75.7,149.3 67.7,0.4 161.9,0.4 153.9,149.3 "/>
<polygon class="st1" points="151.7,25.5 151,25.4 150,25.3 149.4,25.5 148.8,25.4 147.8,25.3 147.2,25.5 146.6,25.4 145.8,25.4 
	145,25.4 144.3,25.4 143.6,25.5 142.9,25.5 142.3,25.5 141.5,25.3 140.7,25.4 140,25.4 139.3,25.4 138.6,25.5 138,25.4 137.1,25.3 
	136.3,25.5 135.8,25.5 135.1,25.3 134.3,25.4 133.6,25.4 132.9,25.3 132.1,25.4 131.3,25.4 130.7,25.5 130.1,25.4 129.2,25.3 
	128.4,25.5 127.8,25.5 127.1,25.5 126.5,25.5 125.8,25.5 125.1,25.3 123.5,25.3 122.7,25.4 122,25.4 121.3,25.5 120.7,25.5 
	119.9,25.4 119.3,25.5 118.6,25.3 117.7,25.4 116.9,25.4 116.4,25.5 115.6,25.3 114.9,25.4 114.2,25.3 113.3,25.5 112.8,25.4 
	112,25.3 111.3,25.4 110.6,25.3 109.8,25.3 109.2,25.4 108.4,25.3 107.7,25.5 107.1,25.4 106.2,25.4 105.5,25.4 104.9,25.4 
	104.1,25.3 103.3,25.4 102.6,25.4 102.1,25.5 101.3,25.3 100.4,25.4 99.8,25.4 99,25.4 98.4,25.5 97.7,25.4 96.9,25.5 96.3,25.5 
	95.6,25.4 94.8,25.3 94,25.4 93.3,25.4 92.5,25.4 91.8,25.5 91.2,25.5 90.4,25.5 89.9,25.5 89.1,25.3 88.3,25.4 87.6,25.4 
	86.8,25.4 86.1,25.5 85.5,25.4 84.7,25.4 84,25.4 83.4,25.4 82.6,25.3 81.7,25.3 81,25.5 80.4,25.4 79.7,25.4 78.9,25.4 78.3,25.4 
	77.4,25.4 76.7,25.5 76.1,25.4 75.4,25.5 74.6,25.3 73.7,25.4 73.1,25.5 72.5,25.4 71.7,25.4 71,25.4 70.3,25.4 69.5,25.3 
	68.7,25.4 68.1,25.5 67.4,25.4 66.6,25.4 66.3,25.4 66.3,25.3 66.4,24.6 66.5,23.7 66.4,22.9 66.4,22.3 66.4,21.6 66.4,20.9 
	66.4,20.1 66.4,19.3 66.3,18.7 66.4,18 66.4,17.2 66.4,16.5 66.5,15.7 66.4,15 66.5,14.2 66.3,13.5 66.3,12.9 66.4,12.2 66.4,11.5 
	66.4,10.6 66.4,10 66.5,9.2 66.4,8.4 66.3,7.6 66.3,7.1 66.4,6.4 66.5,5.6 66.4,4.7 66.4,4 66.4,3.4 66.5,2.6 66.4,1.7 66.4,1.6 
	66.5,1.6 67.3,1.7 68,1.6 68.6,1.7 69.5,1.7 70.2,1.6 70.8,1.7 71.6,1.7 72.3,1.7 73,1.7 73.9,1.7 74.4,1.6 75.1,1.7 75.9,1.7 
	76.6,1.7 77.4,1.7 78.1,1.7 78.7,1.6 79.4,1.7 80.2,1.7 81.7,1.7 82.5,1.6 83,1.6 83.7,1.6 84.4,1.7 85.3,1.8 86,1.6 86.6,1.7 
	87.4,1.7 88.1,1.7 89,1.7 89.5,1.6 90.2,1.7 91,1.6 91.6,1.7 92.4,1.7 93.1,1.8 94,1.6 94.6,1.6 95.2,1.6 96.1,1.6 96.6,1.6 
	97.3,1.7 98.2,1.7 99,1.7 99.7,1.6 100.2,1.6 101,1.7 101.8,1.7 102.4,1.6 103.2,1.8 104,1.6 104.6,1.6 105.2,1.6 106,1.8 
	106.9,1.7 107.5,1.6 108.1,1.6 108.9,1.7 109.6,1.7 110.3,1.7 111.1,1.7 111.9,1.7 112.6,1.6 113.1,1.7 114,1.7 114.8,1.6 
	115.4,1.6 116.1,1.7 116.9,1.6 117.5,1.6 118.2,1.7 119.1,1.7 119.8,1.6 120.4,1.6 121.1,1.6 121.9,1.8 122.6,1.6 123.3,1.7 
	124.1,1.6 125.4,1.6 126.2,1.7 126.8,1.6 127.6,1.8 128.4,1.6 129.1,1.8 129.8,1.6 130.4,1.7 131.3,1.7 131.9,1.6 132.5,1.7 
	133.5,1.7 134.2,1.6 134.7,1.6 135.5,1.7 136.2,1.7 136.9,1.7 137.8,1.7 138.4,1.6 139.1,1.7 140,1.6 140.5,1.6 141.2,1.7 142,1.6 
	142.7,1.7 143.4,1.7 144.2,1.7 144.9,1.6 145.6,1.7 146.4,1.6 147,1.7 147.8,1.7 148.6,1.6 149.1,1.6 149.8,1.7 150.6,1.7 
	151.4,1.7 152.1,1.7 152.8,1.7 153.7,1.7 154.3,1.6 154.9,1.7 155.9,1.7 156.5,1.6 157.1,1.7 157.9,1.7 158.7,1.6 160,1.6 
	160.8,1.7 161.6,1.6 162.2,1.7 162.9,1.7 163.1,1.7 163.1,1.8 163.1,2.7 163.3,3.4 163.2,4 163.2,4.7 163.2,5.5 163.1,6.2 163.2,7 
	163.2,7.6 163.1,8.4 163.2,9.2 163.2,9.8 163.2,10.7 163.3,11.4 163.3,12 163.3,12.8 163.2,13.4 163.1,14.1 163.1,14.9 163.1,15.7 
	163.2,16.4 163.1,17.1 163.1,17.9 163.2,18.6 163.1,19.3 163.2,20.2 163.3,20.7 163.2,21.5 163.3,23 163.3,23.7 163.2,24.3 
	163.1,25.2 163.1,25.4 163,25.5 162.4,25.4 161.7,25.4 160.8,25.3 160,25.4 159.5,25.5 158.8,25.3 157.9,25.4 157.2,25.4 
	156.5,25.5 155.9,25.5 155.2,25.4 154.4,25.4 153.6,25.5 152.9,25.5 152.3,25.5 "/>
<path class="st2" d="M99.9,2.8h0.3l0.6,0.1h0.2h1h0.4l0.4,0.1l0.5,0.1l0.5-0.1l0.4-0.1h0.6h0.3l0.4,0.1l0.4,0.1h0.4h0.7h0.2l0.5-0.1
	h0.4h0.1h0.8h1.5h0.6h0.3h0.7h0.1h0.1l0.4-0.1h0.4h0.1h0.7h0.2h0.2l0.6-0.1h0.4l0.5,0.1h0.3h0.3l0.6-0.1h0.3l0.5,0.1h0.2h1.2h0.2
	l0.4-0.1h0.4h0.2h0.2h0.3l0.3,0.1l0.6,0.1l0.6-0.1l0.2-0.1h0.2l0.4,0.1l0.4-0.1l0.6-0.1h0.6h0.5l0.5,0.1h0.3h0.3h0.3l0.3,0.1
	l0.5,0.1l0.5-0.1h0.2h0.2l0.5,0.1l0.5-0.1l0.2-0.1h0.2h0.2h1.1h0.2h0.3l0.3,0.1h0.2h0.2h0.7h0.4l0.4-0.1l0.4-0.1h0.2l0.6,0.1h0.2
	h0.8h0.6h0.3h0.7h0.1h0.1l0.4-0.1h0.4h0.2h0.2h0.7h0.2h0.3l0.3,0.1l0.4,0.1h0.4l0.6-0.1h0.6h0.7h0.6h0.3h0.3h0.3h0.3l0.4,0.1
	l0.4-0.1l0.5-0.1h0.4h0.1h0.7h0.2h0.2l0.6-0.1h0.4l0.5,0.1h0.1h0.1h0.7h0.1h0.7h0.2h0.4h0.4h0.2h0.2h0.7h0.2h0.2h0.2h0.2l0.4,0.1
	h0.4h0.7h0.1h0.1l0.3-0.1h0.3h0.1h0.1h0.7h0.2h0.7h0.7h0.5l0.5,0.1h0.3h0.3l0.6-0.1h0.2V3l0.1,0.4v0.4v1.7v0.7v1v0.2v0.3l-0.1,0.3
	l-0.1,0.5l0.1,0.5l0.1,0.4v0.4v1.2v0.2l0.1,0.5v1.2v0.6l-0.1,0.7V14v0.7V15v0.7v0.2v0.4l-0.1,0.4V17v0.3l0.1,0.7v0.1v0.4l-0.1,0.4
	v0.3l0.1,0.3l0.1,0.6v0.4l-0.1,0.5v0.2v0.2v0.7V23v0.6v0.5h-0.2l-0.6-0.1h-0.4l-0.4,0.1l-0.6,0.1h-0.2l-0.3-0.1l-0.4-0.1h-0.4
	l-0.6,0.1H157h-0.1l-0.6,0.1h-0.4l-0.6-0.1h-0.1h-0.7h-0.3h-0.7h-0.6h-1l-0.5-0.1h-0.2h-1.2h-0.3l-0.3,0.1H149h-0.1h-0.1H148h-0.3
	l-0.3,0.1l-0.3,0.1h-0.3h-0.1l-0.7-0.1h-0.3H145h-0.8h-0.1l-0.6,0.1H143h-0.5l-0.6-0.1l-0.4-0.1h-0.4l-0.6,0.1H140h-0.9h-0.5h-0.5
	l-0.7-0.1h-0.4h-0.3l-0.6,0.1h-0.2l-0.4-0.1l-0.4-0.1h-0.4l-0.5,0.1h-0.5h-0.7h-0.3h-0.7h-0.9l-0.2,0.1l-0.4,0.1h-0.3l-0.7-0.1
	l-0.5-0.1l-0.5,0.1l-0.4,0.2H128h-0.3h-0.6h-0.6h-0.6l-0.4-0.1l-0.3-0.1h-1.9h-0.7h-0.7h-0.7h-0.5l-0.6-0.1h-0.3h-0.3h-0.2l-0.2-0.1
	l-0.4-0.1h-0.4h-0.8l-0.6,0.1h-0.4l-0.5-0.1l-0.4-0.1l-0.4,0.1h-0.2h-0.2l-0.6-0.1l-0.6,0.1l-0.3,0.1h-0.3l-0.7-0.1H112h-0.2h-0.4
	l-0.5-0.1h-0.2h-0.2h-0.7h-0.1h-0.5h-0.5h-0.4l-0.4,0.1l-0.3,0.1h-0.3h-0.1H106h-0.5H105l-0.7-0.1h-0.3h-0.3l-0.6,0.1h-0.6h-0.4
	l-0.4-0.1l-0.3-0.1H101h-0.7h-0.5h-0.6H99h-0.3l-0.4,0.1h-0.4h-0.3h-0.3L96.8,24h-0.5h-0.6L95,23.9h-0.2h-0.2H94h-1.5h-0.2L91.8,24
	h-0.5h-0.7h-0.2H90l-0.3-0.1l-0.5-0.1l-0.5,0.1l-0.5,0.1h-0.5h-0.3h-0.8h-0.5h-0.6h-1.1H84l-0.5-0.1h-0.1h-0.8h-0.7h-0.3l-0.3,0.1
	L80.9,24h-0.3l-0.7-0.1h-0.4h-0.6h-0.6h-0.2h-0.7h-0.1h-0.2L76.7,24h-0.4h-0.7l-0.4-0.1l-0.4-0.1h-0.4l-0.7,0.1h-0.1L73.1,24h-0.4
	h-0.2h-0.7l-0.6-0.1h-0.2h-0.2h-0.5l-0.5-0.1h-0.3h-0.3l-0.7,0.1h-0.5h-0.4v-0.6l-0.1-0.6v-0.8v-0.6v-0.6v-1V19v-0.5l0.1-0.5v-0.3
	V17v-0.6v-0.6v-0.3v-0.3l-0.1-0.3l0.1-0.3l0.1-0.5l-0.1-0.5l-0.1-0.4v-0.4v-0.6l0.1-0.7v-0.9V10l0.1-0.5V9.3V9V8.3V8.2l-0.1-0.6V7.1
	l0.1-0.5V6.5l0.1-0.7V5.4V4.7V3.9V3.4l0.1-0.5l0,0h0.3h0.5h0.2h0.7h0.3l0.3-0.1l0.3-0.1h0.3h1.4h0.6h0.3h0.7h0.2l0.3-0.1l0.3,0.1H75
	h0.3h0.6h0.6h0.2h0.2h0.6h0.9h0.4h0.4h0.2h0.2h0.6h0.6h0.7h0.3l0.3-0.1l0.4-0.1h0.4h0.7l0.6,0.1h0.1h0.1h0.7h0.2h0.2L86,2.7h0.4h2.6
	h0.2h0.2h0.2l0.5,0.1l0.5-0.1L91,2.6l0.3,0.1h0.3h0.3h0.5h0.5h0.3h0.3l0.7-0.1h0.5h0.6h1.1h0.3l0.3,0.1l0.4,0.1h0.4h0.5h0.5H99
	l0.4-0.1l0.4-0.1 M134.1,0.1l-0.7,0.2h-0.7l-0.7-0.1l-0.7,0.1h-0.7l-0.7-0.1l-0.7,0.2l-0.7-0.1l-0.7,0.1l-0.7-0.2l-0.7,0.1l-0.7-0.1
	h-0.7H124l-0.7,0.1l-0.7-0.1l-0.7,0.2l-0.7-0.2l-0.7,0.1l-0.7-0.1L119,0.2h-0.7l-0.7-0.1h-0.7l-0.7,0.1l-0.7-0.1h-0.7L114,0.2h-0.7
	l-0.7-0.1l-0.7,0.1h-0.7h-0.7H109h-0.7l-0.7-0.1l-0.7,0.1h-0.7l-0.7-0.2h-0.7h-0.7l-0.7,0.2l-0.7-0.1h-0.7h-0.7L100.3,0h-0.7
	l-0.7,0.2l-0.7-0.1l-0.7,0.1L96.7,0L96,0.1h-0.7h-0.7l-0.7,0.1l-0.7,0.1l-0.7-0.1h-0.7L91,0l-0.7,0.1L89.6,0l-0.7,0.2h-2.2H86
	l-0.7,0.1h-0.7l-0.7-0.1h-0.7l-0.7-0.1l-0.7,0.2H81h-0.7h-0.7l-0.7-0.1l-0.7,0.1h-0.8l-0.7,0.1h-0.7h-0.7l-0.7-0.1l-0.7,0.1H73
	l-0.7,0.1h-1.4l-0.7-0.1l-0.7,0.2h-0.7L68,0.4h-0.7l-0.7-0.1h-0.7h-0.7l-0.1,0.7l0.1,0.7v0.7l-0.1,0.7V4v0.7v0.7L65,6.2l-0.1,0.7
	v0.7L65,8.4l0.1,0.7L65,9.9v0.7v0.7L64.9,12v0.7v0.7l0.2,0.7l-0.1,0.7l0.1,0.7L65,16.4v0.7v0.7l-0.1,0.7v0.7V20v0.7l-0.1,0.7v0.7V23
	l0.1,0.7v0.7l-0.1,0.7v0.7v0.8l0.8-0.1h0.7h1l0.7,0.1h0.7l0.7-0.1l0.7,0.1h0.7l0.7,0.1h0.7l0.7,0.1l0.7-0.1l0.7-0.1l0.7,0.1H76h0.7
	l0.7-0.1h0.7h0.7h0.7l0.7,0.1h0.7l0.7-0.2h0.7h0.7l0.7,0.1h0.7h0.7h0.7h0.7h0.7h0.7l0.7-0.1l0.7,0.2h0.7h0.7h0.7l0.7-0.1H94h0.7
	l0.7,0.1l0.7,0.1h0.7l0.7-0.1l0.7,0.1l0.7-0.1h0.7h0.7l0.7-0.1l0.7,0.2h0.7h0.7l0.7-0.1l0.7,0.1h0.7l0.7-0.1h0.7l0.7,0.1l0.7-0.1
	l0.7,0.1l0.7-0.1h0.7l0.7,0.1l0.7-0.1l0.7,0.1h0.7l0.7-0.2l0.7,0.2l0.7-0.1l0.7,0.1h0.7l0.7-0.1l0.7-0.1l0.7,0.2l0.7-0.1l0.7,0.1
	h0.7h0.7h0.7l0.7-0.1h1.4l0.7,0.2h0.7h0.7h0.7h0.7l0.7-0.2l0.7,0.1l0.7,0.1l0.7-0.1h0.7h0.7l0.7,0.1h0.7l0.7-0.1l0.7,0.2h0.7
	l0.7-0.1l0.7,0.1l0.7,0.1h0.7h0.7h0.7l0.7-0.1l0.7,0.1h0.7h0.7l0.7-0.1h0.7h0.7l0.7,0.1l0.7,0.1l0.7-0.2h0.7l0.7,0.1l0.7-0.2h0.7
	l0.7,0.1h0.7h0.7h0.7l0.7-0.1h0.7l0.7,0.1h0.7l0.7-0.1h0.7l0.7-0.1l0.7,0.2l0.7-0.1l0.7-0.1l0.7,0.1h0.8h0.7l0.7-0.1h0.7l0.1-0.7
	l-0.2-0.7l0.1-0.7v-0.7V23v-0.7v-0.7l0.1-0.7v-0.7l-0.1-0.7l0.1-0.7l-0.1-0.7v-0.7l0.1-0.7l-0.1-0.7V15v-0.7l0.1-0.7v-0.7v-0.7v-0.7
	l-0.1-0.7V9.9l0.1-0.7l-0.1-0.7l0.2-0.7l-0.1-0.7V6.3V5.5V4l0.1-0.7l-0.1-0.7V1.9l0.1-0.7V0.4l-0.8,0.1h-0.7l-0.7-0.1h-0.7l-0.7,0.1
	l-0.7-0.1h-0.8h-0.7h-0.7h-0.7l-0.7-0.1l-0.7,0.1H155l-0.7-0.2l-0.7,0.1h-0.7l-0.7-0.1l-0.7,0.1h-0.7h-0.7l-0.7-0.1h-0.7l-0.7,0.1
	H147h-0.7l-0.7,0.1l-0.7-0.1l-0.7,0.1l-0.7-0.1h-0.7H142l-0.7,0.1l-0.7-0.2l-0.7,0.1h-0.7l-0.7-0.1l-0.7,0.1h-0.7l-0.7-0.1h-0.7
	l-0.7-0.1h-0.7L134.1,0.1z"/>
<polyline class="st3" points="139.6,26.7 139.5,25.9 139.5,25.2 139.6,24.5 139.7,23.8 139.6,23 139.6,22.3 139.6,21.6 139.6,20.8 
	139.6,20.1 139.7,19.4 139.6,18.7 139.7,17.9 139.7,17.2 139.6,16.5 139.7,15.7 139.6,15 139.7,14.3 139.6,13.6 139.5,12.8 
	139.7,12.1 139.5,11.4 139.6,10.6 139.6,9.9 139.6,9.2 139.6,8.5 139.7,7.7 139.6,7 139.6,6.3 139.6,5.5 139.7,4.8 139.7,4.1 
	139.7,3.3 139.7,2.6 139.5,1.9 139.7,1.1 139.7,0.4 "/>
<polyline class="st3" points="114.8,26.7 114.8,25.9 114.9,25.2 114.8,24.5 114.9,23.8 114.9,23 114.7,22.3 114.8,21.6 114.9,20.8 
	114.8,20.1 114.8,19.4 114.8,18.7 114.8,17.9 114.8,17.2 114.8,16.5 114.7,15.7 114.8,15 114.7,14.3 114.8,13.6 114.8,12.8 
	114.8,12.1 114.8,11.4 114.8,10.6 114.7,9.9 114.8,9.2 114.8,8.5 114.8,7.7 114.7,7 114.8,6.3 114.9,5.5 114.8,4.8 114.8,4.1 
	114.7,3.3 114.8,2.6 114.8,1.9 114.7,1.1 114.7,0.4 "/>
<polyline class="st3" points="89.9,26.7 90,25.9 89.9,25.2 90,24.5 89.9,23.8 89.9,23 90,22.3 90,21.6 89.9,20.8 90,20.1 90.1,19.4 
	89.9,18.7 89.9,17.9 90,17.2 90,16.5 90,15.7 89.9,15 90,14.3 90.1,13.6 90,12.8 90,12.1 89.9,11.4 90,10.6 89.9,9.9 89.9,9.2 
	90.1,8.5 90,7.7 90,7 89.9,6.3 90.1,5.5 90,4.8 90,4.1 90,3.3 90,2.6 90,1.9 90,1.1 89.9,0.4 "/>
<polyline class="st4" points="0.3,149 1.4,149.3 2.6,149.2 3.7,149.3 4.9,149.2 6.1,149.2 7.2,149.2 8.4,149.2 9.5,149.4 
	10.7,149.4 11.8,149.5 13,149.2 14.1,149.5 15.3,149.4 16.4,149.4 17.6,149.3 18.8,149.1 19.9,149 21.1,149.2 22.2,149.3 
	23.4,149.5 24.5,149.2 25.7,149.5 26.8,149.2 28,149.3 29.2,149.4 30.3,149 31.5,149.5 32.6,149.1 33.8,149.4 34.9,149.4 
	36.1,149.3 37.3,149.5 38.4,149.1 39.6,149.5 40.7,149.3 41.9,149 43.1,149.1 44.2,149.3 45.4,149.4 46.6,149.5 47.7,149.5 
	48.9,149.4 50,149.3 51.2,149.3 52.4,149.2 53.5,149 54.7,149.3 55.9,149.4 57,149.4 58.2,149.4 59.3,149.2 60.5,149.3 61.7,149.3 
	62.8,149.3 64,149.4 65.1,149.2 66.3,149.2 67.5,149.5 68.6,149.1 69.8,149.1 70.9,149 72.1,149.3 73.2,149.5 74.4,149.2 
	75.6,149.1 76.7,149.4 77.9,149.1 79,149.2 80.2,149.4 81.4,149.5 82.5,149.3 83.7,149.4 84.8,149.3 86,149.5 87.2,149.3 
	88.3,149.1 89.5,149.3 90.6,149.3 91.8,149.1 93,149.4 94.1,149.1 95.3,149.4 96.5,149.4 97.6,149.4 98.8,149.1 100,149.5 
	101.1,149.2 102.3,149.3 103.5,149.3 104.6,149 105.8,149 106.9,149 108.1,149.2 109.3,149.2 110.4,149.1 111.6,149.1 112.7,149 
	113.9,149 115.1,149.1 116.2,149.1 117.4,149.3 118.6,149.5 119.7,149.3 120.9,149.2 122,149.2 123.2,149.3 124.4,149.2 
	125.5,149.3 126.7,149.1 127.9,149.2 129,149.5 130.2,149.3 131.4,149.3 132.5,149 133.7,149.2 134.9,149.4 136,149.2 137.2,149.3 
	138.3,149.2 139.5,149.1 140.7,149.4 141.8,149.4 143,149.2 144.2,149.2 145.3,149.1 146.5,149.1 147.7,149.2 148.8,149.5 
	150,149.1 151.2,149.3 152.3,149.5 153.5,149.3 154.6,149.5 155.8,149.5 157,149.3 158.1,149.3 159.3,149.1 160.4,149.5 
	161.6,149.1 162.8,149.4 163.9,149.4 165.1,149.1 166.3,149.1 167.4,149.4 168.6,149.4 169.8,149.4 170.9,149.4 172.1,149.5 
	173.2,149.2 174.4,149.3 175.6,149 176.7,149.2 177.9,149.2 179.1,149.1 180.2,149.4 181.4,149.2 182.6,149.2 183.7,149.2 
	184.9,149.5 186.1,149.1 187.2,149.4 188.4,149.2 189.6,149.2 190.7,149.5 191.9,149.1 193.1,149.3 194.2,149.4 195.4,149.5 
	196.6,149.3 197.7,149 198.9,149.2 200.1,149.4 201.2,149.2 202.4,149.3 203.6,149.3 204.7,149.5 205.9,149.5 207.1,149.1 
	208.2,149.5 209.4,149.2 210.6,149.5 211.7,149.3 212.9,149.4 214.1,149.3 215.3,149.1 216.4,149.4 217.6,149.3 218.8,149.2 
	219.9,149.2 221.1,149.3 222.3,149.1 223.5,149.5 224.6,149.5 225.8,149.4 227,149.2 228.2,149.1 229.4,149.2 "/>
<path class="st5" d="M160.2,59.3l-0.7-0.3l-0.7,0.1L158,59h-0.7h-0.7h-0.7l-0.7,0.1l-0.7-0.2h-0.7l-0.7-0.1l-0.7,0.3l-0.7-0.3h-0.7
	l-0.7,0.1h-0.7l-0.7,0.2l-0.7,0.1l-0.7-0.2l-0.7-0.1l-0.7-0.2l-0.7,0.3l-0.7-0.3l-0.7,0.3l-0.7-0.1l-0.7-0.1l-0.7,0.4l-0.7-0.5
	l-0.7,0.4l-0.7-0.4l-0.7,0.1h-0.7l-0.7-0.1l-0.7,0.4l-0.7-0.4l-0.7,0.2l-0.7,0.2h-0.7l-0.7-0.3h-0.7l-0.7-0.1h-0.7l-0.8,0.1
	l-0.7,0.1h-0.7H127l-0.7,0.2l-0.7-0.3l-0.7-0.1H124h-0.7l-0.7,0.2l-0.7-0.1h-0.7l-0.7,0.1l-0.7-0.1l-0.7,0.2h-0.7l-0.7-0.2l-0.7,0.4
	h-0.7h-0.7l-0.7-0.3l-0.7-0.2l-0.7,0.3l-0.7,0.1l-0.7-0.4l-0.7,0.4L110,59l-0.8-0.1h-0.3l-0.1,0.5l0.1,0.9V61l0.1,0.7l-0.1,0.7
	l0.2,0.7l0.3,0.7l-0.2,0.7v0.8l0.2,0.7l-0.3,0.7l0.3,0.7l-0.3,0.8v1.5l0.3,0.7l-0.4,0.8l0.3,0.7l-0.1,0.7l0.1,0.7l0.2,0.7v0.7v0.7
	l-0.2,0.8v0.7v0.7l0.1,0.7l0.1,0.7v0.7l-0.1,0.7v0.7l-0.1,0.7l-0.2,0.7l0.2,0.7l0.1,0.8v0.7l-0.1,0.7L109,87l-0.1,0.8l0.1,0.7v0.8
	l-0.3,0.7l0.1,0.7v0.7l0.3,0.8l-0.2,0.7l-0.2,0.7l0.2,0.7l-0.1,0.7l0.1,0.8l0.1,0.7l-0.3,0.7l-0.1,0.7l0.3,0.7v0.8l0.1,0.7l-0.1,0.7
	l-0.1,0.8l-0.3,0.7l0.4,0.8l-0.2,0.7c-0.1,0.2-0.1,0.5-0.2,0.8l0.1,0.8l-0.1,0.5h0.3h0.8l0.8-0.1h0.7l0.7-0.2l0.8,0.4l0.7-0.4
	l0.7,0.4h0.8l0.7-0.3l0.7-0.1l0.8,0.3h0.7l0.7,0.1l0.7-0.1l0.7,0.1l0.7-0.3l0.7,0.1l0.7-0.3l0.7,0.2h0.7l0.7-0.1l0.8,0.3l0.7-0.2
	h0.8h0.7l0.8,0.2l0.7-0.4l0.7,0.3l0.8-0.2h0.7l0.7,0.3l0.7-0.4l0.8,0.3h0.7l0.8,0.1l0.8-0.1l0.7-0.3l0.8,0.2l0.7,0.2l0.8-0.2h0.7
	l0.8,0.1l0.8,0.1h0.7l0.8-0.4l0.7,0.4l0.7-0.3l0.7,0.3l0.8-0.2l0.8,0.2l0.7-0.1l0.8-0.2l0.7,0.3l0.8-0.2h0.8h0.8l0.8,0.1l0.8-0.2
	l0.8,0.4h0.7h0.8l0.8-0.3l0.8-0.1l0.8,0.1"/>
<path class="st1" d="M96.9,79.6l-3.4-2l-1.6-0.9c-1.3-0.7-1.7-2.3-1-3.5c0,0,0,0,0,0l0.8-1.5l2-3.4c0.8-1.3,0.3-3.1-1-3.9
	c-0.4-0.2-0.9-0.4-1.4-0.4h-5.8c-1.4,0-2.6-1.2-2.6-2.6v-5.6c0-1.6-1.3-2.8-2.8-2.8c-0.5,0-1,0.1-1.4,0.4l-3.4,2l-1.6,0.9
	c-1.2,0.7-2.8,0.3-3.5-0.9c0,0,0,0,0,0l-0.8-1.5l-2-3.4c-0.8-1.3-2.5-1.8-3.9-1c-0.4,0.2-0.8,0.6-1,1l-2,3.4l-1,1.6
	c-0.7,1.3-2.3,1.7-3.5,1c0,0,0,0,0,0l-1.5-0.9l-3.4-2c-1.4-0.8-3.1-0.3-3.8,1c-0.2,0.4-0.4,0.9-0.4,1.4v5.9c0,1.4-1.2,2.6-2.6,2.6
	c0,0,0,0,0,0h-5.6c-1.6,0-2.8,1.3-2.8,2.8c0,0.5,0.1,1,0.4,1.4l2,3.4l0.9,1.6c0.7,1.2,0.3,2.8-0.9,3.6l-1.5,0.8l-3.4,2
	c-1.3,0.8-1.8,2.5-1,3.9c0.2,0.4,0.6,0.8,1,1l3.4,2l1.6,0.9c1.3,0.7,1.7,2.3,1,3.5c0,0,0,0,0,0l-0.9,1.4l-2,3.4
	c-0.8,1.3-0.3,3.1,1,3.9c0.4,0.2,0.9,0.4,1.4,0.4h5.8c1.4,0,2.6,1.2,2.6,2.6v5.7c0,1.6,1.3,2.8,2.8,2.8c0.5,0,1-0.1,1.4-0.4l3.4-2
	l1.6-0.9c1.2-0.7,2.8-0.3,3.5,0.9l0.8,1.5l2,3.4c0.8,1.3,2.5,1.8,3.9,1c0.4-0.2,0.8-0.6,1-1l2-3.4l0.9-1.6c0.7-1.2,2.3-1.7,3.5-0.9
	c0,0,0,0,0,0l1.5,0.8l3.4,2c1.3,0.8,3.1,0.3,3.8-1c0.3-0.4,0.4-0.9,0.4-1.4v-5.9c0-1.4,1.2-2.6,2.6-2.6c0,0,0,0,0,0h5.7
	c1.6,0,2.8-1.3,2.8-2.8c0-0.5-0.1-1-0.4-1.4l-2-3.4l-0.9-1.6c-0.7-1.2-0.3-2.8,0.9-3.5l1.5-0.9l3.4-2c1.3-0.8,1.8-2.5,1-3.9
	C97.7,80.1,97.3,79.8,96.9,79.6z"/>
<path class="st6" d="M96.7,79.7l-1-0.9l-1.2-0.5l-1.1-0.7l-1.1-0.6c-0.4-0.2-0.8-0.4-1.1-0.7c-0.3-0.3-0.5-0.7-0.6-1.1
	c-0.1-0.4-0.2-0.9-0.1-1.3c0.2-0.4,0.5-0.8,0.8-1.1l0.7-1.1l0.7-1.1l0.4-1.3c0.3-0.3,0.6-0.6,0.9-1c0.2-0.4,0.3-0.9,0.3-1.3
	c0-0.5-0.1-0.9-0.4-1.3c-0.2-0.4-0.5-0.7-0.8-1c-0.4-0.2-0.8-0.3-1.2-0.3c-0.4,0-0.8,0-1.3,0L89.3,64L88,63.9l-1.3-0.2L85.4,64
	c-0.4-0.1-0.8-0.3-1.1-0.6c-0.4-0.1-0.8-0.4-1.1-0.7c-0.2-0.4-0.3-0.8-0.3-1.3l0.1-1.3l-0.4-1.3l0.5-1.3l-0.4-1.3
	c0.1-0.4,0.2-0.9,0.3-1.4c-0.1-0.4-0.4-0.8-0.7-1.1c-0.3-0.3-0.7-0.6-1.1-0.7c-0.7-0.6-1.8-0.4-2.3,0.3c0,0-0.1,0.1-0.1,0.2
	l-1.3,0.3l-1,0.8l-1,0.9l-1.2,0.6c-0.4,0.2-0.8,0.3-1.3,0.3c-0.4,0.1-0.8,0.1-1.2-0.1c-0.4-0.1-0.7-0.4-1-0.7
	c-0.3-0.3-0.5-0.6-0.7-1l-0.8-1.1l-0.7-1.1l-0.7-1.1c-0.2-0.4-0.4-0.7-0.7-1.1c-0.3-0.3-0.6-0.6-1-0.7c-0.3-0.3-0.7-0.5-1.1-0.6
	c-0.4,0-0.9,0-1.3,0.2c-0.4,0.2-0.8,0.4-1.1,0.8c-0.3,0.4-0.5,0.7-0.7,1.1l-0.5,1.2l-0.8,1.1l-0.7,1.1c-0.2,0.4-0.4,0.8-0.6,1.1
	c-0.3,0.3-0.6,0.6-1,0.8c-0.3,0.3-0.8,0.4-1.2,0.5c-0.4,0-0.9-0.2-1.2-0.4l-1-0.9l-1.3-0.3l-1.1-0.6L51.2,54
	c-0.3-0.3-0.7-0.6-1.1-0.8c-0.4-0.2-0.9-0.2-1.4-0.2c-0.4,0.2-0.7,0.5-1,0.9c-0.3,0.3-0.5,0.6-0.7,1c-0.3,0.4-0.5,0.8-0.6,1.2
	l0.3,1.3l-0.2,1.3l-0.1,1.3l-0.1,1.3c0.1,0.4,0.1,0.8,0,1.3c-0.1,0.4-0.4,0.7-0.7,1c-0.3,0.3-0.7,0.5-1.1,0.6c-0.4,0-0.9,0-1.3-0.1
	l-1.3,0.1l-1.3,0.3l-1.3-0.2c-0.4,0-0.9,0-1.3,0c-0.4,0.1-0.8,0.3-1.2,0.5c-0.4,0.1-0.8,0.4-1.1,0.7c-0.1,0.4-0.2,0.9-0.1,1.3
	c-0.1,0.4-0.2,0.9-0.1,1.3c0.2,0.4,0.4,0.8,0.6,1.2l0.6,1.1l0.9,1l0.3,1.4c0.3,0.3,0.6,0.6,0.9,1c0.1,0.4,0.2,0.9,0.1,1.3
	c0,0.4-0.1,0.9-0.4,1.2c-0.2,0.4-0.5,0.8-0.8,1.1l-1.1,0.6l-1.1,0.6l-1.2,0.5L33.4,80c-0.4,0.2-0.7,0.5-1,0.8
	c-0.3,0.3-0.4,0.7-0.5,1.1c-0.1,0.4-0.1,0.8,0,1.2c0.1,0.4,0.3,0.7,0.6,1c0.2,0.3,0.6,0.6,0.9,0.8l1.1,0.7l1.1,0.8l1,0.8l1.2,0.5
	c0.4,0.2,0.7,0.4,1,0.8c0.3,0.3,0.5,0.8,0.6,1.2c0,0.4,0,0.9-0.2,1.3c-0.1,0.4-0.3,0.8-0.5,1.2L38,93.3l-0.5,1.2l-0.7,1.1
	c-0.3,0.3-0.6,0.6-0.9,1c-0.1,0.5-0.1,0.9,0,1.4c0,0.5,0.2,0.9,0.4,1.3c0.3,0.3,0.7,0.6,1.1,0.7c0.3,0.3,0.7,0.5,1.1,0.6
	c0.4,0.1,0.9,0.1,1.3,0.2l1.3-0.2l1.3,0.1l1.3-0.1c0.4-0.1,0.9-0.1,1.3-0.1c0.4,0.2,0.8,0.4,1.1,0.8c0.3,0.3,0.5,0.6,0.7,1
	c0.3,0.4,0.4,0.8,0.5,1.2v1.3l0.1,1.3l-0.1,1.3l-0.1,1.3c-0.1,0.4-0.1,0.9,0,1.4c0.3,0.4,0.7,0.6,1.1,0.8c0.3,0.3,0.7,0.6,1.1,0.7
	c0.4,0.2,0.9,0.2,1.3,0.2c0.4-0.2,0.8-0.4,1.2-0.7l1.2-0.6l1.1-0.6l1.1-0.8l1.1-0.7c0.3-0.3,0.8-0.5,1.2-0.6
	c0.4,0.1,0.9,0.3,1.2,0.6c0.4,0.1,0.9,0.3,1.2,0.6c0.2,0.5,0.2,0.9,0.4,1.3l0.7,1.1l0.9,1l0.7,1.1c0.1,0.4,0.3,0.9,0.5,1.3
	c0.3,0.3,0.7,0.6,1.1,0.7c0.4,0.2,0.9,0.2,1.3,0.2c0.5-0.1,0.9-0.2,1.3-0.5c0.4-0.2,0.7-0.5,1-0.9l0.4-1.3l0.7-1.1l0.4-1.3l0.8-1
	c0.2-0.4,0.5-0.8,0.8-1.1c0.3-0.3,0.7-0.6,1.1-0.8c0.4,0,0.9,0,1.3,0.2c0.4,0.1,0.8,0.2,1.2,0.4l1.2,0.6l1.1,0.7l1,0.9
	c0.4,0.1,0.9,0.2,1.3,0.3c0.3,0.3,0.7,0.5,1.2,0.6c0.9-0.2,1.7-0.6,2.3-1.2c0.4-0.3,0.6-0.7,0.8-1.1c-0.1-0.5-0.2-0.9-0.4-1.4
	l0.3-1.3v-1.3l0.1-1.3c0-0.4-0.1-0.9-0.1-1.3c-0.1-0.5,0-0.9,0.1-1.4c0.3-0.4,0.7-0.6,1.1-0.8c0.4-0.1,0.9-0.2,1.3-0.1l1.3-0.2h1.3
	l1.3,0.1l1.3,0.1c0.5,0,0.9,0,1.4-0.2c0.4-0.3,0.7-0.6,0.9-1c0.4-0.2,0.8-0.5,1-0.9c0.1-0.5,0-0.9-0.2-1.4c0-0.5-0.1-0.9-0.2-1.3
	l-0.8-1l-0.5-1.2l-0.8-1.1l-0.8-1c-0.2-0.4-0.2-0.9-0.2-1.3c-0.1-0.4-0.1-0.9,0-1.3c0.2-0.4,0.4-0.8,0.8-1.1
	c0.4-0.3,0.7-0.5,1.1-0.7l1.2-0.6l1-0.8l1.3-0.4c0.4-0.2,0.8-0.4,1.2-0.7c0.4-0.3,0.6-0.7,0.8-1.2c0.1-0.4,0.1-0.9,0-1.4
	c-0.1-0.4-0.2-0.8-0.5-1.2c-0.2-0.4-0.5-0.7-0.8-1"/>
<polyline class="st6" points="78,69.4 77.7,69.3 77.6,69.5 77.4,69.6 77.3,69.8 77.2,69.9 77.1,70 77,70.2 76.7,70.2 76.5,70.3 
	76.4,70.4 76.5,70.8 76.1,70.7 76,70.8 75.9,71 75.8,71.2 75.8,71.5 75.8,71.7 75.5,71.7 75.3,71.8 75,71.7 75.1,72.1 74.8,72 
	74.8,72.3 74.6,72.4 74.4,72.5 74.6,72.9 74.1,72.7 74.2,73.1 73.9,72.9 73.8,73.1 73.7,73.3 73.5,73.3 73.6,73.8 73.2,73.6 
	73.2,73.9 73.2,74.2 73.1,74.3 72.7,74.2 72.6,74.3 72.4,74.4 72.2,74.5 72.2,74.8 72.1,74.9 72,75.1 71.9,75.2 71.9,75.5 
	71.6,75.5 71.4,75.5 71.2,75.7 71.1,75.8 71.1,76.1 70.9,76.1 70.7,76.2 70.6,76.4 70.4,76.4 70.4,76.7 70.3,76.8 70,76.8 
	70.1,77.2 70,77.3 69.9,77.5 69.6,77.4 69.3,77.4 69.4,77.8 69.3,78 69,77.9 69.1,78.3 68.8,78.3 68.6,78.3 68.4,78.4 68.3,78.6 
	68.2,78.7 68.1,78.9 67.8,78.9 67.8,79.2 67.9,79.5 67.6,79.5 67.5,79.6 67.4,79.9 67.1,79.8 67.2,80.1 66.8,80.1 66.7,80.2 
	66.6,80.3 66.7,80.7 66.2,80.5 66.3,80.9 66.1,80.9 66,81.1 66,81.4 65.9,81.5 65.8,81.6 65.5,81.7 65.4,81.8 65.3,82 65.2,82.1 
	65.1,82.3 65,82.4 64.8,82.5 64.6,82.6 64.4,82.7 64.1,82.7 64.1,82.9 64,83.1 63.9,83.3 63.7,83.3 63.6,83.5 63.4,83.6 63.4,83.8 
	63.3,83.9 62.9,83.9 62.9,84.1 62.8,84.3 62.8,84.6 62.5,84.6 62.3,84.6 62.3,84.8 62.1,84.9 62,85.1 62,85.3 61.6,85.3 61.5,85.3 
	61.5,85.7 61.4,85.8 61.3,86 61.2,86.1 61,86.2 60.6,86.1 60.8,86.5 60.5,86.5 60.2,86.5 60.2,86.8 60,86.8 59.8,86.9 59.8,87.2 
	59.7,87.3 59.7,87.6 59.3,87.5 59.4,87.9 59.1,87.8 58.9,87.9 59,88.3 58.9,88.4 58.6,88.3 58.4,88.5 58.3,88.6 58.2,88.8 58,88.8 
	58,89.1 57.8,89.2 57.9,89.5 57.6,89.5 57.5,89.7 57.4,89.8 57.1,89.8 57.1,90 57,90.2 56.8,90.3 56.5,90.3 56.6,90.7 56.3,90.6 
	56.3,90.8 56.1,91 55.8,90.9 56,91.4 55.7,91.3 55.5,91.4 55.3,91.5 55.3,91.7 55.3,92 55.1,92.1 54.8,92.1 54.8,92.3 54.6,92.4 
	54.5,92.5 54.2,92.5 54.1,92.7 54.2,93.1 53.8,92.9 53.9,93.3 53.5,93.2 53.6,93.5 53.3,93.5 53.3,93.7 53.3,94 52.9,93.9 
	52.9,94.2 52.8,94.3 52.7,94.5 52.5,94.5 52.5,94.8 52.1,94.7 51.9,94.8 51.8,95 51.9,95.3 51.8,95.5 51.6,95.6 "/>
<path class="st6" d="M60.5,71.6l-0.1,0.3h0.2v0.2l0.1,0.1l0.1,0.1l0.1,0.1l0.1,0.1l-0.1,0.2v0.1c0,0,0,0.1,0,0.1h0.3L61,73.2
	c0,0,0.1,0.1,0.1,0.1l0.1,0.1l0.1,0.1l0.2,0.1l0.1,0.1l-0.1,0.2c0,0,0,0.1,0,0.1l-0.1,0.2l0.4,0.1l-0.3,0.2l0.3,0.1l-0.1,0.1
	c0,0,0,0.1-0.1,0.1l0.4,0.1c-0.2,0.1-0.3,0.1-0.5,0.1l0.4,0.2l-0.4,0.1l0.1,0.1c0,0,0,0.1,0,0.1l-0.2,0.1l0.3,0.2
	c-0.1,0-0.3,0-0.4,0l0.1,0.2l0.2,0.2l-0.1,0.1h-0.3L61,76.7l-0.1,0.1l-0.1,0.1v0.2v0.1l-0.1,0.1v0.1l0.1,0.2l-0.3-0.1l-0.1,0.1
	l-0.1,0.1l-0.1,0.1v0.2h-0.2l-0.1,0.1l-0.1,0.1h-0.2c0,0.1,0,0.2,0,0.3h-0.1l-0.2-0.1l0.1,0.4h-0.1L59,79l-0.2-0.2l-0.2-0.1V79
	l-0.1,0.1l-0.2-0.3v0.4L58,79.1L57.9,79l-0.1-0.1L57.6,79h-0.1l-0.1,0.1L57.2,79l-0.1,0.1l-0.2,0.2l-0.1-0.2h-0.1l-0.2,0.1L56.4,79
	l-0.2,0.3l-0.1-0.3H56l-0.1-0.1l-0.2,0.3v-0.5c-0.1,0.1-0.2,0.2-0.2,0.2l-0.1-0.2h-0.2l-0.2,0.1l-0.1-0.1l-0.1-0.1v-0.2h-0.1
	l-0.1-0.1h-0.1l-0.2-0.1L54,78.3c0-0.1,0-0.1,0-0.2L53.9,78v-0.2l0.1-0.2h-0.2l-0.1-0.1l-0.1-0.1v-0.2l-0.2-0.1V77l-0.2-0.1v-0.1
	l0.2-0.2l-0.2-0.1l-0.1-0.2h-0.3c0-0.1,0.1-0.1,0.1-0.2l0.1-0.2l-0.2-0.1c0-0.1,0.1-0.1,0.1-0.2l-0.1-0.1l-0.1-0.1l0.2-0.2l0.1-0.1
	L52.7,75v-0.1l-0.1-0.1l0.1-0.1c0,0,0.1-0.1,0.1-0.1l0.3-0.1l-0.4-0.2l0.2-0.1l0.2-0.1l-0.1-0.2c0,0,0.1-0.1,0.1-0.1v-0.1l-0.1-0.2
	c0,0,0-0.1,0-0.1L53,73h0.4c-0.1-0.1-0.2-0.2-0.3-0.3l0.4,0.1l0.1-0.1l-0.2-0.3v-0.1l0.3,0.1c0,0,0.1-0.1,0.1-0.1l0.1-0.1L54,72h0.4
	l-0.1-0.3h0.2l-0.1-0.4l0.2,0.1l0.1-0.1l0.1-0.1c0.1,0,0.2,0.1,0.3,0.1v-0.2l0.1-0.1h0.2l0.2,0.1v-0.4c0.1,0.1,0.2,0.1,0.2,0.2
	l0.1-0.2h0.1c0.1,0.1,0.1,0.1,0.2,0.2v-0.4l0.2,0.2h0.1l0.2,0.1l0.1-0.1c0-0.1,0.1-0.2,0.1-0.3l0.2,0.1l0.1,0.2l0.1-0.2h0.1l0.1,0.1
	c0,0,0.1,0.1,0.1,0.1h0.1l0.2-0.3c0,0.1,0,0.3,0.1,0.4l0.2-0.2l0.1,0.3l0.2-0.2l0.1,0.2l0.2-0.1c0.1,0,0.1-0.1,0.2-0.1v0.3l0.2-0.1
	l0.1,0.1h0.2l0.1,0.2c0.1,0,0.2-0.1,0.2-0.1l-0.1,0.4l0.1,0.1l0.1,0.1l0.3-0.1h0.2v0.2"/>
<path class="st6" d="M75.5,86.7L75.4,87h0.2v0.2l0.1,0.1l0.1,0.1l0.1,0.1l0.1,0.1l-0.1,0.2v0.1c0,0,0,0.1,0,0.1h0.4l-0.2,0.2
	l0.1,0.1l0.1,0.1l0.1,0.1l0.2,0.1l0.1,0.1L76.6,89c0,0,0,0.1,0,0.1l-0.2,0.2l0.4,0.1c-0.1,0.1-0.2,0.1-0.3,0.2l0.3,0.1l-0.1,0.1
	c0,0,0,0.1-0.1,0.1l0.4,0.1l-0.5,0.1l0.4,0.2l-0.4,0.1l0.1,0.1c0,0,0,0.1,0,0.1l-0.2,0.1l0.3,0.2c-0.1,0-0.3,0-0.4,0l0.1,0.2
	l0.2,0.2l-0.1,0.1h-0.3l-0.1,0.1L76,91.8l-0.1,0.1v0.2v0.1l-0.1,0.1v0.1l0.1,0.3l-0.3-0.1l-0.1,0.1l-0.1,0.1l-0.1,0.1v0.2H75
	l-0.1,0.1l-0.1,0.1h-0.2c0,0.1,0,0.2,0,0.3h-0.2l-0.2-0.1l0.1,0.4l-0.1,0.1L74.1,94l-0.2-0.2l-0.2-0.1v0.4l-0.1,0.1l-0.2-0.3v0.4
	l-0.2,0L73,94.2l-0.2-0.1l-0.1,0.1h-0.1l-0.1,0.1l-0.1-0.1l-0.1,0.1L72,94.6l-0.1-0.2h-0.1l-0.2,0.1l-0.1-0.3l-0.2,0.3l-0.1-0.3
	h-0.1H71l-0.2,0.3v-0.5l-0.2,0.2L70.4,94h-0.1l-0.2,0.1L70,94l-0.1-0.1v-0.2h-0.1l-0.1-0.1l-0.1-0.1l-0.2-0.1l-0.1-0.1
	c0-0.1,0-0.1,0-0.2l-0.1-0.1V93l0.1-0.2h-0.3l-0.1-0.1l-0.1-0.1v-0.2l-0.2-0.1v-0.2l-0.2-0.1V92l0.2-0.2l-0.2-0.1l-0.1-0.1l-0.3-0.1
	l0.1-0.2l0.1-0.2L67.9,91c0-0.1,0.1-0.1,0.1-0.2l-0.2-0.1l-0.1-0.1l0.2-0.2l0.1-0.1l-0.3-0.1c0,0,0-0.1,0-0.1l-0.1-0.1l0.1-0.1
	c0,0,0.1-0.1,0.1-0.1l0.3-0.1l-0.4-0.2l0.2-0.1l0.2-0.1l-0.1-0.2l0.1-0.1v-0.1l-0.1-0.2c0,0,0-0.1,0-0.1l-0.1-0.2h0.4
	c-0.1-0.1-0.2-0.2-0.3-0.3l0.4,0.1l0.1-0.1l-0.2-0.3l0.1-0.1l0.3,0.1c0,0,0.1-0.1,0.1-0.1l0.1-0.1v-0.1h0.3v-0.4h0.2l-0.1-0.4
	l0.2,0.1l0.1-0.1l0.1-0.1l0.3,0.1v-0.2l0.1-0.1h0.1l0.2,0.2v-0.4c0.1,0.1,0.2,0.1,0.2,0.2l0.1-0.2H71l0.2,0.2v-0.4l0.2,0.2h0.1
	l0.2,0.1l0.1-0.2c0-0.1,0.1-0.2,0.1-0.3l0.2,0.1l0.1,0.2l0.1-0.2h0.1l0.1,0.1c0,0.1,0.1,0.1,0.1,0.1h0.1l0.2-0.3
	c0,0.1,0,0.3,0.1,0.4l0.2-0.2l0.1,0.3l0.2-0.2l0.1,0.2l0.2-0.1l0.2-0.1v0.3l0.2-0.1l0.1,0.1h0.2l0.1,0.2l0.2-0.1l-0.1,0.4l0.1,0.1
	l0.1,0.1l0.3-0.1h0.2v0.2"/>
</svg>
