<?xml version="1.0" encoding="utf-8"?>
<!-- Generator: Adobe Illustrator 26.0.3, SVG Export Plug-In . SVG Version: 6.00 Build 0)  -->
<svg version="1.1" id="Layer_1" xmlns="http://www.w3.org/2000/svg" xmlns:xlink="http://www.w3.org/1999/xlink" x="0px" y="0px"
	 viewBox="0 0 229.5 179.5" style="enable-background:new 0 0 229.5 179.5;" xml:space="preserve">
<style type="text/css">
	.st0{fill:#FFFFFF;}
	.st1{fill:none;stroke:#20201B;stroke-width:2.5;stroke-miterlimit:10;}
	.st2{fill:#A7A9AC;}
	.st3{fill:#F9DB02;}
	.st4{fill:none;stroke:#F7DB06;stroke-width:2;stroke-linejoin:round;}
	.st5{fill:#20201B;}
	.st6{fill:#1F1F1A;}
	.st7{fill:none;stroke:#20201B;stroke-width:2;stroke-miterlimit:10;}
	.st8{fill:none;stroke:#201F1A;stroke-width:2.5;stroke-linejoin:round;}
	.st9{fill:none;stroke:#F7DB06;stroke-linejoin:round;}
	.st10{fill:none;stroke:#FFFFFF;stroke-width:2.5;stroke-linejoin:round;}
	.st11{fill:none;stroke:#221F1F;stroke-width:2.5;stroke-linejoin:round;}
</style>
<polygon class="st0" points="89.4,153.5 89.4,154.2 89.4,154.9 89.5,155.6 89.5,156.4 89.5,157.1 89.5,157.8 89.4,158.5 89.4,159.2 
	89.6,159.9 89.6,160.6 89.4,161.4 89.5,162.1 89.5,162.8 89.5,163.5 89.4,164.2 89.6,164.9 89.5,165.7 89.4,166.4 89.5,167.1 
	89.6,167.8 89.5,168.5 89.4,169.3 89.6,170 89.4,170.7 89.5,171.4 89.6,172.1 89.5,172.9 89.5,173.6 89.5,174.3 89.6,175 
	89.6,175.7 89.4,176.5 89.6,177.2 89.5,177.9 88.8,177.9 88.1,177.9 87.3,177.9 86.6,177.8 85.9,177.9 85.2,177.8 84.4,178 
	83.7,177.8 83,177.9 82.3,177.9 81.5,177.9 80.8,177.8 80.1,177.9 79.4,177.8 78.7,177.9 77.9,177.9 77.2,178 76.5,178 75.8,177.9 
	75,177.9 74.3,177.9 73.6,177.8 72.9,177.8 72.1,177.9 71.4,177.9 70.7,177.9 70,177.9 69.2,177.9 68.5,178 67.8,178 67,178 
	66.3,178 65.6,177.9 64.9,177.9 64.8,177.2 64.8,176.5 64.8,175.8 64.8,175.1 64.9,174.3 64.9,173.6 64.9,172.9 64.9,172.2 
	64.9,171.5 64.9,170.8 64.8,170 64.8,169.3 64.8,168.6 64.8,167.9 64.8,167.2 64.8,166.4 64.9,165.7 64.9,165 64.9,164.3 
	64.9,163.6 65,162.9 64.8,162.1 64.8,161.4 64.9,160.7 64.9,160 64.9,159.3 64.9,158.5 64.9,157.8 64.8,157.1 64.9,156.4 
	64.9,155.7 64.9,154.9 64.8,154.2 64.9,153.5 65,152.8 65.1,152.1 65.3,151.4 65.5,150.7 65.9,150.2 66.3,149.5 66.9,149.1 
	67.4,148.6 68,148.3 68.7,148 69.4,147.8 70,147.6 70.7,147.6 70.8,147.6 70.8,146.9 70.7,146.1 70.8,145.4 70.8,144.6 70.8,143.9 
	71.5,143.9 72.2,144 72.9,143.9 73.6,143.9 74.3,143.8 75,143.8 75.7,143.8 76.4,143.9 77.2,143.9 77.9,143.8 78.6,143.9 
	79.3,143.8 80,143.9 80.7,143.8 81.4,144 82.2,143.9 82.9,143.9 83.6,143.9 83.6,144.6 83.7,145.4 83.6,146.1 83.6,146.9 
	83.6,147.6 83.6,147.6 84.3,147.7 85,147.7 85.7,147.9 86.4,148.3 87,148.6 87.5,149.1 88,149.6 88.5,150.1 88.9,150.7 89.2,151.4 
	89.3,152.1 89.5,152.8 "/>
<polygon class="st1" points="89.4,153.5 89.4,154.2 89.4,154.9 89.5,155.6 89.5,156.4 89.5,157.1 89.5,157.8 89.4,158.5 89.4,159.2 
	89.6,159.9 89.6,160.6 89.4,161.4 89.5,162.1 89.5,162.8 89.5,163.5 89.4,164.2 89.6,164.9 89.5,165.7 89.4,166.4 89.5,167.1 
	89.6,167.8 89.5,168.5 89.4,169.3 89.6,170 89.4,170.7 89.5,171.4 89.6,172.1 89.5,172.9 89.5,173.6 89.5,174.3 89.6,175 
	89.6,175.7 89.4,176.5 89.6,177.2 89.5,177.9 88.8,177.9 88.1,177.9 87.3,177.9 86.6,177.8 85.9,177.9 85.2,177.8 84.4,178 
	83.7,177.8 83,177.9 82.3,177.9 81.5,177.9 80.8,177.8 80.1,177.9 79.4,177.8 78.7,177.9 77.9,177.9 77.2,178 76.5,178 75.8,177.9 
	75,177.9 74.3,177.9 73.6,177.8 72.9,177.8 72.1,177.9 71.4,177.9 70.7,177.9 70,177.9 69.2,177.9 68.5,178 67.8,178 67,178 
	66.3,178 65.6,177.9 64.9,177.9 64.8,177.2 64.8,176.5 64.8,175.8 64.8,175.1 64.9,174.3 64.9,173.6 64.9,172.9 64.9,172.2 
	64.9,171.5 64.9,170.8 64.8,170 64.8,169.3 64.8,168.6 64.8,167.9 64.8,167.2 64.8,166.4 64.9,165.7 64.9,165 64.9,164.3 
	64.9,163.6 65,162.9 64.8,162.1 64.8,161.4 64.9,160.7 64.9,160 64.9,159.3 64.9,158.5 64.9,157.8 64.8,157.1 64.9,156.4 
	64.9,155.7 64.9,154.9 64.8,154.2 64.9,153.5 65,152.8 65.1,152.1 65.3,151.4 65.5,150.7 65.9,150.2 66.3,149.5 66.9,149.1 
	67.4,148.6 68,148.3 68.7,148 69.4,147.8 70,147.6 70.7,147.6 70.8,147.6 70.8,146.9 70.7,146.1 70.8,145.4 70.8,144.6 70.8,143.9 
	71.5,143.9 72.2,144 72.9,143.9 73.6,143.9 74.3,143.8 75,143.8 75.7,143.8 76.4,143.9 77.2,143.9 77.9,143.8 78.6,143.9 
	79.3,143.8 80,143.9 80.7,143.8 81.4,144 82.2,143.9 82.9,143.9 83.6,143.9 83.6,144.6 83.7,145.4 83.6,146.1 83.6,146.9 
	83.6,147.6 83.6,147.6 84.3,147.7 85,147.7 85.7,147.9 86.4,148.3 87,148.6 87.5,149.1 88,149.6 88.5,150.1 88.9,150.7 89.2,151.4 
	89.3,152.1 89.5,152.8 "/>
<polygon class="st2" points="59.4,149.9 59.4,150.6 59.4,151.4 59.5,152.1 59.5,152.8 59.5,153.5 59.5,154.2 59.4,154.9 59.4,155.6 
	59.5,156.4 59.5,157.1 59.4,157.8 59.4,158.5 59.5,159.2 59.5,159.9 59.4,160.7 59.5,161.4 59.4,162.1 59.4,162.8 59.5,163.5 
	59.5,164.2 59.5,165 59.4,165.7 59.5,166.4 59.4,167.1 59.4,167.8 59.5,168.6 59.4,169.3 59.4,170 59.5,170.7 59.5,171.4 
	59.6,172.1 59.4,172.9 59.5,173.6 59.4,174.3 59.4,175 59.4,175.7 59.5,176.5 59.4,177.2 59.5,177.9 58.8,177.8 58,178 57.3,177.8 
	56.6,177.9 55.9,177.9 55.1,177.9 54.4,177.8 53.7,177.9 53,177.8 52.3,177.9 51.5,177.9 50.8,178 50.1,178 49.4,177.9 48.6,177.9 
	47.9,177.9 47.2,177.8 46.5,177.8 45.7,177.9 45,177.9 44.3,177.9 43.6,177.9 42.9,177.9 42.1,178 41.4,178 40.7,178 40,178 
	39.2,177.9 38.5,177.9 37.8,177.9 37.1,178 36.3,178 35.6,177.9 34.9,177.9 34.2,177.9 33.4,177.9 32.7,177.9 32,177.9 31.3,177.9 
	31.2,177.2 31.2,176.5 31.2,175.8 31.2,175.1 31.2,174.3 31.2,173.6 31.2,172.9 31.3,172.2 31.2,171.5 31.3,170.8 31.3,170 
	31.2,169.3 31.2,168.6 31.3,167.9 31.3,167.2 31.3,166.5 31.3,165.7 31.3,165 31.2,164.3 31.3,163.6 31.3,162.9 31.3,162.2 
	31.2,161.4 31.2,160.7 31.3,160 31.3,159.3 31.3,158.6 31.2,157.9 31.3,157.1 31.2,156.4 31.3,155.7 31.2,155 31.3,154.3 
	31.3,153.6 31.3,152.8 31.2,152.1 31.3,151.4 31.3,150.7 31.3,149.9 31.2,149.2 31.4,148.5 31.6,147.9 31.9,147.2 32.2,146.6 
	32.6,146 33,145.4 33.4,144.9 34,144.4 34.6,144 35.2,143.7 35.9,143.5 36.6,143.4 37.3,143.2 38,143.2 37.9,143.2 38,142.5 
	37.9,141.8 38.1,141.1 38,140.4 38,139.6 38,138.9 38.7,139 39.4,138.9 40.2,138.9 40.9,139 41.6,139 42.4,139 43.1,139 43.9,138.9 
	44.6,138.9 45.3,138.9 46.1,138.8 46.8,139 47.5,139 48.3,138.9 49,138.9 49.7,138.9 50.5,138.9 51.2,138.9 52,138.9 52.7,139 
	52.8,139.6 52.7,140.4 52.8,141.1 52.8,141.8 52.7,142.5 52.7,143.2 52.7,143.1 53.4,143.3 54.1,143.4 54.8,143.4 55.5,143.7 
	56.1,144.1 56.7,144.5 57.2,145 57.8,145.4 58.1,146 58.5,146.6 58.9,147.2 59.1,147.9 59.4,148.5 59.5,149.2 "/>
<polygon class="st0" points="55,138.9 54.3,138.9 53.6,139 52.9,139 52.2,139 51.4,139 50.7,139 50,139 49.3,138.9 48.6,139 
	47.9,138.9 47.2,138.9 46.5,138.9 45.7,138.8 45,139 44.3,139 43.6,139 42.9,138.9 42.2,139 41.4,138.9 40.7,138.9 40,138.9 
	39.3,138.9 38.6,138.9 37.9,139 37.1,138.9 36.4,138.9 35.7,138.9 35.7,138.2 35.6,137.5 35.8,136.8 35.8,136.1 35.6,135.4 
	35.6,134.7 35.7,134 35.7,133.2 36.4,133.2 37.1,133.2 37.8,133.4 38.5,133.4 39.3,133.2 40,133.3 40.7,133.2 41.4,133.2 
	42.1,133.4 42.8,133.3 43.5,133.2 44.3,133.3 45,133.2 45.7,133.2 46.4,133.3 47.1,133.2 47.8,133.3 48.5,133.4 49.3,133.2 
	50,133.3 50.7,133.2 51.4,133.3 52.1,133.2 52.8,133.3 53.6,133.3 54.3,133.2 55,133.3 55.1,134 55.1,134.7 55,135.4 54.9,136.1 
	54.9,136.8 55.1,137.5 55,138.2 "/>
<polygon class="st1" points="55,138.9 54.3,138.9 53.6,139 52.9,139 52.2,139 51.4,139 50.7,139 50,139 49.3,138.9 48.6,139 
	47.9,138.9 47.2,138.9 46.5,138.9 45.7,138.8 45,139 44.3,139 43.6,139 42.9,138.9 42.2,139 41.4,138.9 40.7,138.9 40,138.9 
	39.3,138.9 38.6,138.9 37.9,139 37.1,138.9 36.4,138.9 35.7,138.9 35.7,138.2 35.6,137.5 35.8,136.8 35.8,136.1 35.6,135.4 
	35.6,134.7 35.7,134 35.7,133.2 36.4,133.2 37.1,133.2 37.8,133.4 38.5,133.4 39.3,133.2 40,133.3 40.7,133.2 41.4,133.2 
	42.1,133.4 42.8,133.3 43.5,133.2 44.3,133.3 45,133.2 45.7,133.2 46.4,133.3 47.1,133.2 47.8,133.3 48.5,133.4 49.3,133.2 
	50,133.3 50.7,133.2 51.4,133.3 52.1,133.2 52.8,133.3 53.6,133.3 54.3,133.2 55,133.3 55.1,134 55.1,134.7 55,135.4 54.9,136.1 
	54.9,136.8 55.1,137.5 55,138.2 "/>
<rect x="106.3" y="55.8" transform="matrix(0.7071 -0.7071 0.7071 0.7071 -24.1649 106.243)" class="st3" width="19.7" height="53"/>
<path class="st4" d="M127.7,108.1l-0.4-0.7l-0.6-0.5l-0.5-0.5l-0.5-0.5l-0.5-0.5l-0.5-0.5l-0.6-0.5l-0.4-0.6l-0.5-0.5l-0.5-0.5
	l-0.7-0.3l-0.4-0.7l-0.5-0.5l-0.6-0.5l-0.5-0.5l-0.6-0.4l-0.6-0.5l-0.4-0.6l-0.5-0.6l-0.4-0.6l-0.7-0.3l-0.3-0.7l-0.7-0.4l-0.4-0.6
	L115,95l-0.7-0.3l-0.2-0.8l-0.7-0.3l-0.3-0.7l-0.6-0.5l-0.5-0.5l-0.4-0.6l-0.7-0.3l-0.3-0.7l-0.6-0.4l-0.6-0.4l-0.5-0.5l-0.4-0.7
	l-0.5-0.6l-0.5-0.6l-0.5-0.5l-0.6-0.4l-0.6-0.5l-0.5-0.5l-0.6-0.5l-0.6-0.4l-0.4-0.7l-0.5-0.6l-0.5-0.5l-0.5-0.5l-0.6-0.4l-0.4-0.6
	l-0.5-0.5l-0.6-0.5l-0.4-0.6l-0.7-0.4l-0.5-0.5l-0.4-0.7l-0.7-0.3l-0.5-0.5l-0.6-0.5l-0.4-0.7l-0.4-0.6l-0.7-0.3L94,74.3l-0.3-0.7
	L93,73.3l-0.4-0.6l-0.4-0.6l-0.4-0.6l-0.6-0.4l-0.4-0.5l0,0l0.4-0.5l0.6-0.4l0.4-0.6l0.4-0.7l0.7-0.4l0.5-0.5l0.4-0.6l0.7-0.3
	l0.3-0.7l0.7-0.4l0.5-0.5l0.5-0.5l0.3-0.7l0.8-0.3l0.3-0.7l0.6-0.4l0.5-0.6l0.4-0.7l0.5-0.5l0.5-0.5l0.6-0.4l0.5-0.6l0.5-0.5
	l0.5-0.6l0.5-0.6l0.6-0.6l0.5-0.4l0.1,0.2l0.6,0.6l0.4,0.6l0.4,0.6l0.6,0.4l0.6,0.5l0.6,0.5l0.4,0.6l0.6,0.5l0.5,0.6l0.6,0.4
	l0.5,0.6l0.4,0.7l0.6,0.4l0.5,0.5l0.7,0.4l0.4,0.6l0.4,0.6l0.6,0.4l0.4,0.6l0.6,0.4l0.6,0.5l0.4,0.7l0.5,0.6l0.7,0.4l0.5,0.5
	l0.6,0.4l0.5,0.6l0.5,0.6l0.4,0.7l0.8,0.3l0.4,0.6l0.4,0.6l0.6,0.5l0.5,0.6l0.5,0.5l0.6,0.4l0.5,0.5l0.6,0.4l0.3,0.7l0.7,0.3
	l0.3,0.7l0.5,0.5l0.7,0.3l0.6,0.5l0.4,0.7l0.5,0.5l0.5,0.6l0.6,0.5l0.4,0.6l0.7,0.4l0.5,0.6l0.7,0.3l0.4,0.6l0.5,0.5l0.6,0.5
	l0.4,0.7l0.6,0.4l0.5,0.5l0.5,0.5l0.4,0.7l0.7,0.3l0.4,0.7l0.6,0.4l0.5,0.5l0.4,0.7l0.8,0.3l0.4,0.7l0.5,0.6l0.5,0.6l0.6,0.4
	c0.3,0.1,0.5,0.3,0.8,0.4l0.2,0.3l-0.4,0.3c-0.2,0.2-0.5,0.3-0.7,0.4l-0.4,0.6l-0.5,0.5l-0.6,0.5l-0.6,0.4l-0.5,0.5l-0.3,0.7
	l-0.7,0.3l-0.4,0.7l-0.7,0.4l-0.4,0.6l-0.6,0.4l-0.5,0.6l-0.4,0.6l-0.7,0.4l-0.4,0.6l-0.5,0.5l-0.5,0.6l-0.6,0.5l-0.4,0.6l-0.7,0.3
	l-0.5,0.5l-0.5,0.6l-0.4,0.7l-0.5,0.6L128,108"/>
<path class="st5" d="M104.9,56.2l0.1,0.1l0.1,0.1l0,0l0.5,0.5l0.5,0.5l0,0l0,0l0.5,0.5l0.1,0.1l0.1,0.1l0.4,0.3l0.3,0.3l0.2,0.3
	l0.3,0.2l0.2,0.2l0.1,0.2l0.2,0.4l0.4,0.3l0.4,0.3l0.3,0.3l0.1,0.1l0.1,0.1l0.5,0.4l0.5,0.5l0.1,0.1l0.1,0.1l0.4,0.4l0.4,0.4
	l0.1,0.1l0.1,0.1l0.3,0.3l0.2,0.3l0.1,0.2l0.2,0.2l0.5,0.5l0.1,0.1l0.2,0.1l0.2,0.1l0.1,0.2l0.3,0.4l0.4,0.3l0.1,0.1l0.1,0.2
	l0.2,0.3l0.2,0.2l0.5,0.5l0,0l0,0l0.5,0.4l0.4,0.4l0.5,0.5l0.4,0.4l0.4,0.4l0.1,0.2l0.1,0.1l0.5,0.5l0.1,0.1l0.1,0.1l0.5,0.4
	l0.3,0.2l0.3,0.4v0.1l0,0l0.5,0.5l0.2,0.2l0.2,0.2l0.4,0.2l0.2,0.2l0.4,0.5l0.3,0.4l0.4,0.2l0.4,0.3l0.3,0.2l0.3,0.4l0.4,0.5
	l0.2,0.3l0.3,0.2l0.4,0.3l0.3,0.4l0.1,0.1l0.1,0.1l0.4,0.4l0.4,0.4l0.1,0.1l0.1,0.1l0.5,0.5l0.1,0.1l0.1,0.1l0.4,0.3l0.3,0.4
	l0.1,0.1l0.1,0.1l0.4,0.4l0.4,0.4l0.1,0.1l0.1,0.1l0.4,0.3l0.3,0.4l0.2,0.2l0.2,0.2l0.4,0.3l0.3,0.4l0.1,0.1l0.1,0.1l0.4,0.4
	l0.4,0.5l0,0l0,0l0.5,0.5l0.2,0.2l0.2,0.1l0.3,0.2l0.2,0.3l0.1,0.1l0.1,0.1l0.3,0.2l0.2,0.3l0.3,0.4l0.4,0.3l0.2,0.1l0.1,0.2
	l0.3,0.4l0.4,0.3l0.4,0.3l0.4,0.4l0.4,0.4l0.3,0.4l0.1,0.1l0.1,0.1l0.5,0.5l0.2,0.2l0.3,0.2l0.4,0.2l0.3,0.3l0.1,0.1l0.2,0.1
	l0.3,0.3l0.3,0.3l0.2,0.2l0.2,0.2l0.4,0.3l0.3,0.4l0.1,0.1l0.1,0.1l0.5,0.4l0.4,0.4l0.4,0.5l0.5,0.6l0.2,0.3l0.3,0.2l0.2,0.1
	l0.1,0.2l0.1,0.2l0.2,0.2l0.4,0.4l0.4,0.5l0.2,0.2l0.2,0.1l0.4,0.3l0.3,0.4v0.1l0,0l0.5,0.5l0,0l0,0l0.5,0.5h0.1h0.1l0.4,0.3
	l0.3,0.4l0.1,0.2l0.2,0.1l0.5,0.5l0,0h0.1l0.4,0.4l0.2,0.2l0.3,0.4l0.3,0.4l0.4,0.3l0.3,0.2l0.2,0.3l0.3,0.4l0.4,0.2l0.3,0.2
	l0.2,0.2l0.1,0.1l0.1,0.1l0.5,0.4l0.4,0.5l0.1,0.1l0.1,0.1l0.3,0.2l0.2,0.3l0.2,0.3l0.3,0.2l0.3,0.2l0.2,0.3l0.1,0.2l0.2,0.2
	l0.4,0.4l0.4,0.4l0.1,0.2l0.2,0.1l0.2,0.2l0.2,0.3l0.2,0.2l0.2,0.2l0.4,0.4l0.4,0.5l0.2,0.2l0.2,0.2l0.2,0.2l0.2,0.2l0.1,0.1
	l0.1,0.1l0.5,0.5l0.2,0.2l0.2,0.1l0.5,0.4l0.4,0.4l0.4,0.3l0.3,0.4l0.2,0.2l0.2,0.2l0.4,0.4l0.3,0.4l0.1,0.1l0.1,0.1l0.5,0.5l0,0
	l0,0l0.4,0.4l0.2,0.3l-0.4,0.4l-0.4,0.4l-0.4,0.4l-0.5,0.4l-0.1,0.1L162,117l-0.5,0.6l0,0l0,0l-0.3,0.3l-0.4,0.3l-0.2,0.1l-0.2,0.2
	l-0.5,0.5l-0.5,0.5l-0.3,0.4l-0.4,0.3l-0.3,0.2l-0.2,0.2l-0.3,0.4l-0.4,0.3l-0.1,0.1l-0.1,0.1l-0.4,0.4l-0.4,0.3l-0.2,0.1l-0.2,0.2
	l-0.5,0.6l-0.3,0.4l-0.4,0.3l0,0l0,0l-0.6,0.5l-0.2,0.2l-0.2,0.2l-0.2,0.3l-0.3,0.2l-0.2,0.2l-0.2,0.2l-0.4,0.5l-0.3,0.4L152,127
	l-0.1,0.1l-0.1,0.1l-0.4,0.4L151,128l-0.1,0.1l-0.1,0.1l-0.4,0.4L150,129l-0.3,0.2l-0.2,0.3l-0.2,0.4l-0.1,0.1L149,130l-0.1-0.1
	l-0.1-0.1l-0.5-0.5l-0.1-0.2L148,129l-0.4-0.3l-0.2-0.2L147,128l-0.3-0.4l-0.4-0.2l-0.3-0.2l-0.2-0.2l-0.4-0.5l-0.2-0.2l-0.2-0.2
	l-0.5-0.4l-0.3-0.3l-0.3-0.4l-0.3-0.3l-0.4-0.2l-0.1-0.1l-0.1-0.1l-0.2-0.3l-0.3-0.2l-0.5-0.4l-0.5-0.5l-0.1-0.1l-0.1-0.1l-0.4-0.3
	l-0.3-0.3l-0.5-0.5l-0.1-0.1v-0.1l-0.5-0.5l-0.5-0.5l-0.5-0.5l0,0l0,0l-0.5-0.5l-0.1-0.1l-0.1-0.1l-0.3-0.2l-0.2-0.3l-0.1-0.2
	l-0.2-0.2l-0.5-0.4l-0.4-0.5l-0.1-0.1L136,117l-0.6-0.5l-0.3-0.3l-0.2-0.3l-0.1-0.1l-0.1-0.1l-0.5-0.6l-0.2-0.3l-0.3-0.2l-0.4-0.2
	l-0.3-0.3l-0.4-0.4l-0.3-0.4l-0.3-0.4l-0.4-0.3l-0.3-0.2l-0.2-0.3l-0.1-0.1l-0.1-0.1l-0.4-0.4l-0.3-0.4l0,0l0,0l-0.5-0.6l-0.1-0.1
	l-0.1-0.1l-0.5-0.5l-0.4-0.5l-0.1-0.1l-0.1-0.1L128,109l-0.4-0.4l-0.4-0.4l-0.4-0.4l-0.1-0.2l-0.2-0.1L126,107l-0.5-0.4l-0.5-0.4
	l-0.4-0.5l-0.1-0.1l-0.1-0.1l-0.3-0.3l-0.3-0.3l-0.1-0.1l-0.1-0.1l-0.5-0.5l0,0l0,0l-0.5-0.5l0,0l0,0l-0.5-0.4l-0.4-0.4l-0.4-0.5
	l-0.1-0.1l-0.1-0.1l-0.5-0.5l-0.1-0.1l-0.1-0.1l-0.3-0.2l-0.2-0.3l-0.3-0.4l-0.4-0.3l-0.3-0.2l-0.2-0.2l-0.5-0.6v-0.1l-0.1-0.1
	l-0.5-0.5l-0.2-0.2l-0.2-0.2l-0.3-0.2l-0.2-0.2l-0.2-0.3l-0.3-0.2l-0.4-0.3l-0.4-0.4l-0.1-0.1l-0.1-0.1l-0.4-0.4l-0.3-0.3l-0.3-0.5
	l-0.2-0.2l-0.2-0.2l-0.5-0.4l-0.4-0.4l-0.3-0.3l-0.3-0.4l-0.2-0.2l-0.2-0.2l-0.4-0.4l-0.4-0.4l-0.1-0.1l-0.1-0.1l-0.4-0.3l-0.3-0.4
	l-0.1-0.2l-0.2-0.1l-0.5-0.4l-0.5-0.5l0,0l0,0l-0.3-0.3l-0.2-0.4l-0.3-0.5l-0.5-0.3l-0.2-0.1l-0.1-0.2l-0.1-0.2L107,88l-0.5-0.5
	l-0.1-0.1h-0.1l-0.5-0.4l-0.3-0.4l-0.4-0.5l-0.2-0.3l-0.3-0.2l-0.3-0.2l-0.2-0.3l-0.2-0.3l-0.3-0.2l-0.4-0.3l-0.3-0.3l-0.4-0.5
	l-0.2-0.2l-0.2-0.2l-0.5-0.4l-0.4-0.4l0,0l0,0l-0.5-0.5l-0.4-0.4l-0.4-0.5L99.9,81l-0.2-0.1l-0.3-0.3l-0.3-0.4l-0.2-0.3l-0.3-0.2
	l-0.5-0.4l-0.2-0.2l-0.3-0.4l-0.2-0.3l-0.3-0.2l-0.5-0.5l-0.4-0.4L96,77.1l-0.4-0.5l-0.1-0.2l-0.2-0.1l-0.5-0.5l-0.2-0.1l-0.2-0.1
	l-0.2-0.1l-0.1-0.2l-0.2-0.3l-0.3-0.2l-0.3-0.3L93,73.9l-0.3-0.4l-0.4-0.2L92,73.2L91.9,73l-0.5-0.6l-0.1-0.1l-0.1-0.1l-0.5-0.5
	l-0.4-0.5l-0.2-0.2l-0.2-0.1l0.2-0.2l0.5-0.4l0.1-0.1l0.1-0.1l0.5-0.5l0.1-0.1l0.1-0.2l0.2-0.2l0.2-0.1l0.2-0.2l0.2-0.2l0.5-0.5l0,0
	l0,0l0.4-0.5l0.5-0.5l0,0l0,0l0.3-0.3l0.4-0.2l0.2-0.1l0.2-0.2l0.5-0.5l0.2-0.2l0.1-0.2l0.3-0.4l0.3-0.3l0.1-0.1v-0.1l0.5-0.5
	l0.5-0.5l0.4-0.4l0.4-0.4l0.5-0.4l0.3-0.2l0.2-0.3l0.4-0.6l0.2-0.2l0.3-0.2l0.2-0.2l0.2-0.2l0.5-0.5l0.1-0.1l0.1-0.1l0.2-0.3
	l0.2-0.2l0.2-0.2l0.2-0.2l0.4-0.4l0.4-0.4l0.1-0.1l0.1-0.1l0.5-0.6l0.4-0.4l0.4-0.3l0.5-0.4 M104.7,52.4l-0.5,0.6l-0.6,0.4l-0.4,0.6
	l-0.6,0.5l-0.5,0.5l-0.5,0.6l-0.5,0.6l-0.5,0.5l-0.3,0.8l-0.6,0.4l-0.4,0.6l-0.5,0.5l-0.6,0.4l-0.5,0.6l-0.4,0.6l-0.6,0.4l-0.6,0.5
	l-0.5,0.5l-0.5,0.5l-0.5,0.5l-0.5,0.5L93.7,64l-0.5,0.5L92.5,65L92,65.5L91.5,66L91,66.6l-0.5,0.5l-0.6,0.4l-0.4,0.6L89,68.7
	l-0.6,0.5L88,69.7l-0.5,0.5l-0.6,0.4l-0.5,0.6l0.6,0.6l0.5,0.5l0.5,0.5l0.6,0.4l0.5,0.5l0.5,0.5l0.4,0.6l0.5,0.6l0.6,0.4l0.5,0.6
	l0.6,0.5l0.4,0.6l0.6,0.4l0.5,0.5l0.4,0.6l0.5,0.6l0.6,0.5l0.6,0.5l0.4,0.6l0.5,0.5l0.6,0.4l0.4,0.6l0.6,0.5l0.5,0.5l0.5,0.5
	l0.5,0.5l0.5,0.5l0.6,0.4l0.5,0.6l0.5,0.5l0.6,0.4l0.4,0.6l0.6,0.4l0.4,0.6l0.5,0.5l0.5,0.5l0.5,0.5l0.4,0.6l0.6,0.4l0.4,0.6
	l0.5,0.5l0.5,0.5l0.5,0.5l0.4,0.6l0.6,0.5l0.5,0.5l0.5,0.5l0.4,0.6l0.5,0.5l0.6,0.5l0.6,0.5l0.4,0.6l0.5,0.5l0.6,0.5l0.5,0.5
	l0.6,0.4l0.4,0.6l0.6,0.4l0.5,0.5l0.5,0.6l0.5,0.6l0.6,0.4l0.4,0.6l0.6,0.4l0.5,0.5l0.5,0.5l0.5,0.5l0.5,0.5l0.5,0.5l0.5,0.5
	l0.4,0.6l0.6,0.4l0.5,0.5l0.5,0.5l0.5,0.5l0.5,0.5l0.4,0.6l0.5,0.5l0.5,0.5l0.6,0.5l0.5,0.5l0.5,0.5l0.5,0.6l0.4,0.6l0.5,0.5
	l0.5,0.5l0.6,0.4l0.4,0.6l0.5,0.5l0.5,0.5l0.6,0.4l0.5,0.6l0.4,0.6l0.6,0.4l0.6,0.5l0.5,0.5l0.5,0.5l0.4,0.6l0.6,0.4l0.5,0.5
	l0.5,0.5l0.5,0.5l0.5,0.5l0.5,0.5l0.5,0.5l0.6,0.4l0.5,0.5l0.5,0.5l0.4,0.6l0.6,0.4l0.4,0.6l0.5,0.5l0.6,0.5l0.4,0.6l0.5,0.5
	l0.6,0.4l0.4,0.6l0.5,0.5l0.6,0.4l0.5,0.5l0.4,0.6l0.5,0.5l0.6,0.4l0.4,0.6l0.6-0.5l0.4-0.6l0.6-0.5l0.5-0.5l0.4-0.6l0.6-0.5
	l0.5-0.5l0.6-0.5l0.5-0.5l0.6-0.5l0.5-0.5l0.4-0.6l0.6-0.4l0.4-0.6l0.6-0.5l0.6-0.4l0.5-0.6l0.5-0.6l0.6-0.5l0.5-0.5l0.6-0.5
	l0.5-0.6l0.6-0.4l0.5-0.5l0.4-0.5l0.5-0.6l0.6-0.4l0.5-0.6l0.5-0.5l0.6-0.5l0.5-0.5l0.5-0.5l0.4-0.6l0.6-0.4l0.5-0.5l0.6-0.5
	l-0.6-0.5l-0.5-0.5l-0.5-0.5l-0.5-0.6l-0.6-0.5l-0.5-0.5l-0.5-0.6l-0.5-0.5l-0.4-0.6l-0.5-0.5l-0.5-0.5l-0.6-0.4l-0.5-0.5l-0.4-0.6
	l-0.6-0.4l-0.5-0.5l-0.5-0.5l-0.4-0.6l-0.6-0.4l-0.5-0.5l-0.5-0.5l-0.4-0.6l-0.6-0.4l-0.4-0.6l-0.6-0.5l-0.5-0.5l-0.5-0.5l-0.5-0.6
	l-0.6-0.4l-0.4-0.6l-0.6-0.4l-0.4-0.6l-0.5-0.5l-0.6-0.5l-0.5-0.5l-0.4-0.6l-0.6-0.5l-0.5-0.5l-0.5-0.5l-0.5-0.5l-0.6-0.4l-0.5-0.5
	l-0.5-0.5l-0.4-0.6l-0.6-0.4l-0.5-0.6l-0.4-0.6l-0.5-0.5l-0.5-0.5l-0.5-0.5l-0.6-0.5l-0.4-0.6l-0.6-0.4l-0.5-0.5l-0.6-0.4l-0.5-0.5
	l-0.4-0.6l-0.5-0.5l-0.5-0.5l-0.6-0.4l-0.4-0.6l-0.6-0.4l-0.4-0.6l-0.6-0.5l-0.5-0.5l-0.6-0.4l-0.5-0.5l-0.5-0.5l-0.5-0.5l-0.5-0.5
	l-0.6-0.4l-0.5-0.6l-0.5-0.5l-0.5-0.5l-0.6-0.5l-0.5-0.5l-0.6-0.4l-0.5-0.5l-0.5-0.6l-0.5-0.5l-0.5-0.5l-0.6-0.4l-0.4-0.6l-0.5-0.6
	l-0.5-0.5l-0.6-0.4l-0.4-0.6l-0.5-0.5l-0.6-0.4l-0.5-0.5l-0.4-0.6l-0.6-0.5l-0.6-0.4L120,68l-0.4-0.6l-0.5-0.5l-0.5-0.5l-0.5-0.5
	l-0.5-0.5l-0.5-0.5l-0.4-0.6l-0.6-0.4l-0.4-0.6l-0.6-0.4l-0.5-0.5l-0.4-0.6l-0.5-0.5l-0.5-0.5l-0.6-0.5l-0.5-0.5l-0.5-0.5l-0.5-0.5
	l-0.6-0.4l-0.4-0.6l-0.6-0.4l-0.4-0.6l-0.6-0.4l-0.5-0.5l-0.5-0.5l-0.5-0.5l-0.5-0.6l-0.5-0.5l-0.5-0.5l-0.5-0.6L104.7,52.4z"/>
<path class="st5" d="M170.2,113.9l0.2,0.2l0.1,0.1l0.1,0.1l0.4,0.4l0.4,0.4l0.1,0.2l0.2,0.1l0.4,0.4l0.3,0.4l0.1,0.1l0.1,0.1
	l0.4,0.4l-0.2,0.2l-0.1,0.1l-0.1,0.1l-0.3,0.4l-0.3,0.3l-0.5,0.4l-0.3,0.2l-0.2,0.3l-0.2,0.4l-0.3,0.3l-0.2,0.2l-0.2,0.2l-0.2,0.3
	l-0.3,0.2l-0.6,0.4l-0.4,0.3l-0.2,0.4l-0.2,0.4l-0.3,0.2l-0.5,0.4l0,0l0,0l-0.5,0.5l-0.2,0.2l-0.1,0.2l-0.3,0.4l-0.3,0.2l-0.5,0.4
	l-0.3,0.2l-0.2,0.3l-0.2,0.3l-0.3,0.2l-0.2,0.2l-0.2,0.3l-0.3,0.4l-0.3,0.3l-0.1,0.1l-0.1,0.1l-0.5,0.5l-0.1,0.1l-0.1,0.2l-0.3,0.4
	l-0.4,0.3l-0.5,0.4l-0.5,0.4l-0.1,0.1l-0.1,0.1l-0.5,0.5l-0.5,0.5l0,0v0.1l-0.4,0.5l-0.4,0.4l-0.5,0.4l-0.2,0.2l-0.2,0.2l-0.5,0.5
	l-0.4,0.4l-0.1,0.1l-0.1,0.1l-0.3,0.3l-0.3,0.3l-0.2,0.2l-0.2,0.2l-0.4,0.5l-0.2,0.3l-0.4,0.3l-0.3,0.2l-0.2,0.2l-0.4,0.5l-0.2,0.3
	l-0.4,0.3l-0.4,0.3l-0.3,0.4l-0.1,0.2l-0.2,0.1l-0.4,0.3l-0.3,0.4l-0.2,0.3l-0.3,0.2l-0.1,0.1l-0.1,0.1l-0.1,0.2l-0.4-0.4l-0.5-0.5
	l-0.5-0.5l-0.5-0.5l-0.2-0.2l-0.2-0.1l-0.2-0.2l-0.2-0.2l-0.1-0.1l0.2-0.2l0.2-0.2l0.1-0.2l0.2-0.3l0.3-0.3l0.1-0.1l0.1-0.1l0.5-0.5
	l0.4-0.4l0.5-0.4l0.3-0.2l0.2-0.3l0.1-0.2l0.2-0.1l0.3-0.2l0.2-0.3l0.3-0.4l0.4-0.4l0,0l0,0l0.5-0.5l0,0l0,0l0.2-0.3l0.3-0.2
	l0.4-0.2l0.3-0.4l0.3-0.3l0.3-0.3l0.3-0.2l0.2-0.3l0.2-0.4l0.3-0.3l0.1-0.1l0.1-0.1l0.4-0.4l0.3-0.3l0.5-0.4l0.1-0.1l0.1-0.1
	l0.5-0.5l0.5-0.5l0.1-0.1l0.1-0.1l0.3-0.4l0.4-0.3l0.1-0.1l0.1-0.1l0.5-0.5l0.1-0.1l0.1-0.2l0.4-0.5l0.3-0.4l0.4-0.4l0,0l0,0
	l0.5-0.5l0,0l0,0l0.4-0.4l0.4-0.3l0.1-0.1l0.1-0.1l0.4-0.4l0.5-0.4l0.1-0.1l0.1-0.1l0.5-0.5h0.1l0,0l0.5-0.5l0,0l0,0l0.5-0.5l0,0
	l0,0l0.5-0.6v-0.1v-0.1l0.3-0.4l0.3-0.3l0.5-0.4l0.2-0.2l0.2-0.2l0.4-0.4l0.4-0.4l0.6-0.5l0.1-0.1l0.1-0.1l0.5-0.6l0.2-0.2
	 M169.7,110.9l-0.5,0.5l-0.5,0.6l-0.6,0.5l-0.5,0.6l-0.5,0.6l-0.6,0.5l-0.6,0.5l-0.5,0.6l-0.6,0.4l-0.5,0.5l-0.4,0.6l-0.5,0.6
	l-0.5,0.5l-0.5,0.5l-0.5,0.5l-0.6,0.5l-0.5,0.5l-0.6,0.5l-0.5,0.5l-0.5,0.5l-0.5,0.5l-0.5,0.6l-0.4,0.6l-0.5,0.5l-0.6,0.4l-0.5,0.6
	l-0.5,0.5l-0.5,0.5l-0.6,0.4l-0.5,0.5l-0.5,0.6l-0.6,0.5l0.1,0.2l-0.6,0.4l-0.4,0.6l-0.6,0.4l-0.5,0.5l-0.5,0.5l-0.5,0.5l-0.4,0.6
	l-0.6,0.4l-0.4,0.6l-0.6,0.5l-0.5,0.5l-0.5,0.5l-0.6,0.5l-0.4,0.6l-0.5,0.5l-0.6,0.4l-0.5,0.5l-0.4,0.6l0.4,0.6l0.6,0.4l0.5,0.5
	l0.4,0.6l0.6,0.4l0.5,0.5l0.5,0.5l0.5,0.5l0.5,0.5l0.5,0.5l0.5,0.5l0.5,0.4l0.5-0.4l0.5-0.5l0.6-0.4l0.5-0.6l0.6-0.5l0.4-0.6
	l0.6-0.4l0.4-0.6l0.6-0.4l0.5-0.5l0.5-0.6l0.6-0.4l0.5-0.5l0.4-0.6l0.6-0.4l0.5-0.6l0.5-0.5l0.4-0.6l0.6-0.5l0.5-0.5l0.5-0.5
	l0.5-0.5l0.5-0.5l0.6-0.5l0.5-0.5l0.5-0.5l0.4-0.6l0.5-0.5l0.6-0.5l0.4-0.6l0.6-0.4l0.4-0.6l0.6-0.4l0.5-0.5l0.4-0.6l0.5-0.5
	l0.6-0.5l0.5-0.5l0.4-0.6l0.6-0.4l0.6-0.4l0.4-0.6l0.6-0.5l0.4-0.6l0.6-0.4l0.5-0.5l0.5-0.6l0.5-0.5l0.6-0.5l0.4-0.6l0.5-0.5
	l-0.5-0.6l-0.6-0.5l-0.5-0.5l-0.5-0.5l-0.5-0.6l-0.6-0.5l-0.5-0.6l-0.6-0.5l-0.5-0.6l-0.6-0.5l-0.5-0.5l-0.5-0.5L169.7,110.9z"/>
<path class="st5" d="M183.5,136.2L183.5,136.2l0.3,0.3l0.2,0.3l0.1,0.1l0.1,0.1l0.5,0.5l0.1,0.1l0.1,0.1l0.4,0.3l0.3,0.4l0.2,0.2
	l0.2,0.2l0.1,0.1l-0.1,0.1l-0.3,0.4l-0.3,0.3l-0.4,0.4l-0.5,0.4l-0.2,0.1l-0.1,0.2l-0.3,0.3l-0.4,0.3l-0.6,0.4l-0.2,0.2l-0.2,0.2
	l-0.4,0.5l-0.3,0.4l-0.3,0.3l-0.5,0.4l-0.3,0.2l-0.2,0.3l-0.2,0.3l-0.3,0.2l-0.6,0.4l-0.3,0.2l-0.2,0.3l-0.2,0.3l-0.3,0.2l-0.1,0.1
	l-0.1,0.1l-0.4,0.4l-0.5,0.4l-0.2,0.2l-0.2,0.2l-0.2,0.2l-0.2,0.2l-0.2,0.2l-0.2,0.2l-0.3,0.4l-0.4,0.3l-0.1,0.1h-0.1l-0.5,0.5
	l-0.1,0.1l-0.1,0.1l-0.5,0.6l-0.3,0.4l-0.4,0.3l-0.2,0.2l-0.2,0.2l-0.1,0.2l-0.2,0.1l-0.2,0.1l-0.3-0.3l0,0l0,0l-0.4-0.4l-0.3-0.4
	l-0.2-0.3l-0.3-0.2l-0.4-0.3l-0.3-0.4l-0.1-0.1l-0.1-0.1l-0.3-0.3l0.2-0.2l0.1-0.1l0.1-0.1l0.4-0.5l0.4-0.4l0.4-0.4l0.4-0.3l0.5-0.4
	l0.2-0.1l0.1-0.2l0.4-0.5l0.5-0.5l0.5-0.5l0.1-0.1l0.1-0.1l0.4-0.5l0.3-0.3l0.4-0.3l0.4-0.3l0.3-0.4l0.2-0.4l0.2-0.2l0.4-0.3l0,0
	l0,0l0.6-0.4l0.2-0.1l0.1-0.2l0.4-0.5l0.3-0.3l0.4-0.4l0.3-0.2l0.2-0.3l0.3-0.4l0.2-0.2l0.4-0.3l0.1-0.1l0.1-0.1l0.5-0.5l0.2-0.2
	l0.2-0.2l0.2-0.3l0.3-0.2l0.2-0.2l0.2-0.2l0.2-0.2l0.3-0.2l0.4-0.3L183.5,136.2 M183.5,132.8l-0.6,0.4l-0.5,0.5l-0.5,0.6l-0.4,0.6
	l-0.6,0.4l-0.4,0.6l-0.6,0.5l-0.4,0.6l-0.5,0.5l-0.6,0.4l-0.5,0.5l-0.4,0.6l-0.6,0.4l-0.5,0.5l-0.5,0.6l-0.6,0.4l-0.6,0.4l-0.5,0.5
	l-0.4,0.6l-0.6,0.4l-0.5,0.5l-0.5,0.5l-0.5,0.5l-0.5,0.5l-0.5,0.5l-0.6,0.4l-0.6,0.4l-0.5,0.5l-0.5,0.5l-0.5,0.6l-0.5,0.5l-0.5,0.5
	l-0.6,0.4l-0.4,0.5l0.5,0.5l0.5,0.6l0.4,0.6l0.6,0.5l0.5,0.6l0.6,0.4l0.5,0.6l0.6,0.5l0.5,0.5l0.5,0.6l0.6,0.5l0.5,0.5l0.5-0.5
	l0.6-0.4l0.4-0.6l0.6-0.4l0.4-0.6l0.6-0.5l0.5-0.5l0.5-0.5l0.5-0.5l0.6-0.5l0.5-0.5l0.6-0.4l0.4-0.6l0.5-0.5l0.5-0.5l0.6-0.4
	l0.4-0.6l0.6-0.4l0.6-0.4l0.4-0.6l0.6-0.4l0.5-0.5l0.5-0.6l0.4-0.6l0.6-0.4l0.6-0.4l0.4-0.6l0.6-0.5l0.5-0.5l0.5-0.5l0.4-0.6
	l0.6-0.4l0.5-0.5l0.5-0.6l-0.6-0.5l-0.6-0.5l-0.5-0.6l-0.6-0.5l-0.4-0.6l-0.6-0.5l-0.5-0.6l-0.4-0.6l-0.6-0.5l-0.5-0.5l-0.5-0.5
	L183.5,132.8L183.5,132.8z"/>
<path class="st5" d="M166.9,126.4L166.9,126.4l0.3,0.4l0.3,0.4l0.4,0.3l0.5,0.3l0.2,0.2l0.2,0.4l0.2,0.3l0.3,0.2l0.4,0.4l0.4,0.4
	l0.2,0.2l0.2,0.1l0.5,0.4l0.3,0.3l0.3,0.4l0.2,0.2l0.2,0.2l0.3,0.3l0.2,0.3l0.2,0.2l0.2,0.2l0.4,0.4l0.4,0.4l0,0l0,0l0.4,0.4
	l0.3,0.4l0.1,0.1l0.1,0.1l0.5,0.5l0.2,0.2l0.3,0.2l0.1,0.1l0.1,0.1l0.2,0.4l0.4,0.3l0.6,0.5l0.4,0.3l0.3,0.4l0.1,0.1l0.1,0.1
	l0.2,0.2l0,0l-0.3,0.4l-0.3,0.3l-0.1,0.1l-0.1,0.2l-0.4,0.5l-0.3,0.3l-0.4,0.3l-0.2,0.1l-0.2,0.2l-0.4,0.5l-0.4,0.4l-0.5,0.4
	l-0.1,0.1l-0.1,0.1l-0.5,0.5l-0.1,0.1l-0.1,0.1l-0.2,0.3l-0.3,0.2h-0.1l-0.1,0.1l-0.5,0.5l-0.5,0.4l-0.1,0.1l-0.1,0.1l-0.2,0.2
	l-0.2-0.2l-0.2-0.2l-0.2-0.1l-0.2-0.1l-0.1-0.2l-0.1-0.2l-0.1-0.1l-0.5-0.5l-0.1-0.1l-0.1-0.1l-0.5-0.5l-0.5-0.5l-0.5-0.5l-0.5-0.5
	l-0.1-0.1l-0.1-0.1l-0.5-0.4l-0.4-0.4l-0.4-0.5l-0.5-0.5l-0.1-0.2l-0.2-0.1l-0.4-0.3l-0.3-0.3l-0.4-0.5l-0.4-0.5l-0.1-0.1l-0.1-0.1
	l-0.5-0.5l-0.1-0.1l-0.1-0.1l-0.4-0.4l-0.4-0.4l-0.2-0.2l-0.2-0.2l-0.2-0.1l-0.1-0.2l-0.2-0.4l-0.3-0.3l-0.5-0.4l-0.2-0.2l0.1-0.1
	l0.1-0.1l0.5-0.5l0,0l0,0l0.5-0.5l0.1-0.1l0.1-0.2l0.2-0.2l0.2-0.2l0.3-0.2l0.2-0.3l0.3-0.4l0.4-0.3l0.2-0.2l0.2-0.2l0.3-0.4
	l0.4-0.3l0.2-0.2l0.2-0.2l0.3-0.4l0.3-0.3l0.5-0.4l0.1-0.1l0.1-0.1l0.5-0.5l0.4-0.4 M166.7,122.9l-0.4,0.5l-0.4,0.6l-0.5,0.5
	l-0.5,0.5l-0.5,0.5l-0.6,0.5l-0.5,0.5l-0.4,0.6l-0.5,0.5l-0.4,0.6l-0.6,0.4l-0.5,0.6l-0.6,0.4l-0.4,0.6l-0.5,0.5l-0.5,0.5l-0.6,0.4
	l-0.5,0.5l-0.5,0.5l-0.5,0.6l0.5,0.6l0.6,0.4l0.5,0.6l0.5,0.5l0.6,0.5l0.4,0.6l0.6,0.4l0.5,0.5l0.6,0.5l0.5,0.5l0.5,0.6l0.5,0.5
	l0.5,0.5l0.6,0.4l0.5,0.5l0.5,0.5l0.5,0.5l0.5,0.5l0.5,0.5l0.5,0.5l0.5,0.5l0.5,0.5l0.5,0.5l0.4,0.6l0.6,0.4l0.5,0.5l0.5,0.5
	l0.5,0.5l0.5,0.6l0.5-0.6l0.5-0.6l0.5-0.5l0.5-0.5l0.5-0.5l0.5-0.5l0.6-0.4l0.4-0.6l0.5-0.5l0.6-0.5l0.5-0.5l0.5-0.5l0.6-0.4
	l0.5-0.6l0.5-0.6l0.5-0.5l0.4-0.6l0.6-0.5l0.6-0.4l0.4-0.5l-0.5-0.5l-0.4-0.6l-0.5-0.5l-0.5-0.5l-0.5-0.5l-0.6-0.4l-0.6-0.4
	l-0.4-0.6l-0.6-0.4l-0.5-0.5L176,132l-0.5-0.5L175,131l-0.6-0.5L174,130l-0.6-0.5l-0.4-0.6l-0.5-0.5l-0.6-0.4l-0.5-0.5l-0.6-0.5
	l-0.4-0.6l-0.5-0.5l-0.6-0.4l-0.4-0.6l-0.5-0.5l-0.6-0.5l-0.5-0.5l-0.5-0.4L166.7,122.9z"/>
<polygon class="st6" points="90.6,67 90.1,66.4 89.6,65.9 89,65.5 88.5,64.9 88,64.4 87.5,63.8 86.9,63.4 86.5,62.8 85.9,62.3 
	85.3,61.8 84.8,61.3 84.3,60.7 83.8,60.2 83.2,59.8 82.7,59.2 83.3,58.7 83.8,58.2 84.2,57.6 84.8,57.2 85.3,56.7 85.7,56.1 
	86.3,55.7 86.7,55.1 87.3,54.7 87.8,54.1 88.4,53.7 88.8,53.1 89.3,52.6 89.8,52.1 90.3,51.6 90.9,51.1 91.4,50.6 91.9,50.1 
	92.3,49.5 92.9,49.1 93.4,49.5 93.9,50.1 94.4,50.6 95,51.1 95.4,51.7 96.1,52.1 96.6,52.6 97,53.2 97.5,53.8 98.1,54.2 98.6,54.8 
	99.1,55.3 99.7,55.8 100.2,56.3 100.7,56.9 100.2,57.3 99.7,57.9 99.2,58.4 98.7,58.9 98.2,59.3 97.8,59.9 97.2,60.4 96.7,60.9 
	96.1,61.4 95.7,62 95.2,62.4 94.7,63 94.2,63.5 93.6,63.9 93.1,64.5 92.6,65 92.2,65.5 91.6,66 91.1,66.5 "/>
<polygon class="st7" points="90.6,67 90.1,66.4 89.6,65.9 89,65.5 88.5,64.9 88,64.4 87.5,63.8 86.9,63.4 86.5,62.8 85.9,62.3 
	85.3,61.8 84.8,61.3 84.3,60.7 83.8,60.2 83.2,59.8 82.7,59.2 83.3,58.7 83.8,58.2 84.2,57.6 84.8,57.2 85.3,56.7 85.7,56.1 
	86.3,55.7 86.7,55.1 87.3,54.7 87.8,54.1 88.4,53.7 88.8,53.1 89.3,52.6 89.8,52.1 90.3,51.6 90.9,51.1 91.4,50.6 91.9,50.1 
	92.3,49.5 92.9,49.1 93.4,49.5 93.9,50.1 94.4,50.6 95,51.1 95.4,51.7 96.1,52.1 96.6,52.6 97,53.2 97.5,53.8 98.1,54.2 98.6,54.8 
	99.1,55.3 99.7,55.8 100.2,56.3 100.7,56.9 100.2,57.3 99.7,57.9 99.2,58.4 98.7,58.9 98.2,59.3 97.8,59.9 97.2,60.4 96.7,60.9 
	96.1,61.4 95.7,62 95.2,62.4 94.7,63 94.2,63.5 93.6,63.9 93.1,64.5 92.6,65 92.2,65.5 91.6,66 91.1,66.5 "/>
<polyline class="st8" points="0.3,177.8 1.4,178.1 2.6,178 3.7,178.1 4.9,178 6,178 7.2,178 8.4,177.9 9.5,178.2 10.7,178.2 
	11.8,178.2 13,177.9 14.1,178.2 15.3,178.2 16.4,178.1 17.6,178.1 18.7,177.9 19.9,177.8 21.1,178 22.2,178 23.4,178.3 24.5,177.9 
	25.7,178.2 26.8,177.9 28,178.1 29.1,178.1 30.3,177.8 31.5,178.2 32.6,177.9 33.8,178.2 34.9,178.1 36.1,178.1 37.3,178.2 
	38.4,177.8 39.6,178.2 40.7,178 41.9,177.8 43.1,177.8 44.2,178.1 45.4,178.1 46.5,178.2 47.7,178.3 48.9,178.1 50,178.1 
	51.2,178.1 52.4,178 53.5,177.8 54.7,178.1 55.8,178.1 57,178.2 58.2,178.2 59.3,178 60.5,178.1 61.6,178.1 62.8,178.1 64,178.2 
	65.1,178 66.3,178 67.4,178.2 68.6,177.9 69.8,177.9 70.9,177.8 72.1,178.1 73.2,178.3 74.4,177.9 75.6,177.8 76.7,178.2 
	77.9,177.8 79,178 80.2,178.1 81.3,178.2 82.5,178.1 83.7,178.1 84.8,178.1 86,178.2 87.2,178.1 88.3,177.8 89.5,178.1 90.6,178 
	91.8,177.9 93,178.2 94.1,177.9 95.3,178.1 96.5,178.1 97.6,178.1 98.8,177.8 100,178.3 101.1,178 102.3,178.1 103.4,178 
	104.6,177.8 105.8,177.8 106.9,177.8 108.1,178 109.3,177.9 110.4,177.9 111.6,177.9 112.7,177.8 113.9,177.8 115.1,177.9 
	116.2,177.9 117.4,178 118.5,178.2 119.7,178.1 120.9,178 122,178 123.2,178.1 124.4,178 125.5,178.1 126.7,177.9 127.9,177.9 
	129,178.2 130.2,178.1 131.4,178.1 132.5,177.8 133.7,178 134.8,178.2 136,178 137.2,178.1 138.3,178 139.5,177.9 140.7,178.1 
	141.8,178.2 143,177.9 144.2,178 145.3,177.8 146.5,177.9 147.7,178 148.8,178.2 150,177.9 151.2,178.1 152.3,178.2 153.5,178.1 
	154.6,178.2 155.8,178.2 157,178.1 158.1,178.1 159.3,177.9 160.4,178.2 161.6,177.9 162.8,178.2 163.9,178.2 165.1,177.9 
	166.3,177.8 167.4,178.1 168.6,178.1 169.8,178.2 170.9,178.1 172.1,178.3 173.2,178 174.4,178.1 175.6,177.8 176.7,177.9 
	177.9,178 179,177.9 180.2,178.2 181.4,178 182.5,178 183.7,178 184.9,178.2 186.1,177.9 187.2,178.2 188.4,178 189.5,178 
	190.7,178.3 191.9,177.8 193,178.1 194.2,178.1 195.4,178.2 196.6,178.1 197.7,177.8 198.9,178 200.1,178.2 201.2,178 202.4,178 
	203.6,178.1 204.7,178.2 205.9,178.2 207.1,177.9 208.2,178.3 209.4,178 210.6,178.3 211.7,178.1 212.9,178.2 214.1,178.1 
	215.2,177.9 216.4,178.2 217.6,178 218.8,178 219.9,178 221.1,178.1 222.3,177.9 223.5,178.2 224.6,178.3 225.8,178.2 227,177.9 
	228.2,177.9 229.4,178 "/>
<polyline class="st8" points="97.7,79.3 97.9,79.4 97.9,79.3 98,79.3 98,79.3 98.1,79.2 98.1,79.2 98.1,79.1 98.3,79.2 98.4,79.1 
	98.5,79.1 98.3,78.9 98.6,79 98.6,79 98.6,78.9 98.6,78.8 98.5,78.6 98.5,78.5 98.6,78.6 98.7,78.6 99,78.7 98.8,78.4 99,78.6 
	98.9,78.3 99,78.4 99.1,78.4 98.9,78.1 99.3,78.4 99,78 99.3,78.2 99.3,78.1 99.3,78.1 99.5,78.1 99.3,77.8 99.6,78 99.5,77.8 
	99.4,77.6 99.5,77.6 99.7,77.7 99.8,77.7 99.9,77.7 99.9,77.7 99.9,77.6 99.9,77.5 99.9,77.4 99.9,77.3 99.8,77.1 100.1,77.3 
	100.2,77.3 100.2,77.2 100.3,77.2 100.2,77 100.3,77.1 100.4,77 100.4,76.9 100.5,77 100.4,76.8 100.5,76.8 100.7,76.9 100.5,76.6 
	100.5,76.5 100.5,76.4 100.8,76.6 101,76.7 100.8,76.4 100.8,76.3 101.1,76.5 100.9,76.2 101,76.3 101.2,76.3 101.3,76.3 
	101.2,76.2 101.3,76.2 101.3,76.1 101.5,76.1 101.4,76 101.3,75.7 101.5,75.9 101.5,75.8 101.4,75.6 101.7,75.8 101.5,75.5 
	101.8,75.7 101.8,75.6 101.9,75.6 101.7,75.3 102.1,75.6 101.9,75.3 102,75.4 102,75.3 101.9,75.1 102,75 102,75 102.2,75.1 
	102.2,75 102.2,74.9 102.2,74.8 102.3,74.8 102.3,74.7 102.4,74.7 102.5,74.7 102.6,74.7 102.8,74.8 102.7,74.6 102.7,74.6 
	102.7,74.5 102.9,74.5 102.8,74.4 102.9,74.4 102.9,74.2 103,74.2 103.2,74.4 103.2,74.2 103.2,74.2 103.1,73.9 103.2,74 
	103.4,74.1 103.3,73.9 103.5,74 103.4,73.8 103.4,73.7 103.6,73.9 103.7,73.9 103.6,73.6 103.6,73.6 103.6,73.4 103.7,73.4 
	103.8,73.4 104,73.6 103.8,73.3 104,73.4 104.2,73.4 104.1,73.3 104.2,73.3 104.3,73.3 104.2,73.1 104.3,73.1 104.2,72.9 
	104.5,73.1 104.3,72.8 104.6,73 104.6,72.9 104.4,72.7 104.4,72.6 104.7,72.8 104.8,72.7 104.8,72.7 104.8,72.6 105,72.7 
	104.8,72.4 105,72.5 104.8,72.2 104.9,72.3 105,72.2 105,72.1 105.2,72.3 105.2,72.1 105.2,72 105.3,72 105.5,72.1 105.3,71.8 
	105.5,72 105.4,71.8 105.5,71.8 105.7,71.9 105.5,71.6 105.7,71.7 105.8,71.7 105.9,71.7 105.9,71.6 105.7,71.3 105.9,71.4 
	106.1,71.5 106,71.3 106,71.3 106.1,71.3 106.3,71.3 106.3,71.3 106.1,71 106.4,71.2 106.3,71 106.5,71.1 106.4,70.9 106.6,71 
	106.5,70.8 106.5,70.6 106.7,70.8 106.6,70.6 106.7,70.6 106.7,70.5 106.8,70.6 106.7,70.4 107,70.6 107.1,70.5 107.1,70.4 
	107,70.2 107,70.1 107.1,70.1 "/>
<polyline class="st8" points="50.4,16.4 50.4,16.8 50.7,16.9 50.8,17.1 51,17.3 51.2,17.5 51.4,17.7 51.6,17.8 51.7,18.2 51.9,18.4 
	52,18.6 52.4,18.6 52.4,19 52.6,19.1 52.8,19.3 53.1,19.4 53.4,19.5 53.6,19.6 53.7,19.9 53.9,20.2 53.9,20.5 54.3,20.4 54.3,20.9 
	54.7,20.9 54.8,21.1 54.9,21.4 55.4,21.3 55.2,21.8 55.7,21.7 55.6,22.2 55.9,22.3 56.1,22.5 56.2,22.8 56.7,22.7 56.6,23.1 
	56.9,23.2 57.2,23.2 57.4,23.4 57.4,23.8 57.6,24 57.7,24.3 57.9,24.5 58.2,24.6 58.4,24.7 58.6,24.9 58.8,25.1 59.2,25.1 
	59.1,25.5 59.3,25.7 59.5,25.9 59.6,26.2 60,26.2 60.1,26.5 60.3,26.7 60.5,26.8 60.6,27.1 60.9,27.1 61.1,27.3 61.1,27.7 
	61.6,27.6 61.8,27.8 62,28 62,28.4 62,28.7 62.5,28.6 62.7,28.8 62.7,29.2 63.1,29.1 63.2,29.4 63.3,29.7 63.4,30 63.7,30.1 
	63.8,30.3 64.1,30.5 64.2,30.8 64.5,30.8 64.8,30.8 64.9,31.2 65.1,31.4 65.4,31.4 65.3,31.8 65.8,31.8 65.7,32.2 65.9,32.4 
	66.1,32.6 66.6,32.6 66.4,33.1 66.8,33 66.9,33.3 67.2,33.5 67.5,33.5 67.7,33.7 67.9,33.9 68,34.2 68.2,34.3 68.4,34.5 68.6,34.7 
	68.8,34.8 69,35 69.2,35.3 69.4,35.5 69.4,35.8 69.5,36.1 69.8,36.2 70,36.3 70.3,36.5 70.4,36.7 70.6,36.8 70.8,37.1 71.1,37.2 
	71.2,37.4 71.2,37.8 71.5,37.9 71.7,38.1 72.1,38.1 72.1,38.4 72.2,38.7 72.5,38.8 72.6,39.1 72.9,39.2 73.2,39.3 73.2,39.6 
	73.3,39.9 73.7,39.9 73.9,40.1 74.2,40.2 74.3,40.4 74.5,40.7 74.5,41.1 74.9,41 75,41.3 75,41.6 75.3,41.7 75.4,42 75.6,42.2 
	75.9,42.3 76.1,42.4 76.4,42.5 76.4,42.9 76.8,42.9 76.8,43.3 77,43.5 77.4,43.5 77.6,43.6 77.6,44 77.8,44.2 77.9,44.4 78.1,44.6 
	78.2,44.9 78.6,44.9 78.7,45.2 79.2,45.1 79.2,45.4 79.4,45.6 79.7,45.8 79.7,46.1 80,46.2 80.2,46.4 80.3,46.6 80.4,47 80.8,46.9 
	80.8,47.3 81.1,47.3 81.3,47.6 81.3,47.9 81.8,47.8 81.8,48.2 82,48.4 82.1,48.7 82.4,48.8 82.8,48.8 82.9,49.1 82.9,49.4 
	83.2,49.5 83.4,49.7 83.5,49.9 83.6,50.2 83.8,50.4 84.3,50.3 84.2,50.8 84.6,50.8 84.6,51.2 84.9,51.2 85,51.5 85.3,51.6 
	85.6,51.7 85.6,52.1 85.9,52.2 86.1,52.3 86.3,52.5 86.4,52.8 86.7,52.8 86.7,53.3 86.9,53.5 87.1,53.6 87.5,53.7 87.7,53.8 
	87.8,54.1 "/>
<polyline class="st8" points="108.4,90 108.7,90.2 108.6,90.1 108.8,90.1 108.8,90 108.8,89.9 108.9,89.9 108.9,89.8 109.1,89.9 
	109.1,89.9 109.2,89.9 109,89.6 109.3,89.8 109.3,89.7 109.3,89.6 109.3,89.5 109.2,89.3 109.2,89.2 109.4,89.3 109.5,89.3 
	109.7,89.4 109.5,89.1 109.8,89.3 109.6,89.1 109.7,89.1 109.8,89.1 109.6,88.8 110,89.1 109.8,88.8 110.1,89 110.1,88.9 
	110.1,88.8 110.2,88.8 110,88.5 110.3,88.7 110.2,88.6 110.1,88.4 110.2,88.3 110.4,88.5 110.5,88.5 110.6,88.5 110.7,88.4 
	110.6,88.3 110.6,88.2 110.7,88.1 110.7,88.1 110.6,87.9 110.8,88 110.9,88 111,88 111,88 110.9,87.8 111.1,87.8 111.1,87.8 
	111.1,87.7 111.3,87.7 111.2,87.5 111.2,87.5 111.5,87.6 111.2,87.3 111.3,87.2 111.3,87.2 111.5,87.3 111.7,87.4 111.5,87.1 
	111.5,87 111.8,87.2 111.6,86.9 111.8,87 111.9,87 112,87.1 112,86.9 112.1,86.9 112.1,86.8 112.2,86.9 112.1,86.7 112,86.5 
	112.2,86.6 112.3,86.5 112.2,86.4 112.4,86.6 112.3,86.3 112.5,86.4 112.6,86.4 112.6,86.3 112.4,86.1 112.8,86.3 112.6,86.1 
	112.8,86.1 112.8,86 112.6,85.8 112.7,85.8 112.7,85.7 112.9,85.8 112.9,85.7 113,85.6 113,85.6 113,85.5 113,85.4 113.1,85.4 
	113.2,85.4 113.3,85.5 113.5,85.6 113.4,85.4 113.5,85.3 113.5,85.2 113.6,85.2 113.6,85.1 113.7,85.1 113.6,85 113.7,85 114,85.1 
	113.9,85 113.9,84.9 113.8,84.7 114,84.8 114.1,84.8 114.1,84.7 114.2,84.7 114.2,84.6 114.1,84.4 114.4,84.6 114.5,84.6 
	114.3,84.4 114.4,84.3 114.3,84.2 114.4,84.2 114.5,84.2 114.8,84.3 114.5,84 114.7,84.1 114.9,84.2 114.9,84.1 115,84.1 115,84 
	115,83.9 115,83.8 114.9,83.6 115.2,83.9 115,83.5 115.3,83.7 115.3,83.7 115.2,83.4 115.2,83.3 115.4,83.5 115.5,83.5 115.6,83.4 
	115.6,83.4 115.7,83.4 115.6,83.2 115.7,83.2 115.5,82.9 115.7,83 115.7,83 115.7,82.9 116,83 115.9,82.8 115.9,82.8 116,82.8 
	116.2,82.9 116,82.6 116.3,82.7 116.2,82.6 116.2,82.5 116.5,82.6 116.2,82.3 116.4,82.4 116.5,82.4 116.6,82.4 116.6,82.3 
	116.4,82.1 116.6,82.1 116.8,82.2 116.7,82 116.8,82 116.9,82 117,82.1 117.1,82 116.9,81.7 117.2,81.9 117,81.7 117.3,81.9 
	117.2,81.6 117.3,81.7 117.3,81.6 117.2,81.4 117.5,81.6 117.4,81.4 117.4,81.3 117.4,81.2 117.6,81.3 117.5,81.1 117.8,81.3 
	117.8,81.3 117.9,81.2 117.7,81 117.7,80.8 117.8,80.9 "/>
<polyline class="st8" points="118.8,100.4 119.1,100.6 119.1,100.5 119.2,100.5 119.2,100.4 119.2,100.4 119.3,100.3 119.3,100.2 
	119.5,100.3 119.5,100.3 119.6,100.3 119.4,100 119.7,100.2 119.7,100.1 119.7,100 119.7,99.9 119.6,99.8 119.6,99.6 119.8,99.7 
	119.9,99.7 120.1,99.8 119.9,99.6 120.2,99.7 120,99.5 120.2,99.5 120.3,99.5 120,99.2 120.4,99.5 120.2,99.2 120.5,99.4 
	120.5,99.3 120.5,99.2 120.6,99.2 120.4,98.9 120.7,99.1 120.6,99 120.5,98.8 120.6,98.7 120.8,98.9 120.9,98.9 121,98.9 
	121.1,98.9 121,98.7 121.1,98.6 121.1,98.6 121.1,98.5 121,98.3 121.2,98.4 121.3,98.4 121.4,98.4 121.5,98.4 121.4,98.2 
	121.5,98.2 121.5,98.2 121.6,98.1 121.7,98.1 121.6,97.9 121.7,97.9 121.9,98 121.6,97.7 121.7,97.7 121.7,97.6 122,97.7 
	122.1,97.8 121.9,97.5 121.9,97.4 122.2,97.6 122,97.3 122.2,97.4 122.3,97.4 122.4,97.5 122.4,97.3 122.5,97.3 122.5,97.2 
	122.6,97.3 122.6,97.1 122.4,96.9 122.6,97 122.7,96.9 122.6,96.8 122.9,97 122.7,96.7 122.9,96.8 123,96.8 123,96.8 122.8,96.5 
	123.2,96.7 123,96.5 123.2,96.5 123.2,96.4 123.1,96.2 123.1,96.2 123.2,96.1 123.3,96.2 123.3,96.1 123.4,96.1 123.4,96 
	123.4,95.9 123.4,95.8 123.6,95.9 123.6,95.8 123.8,95.9 124,96 123.9,95.8 123.9,95.7 123.9,95.6 124,95.7 124,95.5 124.1,95.6 
	124,95.4 124.1,95.4 124.4,95.6 124.3,95.4 124.3,95.3 124.2,95.1 124.4,95.2 124.6,95.3 124.5,95.1 124.6,95.1 124.6,95 
	124.5,94.9 124.8,95 124.9,95 124.7,94.8 124.8,94.7 124.7,94.6 124.8,94.6 124.9,94.6 125.2,94.7 124.9,94.4 125.1,94.5 
	125.3,94.6 125.3,94.5 125.4,94.5 125.4,94.4 125.4,94.3 125.4,94.2 125.3,94.1 125.6,94.3 125.4,93.9 125.7,94.2 125.8,94.1 
	125.6,93.8 125.6,93.8 125.9,93.9 125.9,93.9 126,93.9 126,93.8 126.1,93.8 126,93.6 126.1,93.6 125.9,93.3 126.1,93.4 126.2,93.4 
	126.1,93.3 126.4,93.4 126.3,93.2 126.3,93.2 126.4,93.2 126.6,93.3 126.4,93 126.7,93.1 126.6,93 126.6,92.9 126.9,93.1 
	126.6,92.7 126.9,92.9 126.9,92.8 127.1,92.9 127,92.7 126.8,92.5 127,92.5 127.2,92.6 127.1,92.4 127.2,92.4 127.3,92.4 
	127.4,92.5 127.5,92.4 127.3,92.1 127.6,92.4 127.4,92.1 127.7,92.3 127.6,92.1 127.7,92.1 127.7,92 127.6,91.8 127.9,92 
	127.8,91.8 127.8,91.8 127.9,91.7 128,91.7 127.9,91.5 128.2,91.7 128.2,91.7 128.3,91.6 128.1,91.4 128.1,91.2 128.3,91.3 "/>
<path class="st3" d="M47.5,4.2c0-2,1.3-3.7,2.9-3.7s2.9,1.7,2.9,3.7c0,2-2.9,6.6-2.9,6.6S47.5,6.3,47.5,4.2z"/>
<path class="st9" d="M47.4,4.2l0.1-0.1V3.9l0.1-0.1V3.6V3.4V3.3l0.1-0.1V3.1L47.8,3l-0.1-0.2l0.2-0.1V2.6V2.5c0,0,0-0.1,0-0.1V2.2
	V2.1L48,2l0.1-0.1h0.2V1.7h0.2V1.5l0.1-0.1c0,0,0.1-0.1,0.1-0.1V1.2h0.2V1H49l0.1-0.1l0.1-0.1h0.1l0.1-0.2l0.2,0.1
	c0,0,0.1-0.1,0.1-0.1l0.1-0.1h0.1L50,0.6h0.1h0.1h0.1h0.1h0.1h0.2l0.2-0.1l0.1,0.2l0.1,0.1c0,0,0.1,0,0.1,0.1l0.1,0.1h0.2L51.7,1
	L51.8,1l0.1,0.1L52,1.2h0.2l0.1,0.1c0,0,0,0.1,0.1,0.1h0.2l0.1,0.1l0.1,0.1v0.2v0.1h0.2L53,2c0,0.1,0,0.1-0.1,0.2h0.2v0.4l0.1,0.1
	v0.1l0.1,0.1c0,0,0,0.1,0,0.1l0.1,0.1l0.1,0.1c0,0,0,0.1-0.1,0.1v0.1l0.1,0.1c0,0-0.1,0.1-0.1,0.1l0.1,0.1L53.4,4c0,0,0,0.1,0,0.1
	v0.2l0.1,0.1l-0.2,0.1l0.1,0.2l-0.1,0.1V5l0.1,0.2v0.1l-0.1,0.1l-0.1,0.1v0.1v0.1v0.1V6v0.1l-0.1,0.1v0.1L53,6.4l-0.1,0.1v0.2v0.1
	v0.1L52.8,7v0.1l-0.1,0.1v0.1l-0.1,0.1l-0.2,0.1v0.1v0.1V8l-0.1,0.1l-0.1,0.1v0.2l-0.1,0.1v0.1v0.1L52,8.7l-0.1,0.1V9l-0.1,0.1v0.1
	l-0.1,0.1l-0.1,0.1l-0.2,0.1l0.1,0.2l-0.1,0.1l-0.1,0.1v0.1L51.2,10l-0.1,0.1v0.2l-0.1,0.1v0.2c0,0-0.1-0.1-0.1-0.1
	c0,0.1,0,0.2,0,0.4c0,0,0-0.1-0.1-0.1l0,0l-0.1-0.1c0,0-0.1,0.1-0.1,0.1l-0.1-0.1c0-0.1,0-0.2,0-0.3l-0.1-0.1v-0.1l-0.1-0.1V9.9
	l-0.2-0.1V9.7h-0.2V9.6l-0.6-0.2l-0.1-0.1V9.1L49.4,9l-0.1-0.1l0-0.1V8.7h-0.2V8.5L49,8.4V8.3V8.1h-0.2V7.9V7.8V7.7l-0.1-0.1
	l-0.2-0.1V7.4V7.2l-0.1-0.1V7V6.9V6.8l-0.1-0.1l-0.2-0.1l0.1-0.2l-0.2-0.1l0.1-0.2L48,6.1V5.9l-0.1-0.1l-0.1-0.1l0.1-0.2l-0.1-0.1
	V5.3l-0.1-0.1V5.1L47.6,5l0.1-0.2V4.7V4.6l-0.1-0.1V4.3V4.2"/>
<path class="st3" d="M39.3,20.2c-2.1,0-3.7-1.3-3.7-2.9s1.7-2.9,3.7-2.9s6.7,2.9,6.7,2.9S41.4,20.2,39.3,20.2z"/>
<path class="st9" d="M39.3,20.3l-0.1-0.1h-0.1h-0.1h-0.2h-0.1h-0.1l-0.1-0.1h-0.1h-0.1l-0.2,0.1c0,0-0.1-0.1-0.1-0.2h-0.1h-0.1h-0.1
	h-0.2h-0.1l-0.1-0.1L37,19.8c0,0,0-0.1,0-0.2h-0.2v-0.2h-0.2l-0.1-0.1l-0.1-0.1h-0.2l0.1-0.2h-0.2v-0.2c0,0-0.1,0-0.1-0.1L36,18.6
	v-0.1h-0.2l0.1-0.2l-0.1-0.1l-0.1-0.1c0,0,0-0.1,0-0.1l0.1-0.2c0,0,0-0.1,0-0.1v-0.1v-0.1l0-0.1v-0.1c0,0,0-0.1,0-0.1V17l-0.1-0.2
	l0.2-0.1l0.1-0.1l0.1-0.1l0.1-0.1c0,0,0-0.1,0-0.2l0.1-0.1l0.1-0.1V16l0.1-0.1c0,0,0-0.1,0-0.2l0.1-0.1h0.2v-0.2l0.1-0.1l0.1-0.1
	h0.2H37v-0.2l0.1-0.1l0.2,0.1l0.1-0.2h0.4l0.1-0.1h0.1l0.1-0.1h0.1l0.1-0.1l0.1-0.1l0.2,0.1h0.1l0.1-0.1l0.1,0.1l0.1-0.1l0.2-0.1
	h0.1h0.1l0.1-0.1l0.1,0.2l0.2-0.1l0.1,0.1h0.1l0.1,0h0.1h0.1l0.1,0.1h0.1h0.1H41h0.1h0.1l0.1,0.1h0.1l0.1,0.1l0.1,0.1h0.2H42h0.1
	l0.1,0.1h0.1l0.1,0.1h0.1l0.1,0.1l0.1,0.2h0.2H43h0.2l0.1,0.1l0.1,0.1h0.1l0.1,0.1h0.1h0.1l0.1,0.2l0.1,0.1h0.2l0.1,0.1h0.1l0.1,0.1
	l0.1,0.1l0.1,0.2l0.2-0.1l0.1,0.1l0.1,0.1h0.1l0.1,0.1l0.1,0.1h0.2l0.1,0.1h0.2c0,0-0.1,0.1-0.1,0.1H46c0,0-0.1,0.1-0.1,0.1l0,0
	l-0.1,0.1c0,0,0.1,0.1,0.1,0.1L45.8,17c-0.1,0-0.2,0-0.3,0L45.4,17l-0.1,0.1l-0.1,0.1h-0.1L45,17.3h-0.1v0.2h-0.2l-0.1,0.1l-0.1,0.1
	h-0.2l-0.1,0.1l-0.1,0.1h-0.1h-0.2V18h-0.2l-0.1,0.1l-0.1,0.1h-0.2v0.2h-0.2h-0.1H43l-0.1,0.1l-0.1,0.2h-0.1h-0.2l-0.2,0.7h-0.1
	h-0.1h-0.1l-0.1,0.1l-0.1,0.2l-0.2-0.1l-0.1,0.1h-0.2l-0.1,0.1h-0.1L41,19.9L40.9,20l-0.2-0.1L40.6,20h-0.1l-0.1,0.1h-0.2l-0.1,0.1
	l-0.2-0.1h-0.1h-0.1l-0.1,0.1l-0.1,0.1L39.3,20.3"/>
<path class="st3" d="M37.8,7.8C35.7,5.8,35,3.2,36.1,2s3.7-0.4,5.8,1.7s4.6,8.7,4.6,8.7S39.8,9.9,37.8,7.8z"/>
<path class="st9" d="M37.7,7.9V7.7l-0.1-0.1l-0.1-0.2l-0.2-0.1l-0.1-0.1l-0.1-0.1L37,7V6.8l-0.1-0.1l-0.1-0.1l-0.2-0.1V6.2l-0.1-0.1
	L36.4,6l-0.1-0.1l-0.2-0.1L36,5.6V5.4V5.2V5l-0.2-0.1l0.1-0.2l-0.2-0.1V4.3c-0.1,0-0.1-0.1-0.2-0.1l0.2-0.2l-0.2-0.1l0.1-0.2V3.5
	V3.3l0.1-0.2l-0.1-0.2l0.2-0.1V2.6c0-0.1,0-0.1,0-0.2L36,2.3c0.1,0,0.1-0.1,0.2-0.1l0.1-0.1L36.4,2l0.1-0.1c0,0,0.1-0.1,0.1-0.1
	l0.1-0.1l0.2-0.1l0.2-0.1l0.1-0.1l0.2,0.1h0.3h0.2l0.2-0.1l0.2,0.1h0.2h0.2l0.2,0.1c0.1,0,0.1,0,0.2,0L39,1.7l0.1,0.1l0.2-0.1
	l0.2,0.1h0.2L39.8,2l0.1,0.1h0.2h0.2l0.1,0.2h0.2l0.1,0.2l0.1,0.1l0.1,0.1l0.2,0l0.1,0.1L41.3,3l0.1,0.2l0.2,0.1h0.2l0.1,0.2L42,3.5
	l0.2,0.1v0.2h0.2V4c0,0,0.1,0.1,0.1,0.1l0.1,0.1l0.2,0v0.2l0.2,0.1v0.2L43,4.9L43.2,5l0.1,0.2v0.3v0.2l0.1,0.1l0.1,0.1L43.6,6
	l0.1,0.1l0.1,0.1v0.2l0.1,0.2v0.2v0.2L44,7.1l0.1,0.1l0.1,0.1v0.2l0.1,0.1v0.2l0.1,0.1l0.1,0.2v0.2l0.1,0.1l0.1,0.2l0.2,0.1V9
	L45,9.1v0.2l0.1,0.1l0.1,0.1v0.2v0.2l0.2,0.1l0.1,0.2l0.1,0.1v0.2v0.2v0.2l0.2,0.1v0.2c0,0.1,0,0.1,0,0.2l0.1,0.1v0.1v0.1l0.1,0.2
	l0.1,0.2l0.2,0.3c-0.1,0-0.1,0-0.2-0.1l0,0c0,0.1,0.1,0.1,0.1,0.2l-0.3-0.3h-0.1c0,0,0,0.1,0,0.1h-0.2L45.3,12L45.2,12l0.1-0.1h-0.2
	L45,11.7h-0.2l-0.1-0.1h-0.2l-0.2-0.1l-0.2-0.1H44l-0.1-0.2h-0.2l-0.2-0.1l-0.1-0.1L43.3,11L43.1,11L43,10.9h-0.2l-0.2-0.1l-0.1-0.2
	l-0.2,0.1l-0.1-0.2l-0.2-0.1l-0.1-0.1h-0.2h-0.2l-0.1-0.1l-0.1-0.1h-0.2L41,10l-0.1-0.1l-0.1-0.1l-0.2-0.1h-0.2l0-0.2h-0.2L40,9.3
	h-0.2l-0.1-0.1h-0.2h-0.2l-0.1-0.3h-0.2L39,8.8l-0.2-0.1l-0.1-0.1h-0.2V8.4l-0.1-0.1l-0.2-0.1h-0.2l-0.2-0.1l-0.1-0.2"/>
<polyline class="st10" points="31.2,155.1 31.4,155.4 31.5,155.3 31.7,155.4 31.8,155.3 32,155.3 32.1,155.3 32.2,155.3 32.4,155.5 
	32.5,155.5 32.7,155.6 32.8,155.2 33,155.6 33.1,155.5 33.2,155.4 33.4,155.4 33.5,155.2 33.7,155.1 33.8,155.3 34,155.4 
	34.1,155.6 34.2,155.2 34.4,155.6 34.5,155.3 34.7,155.4 34.8,155.5 34.9,155.1 35.1,155.6 35.2,155.2 35.4,155.5 35.5,155.4 
	35.7,155.4 35.8,155.6 35.9,155.1 36.1,155.6 36.2,155.4 36.4,155.1 36.5,155.2 36.7,155.4 36.8,155.5 36.9,155.6 37.1,155.6 
	37.2,155.4 37.4,155.4 37.5,155.4 37.7,155.3 37.8,155.1 38,155.4 38.1,155.4 38.2,155.5 38.4,155.5 38.5,155.3 38.7,155.4 
	38.8,155.4 39,155.4 39.1,155.5 39.2,155.3 39.4,155.3 39.5,155.6 39.7,155.2 39.8,155.2 40,155.1 40.1,155.4 40.2,155.6 
	40.4,155.2 40.5,155.1 40.7,155.5 40.8,155.2 40.9,155.3 41.1,155.4 41.2,155.6 41.4,155.4 41.5,155.5 41.7,155.4 41.8,155.6 
	42,155.4 42.1,155.1 42.2,155.4 42.4,155.4 42.5,155.2 42.7,155.5 42.8,155.2 43,155.5 43.1,155.5 43.2,155.5 43.4,155.1 
	43.5,155.6 43.7,155.3 43.8,155.4 44,155.4 44.1,155.1 44.2,155.1 44.4,155.1 44.5,155.3 44.7,155.2 44.8,155.2 45,155.2 
	45.1,155.1 45.2,155.1 45.4,155.2 45.5,155.2 45.7,155.4 45.8,155.6 46,155.4 46.1,155.3 46.2,155.3 46.4,155.4 46.5,155.3 
	46.7,155.4 46.8,155.2 47,155.3 47.1,155.6 47.3,155.4 47.4,155.4 47.5,155.1 47.7,155.3 47.8,155.5 48,155.3 48.1,155.4 
	48.3,155.3 48.4,155.2 48.5,155.5 48.7,155.5 48.8,155.2 49,155.3 49.1,155.1 49.3,155.2 49.4,155.3 49.5,155.6 49.7,155.2 
	49.8,155.4 50,155.6 50.1,155.4 50.3,155.5 50.4,155.6 50.6,155.4 50.7,155.4 50.8,155.2 51,155.6 51.1,155.2 51.3,155.5 
	51.4,155.5 51.6,155.2 51.7,155.2 51.8,155.5 52,155.5 52.1,155.5 52.3,155.5 52.4,155.6 52.6,155.3 52.7,155.4 52.8,155.1 
	53,155.3 53.1,155.3 53.3,155.2 53.4,155.5 53.6,155.3 53.7,155.3 53.8,155.3 54,155.6 54.1,155.2 54.3,155.5 54.4,155.3 
	54.6,155.3 54.7,155.6 54.9,155.1 55,155.4 55.1,155.4 55.3,155.6 55.4,155.4 55.6,155.1 55.7,155.3 55.9,155.5 56,155.3 
	56.1,155.4 56.3,155.4 56.4,155.6 56.6,155.6 56.7,155.2 56.9,155.6 57,155.3 57.2,155.6 57.3,155.4 57.4,155.5 57.6,155.4 
	57.7,155.2 57.9,155.5 58,155.4 58.2,155.3 58.3,155.3 58.5,155.4 58.6,155.2 58.7,155.6 58.9,155.6 59,155.5 59.2,155.3 
	59.3,155.2 59.5,155.3 "/>
<polyline class="st10" points="31.2,167.1 31.4,167.3 31.5,167.2 31.7,167.3 31.8,167.3 32,167.3 32.1,167.3 32.2,167.2 32.4,167.4 
	32.5,167.5 32.7,167.5 32.8,167.2 33,167.5 33.1,167.5 33.2,167.4 33.4,167.4 33.5,167.2 33.7,167.1 33.8,167.2 34,167.3 
	34.1,167.5 34.2,167.2 34.4,167.5 34.5,167.2 34.7,167.4 34.8,167.4 34.9,167.1 35.1,167.5 35.2,167.1 35.4,167.5 35.5,167.4 
	35.7,167.4 35.8,167.5 35.9,167.1 36.1,167.5 36.2,167.3 36.4,167.1 36.5,167.1 36.7,167.4 36.8,167.4 36.9,167.5 37.1,167.5 
	37.2,167.4 37.4,167.4 37.5,167.3 37.7,167.3 37.8,167.1 38,167.4 38.1,167.4 38.2,167.4 38.4,167.5 38.5,167.2 38.7,167.4 
	38.8,167.4 39,167.3 39.1,167.4 39.2,167.2 39.4,167.3 39.5,167.5 39.7,167.1 39.8,167.1 40,167.1 40.1,167.4 40.2,167.6 
	40.4,167.2 40.5,167.1 40.7,167.5 40.8,167.1 40.9,167.3 41.1,167.4 41.2,167.5 41.4,167.4 41.5,167.4 41.7,167.4 41.8,167.5 
	42,167.4 42.1,167.1 42.2,167.3 42.4,167.3 42.5,167.1 42.7,167.4 42.8,167.1 43,167.4 43.1,167.4 43.2,167.4 43.4,167.1 
	43.5,167.5 43.7,167.2 43.8,167.4 44,167.3 44.1,167.1 44.2,167.1 44.4,167.1 44.5,167.2 44.7,167.2 44.8,167.2 45,167.1 
	45.1,167.1 45.2,167.1 45.4,167.2 45.5,167.2 45.7,167.3 45.8,167.5 46,167.3 46.1,167.3 46.2,167.2 46.4,167.4 46.5,167.2 
	46.7,167.3 46.8,167.2 47,167.2 47.1,167.5 47.3,167.4 47.4,167.3 47.5,167.1 47.7,167.3 47.8,167.4 48,167.3 48.1,167.4 
	48.3,167.3 48.4,167.1 48.5,167.4 48.7,167.5 48.8,167.2 49,167.2 49.1,167.1 49.3,167.2 49.4,167.2 49.5,167.5 49.7,167.1 
	49.8,167.3 50,167.5 50.1,167.4 50.3,167.5 50.4,167.5 50.6,167.4 50.7,167.3 50.8,167.1 51,167.5 51.1,167.1 51.3,167.5 
	51.4,167.5 51.6,167.2 51.7,167.1 51.8,167.4 52,167.4 52.1,167.5 52.3,167.4 52.4,167.5 52.6,167.3 52.7,167.4 52.8,167.1 
	53,167.2 53.1,167.2 53.3,167.2 53.4,167.4 53.6,167.3 53.7,167.2 53.8,167.3 54,167.5 54.1,167.1 54.3,167.4 54.4,167.3 
	54.6,167.3 54.7,167.5 54.9,167.1 55,167.4 55.1,167.4 55.3,167.5 55.4,167.4 55.6,167.1 55.7,167.2 55.9,167.5 56,167.3 
	56.1,167.3 56.3,167.4 56.4,167.5 56.6,167.5 56.7,167.1 56.9,167.5 57,167.3 57.2,167.5 57.3,167.3 57.4,167.5 57.6,167.4 
	57.7,167.2 57.9,167.5 58,167.3 58.2,167.3 58.3,167.2 58.5,167.4 58.6,167.1 58.7,167.5 58.9,167.5 59,167.5 59.2,167.2 
	59.3,167.1 59.5,167.3 "/>
<polygon class="st0" points="85.6,143.8 84.9,143.9 84.1,144 83.4,144 82.7,144 82,144 81.2,143.9 80.5,143.9 79.8,143.9 79,143.9 
	78.3,143.9 77.6,143.8 76.8,143.9 76.1,143.8 75.4,143.9 74.6,143.9 73.9,143.9 73.2,143.8 72.4,144 71.7,143.9 71,143.9 
	70.2,143.9 69.5,143.9 68.8,143.9 68.7,143.2 68.8,142.5 68.8,141.8 68.8,141.1 68.7,140.4 68.7,139.6 68.8,139 69.5,139 
	70.2,138.9 70.9,138.9 71.7,138.9 72.4,138.9 73.1,138.9 73.9,138.8 74.6,139 75.3,139 76.1,138.9 76.8,138.9 77.5,138.9 
	78.3,138.9 79,139 79.7,139 80.5,138.9 81.2,139 81.9,138.9 82.7,138.9 83.4,138.9 84.1,138.9 84.9,139 85.6,139 85.7,139.6 
	85.6,140.4 85.7,141.1 85.6,141.8 85.6,142.5 85.6,143.2 "/>
<polygon class="st1" points="85.6,143.8 84.9,143.9 84.1,144 83.4,144 82.7,144 82,144 81.2,143.9 80.5,143.9 79.8,143.9 79,143.9 
	78.3,143.9 77.6,143.8 76.8,143.9 76.1,143.8 75.4,143.9 74.6,143.9 73.9,143.9 73.2,143.8 72.4,144 71.7,143.9 71,143.9 
	70.2,143.9 69.5,143.9 68.8,143.9 68.7,143.2 68.8,142.5 68.8,141.8 68.8,141.1 68.7,140.4 68.7,139.6 68.8,139 69.5,139 
	70.2,138.9 70.9,138.9 71.7,138.9 72.4,138.9 73.1,138.9 73.9,138.8 74.6,139 75.3,139 76.1,138.9 76.8,138.9 77.5,138.9 
	78.3,138.9 79,139 79.7,139 80.5,138.9 81.2,139 81.9,138.9 82.7,138.9 83.4,138.9 84.1,138.9 84.9,139 85.6,139 85.7,139.6 
	85.6,140.4 85.7,141.1 85.6,141.8 85.6,142.5 85.6,143.2 "/>
<path class="st11" d="M89.5,158.4l-0.2-0.3l-0.2,0.1l-0.2-0.1h-0.2h-0.2H88l-0.2,0.1l-0.2-0.2h-0.2h-0.2l-0.2,0.3l-0.2-0.3h-0.2
	l-0.2,0.1h-0.2l-0.2,0.2l-0.2,0.1l-0.2-0.2l-0.2-0.1l-0.2-0.2l-0.2,0.3l-0.2-0.3l-0.2,0.3l-0.2-0.1l-0.2-0.1l-0.2,0.4l-0.2-0.5
	l-0.2,0.4l-0.2-0.4l-0.2,0.1H82l-0.2-0.1l-0.2,0.4l-0.2-0.4l-0.2,0.2l-0.2,0.2h-0.2l-0.2-0.3L80,158l-0.2-0.1h-0.2l-0.2,0.1
	l-0.2,0.1h-0.2h-0.2l-0.2,0.2l-0.2-0.3l-0.2-0.1h-0.2h-0.2l-0.2,0.2l-0.2-0.1h-0.2l-0.2,0.1l-0.2-0.1l-0.2,0.2h-0.2l-0.2-0.2
	l-0.2,0.4h-0.2l-0.2,0.1l-0.2-0.3l-0.2-0.2l-0.2,0.4l-0.2,0.1l-0.2-0.4l-0.2,0.4l-0.2-0.2l-0.2-0.1l-0.2-0.1l-0.2,0.1H72l-0.2,0.1
	l-0.3-0.1l-0.2,0.1c0,0.1,0,0.2-0.1,0.3c-0.1-0.1-0.3-0.1-0.4-0.2h-0.1v0.1l0.2,0.4c-0.1,0-0.2,0-0.3,0c0.1,0.1,0.2,0.3,0.3,0.4
	l-0.3,0.1v0.5l0.3,0.2l-0.4,0.2l0.3,0.2l-0.1,0.2l0.1,0.2l0.2,0.2v0.2v0.2l-0.2,0.2v0.2v0.2v0.2v0.2v0.2l-0.1,0.2v0.2l-0.1,0.2
	l-0.2,0.2l0.2,0.2l0.1,0.2v0.2l-0.1,0.2l0.1,0.2l-0.1,0.2l0.1,0.2v0.2l-0.3,0.2l0.2,0.2v0.2l0.3,0.2c-0.1,0.1-0.1,0.2-0.2,0.2
	l-0.2,0.3c0.1,0.1,0.1,0.1,0.2,0.2l-0.1,0.3l0.1,0.2l0.1,0.1v0.1c0,0.1,0,0.1,0,0.2l0.2,0.1c0.1-0.1,0.3-0.2,0.4-0.3h0.2l0.3-0.1
	l0.2,0.1l0.2,0.1l0.2,0.3l0.2-0.4l0.2,0.2l0.2,0.2l0.2-0.1l0.2,0.1h0.2l0.2-0.1h0.2l0.2-0.2l0.2,0.4l0.2-0.4l0.2,0.4h0.2l0.2-0.3
	l0.2-0.1l0.2,0.3h0.2l0.2,0.1l0.2-0.1l0.2,0.1l0.2-0.3l0.2,0.1l0.2-0.3l0.2,0.2h0.2l0.2-0.1l0.2,0.3l0.2-0.2h0.2h0.2l0.2,0.2
	l0.2-0.4l0.2,0.3l0.2-0.2H81l0.2,0.3l0.2-0.4l0.2,0.3H82l0.2,0.1l0.2-0.1l0.2-0.3l0.2,0.2l0.2,0.2l0.2-0.2h0.2l0.2,0.1l0.2,0.1h0.2
	l0.2-0.4l0.2,0.4l0.2-0.3l0.2,0.3l0.2-0.2l0.2,0.2l0.2-0.1l0.2-0.2l0.2,0.3l0.2-0.2h0.4l0.2-0.1l0.2,0.1l0.2-0.2l0.2,0.4h0.2h0.2
	l0.2-0.3l0.2-0.1l0.2,0.1"/>
</svg>
