<svg xmlns="http://www.w3.org/2000/svg" viewBox="0 0 48 48"><defs><style>.cls-1{fill:#fffffb;}.cls-2{fill:#201f1b;}.cls-3{fill:#fddb00;}</style></defs><g id="Design"><circle class="cls-1" cx="24" cy="24" r="24"/><path class="cls-2" d="M34,9v8L24,24.5,14,17V9H34m1-2H13a1,1,0,0,0-1,1v9.5a1,1,0,0,0,.4.8l11,8.25a1,1,0,0,0,1.2,0l11-8.25a1,1,0,0,0,.4-.8V8a1,1,0,0,0-1-1Z"/><circle class="cls-3" cx="24" cy="32" r="11"/><path class="cls-2" d="M24.9,26.7h0M24,28.52,24.73,30l.47.94,1,.15,1.64.24L26.69,32.5l-.75.74.18,1,.28,1.64-1.47-.77L24,34.65l-.93.49-1.47.77.28-1.64.18-1-.75-.74-1.19-1.16,1.64-.24,1-.15.47-.94L24,28.52m0-3.26a1,1,0,0,0-.9.56l-1.63,3.3-3.65.53a1,1,0,0,0-.55,1.71l2.64,2.57-.62,3.64a1,1,0,0,0,1,1.17,1,1,0,0,0,.47-.12L24,36.91l3.26,1.71a1,1,0,0,0,.47.12,1,1,0,0,0,1-1.17l-.62-3.64,2.64-2.57a1,1,0,0,0-.55-1.71l-3.65-.53-1.63-3.3a1,1,0,0,0-.9-.56Z"/></g></svg>