<svg xmlns="http://www.w3.org/2000/svg" viewBox="0 0 48 48"><defs><style>.cls-1{fill:#fffffb;}.cls-2{fill:#201f1b;}.cls-3{fill:#fddb00;}</style></defs><g id="Design"><path class="cls-1" d="M24,48A24,24,0,1,0,0,24,24,24,0,0,0,24,48Z"/><path class="cls-2" d="M24,9.1l12,5.54V25c0,4.5-5.6,11-12,13.9h0C17.6,36,12,29.5,12,25V14.64L24,9.1h0m0-2a2,2,0,0,0-.84.18l-12,5.54A2,2,0,0,0,10,14.64V25c0,5.28,6,12.48,13.17,15.72a2,2,0,0,0,1.66,0h0C32,37.48,38,30.28,38,25V14.64a2,2,0,0,0-1.16-1.82l-12-5.54A2,2,0,0,0,24,7.1Z"/><path class="cls-3" d="M24.56,36.52a1.07,1.07,0,0,1-1.12,0C18.07,33.39,14,28.05,14,25.11V16.45a1.1,1.1,0,0,1,.65-1l8.88-4.11a1.18,1.18,0,0,1,.94,0l8.88,4.11a1.1,1.1,0,0,1,.65,1v8.66C34,28.05,29.93,33.39,24.56,36.52Z"/><path class="cls-2" d="M24,29a1,1,0,0,1-1-1V20a1,1,0,0,1,2,0v8A1,1,0,0,1,24,29Z"/><path class="cls-2" d="M28,25H20a1,1,0,0,1,0-2h8a1,1,0,0,1,0,2Z"/></g></svg>