<?xml version="1.0" encoding="utf-8"?>
<!-- Generator: Adobe Illustrator 26.0.3, SVG Export Plug-In . SVG Version: 6.00 Build 0)  -->
<svg version="1.1" id="Layer_1" xmlns="http://www.w3.org/2000/svg" xmlns:xlink="http://www.w3.org/1999/xlink" x="0px" y="0px"
	 viewBox="0 0 230.3 187.2" style="enable-background:new 0 0 230.3 187.2;" xml:space="preserve">
<style type="text/css">
	.st0{fill:#FEDA00;}
	.st1{fill:#D5EEFB;}
	.st2{fill:#221F1F;}
	.st3{fill:#201F1A;}
	.st4{fill:#00653D;}
</style>
<polygon class="st0" points="216.3,162 216.5,162.7 216.2,163.4 215.9,164.1 215.6,164.8 215.2,165.4 214.6,165.8 214,166.3 
	213.4,166.7 212.7,167 212,167.1 211.2,167.2 210.5,167.1 209.8,167 209.1,166.7 208.4,166.4 207.9,165.9 207.4,165.3 206.9,164.8 
	206.4,164.2 206.2,163.5 206.2,162.7 206.1,162 206.1,161.2 206.3,160.5 206.5,159.8 206.9,159.2 207.3,158.6 207.9,158.1 
	208.5,157.7 209.1,157.3 209.8,156.9 210.5,156.8 211.2,156.8 212,156.8 212.7,157.1 213.4,157.2 214,157.6 214.6,158.1 
	215.1,158.6 215.6,159.2 215.9,159.8 216.2,160.5 216.3,161.3 "/>
<polygon class="st1" points="24.5,76.1 45.7,55.1 110.2,55.1 110.2,96.8 45.7,96.8 "/>
<path class="st2" d="M70.8,91.5c-0.1,0-0.2,0-0.3,0l-0.7-0.2h-0.7l-0.8,0.1c-0.2,0-0.4,0-0.7-0.1l-0.5-0.2l-0.5,0.1h-0.3h-0.9h-0.1
	h-0.9c-0.1,0-0.3,0-0.4-0.1l-0.3-0.1l-0.4,0.2c-0.4,0.2-0.8,0.2-1.2,0.1l-0.5-0.2l-0.4,0.1h-0.4H60c-0.2,0-0.3,0-0.5-0.1l-0.2-0.1
	l-0.3,0.2c-0.4,0.2-0.8,0.3-1.2,0.1L57,91.1h-0.7h-0.2L55.5,91L55,91.1l-0.8,0.3c-0.3,0.1-0.6,0.1-0.9,0.1l-0.9-0.2h-0.1l-0.5-0.1
	l-0.5,0.1c-0.1,0-0.3,0-0.4,0H50l-1-0.1h-0.1l-0.3-0.1c-0.4-0.1-0.7-0.3-0.9-0.6l-0.2-0.3L47.1,90l-0.7-0.2
	c-0.4-0.2-0.8-0.5-0.9-0.9l-0.1-0.3l-0.3-0.1c-0.3-0.1-0.6-0.4-0.7-0.7l-0.2-0.4L43.8,87c-0.2-0.1-0.4-0.3-0.5-0.5L42.9,86l-0.5-0.3
	l-0.8-0.4c-0.3-0.2-0.5-0.4-0.6-0.7L40.9,84l-0.4-0.2c-0.1-0.1-0.2-0.1-0.2-0.2l-1.3-1.2c-0.1-0.1-0.2-0.2-0.2-0.2l-0.4-0.5
	l-0.5-0.3c-0.3-0.2-0.6-0.4-0.7-0.8L36.9,80l-0.4-0.4L36,79.2l-0.7-0.3c-0.1,0-0.2-0.1-0.3-0.2l-0.7-0.6c-0.1-0.1-0.2-0.2-0.3-0.3
	l-0.5-0.8l1.2-0.9L34,74.5l0.5-0.2l0.3-0.4c0.1-0.1,0.2-0.2,0.3-0.3l0.6-0.5l1.2-1.2l0.6-0.6l0.5-0.6c0.1-0.1,0.3-0.3,0.4-0.3
	l0.7-0.3l1-0.8l0.2-0.6c0.1-0.4,0.4-0.7,0.8-0.8l0.6-0.2l0.4-0.4l1.1-1.2l0.4-0.7c0-0.1,0.1-0.1,0.1-0.2l0.5-0.9
	c0.1-0.1,0.2-0.3,0.4-0.4l0.7-0.4l0.6-0.5c0.1-0.1,0.2-0.1,0.3-0.2l0.3-0.2l0.1-0.4c0.1-0.4,0.4-0.7,0.8-0.9c0.3-0.1,0.7-0.2,1-0.3
	c0.2-0.1,0.5-0.2,0.7-0.3c0.2-0.1,0.5-0.1,0.8-0.1l1.3,0.2l0.5-0.2c0.5-0.2,1-0.2,1.5,0.1l0.2,0.1l0.1-0.1c0.4-0.2,0.9-0.2,1.3,0
	l0.5,0.2h0.5h1c0.1,0,0.2,0,0.3,0l0.4,0.1l0.4-0.2c0.4-0.2,1-0.2,1.4,0l0.4,0.2l1.2-0.3c0.2,0,0.3-0.1,0.5-0.1h0.9
	c0.1,0,0.3,0,0.4,0.1l0.7,0.2l2.3,0.2l0.8-0.1h0.1l0.9-0.1l1.7-0.1l0.7-0.2c0.3-0.1,0.7-0.1,1,0l0.7,0.3l2.2,0.1l0.7-0.2
	c0.2,0,0.4,0,0.6,0l0.8,0.1h0.7l0.8-0.1c0.1,0,0.2,0,0.4,0l0.6,0.1l0.6-0.2c0.2-0.1,0.3-0.1,0.5-0.1h0.9c0.1,0,0.2,0,0.4,0.1
	l0.3,0.1l0.3-0.2c0.2-0.1,0.4-0.2,0.7-0.2h0.8l0.8-0.1c0.2,0,0.4,0,0.7,0.1l1.1,0.4l0.4-0.2c0.1-0.1,0.3-0.1,0.4-0.1l0.9-0.1
	c0.3,0,0.6,0,0.9,0.1l0.2,0.1l0.2-0.1c0.3-0.2,0.7-0.2,1-0.1l0.8,0.2l1.5,0.2l0.7-0.1c0.1,0,0.2,0,0.3,0h0.8l0.8-0.1
	c0.1,0,0.3,0,0.4,0l0.6,0.1l0.5-0.1l0.8-0.3c0.3-0.1,0.6-0.1,0.9,0l0.7,0.2H99l0.7-0.2c0.3-0.1,0.6,0,0.9,0.1l0.3,0.1l0.3-0.1
	c0.4-0.1,0.7-0.1,1.1,0l0.2,0.1l0.4,0.2h1c0.8,0,1.5,0.7,1.5,1.5c0.1,0.2,0.2,0.3,0.3,0.6c0.2,0.4,0.2,0.8,0,1.2
	c-0.1,0.2-0.1,0.3-0.2,0.5l0.1,0.2c0.1,0.2,0.1,0.5,0.1,0.8l-0.1,0.7v0.5l0.2,0.7c0.1,0.2,0.1,0.4,0.1,0.5V69v0.8c0,0.1,0,0.2,0,0.3
	l-0.1,0.7l0.2,4.3c0,0.1,0,0.2,0,0.2l-0.1,0.8V77c0,0.1,0,0.2,0,0.3l-0.2,0.9v0.1l-0.1,0.5l0.1,0.5c0,0.1,0,0.2,0,0.3l0.1,1.8
	c0,0.1,0,0.2,0,0.3l-0.1,0.7l0.1,0.7c0,0.1,0,0.3,0,0.4l-0.1,0.7l0.1,0.7c0,0.1,0,0.2,0,0.3v0.9c0,0.2,0,0.3-0.1,0.5l-0.2,0.5
	l0.1,0.5v0.2v0.7c0.1,0.3,0.2,0.7,0.3,1.1c0.1,0.2,0.1,0.5,0,0.8c-0.2,0.8-1,1.3-1.8,1.2l-1-0.2l-0.6-0.1l-0.6,0.1
	c-0.2,0-0.4,0-0.6,0l-0.6-0.1l-1.6,0.2c-0.2,0-0.5,0-0.7-0.1L97.7,91h-0.4l-0.6,0.2c-0.2,0.1-0.4,0.1-0.6,0.1h-0.8l-0.8,0.1
	c-0.1,0-0.3,0-0.4,0l-1.8-0.2c-0.1,0-0.2,0-0.3-0.1l-0.3-0.1l-0.3,0.2c-0.3,0.2-0.7,0.2-1.1,0.1L89,91l-0.6,0.1c-0.1,0-0.3,0-0.4,0
	L87.1,91h-0.9l-0.7,0.2c-0.1,0-0.2,0-0.2,0h-0.8l-0.8,0.2c-0.3,0.1-0.7,0-1-0.1l-0.2-0.1l-0.2,0.1c-0.4,0.2-0.9,0.2-1.3,0l-0.6-0.3
	h-0.3l-0.6,0.3c-0.2,0.1-0.3,0.1-0.5,0.1h-0.9c-0.2,0-0.5,0-0.7-0.1L76.8,91h-0.6c0,0-0.1,0-0.1,0h-0.8L74.5,91c-0.1,0-0.2,0-0.4,0
	l-0.5-0.1l-0.5,0.2c-0.2,0.1-0.5,0.1-0.7,0.1l-0.5-0.1l-0.5,0.2C71.2,91.4,71,91.5,70.8,91.5z M92.7,88.3l1.4,0.1l0.7-0.1
	c0.1,0,0.2,0,0.3,0h0.6l0.6-0.2C96.6,88,96.8,88,97,88l0.9,0.1c0.1,0,0.2,0,0.3,0.1l0.6,0.2l1.4-0.2c0.2,0,0.3,0,0.5,0l0.6,0.1
	l0.6-0.2c0.2,0,0.3,0,0.5,0l0,0l-0.2-0.8c-0.1-0.3,0-0.6,0.1-0.9l0.3-0.7v-0.5l-0.1-0.7c0-0.1,0-0.3,0-0.4l0.1-0.7l-0.1-0.7
	c0-0.2,0-0.3,0-0.5l0.1-0.7l-0.1-1.5l-0.2-0.8c-0.1-0.3-0.1-0.5,0-0.8l0.2-0.8l0.1-0.7v-0.8c0-0.1,0-0.1,0-0.2l0.1-0.8l-0.2-4.3
	c0-0.1,0-0.3,0-0.4l0.2-0.7V69v-0.7l-0.2-0.6c0-0.1-0.1-0.2-0.1-0.4l-0.1-0.9c0-0.1,0-0.2,0-0.3l0.1-0.5l-0.2-0.5
	c-0.2-0.4-0.2-0.8,0-1.2c-0.1,0-0.2-0.1-0.4-0.1l-0.2-0.1l-0.4,0.1c-0.4,0.1-0.8,0.1-1.1,0l-0.5-0.2l-0.4,0.1c-0.1,0-0.2,0-0.3,0H98
	c-0.2,0-0.3,0-0.4-0.1l-0.4-0.1l-0.4,0.2h-0.2l-0.9,0.2c-0.2,0-0.4,0-0.6,0l-0.7-0.1l-0.7,0.1h-0.2h-0.7L92,63.9c-0.2,0-0.3,0-0.5,0
	l-1.8-0.3h-0.1l-0.4-0.1l-0.4,0.2c-0.4,0.2-0.9,0.2-1.3,0L87,63.5h-0.2l-0.7,0.3c-0.3,0.1-0.7,0.2-1,0.1l-0.9-0.2L84,63.6l-0.6-0.2
	h-0.6h-0.6l-0.6,0.3c-0.4,0.2-0.8,0.2-1.1,0.1l-0.7-0.2h-0.4l-0.7,0.2c-0.2,0.1-0.5,0.1-0.7,0l-0.7-0.1l-0.7,0.1h-0.2h-0.9h-0.2
	l-0.6-0.1l-0.6,0.2c-0.2,0-0.3,0.1-0.5,0.1L71,63.7c-0.1,0-0.3,0-0.4-0.1l-0.3-0.1l-0.4,0.1c-0.1,0-0.2,0-0.3,0.1l-2.6,0.1L66,64
	h-0.3h-0.9h-0.1L63,63.8c-0.1,0-0.3,0-0.4-0.1l-0.7-0.2h-0.4l-1.6,0.4c-0.4,0.1-0.7,0-1.1-0.1l-0.2-0.1l-0.2,0.1
	c-0.3,0.2-0.7,0.2-1,0.2l-0.7-0.1l-1.5,0.1c-0.3,0-0.6,0-0.8-0.1l-0.2-0.1L54,63.8c-0.5,0.2-1,0.2-1.5-0.1l-0.2-0.1l-0.1,0.1
	c-0.2,0.1-0.5,0.2-0.8,0.2l-1.5-0.2l-0.2,0.1c-0.1,0.1-0.3,0.1-0.4,0.2l-0.1,0.2c-0.1,0.4-0.4,0.6-0.7,0.8l-0.7,0.3l-0.6,0.5
	L47,65.9l-0.6,0.3l-0.3,0.4l-0.4,0.7c-0.1,0.1-0.1,0.2-0.2,0.3l-1.1,1.3c0,0,0,0.1-0.1,0.1l-0.6,0.7c-0.1,0.2-0.3,0.3-0.5,0.3
	l-0.3,0.1l-0.1,0.3c-0.1,0.2-0.2,0.4-0.4,0.6L41,72.2c-0.1,0.1-0.2,0.2-0.3,0.2l-0.6,0.3l-0.4,0.5c0,0-0.1,0.1-0.1,0.1l-1.2,1.2
	l-0.6,0.6l-0.2,0.2l-0.6,0.4l-0.3,0.4l0.7,0.3c0.1,0.1,0.2,0.1,0.3,0.2l0.7,0.6l0.1,0.1l0.6,0.7c0.1,0.2,0.2,0.3,0.3,0.5l0.2,0.4
	l0.3,0.2c0.2,0.1,0.3,0.2,0.5,0.4l0.4,0.6l1.2,1l0.7,0.4c0.3,0.2,0.5,0.4,0.6,0.7l0.2,0.4l0.4,0.2l0.1,0.1l0.8,0.5
	c0.1,0.1,0.3,0.2,0.4,0.4l0.3,0.5l0.5,0.3c0.3,0.1,0.5,0.4,0.7,0.7l0.2,0.4l0.4,0.2c0.4,0.2,0.7,0.5,0.8,0.9l0.1,0.3l0.2,0.1
	c0.2,0.1,0.4,0.2,0.5,0.3l0.6,0.6l0.1,0.1l1.1,0.1l0.7-0.2c0.3-0.1,0.5-0.1,0.8,0l1.3,0.3l0.5-0.2c0.1,0,0.2-0.1,0.3-0.1l0.9-0.2
	c0.2,0,0.3,0,0.5,0l0.8,0.1h0.8c0.1,0,0.3,0,0.4,0.1l0.2,0.1l0.3-0.2c0.4-0.2,0.8-0.3,1.2-0.1l0.7,0.2h0.5l0.7-0.2
	c0.3-0.1,0.6,0,0.9,0.1l0.3,0.1l0.3-0.2c0.3-0.2,0.7-0.2,1.1-0.1l0.7,0.2h0.7h0.7l0.8-0.2c0.3-0.1,0.6-0.1,0.8,0l0.6,0.2l0.6-0.1H69
	h0.9c0.1,0,0.2,0,0.3,0l0.4,0.1l0.4-0.2c0.3-0.1,0.5-0.1,0.8-0.1l0.5,0.1l0.6-0.2c0.2-0.1,0.5-0.1,0.8-0.1l0.7,0.1l0.7-0.1
	c0.1,0,0.1,0,0.2,0l0.8,0.1h0.8c0.2,0,0.4,0.1,0.6,0.1l0.6,0.2h0.3l0.7-0.1c0.2-0.1,0.4-0.1,0.6-0.1h0.9c0.2,0,0.5,0.1,0.7,0.2
	l0.2,0.1l0.2-0.1c0.4-0.2,0.9-0.2,1.3,0l0.4,0.2l0.4-0.1c0.1,0,0.2,0,0.3,0H85l0.8-0.2h0.3H87h0.2l0.7,0.1l0.7-0.1
	c0.2,0,0.4,0,0.6,0l1.3,0.3l0.4-0.2c0.4-0.2,0.8-0.2,1.2-0.1L92.7,88.3z"/>
<polygon class="st0" points="206,29.5 184.7,8.6 120.3,8.6 120.3,50.2 184.7,50.2 "/>
<path class="st3" d="M157,44.9h-0.3l-0.7-0.1h-0.7h-0.2h-0.8h-0.9c-0.2,0-0.4,0-0.6-0.1l-0.6-0.2h-0.3l-0.7,0.3
	c-0.2,0.1-0.4,0.1-0.6,0.1h-0.9c-0.2,0-0.5,0-0.7-0.1l-0.2-0.1l-0.2,0.1c-0.4,0.2-0.9,0.2-1.3,0l-0.4-0.2l-0.4,0.1
	c-0.1,0-0.2,0-0.3,0h-0.8l-0.8,0.2h-0.3h-0.9h-0.2l-0.7-0.1l-0.7,0.1c-0.2,0-0.4,0-0.6,0l-1.3-0.3l-0.4,0.2
	c-0.4,0.2-0.8,0.2-1.2,0.1l-0.7-0.3l-1.4-0.1l-0.7,0.1h-0.3h-0.6l-0.6,0.2c-0.2,0.1-0.4,0.1-0.7,0.1l-0.9-0.1c-0.1,0-0.2,0-0.3-0.1
	l-0.6-0.2l-1.4,0.2c-0.2,0-0.3,0-0.5,0l-0.6-0.1l-0.6,0.1c-0.2,0-0.4,0-0.6,0c-0.4-0.1-0.7-0.2-0.9-0.2s-0.6-0.2-0.8-0.3
	c-0.5-0.2-0.8-0.6-0.9-1.1c-0.1-0.1-0.1-0.3-0.2-0.5c-0.1-0.2-0.1-0.3-0.1-0.5v-0.8l-0.2-0.8c-0.1-0.3,0-0.6,0.1-0.9l0.3-0.7v-0.5
	l-0.1-0.7c0-0.1,0-0.3,0-0.4l0.1-0.7L125,36c0-0.2,0-0.3,0-0.5l0.1-0.7l-0.1-1.5l-0.2-0.8c-0.1-0.3-0.1-0.5,0-0.8L125,31l0.1-0.7
	v-0.7c0-0.1,0-0.1,0-0.2l0.1-0.8l-0.2-4.3c0-0.1,0-0.3,0-0.4l0.2-0.7v-0.7v-0.7l-0.2-0.6c0-0.1-0.1-0.2-0.1-0.4l-0.1-0.9
	c0-0.1,0-0.2,0-0.3l0.1-0.5l-0.2-0.5c-0.1-0.5-0.1-0.9,0.2-1.3l0.1-0.2l0,0c-0.1-0.1-0.1-0.3-0.1-0.5c0-0.2-0.1-0.3-0.1-0.5v-0.5
	c0-0.8,0.7-1.5,1.5-1.5h1.4c0.2,0,0.3,0,0.5,0.1l0.5,0.2l0.4-0.1c0.4-0.1,0.8-0.1,1.1,0l0.5,0.2l0.4-0.1c0.1,0,0.2,0,0.3,0h0.9
	c0.2,0,0.3,0,0.4,0.1l0.4,0.1l0.4-0.2l0.2,0l0.9-0.2c0.2,0,0.4,0,0.6,0l0.7,0.1l0.7-0.1h0.2h0.7l0.7-0.1c0.2,0,0.3,0,0.5,0l1.8,0.3
	h0.1l0.4,0.1l0.4-0.2c0.4-0.2,0.9-0.2,1.3,0l0.5,0.2h0.2l0.7-0.3c0.3-0.1,0.7-0.2,1-0.1l0.9,0.2l0.2,0.1l0.6,0.2h0.6h0.6l0.6-0.3
	c0.4-0.2,0.8-0.2,1.1-0.1l0.7,0.2h0.4l0.6-0.2c0.2-0.1,0.5-0.1,0.7,0l0.7,0.1l0.7-0.1h0.2h0.9h0.2l0.6,0.1l0.6-0.2
	c0.2,0,0.3-0.1,0.5-0.1l2.8,0.2c0.1,0,0.3,0,0.4,0.1l0.4,0.2l0.4-0.1c0.1,0,0.2,0,0.3-0.1l2.6-0.1l0.8-0.2h0.3h0.9h0.1l1.7,0.2
	c0.1,0,0.3,0,0.4,0.1l0.7,0.2h0.4l1.6-0.5c0.4-0.1,0.7,0,1.1,0.1l0.2,0.1l0.2-0.1c0.3-0.2,0.7-0.2,1-0.2l0.7,0.1l1.5-0.1
	c0.3,0,0.6,0,0.8,0.1l0.2,0.1l0.2-0.1c0.5-0.2,1-0.2,1.5,0.1l0.2,0.1l0.1-0.1c0.2-0.1,0.5-0.2,0.8-0.2l1.5,0.2
	c0.2-0.1,0.5-0.2,0.7-0.2c0.4-0.1,0.7-0.1,1.1,0.1c0.3,0.1,0.6,0.4,0.7,0.7l0.2,0.5l0.3,0.1c0.4,0.1,0.6,0.4,0.8,0.7l0.4,0.7
	l0.5,0.5l0.1,0.2l0.4,0.5l0.4,0.3l0.7,0.4c0.1,0.1,0.2,0.1,0.3,0.2l1.3,1.1c0,0,0.1,0,0.1,0.1l0.7,0.6c0.2,0.1,0.3,0.3,0.4,0.5
	l0.1,0.3l0.3,0.1c0.2,0.1,0.4,0.2,0.6,0.4l1.2,1.3c0.1,0.1,0.2,0.2,0.2,0.3l0.3,0.6l0.5,0.4l0.1,0.1l1.2,1.2l0.6,0.6
	c0.1,0.1,0.1,0.1,0.2,0.2l0.4,0.5l0.6,0.4c0.2,0.1,0.3,0.3,0.4,0.5l0.4,0.9l-1.1,0.5l0.8,1.2l-0.6,0.4l-0.3,0.4l-0.4,0.7
	c-0.1,0.1-0.1,0.2-0.2,0.3l-0.6,0.7l-0.1,0.1l-0.7,0.6c-0.2,0.1-0.3,0.2-0.5,0.3l-0.4,0.2l-0.2,0.3c-0.1,0.2-0.3,0.3-0.4,0.5
	l-0.6,0.4l-1.1,1.1l-0.4,0.7c-0.2,0.3-0.4,0.4-0.7,0.6l-0.4,0.2l-0.2,0.4l-0.1,0.1l-0.6,0.7c-0.1,0.2-0.2,0.3-0.4,0.4l-0.5,0.3
	l-0.3,0.5c-0.2,0.3-0.4,0.5-0.7,0.6l-0.4,0.2l-0.2,0.4c-0.2,0.4-0.5,0.6-0.9,0.8l-0.3,0.1l-0.1,0.2c-0.1,0.2-0.2,0.4-0.3,0.5
	l-0.6,0.7l-0.2,0.2l-0.5,0.3c-0.3,0.2-0.7,0.3-1.1,0.2l-1.3-0.1h-0.6l-0.7,0.2c-0.3,0.1-0.5,0.1-0.8,0l-1.3-0.3l-0.5,0.2l-0.3,0.1
	l-0.9,0.2c-0.2,0-0.3,0-0.5,0l-0.8-0.1h-0.8c-0.1,0-0.3,0-0.4-0.1l-0.2-0.1l-0.3,0.2c-0.4,0.2-0.8,0.3-1.2,0.1l-0.7-0.2h-0.5
	l-0.7,0.2c-0.3,0.1-0.6,0-0.9-0.1l-0.3-0.1l-0.3,0.1c-0.3,0.2-0.7,0.2-1.1,0.1l-0.7-0.2H165h-0.7l-0.8,0.2c-0.3,0.1-0.6,0-0.8-0.1
	l-0.6-0.2l-0.6,0.1h-0.2h-0.9c-0.1,0-0.2,0-0.3,0l-0.4-0.1l-0.4,0.2c-0.3,0.1-0.5,0.2-0.8,0.1l-0.5-0.1l-0.6,0.2
	C157.3,45,157.1,45,157,44.9z M173.5,41.7h0.7h0.2l0.6,0.1l0.5-0.1l0.8-0.3c0.3-0.1,0.6-0.1,0.9-0.1l0.9,0.2h0.1l0.5,0.2l0.5-0.1
	c0.1,0,0.3-0.1,0.4-0.1l1.8,0.1l0.2-0.2l0.2-0.6c0.2-0.4,0.5-0.8,1-0.9l0.4-0.1l0.1-0.3c0.2-0.3,0.4-0.6,0.7-0.7l0.4-0.2l0.2-0.4
	c0.1-0.2,0.3-0.4,0.5-0.5l0.5-0.4l0.3-0.4l0.4-0.7c0.2-0.3,0.4-0.5,0.7-0.6l0.5-0.2l0.3-0.4c0-0.1,0.1-0.2,0.2-0.2l1.2-1.3
	c0.1-0.1,0.2-0.2,0.2-0.2l0.5-0.3l0.3-0.5c0.2-0.3,0.5-0.5,0.8-0.7l0.6-0.2l0.4-0.3l0.4-0.5L193,30c0-0.1,0.1-0.2,0.2-0.3l0.3-0.4
	l0,0c-0.1-0.1-0.2-0.2-0.3-0.3l-0.5-0.6l-1.2-1.1l-0.6-0.6l-0.6-0.5c-0.1-0.1-0.3-0.3-0.4-0.4l-0.4-0.6l-0.9-1l-0.6-0.2
	c-0.4-0.1-0.7-0.4-0.8-0.8l-0.3-0.6l-0.4-0.3l-1.3-1.1l-0.7-0.4l-0.2-0.1l-0.7-0.5c-0.1-0.1-0.3-0.2-0.4-0.4L183,19l-0.5-0.6
	c-0.1-0.1-0.2-0.2-0.2-0.3l-0.2-0.3l-0.4-0.1c-0.3-0.1-0.5-0.3-0.7-0.5c-0.2,0-0.3,0-0.5,0l-1.3-0.1l-0.5,0.2
	c-0.5,0.2-1,0.2-1.5-0.1l-0.2-0.1l-0.1,0.1c-0.4,0.2-0.9,0.2-1.3,0l-0.5-0.2l-0.5,0.1h-1c-0.1,0-0.2,0-0.4,0l-0.4-0.1l-0.4,0.2
	c-0.4,0.2-1,0.2-1.4,0l-0.4-0.2l-1.2,0.3c-0.2,0.1-0.3,0.1-0.5,0.1l-0.9,0c-0.1,0-0.3,0-0.4-0.1L167,17l-2.3-0.2l-0.8,0.1h-0.1
	l-0.9,0.1l-1.6,0.1l-0.7,0.2c-0.3,0.1-0.7,0.1-1,0l-0.7-0.3l-2.2-0.1l-0.7,0.2c-0.2,0-0.4,0-0.6,0l-0.8-0.1h-0.7L153,17
	c-0.1,0-0.2,0-0.4,0l-0.6-0.1l-0.6,0.2c-0.2,0-0.3,0.1-0.5,0.1l-0.8,0c-0.1,0-0.3,0-0.4-0.1l-0.3-0.1l-0.4,0.2
	c-0.2,0.1-0.4,0.2-0.7,0.2h-0.8l-0.8,0.1c-0.2,0-0.4,0-0.6-0.1l-1.1-0.4l-0.4,0.2c-0.1,0.1-0.3,0.1-0.4,0.1l-0.9,0.1
	c-0.3,0-0.6,0-0.9-0.1l-0.3-0.1l-0.2,0.1c-0.3,0.1-0.7,0.2-1,0.1l-0.8-0.2l-1.5-0.2l-0.6,0.1c-0.1,0-0.2,0-0.3,0h-0.8l-0.8,0.1
	c-0.1,0-0.3,0-0.4,0l-0.6-0.1l-0.5,0.1l-0.8,0.3c-0.3,0.1-0.6,0.1-0.9,0l-0.7-0.2h-0.5l-0.7,0.2c-0.3,0.1-0.6,0-0.9-0.1l-0.3-0.1
	l-0.3,0.1c-0.3,0.1-0.7,0.1-1.1,0l0,0c0,0.3-0.2,0.6-0.3,0.8l0,0l0.1,0.2c0.1,0.3,0.1,0.5,0.1,0.8l-0.1,0.7v0.5l0.2,0.7
	c0.1,0.2,0.1,0.4,0.1,0.5v0.9v0.8c0,0.1,0,0.2,0,0.3l-0.1,0.7l0.2,4.3c0,0.1,0,0.2,0,0.2l-0.1,0.8v0.8c0,0.1,0,0.2,0,0.3l-0.2,0.9
	v0.1l-0.1,0.5l0.1,0.5c0,0.1,0,0.2,0,0.3l0.1,1.8c0,0.1,0,0.2,0,0.3l-0.1,0.7l0.1,0.7c0,0.1,0,0.3,0,0.4l-0.1,0.7l0.1,0.7
	c0,0.1,0,0.2,0,0.3v0.9c0,0.2,0,0.3-0.1,0.5l-0.2,0.5L128,41v0.2v0.5l0.2,0.1l0.6-0.1c0.2,0,0.4,0,0.6,0l0.6,0.1l1.6-0.2
	c0.2,0,0.5,0,0.7,0.1l0.7,0.2h0.4l0.6-0.2c0.2-0.1,0.4-0.1,0.6-0.1h0.7l0.8-0.1c0.1,0,0.3,0,0.4,0l1.8,0.2c0.1,0,0.2,0,0.4,0.1
	l0.3,0.1l0.3-0.2c0.3-0.2,0.7-0.2,1.1-0.1l1.5,0.4l0.6-0.1c0.1,0,0.3,0,0.4,0l0.8,0.1h0.6l0.7-0.2h0.2h0.7l0.8-0.2
	c0.3-0.1,0.7,0,1,0.1l0.2,0.1l0.2-0.1c0.4-0.2,0.9-0.2,1.3,0l0.6,0.3h0.3l0.6-0.3c0.2-0.1,0.3-0.1,0.5-0.1h0.9c0.2,0,0.5,0,0.7,0.1
	l0.6,0.3h0.7h0.8l0.8-0.1c0.1,0,0.2,0,0.4,0l0.5,0.1l0.5-0.2c0.2-0.1,0.5-0.1,0.7-0.1l0.5,0.1l0.5-0.2c0.3-0.1,0.6-0.2,0.9-0.1
	l0.7,0.2h0.6l0.8-0.1c0.2,0,0.4,0,0.7,0.1l0.5,0.2l0.5-0.1c0.1,0,0.2,0,0.3,0h0.9h0.1h0.9c0.1,0,0.3,0,0.4,0.1l0.3,0.1l0.4-0.2
	c0.4-0.2,0.8-0.2,1.2,0l0.5,0.2l0.4-0.1c0.1,0,0.2,0,0.4,0h0.9c0.2,0,0.3,0,0.5,0.1l0.2,0.1l0.3-0.2c0.4-0.2,0.8-0.3,1.2-0.1
	L173.5,41.7z"/>
<polygon class="st4" points="33.8,165.2 33.8,165.9 33.7,166.6 33.6,167.3 33.3,168 32.9,168.5 32.5,169.1 32.1,169.7 31.6,170.2 
	31.1,170.7 30.5,171 29.8,171.3 29.2,171.5 28.5,171.8 27.8,171.9 27.1,171.9 26.4,171.8 25.7,171.7 25,171.6 24.4,171.4 23.8,171 
	23.2,170.6 22.7,170.2 22.2,169.6 21.6,169.2 21.3,168.6 21.1,167.9 20.7,167.3 20.5,166.6 20.4,165.9 20.4,165.2 20.4,164.5 
	20.6,163.8 20.8,163.2 21,162.5 21.4,161.9 21.6,161.2 22.1,160.7 22.6,160.2 23.2,159.8 23.8,159.5 24.4,159.1 25.1,158.9 
	25.8,158.7 26.4,158.5 27.1,158.6 27.8,158.6 28.5,158.6 29.2,158.9 29.9,159.1 30.5,159.4 31.1,159.7 31.6,160.2 32.1,160.7 
	32.6,161.3 32.9,161.9 33.2,162.5 33.6,163.1 33.7,163.8 33.7,164.5 "/>
<polygon class="st4" points="26.3,177.1 26.3,177.8 26.1,178.5 25.9,179.2 25.6,179.9 25.2,180.4 24.9,181 24.4,181.5 23.9,182 
	23.4,182.5 22.7,182.7 22,183 21.4,183.2 20.7,183.4 20,183.4 19.3,183.3 18.6,183.3 17.9,183.1 17.3,182.8 16.6,182.4 16.1,182 
	15.5,181.6 15.1,181 14.6,180.5 14.3,179.9 14.1,179.2 13.8,178.5 13.7,177.8 13.7,177.1 13.7,176.4 13.9,175.7 14.1,175.1 
	14.3,174.4 14.6,173.8 15.1,173.3 15.5,172.6 16.1,172.2 16.6,171.8 17.3,171.5 17.9,171.2 18.6,171 19.3,171 20,170.9 20.7,170.9 
	21.4,171 22,171.2 22.7,171.5 23.3,171.8 23.9,172.2 24.5,172.6 24.9,173.2 25.3,173.8 25.6,174.4 25.9,175 26.1,175.7 26.3,176.4 
	"/>
<polygon class="st4" points="40.5,177.1 40.4,177.8 40.4,178.5 40.1,179.2 40,179.9 39.6,180.5 39.1,181 38.6,181.5 38.2,182 
	37.6,182.4 37,182.8 36.3,183 35.7,183.2 35,183.4 34.3,183.4 33.6,183.3 32.9,183.2 32.2,183.1 31.6,182.7 30.9,182.5 30.4,182 
	29.8,181.6 29.4,181 29,180.5 28.7,179.8 28.4,179.2 28.1,178.5 28,177.8 27.9,177.1 28.1,176.4 28.1,175.7 28.4,175.1 28.6,174.4 
	28.9,173.8 29.4,173.3 29.8,172.6 30.4,172.2 30.9,171.8 31.6,171.5 32.2,171.2 32.9,171.1 33.6,171 34.3,171 35,170.9 35.7,171 
	36.3,171.2 36.9,171.6 37.6,171.9 38.2,172.2 38.8,172.6 39.2,173.2 39.6,173.8 39.9,174.4 40.2,175.1 40.3,175.7 40.5,176.4 "/>
<polygon class="st4" points="193.2,140.7 193.3,141.4 193.2,142.2 193.2,142.9 193.1,143.6 193,144.4 192.8,145.1 192.8,145.8 
	192.6,146.5 192.4,147.2 192.3,148 192,148.7 191.8,149.4 191.6,150.1 191.3,150.7 191,151.4 190.7,152.1 190.5,152.8 190.1,153.4 
	189.8,154.1 189.5,154.8 189.2,155.4 188.8,154.7 188.4,154.1 188.1,153.4 187.8,152.8 187.6,152.1 187.2,151.5 187,150.8 
	186.8,150 186.5,149.4 186.4,148.6 186.1,148 185.9,147.2 185.8,146.5 185.6,145.8 185.4,145.1 185.3,144.4 185.3,143.6 
	185.2,142.9 185.1,142.2 185.1,141.4 185.1,140.7 185.1,140 185.2,139.2 185.2,138.5 185.2,137.7 185.4,137 185.4,136.3 
	185.6,135.6 185.7,134.8 186,134.1 186.1,133.4 186.3,132.7 186.5,132 186.7,131.3 187.1,130.7 187.3,130 187.6,129.3 187.8,128.6 
	188.1,127.9 188.4,127.2 188.8,126.6 189.2,126 189.6,126.6 189.9,127.3 190.1,128 190.4,128.6 190.8,129.3 191.1,129.9 
	191.3,130.6 191.5,131.3 191.9,132 192,132.7 192.3,133.4 192.5,134.1 192.7,134.8 192.7,135.6 192.9,136.3 193,137 193.2,137.7 
	193.2,138.5 193.3,139.2 193.3,139.9 "/>
<polygon class="st4" points="182.2,148.6 182.7,149.2 183.1,149.8 183.6,150.4 184,150.9 184.5,151.5 184.9,152.1 185.3,152.7 
	185.7,153.3 186.2,153.9 186.5,154.5 186.8,155.2 187.3,155.8 187.5,156.5 188,157.1 188.2,157.8 188.5,158.5 188.7,159.2 
	189.1,159.9 189.3,160.6 189.4,161.3 189.6,161.9 188.9,161.8 188.2,161.6 187.5,161.4 186.9,161 186.1,160.9 185.5,160.5 
	184.8,160.2 184.1,160 183.5,159.7 182.8,159.3 182.2,159 181.6,158.5 180.9,158.2 180.3,157.8 179.7,157.4 179.1,156.9 
	178.5,156.5 178,156 177.4,155.5 176.8,155.1 176.4,154.4 175.8,154 175.3,153.4 174.9,152.8 174.3,152.3 174,151.7 173.4,151.2 
	173.1,150.5 172.6,149.9 172.2,149.3 171.9,148.7 171.5,148 171.2,147.4 170.9,146.7 170.5,146 170.2,145.4 170,144.7 169.8,143.9 
	169.5,143.3 169.2,142.6 168.9,141.9 168.8,141.2 169.5,141.5 170.3,141.6 170.9,141.9 171.6,142 172.3,142.3 173,142.6 173.6,143 
	174.3,143.2 175,143.5 175.6,143.9 176.3,144.2 176.9,144.6 177.5,145.1 178.1,145.5 178.8,145.8 179.3,146.3 179.9,146.7 
	180.4,147.3 181.1,147.7 181.6,148.2 "/>
<path class="st3" d="M189.6,186l-0.7-1.3l-0.9,0.6l-0.1-0.2c-0.3-0.4-0.3-0.8-0.2-1.2l0,0c-0.1-0.2-0.1-0.5,0-0.7
	c0-0.1,0-0.3-0.1-0.4c0-0.1,0-0.2,0-0.3c-0.2-0.4-0.2-1,0-1.4v-0.1c-0.1-0.2-0.2-0.5-0.2-0.8c0-0.2,0.1-0.4,0.1-0.5c0,0,0-0.1,0-0.1
	c-0.1-0.2-0.1-0.3-0.1-0.5c0-0.1,0-0.1,0-0.2c-0.1-0.2-0.1-0.5,0-0.7V178c0-0.1,0.1-0.2,0.1-0.3c-0.2-0.3-0.3-0.6-0.2-0.9
	c0-0.3,0.1-0.5,0.2-0.7c0-0.2,0-0.3,0-0.5c0-0.1-0.1-0.2-0.1-0.4c-0.1-0.2-0.1-0.4-0.1-0.5c0-0.5,0-0.9,0-1.4c0-0.3,0-0.6,0.2-0.9
	c-0.1-0.2-0.2-0.5-0.2-0.7c0-0.2,0-0.3,0.1-0.5c0-0.1,0-0.2,0-0.3c0,0,0-0.1,0-0.1c0-0.1,0-0.2,0-0.2c-0.1-0.2-0.1-0.4-0.1-0.5
	c0-0.1,0-0.2,0-0.3c-0.1-0.3-0.1-0.5-0.1-0.8l0,0l0,0c0-0.2,0-0.3,0.1-0.5c0,0,0-0.1,0-0.1v-0.2c-0.1-0.3,0-0.6,0.1-0.9
	c0-0.1,0-0.1,0.1-0.2c0-0.2,0-0.4,0-0.6c-0.1-0.2-0.1-0.5-0.1-0.7c-0.1-0.2-0.1-0.3-0.1-0.5c0-0.3,0-0.5,0.1-0.7c0-0.2,0-0.5,0-0.7
	l0,0c-0.1-0.3-0.1-0.6,0-0.9c0,0,0-0.1,0-0.1c0-0.3,0-0.6,0.2-0.9c-0.1-0.2-0.1-0.5-0.1-0.7c0-0.1,0-0.2,0-0.3c0-0.1,0-0.2,0-0.3
	c0.2-0.5,0.1-1.1-0.1-1.6c0-0.3,0-0.6,0.1-0.8c0-0.1,0-0.2,0.1-0.3l0,0c-0.1-0.2-0.1-0.3-0.1-0.5c0-0.1,0-0.3,0.1-0.4
	c0-0.1-0.1-0.2-0.1-0.4c0-0.2,0-0.4,0.1-0.5c0-0.1-0.1-0.2-0.1-0.2c0.3-0.5,0.3-1.1,0.1-1.6c0.2-0.4,0.2-0.9,0-1.3
	c0-0.1,0-0.2,0.1-0.4c-0.1-0.2-0.1-0.5-0.1-0.7c0-0.1,0-0.1,0-0.2c-0.2-0.5-0.1-1.1,0.3-1.6l0.2-0.2l0.6,0.6l0.2-0.1l0.2,0.4
	l0.1,0.1l0.2-0.1l0.5-0.9l0.3,0.2c0.4,0.2,0.6,0.5,0.7,0.9l0.1,0.2c0,0.2,0,0.4,0,0.7v0.2c0,0.1-0.1,0.2-0.1,0.4
	c0.1,0.2,0.1,0.4,0.1,0.7l0,0c0,0.1,0,0.1,0,0.1c0.1,0.2,0.1,0.4,0.1,0.6c0,0.1,0,0.1,0,0.2c0,0.1,0,0.1,0,0.2c0,0.1,0,0.1,0,0.2
	v-0.1c0,0.2,0,0.4-0.1,0.7c0,0.1,0,0.2,0,0.2c0,0,0,0.1,0,0.1c0.1,0.3,0.1,0.6,0.1,0.9c0,0.1,0,0.1,0,0.2c0,0.2,0,0.4-0.1,0.6
	c0,0.1,0,0.2,0,0.2c0,0.2,0,0.5-0.1,0.7c0,0.1,0,0.2,0,0.3c0,0.1,0,0.2-0.1,0.3c0.1,0.2,0.2,0.3,0.2,0.5c0,0.3,0,0.5-0.1,0.8
	c0,0.1,0,0.2,0,0.2l0,0c0,0.1,0,0.2,0.1,0.3v0.3c0,0.1,0,0.2,0,0.3c0,0.1,0,0.2,0,0.4c0,0.1,0,0.3,0,0.4v0.2l0,0c0,0.1,0,0.3,0,0.4
	v0.1c0,0.1,0,0.1,0,0.2c0,0.2,0,0.5-0.1,0.7l0,0c0.1,0.3,0.1,0.7-0.1,1l0,0c0,0.1,0.1,0.3,0.1,0.4c0,0.1,0,0.2,0,0.3
	c0.1,0.3,0.1,0.5,0.1,0.8c0,0.2-0.1,0.4-0.2,0.5l0,0c0.1,0.2,0.2,0.5,0.2,0.8c0,0.4-0.2,0.7-0.4,1l0,0v0.1c0,0.2,0,0.4,0,0.6l0,0
	c0.3,0.3,0.4,0.7,0.4,1.1c0,0.2-0.1,0.4-0.1,0.5v0.1c0,0.1,0,0.2,0,0.3c0,0.1,0,0.3-0.1,0.4c0.1,0.2,0.1,0.4,0.1,0.6
	c0,0.1,0,0.2,0,0.3c0.1,0.3,0.1,0.6,0,0.9c0,0.1,0,0.1,0,0.2c0,0.1,0.1,0.2,0.1,0.4c0,0.2,0,0.5-0.1,0.7c0,0.1,0,0.1,0,0.2
	c0,0.4-0.1,0.7-0.1,1.1c0.1,0.2,0.1,0.5,0,0.8l-0.1,0.4c0,0,0,0.1,0,0.1c0.2,0.3,0.3,0.7,0.2,1v0.2c0,0.1,0,0.2-0.1,0.3
	c0.1,0.2,0.1,0.4,0.1,0.7c0,0.2,0,0.3,0,0.5c0,0.1,0,0.2,0,0.2c0,0.1,0,0.2,0,0.4c0,0.1,0,0.3-0.1,0.4c0,0.1,0.1,0.3,0.1,0.5
	c0,0,0,0,0,0.1c0,0,0,0.1,0,0.1c0,0.3,0,0.5-0.2,0.8c0,0.1,0.1,0.2,0.1,0.3v0.2c0,0.1,0,0.2,0,0.4c0,0.2,0,0.5-0.1,0.7v0.1
	c0,0.1-0.1,0.2-0.1,0.4c0,0.1,0,0.2,0,0.4c0,0.2,0,0.4,0,0.6c-0.1,0.4-0.4,0.8-0.8,1L189.6,186z"/>
<path class="st3" d="M117.1,185.4L114,184h-0.2v-0.2l-0.2-0.1l0.2-0.4V183c0-0.2,0-0.5,0-0.7l0.1-0.7l-0.1-1.7v-0.1v-0.8l-0.1-0.8
	c0-0.3,0-0.6,0.1-0.9l0.2-0.6l0.1-1l-0.2-0.4c-0.3-0.6-0.3-1.3,0-1.9l0.2-0.4v-0.3l-0.1-0.8c0,0,0-0.1,0-0.1v-0.6l-0.2-0.6
	c0-0.1-0.1-0.2-0.1-0.4l-0.1-0.9c-0.1-0.3-0.1-0.6,0-0.9l0.2-0.8l0.1-0.7c0-0.2,0.1-0.4,0.1-0.5l0,0c-0.4-0.6-0.4-1.4,0-2
	c-0.2-0.4-0.2-0.8-0.1-1.3l0.2-1l-0.2-0.3c-0.4-0.7-0.4-1.5,0-2.1c-0.3-0.6-0.2-1.3,0.1-1.8l0.2-0.3v-0.2c0,0,0-0.1,0-0.1l-0.1-0.9
	c0-0.2,0-0.4,0.1-0.6v-0.1l-0.1-0.2c-0.5-0.7-0.5-1.6,0-2.3l0.1-0.1l-0.3-0.8c-0.1-0.3-0.2-0.6-0.1-0.9l0.1-0.9
	c0-0.2,0.1-0.5,0.2-0.7l0.3-0.6l0.1-0.6c0,0,0-0.1,0-0.1l0.1-0.8V147l-0.1-0.7c0-0.1,0-0.2,0-0.2l-0.1-0.9c0-0.1,0-0.1,0-0.2
	l-0.1-1.4l-0.2-0.6c-0.2-0.5-0.2-1.1,0.1-1.6l0.3-0.6l0.1-1.9l-0.2-0.5c-0.1-0.3-0.2-0.7-0.1-1.1l0.1-0.8v-0.6l-0.1-0.8
	c0-0.2,0-0.4,0-0.6l0.1-0.3l-0.1-0.4c-0.1-0.3-0.1-0.6-0.1-0.9l0.1-0.9c0-0.2,0-0.4,0.1-0.6l0,0c-0.2-0.3-0.3-0.7-0.3-1.1v-0.8
	l-0.1-0.8c0-0.4,0-0.7,0.2-1.1l0.4-0.7l-0.1-0.1c-0.1-0.2-0.2-0.4-0.3-0.7l-0.2-0.9c-0.1-0.4,0-0.9,0.2-1.3c-0.2-0.5-0.3-1-0.1-1.5
	l0.2-0.8l0.3-1.3l-0.1-0.5c0-0.2,0-0.4,0-0.6v-0.7l-0.1-0.8c0-0.2,0-0.5,0.1-0.7l0.1-0.4l-0.1-0.2l-0.4-0.8c-0.2-0.5-0.2-1.1,0-1.6
	l0.2-0.6v-0.3l-0.2-0.7c-0.1-0.5-0.1-1,0.1-1.5c-0.3-0.6-0.3-1.2,0-1.8l0.2-0.5v-0.9l-0.2-0.4c-0.4-0.7-0.3-1.5,0.1-2.1
	c-0.1-0.3-0.2-0.7-0.1-1.1l0.1-0.6v-0.3l-0.3-0.6c-0.1-0.3-0.2-0.6-0.2-0.9v-0.9v-0.9c0-0.2,0-0.4,0.1-0.6l0.2-0.6l-0.3-4.3
	c0-0.1,0-0.3,0-0.4l0.1-0.8v-0.8c0-0.2,0-0.3,0.1-0.5l0.2-0.9c0-0.1,0.1-0.2,0.1-0.2l0.1-0.3l-0.1-0.2c0-0.1-0.1-0.3-0.1-0.4
	l-0.2-1.9c0-0.2,0-0.4,0-0.6l0.1-0.5l-0.1-0.5c0-0.2,0-0.4,0-0.7l0.1-0.6l-0.1-0.6c0-0.2-0.1-0.4-0.1-0.6l0.1-0.9
	c0-0.3,0.1-0.6,0.2-0.8L114,82v-0.2c0-0.1-0.1-0.3-0.1-0.4v-0.6l-0.3-0.6c-0.2-0.5-0.2-1-0.1-1.4l0.4-1.2l-0.1-0.3
	c-0.1-0.3-0.1-0.7,0-1l0.1-0.5l-0.3-1.5c-0.1-0.4,0-0.8,0.1-1.2l0.3-0.7l-0.2-0.4c-0.2-0.3-0.2-0.7-0.2-1v-0.7l-0.1-0.7
	c0-0.2,0-0.4,0-0.7l0.2-1.9c0-0.2,0.1-0.3,0.1-0.5c-0.4-0.5-0.4-1.2-0.2-1.8l0.4-1.3l-0.1-0.4c0-0.3,0-0.5,0-0.8l0.1-0.8v-0.5
	l-0.2-0.7c0-0.1-0.1-0.3-0.1-0.4v-0.7l-0.2-0.7c-0.1-0.5-0.1-1,0.1-1.5c-0.4-0.6-0.4-1.4,0-2l0.2-0.4l-0.2-0.4
	c-0.1-0.2-0.2-0.5-0.2-0.8l-0.1-0.9c0-0.4,0-0.8,0.2-1.1l0.3-0.5v-0.4c0-0.1,0-0.1,0-0.2l0.1-0.7l-0.1-0.7c0-0.2,0-0.4,0-0.6
	l0.1-0.3L114,48c-0.2-0.4-0.2-0.8-0.1-1.2v-0.2l-0.2-0.3c-0.3-0.5-0.3-1-0.2-1.6l0.2-0.7v-0.5l-0.1-0.8c-0.1-0.4,0-0.8,0.2-1.1
	l0.1-0.2l-0.1-0.2c0-0.1-0.1-0.3-0.1-0.5l-0.1-0.9c0-0.1,0-0.1,0-0.2l0.1-0.9c0-0.2,0.1-0.4,0.1-0.6v-0.1c-0.4-0.6-0.4-1.4-0.1-2
	l0.1-0.2v-0.1c-0.1-0.2-0.1-0.4-0.1-0.6v-0.9c0-0.2,0-0.4,0.1-0.6c-0.4-0.6-0.5-1.3-0.2-2L114,31v-0.6c0-0.1,0-0.2,0-0.3l0.1-0.5
	l-0.1-0.3l-0.4-0.7c-0.2-0.4-0.3-1-0.1-1.4l0.2-0.9c0-0.1,0-0.1,0.1-0.2l0.1-0.3l-0.1-0.3c-0.1-0.2-0.1-0.5-0.1-0.7l0.1-0.9
	c0,0,0-0.1,0-0.2l0.1-0.9c0-0.1,0-0.1,0-0.2l0.1-0.7v-0.1l-0.3-0.5c-0.4-0.7-0.4-1.5,0-2.1l0,0c-0.2-0.5-0.2-1.1,0-1.6l0.1-0.2
	l-0.1-0.1c-0.1-0.4-0.2-0.8-0.1-1.2l0.1-0.5l-0.1-0.3l-0.3-0.8c-0.2-0.5-0.1-1.1,0.1-1.6l0.1-0.2v-0.2c0-0.2-0.1-0.3-0.1-0.5
	l-0.1-1.8c0-0.2,0-0.4,0-0.6l0.1-0.4l-0.1-0.4c-0.2-0.6-0.1-1.2,0.2-1.7l0.3-0.5V6.4V6l-0.3-0.6c-0.1-0.1-0.1-0.3-0.1-0.5l-0.2-0.9
	c-0.1-0.3-0.1-0.6,0-0.8l0.2-0.9l3.9,1l-0.1,0.5v0.3l0.3,0.7c0.1,0.2,0.2,0.4,0.2,0.7l0.1,0.9c0,0.1,0,0.2,0,0.2v0.9
	c0,0.4-0.1,0.7-0.3,1l-0.1,0.1l0,0c0.1,0.3,0.1,0.7,0.1,1.1l-0.1,0.7l0.1,0.7c0,0,0,0.1,0,0.1v0.7l0.2,0.7c0.1,0.5,0.1,1-0.2,1.5
	l-0.1,0.2v0.1c0,0.1,0,0.1,0.1,0.2l0.2,0.9c0.1,0.3,0.1,0.6,0,0.9l-0.1,0.3l0.1,0.3c0.2,0.5,0.2,1.1-0.1,1.6v0.1v0.1
	c0.3,0.6,0.2,1.2-0.1,1.8c0.1,0.3,0.2,0.5,0.2,0.8v0.9c0,0.2,0,0.3-0.1,0.5l-0.2,0.8l-0.1,1.2l0.2,0.6c0.2,0.4,0.2,0.9,0,1.3
	l-0.3,0.9l0.1,0.2c0.1,0.1,0.1,0.3,0.2,0.5l0.2,0.9c0.1,0.3,0.1,0.6,0,0.9l-0.2,0.8v0.8c0,0.2-0.1,0.4-0.1,0.6
	c0.4,0.6,0.5,1.3,0.2,2l-0.2,0.6v0.2l0.2,0.6c0.1,0.5,0.1,1-0.1,1.4c0.3,0.5,0.4,1.2,0.1,1.8l-0.2,0.6v0.5v0.6l0.2,0.7
	c0.1,0.5,0.1,1-0.1,1.4l-0.2,0.4v0.3c0,0.1,0,0.2,0,0.3v0.9c0,0.2,0,0.4-0.1,0.5v0.1l0.1,0.2c0.2,0.4,0.3,0.9,0.2,1.3l-0.1,0.3
	l0.2,0.4c0.2,0.4,0.2,0.8,0.1,1.2l-0.1,0.6l0.1,0.6c0,0.1,0,0.2,0,0.4l-0.1,0.8v0.8c0,0.3-0.1,0.7-0.2,0.9l-0.2,0.4l0.3,0.5
	c0.2,0.3,0.2,0.6,0.2,0.9v0.9c0,0.3-0.1,0.6-0.2,0.9c0.3,0.6,0.3,1.4-0.1,2l-0.1,0.2v0.1c0.1,0.2,0.1,0.3,0.1,0.5v0.7l0.2,0.7
	c0,0.2,0.1,0.4,0.1,0.6V62c0,0.1,0,0.2,0,0.3l-0.1,0.5l0.1,0.5c0.1,0.3,0,0.7-0.1,1l-0.3,1l0.1,0.1c0.4,0.6,0.5,1.4,0.2,2l-0.3,0.7
	l-0.1,1.2l0.1,0.6c0,0.2,0,0.3,0,0.5v0.4l0.2,0.5c0.2,0.4,0.2,0.8,0.2,1.1l-0.1,0.9c0,0.2-0.1,0.4-0.2,0.6l-0.1,0.3l0.2,1.2
	c0.1,0.3,0.1,0.6,0,0.8l-0.1,0.4l0.1,0.4c0.1,0.4,0.1,0.8,0,1.2l-0.4,1.2l0.1,0.2c0.1,0.2,0.2,0.5,0.2,0.7v0.7l0.2,0.7
	c0.1,0.5,0.1,1-0.2,1.4l-0.3,0.5v0.2l0.1,0.6c0,0.2,0,0.5,0,0.8l-0.1,0.6l0.1,0.6c0.1,0.3,0.1,0.5,0,0.8l-0.1,0.6l0.1,1.3l0.2,0.7
	c0.2,0.4,0.2,0.9,0,1.3l-0.3,0.8l-0.1,0.6v0.7c0,0.1,0,0.2,0,0.3l-0.1,0.7l0.2,2.5v0.1l0.1,1.8c0,0.2,0,0.5-0.1,0.7l-0.1,0.5v0.7
	v0.5l0.2,0.5c0.1,0.2,0.1,0.4,0.1,0.6l0.1,0.9c0,0.2,0,0.4,0,0.6v0.2l0.2,0.3c0.3,0.6,0.3,1.4-0.1,2c0.1,0.3,0.1,0.5,0.1,0.8v0.9
	v0.9c0,0.3-0.1,0.6-0.2,0.9l0,0l0,0c0.3,0.6,0.3,1.3,0,1.9l-0.1,0.2v0.1c0.1,0.2,0.1,0.4,0.1,0.5v0.9c0,0.3,0,0.5-0.1,0.8l-0.1,0.1
	l0.1,0.1c0,0.1,0.1,0.2,0.1,0.3l0.2,0.9c0.1,0.3,0.1,0.7,0,1l-0.1,0.6l0.1,0.6c0,0.1,0,0.2,0,0.4v0.6l0.1,0.6c0.1,0.3,0.1,0.6,0,0.9
	l-0.4,1.8c0,0.1,0,0.1-0.1,0.2v0.1l0.1,0.1c0.4,0.6,0.4,1.5,0,2.1l-0.1,0.2l0.3,0.5c0.3,0.5,0.4,1.1,0.2,1.6l-0.3,0.9
	c0,0.1-0.1,0.2-0.1,0.3l-0.2,0.4v0.4c0,0.1,0,0.1,0,0.2v0.3l0.3,0.4c0.4,0.6,0.4,1.2,0.2,1.9l-0.3,0.6v0.2l0.2,0.5
	c0.1,0.4,0.2,0.8,0.1,1.1l-0.1,0.6l0.1,0.6c0,0.1,0,0.2,0,0.3v0.9c0,0.1,0,0.2,0,0.3l-0.1,0.4l0.1,0.4c0.1,0.3,0.1,0.5,0.1,0.8
	l-0.1,1.9l-0.1,1c0,0.2-0.1,0.5-0.2,0.7l-0.1,0.1l0.1,0.1c0.1,0.2,0.1,0.4,0.1,0.6l0.1,0.9v0.1v0.8l0.1,0.7l0.2,0.8
	c0,0.2,0.1,0.3,0.1,0.5v0.9c0,0.1,0,0.1,0,0.2l-0.1,0.9l-0.1,0.9c0,0.2-0.1,0.5-0.2,0.7l-0.3,0.7l0.2,0.5v0.1l0.3,0.9
	c0.2,0.5,0.1,1.1-0.1,1.6c0.2,0.4,0.3,0.9,0.2,1.4l-0.1,0.6v0.6l0.1,0.8c0.1,0.4,0,0.8-0.2,1.2c0.3,0.6,0.3,1.4-0.1,2
	c0.1,0.3,0.2,0.7,0.1,1l-0.1,0.9v0.1v0.2l0.1,0.3c0,1.2,0,2.3,0.1,3.5l-0.3,0.6l-0.1,0.6c0,0.1,0,0.2-0.1,0.4l-0.1,0.5v0.3l0.3,0.7
	c0.1,0.2,0.1,0.4,0.1,0.6l0.1,0.8l0.1,0.9c0,0.1,0,0.1,0,0.2v0.9c0,0.3-0.1,0.7-0.2,1c0.2,0.3,0.3,0.7,0.2,1.1l-0.1,1.8
	c0,0.2-0.1,0.4-0.1,0.6l-0.2,0.5l0.1,0.4c0,0.1,0,0.2,0,0.3v0.9l0.1,1.7c0,0.2,0,0.3,0,0.5l-0.1,0.6l0.1,0.6c0.1,0.4,0,0.8-0.2,1.2
	L117.1,185.4z"/>
<path class="st3" d="M27.3,186.2l-0.3-1h-0.2l-0.6,0.7l-0.1-0.1c-0.3-0.3-0.5-0.7-0.5-1.1c0-0.1,0-0.1,0-0.2c0-0.2,0-0.3,0-0.5
	c0-0.1,0-0.1,0-0.2c-0.1-0.3-0.2-0.6-0.2-0.9c0-0.1,0-0.1,0-0.2c-0.1-0.2-0.1-0.3-0.1-0.5c0-0.2,0-0.3,0.1-0.5c0-0.1,0-0.1,0-0.2
	c-0.1-0.3-0.1-0.5,0-0.8c-0.1-0.2-0.1-0.4-0.1-0.6c0-0.2,0.1-0.5,0.2-0.7c0-0.1-0.1-0.2-0.1-0.3c-0.1-0.3-0.1-0.6-0.1-0.8
	c0-0.1,0-0.2,0-0.3c0-0.1,0-0.3,0.1-0.4c0-0.1-0.1-0.3-0.1-0.4c0-0.2,0-0.3,0.1-0.5c0,0,0,0,0-0.1l0,0c0-0.1-0.1-0.3,0-0.4l0,0
	c-0.1-0.2-0.1-0.5,0-0.7v-0.2c-0.1-0.4,0-0.7,0.2-1.1c0-0.1,0-0.2,0-0.3c-0.1-0.2-0.1-0.3-0.1-0.5c0-0.2,0-0.4,0.1-0.6
	c0-0.1,0-0.1,0-0.2c0-0.1,0-0.1,0-0.2c0-0.2,0-0.4,0-0.5c0-0.2,0-0.4,0.1-0.6V171c0-0.1,0-0.2,0-0.3c0-0.1,0-0.1,0-0.1
	c0-0.2,0-0.4,0-0.5c0-0.1-0.1-0.3-0.1-0.4c0-0.3,0-0.5,0.1-0.8c0-0.1,0-0.2,0-0.3c0-0.1,0-0.1,0-0.2c0-0.1,0-0.2,0-0.3
	c0-0.1,0-0.2,0-0.3v-0.1c0-0.2,0-0.5,0.1-0.7c0-0.1,0-0.2,0-0.3c0-0.1,0-0.2,0-0.4c0-0.1,0-0.3,0-0.4v-0.2c0-0.1,0-0.3,0-0.4l0,0
	c0-0.2,0-0.3,0-0.5c0-0.5,0.3-0.9,0.7-1.2l0.2-0.1l0.3,0.4l0,0l0.4-0.1l0.2,0.7l0.3-1l0.3,0.1c0.4,0.1,0.7,0.4,0.9,0.8l0,0.1
	c0.2,0.3,0.2,0.7,0.1,1.1v0.1l0,0c0,0.1,0,0.1,0,0.2c0.1,0.2,0.1,0.4,0.1,0.6c0,0.1,0,0.1,0,0.2v0.1c0,0.1,0,0.1,0,0.1
	c0,0.2,0,0.3,0,0.5c0,0.1,0.1,0.3,0.1,0.4c0,0.1,0,0.1,0,0.2c0,0,0,0.1,0,0.1c0,0.1,0,0.3,0,0.4v0.1c0,0.2,0,0.4-0.1,0.6
	c0.1,0.1,0.1,0.3,0.1,0.4c0,0.2,0,0.5-0.1,0.7v0.1c0,0,0,0,0,0.1c0,0.1,0,0.2,0,0.3c0,0.1,0,0.1,0,0.2c0,0.1,0,0.2,0,0.4
	c0,0.1,0,0.2,0,0.3c0,0,0,0.1,0,0.1c0,0.1,0,0.3,0,0.4c0.1,0.2,0.1,0.4,0,0.7c0,0,0,0.1,0,0.1c0.1,0.2,0.1,0.5,0.1,0.7
	c0,0.1,0,0.2-0.1,0.3c0.1,0.2,0.1,0.3,0.1,0.5c0,0.3-0.1,0.5-0.2,0.8c0.2,0.3,0.3,0.6,0.2,0.9c0,0.2,0,0.3-0.1,0.5v0.2
	c0.1,0.2,0.1,0.3,0.1,0.5c0,0.1,0,0.1,0,0.2s0,0.1,0,0.2c0,0.1,0,0.2,0,0.3c0,0.1,0,0.2,0,0.3c0,0.2,0,0.4,0,0.5l0,0
	c0,0.2,0,0.4-0.1,0.6l0,0c0,0.2,0,0.4,0,0.6c0.1,0.3,0.2,0.7,0.1,1l0,0c0,0.1,0,0.2,0,0.4c0,0.1,0,0.2,0,0.3c0,0.1,0,0.2,0,0.4
	c0,0.1,0,0.1,0,0.2c0,0.1,0,0.1,0,0.2c0,0.1,0,0.1,0,0.2c0,0.2,0,0.4-0.1,0.6c0,0.1,0,0.2,0,0.3c0,0.3,0,0.6-0.2,0.9v0.1
	c0,0.1,0,0.3,0,0.4c-0.1,0.5-0.5,1-1,1.1L27.3,186.2z"/>
<path class="st3" d="M211.5,186.1l-0.4-1.1l0,0h-0.1l-0.7,0.7l-0.1-0.1c-0.3-0.3-0.5-0.7-0.5-1.1c0-0.1,0-0.2,0-0.2
	c0-0.2,0-0.3,0-0.5c0-0.1,0-0.2,0-0.3l0,0c-0.1-0.3-0.2-0.6-0.1-0.9c0-0.1,0-0.2,0.1-0.3c-0.1-0.2-0.1-0.4-0.1-0.6
	c0-0.2,0-0.3,0.1-0.5c0-0.1,0-0.2,0-0.3l0,0c-0.1-0.3,0-0.6,0.1-0.9l0,0c-0.1-0.2-0.1-0.4-0.1-0.7c0-0.3,0.1-0.5,0.2-0.7
	c-0.1-0.1-0.1-0.3-0.1-0.4c-0.1-0.3-0.1-0.6,0-0.8c0-0.1,0-0.2,0-0.4c0.1-0.3,0.1-0.7,0-1c0-0.2,0-0.3,0.1-0.5v-0.2
	c0-0.1-0.1-0.3-0.1-0.5c0,0,0-0.1,0-0.1c-0.1-0.2-0.1-0.5,0-0.7c0-0.1,0-0.2,0-0.3c-0.1-0.4,0-0.8,0.1-1.1v-0.1c0-0.1,0-0.3-0.1-0.4
	c-0.1-0.2-0.1-0.3-0.1-0.5c0-0.2,0-0.4,0.1-0.6c0-0.1,0-0.2,0-0.3c-0.1-0.2-0.1-0.5,0-0.8l0,0c0-0.2,0-0.5,0.1-0.7
	c0-0.1,0-0.2,0-0.3c0-0.1,0-0.2,0-0.3c0-0.1,0-0.1,0-0.2c0-0.2,0-0.4,0-0.6c-0.1-0.1-0.1-0.3-0.1-0.4c0-0.3,0-0.6,0.1-0.8
	c0-0.1,0-0.2-0.1-0.4c0-0.1,0-0.2,0-0.2c0-0.1,0-0.2,0-0.3c0-0.1,0-0.2,0-0.3c0-0.1,0-0.1,0-0.2c0-0.3,0-0.5,0.1-0.8
	c0-0.1,0-0.2,0-0.4c0-0.1,0-0.3,0.1-0.4c0-0.2,0-0.3,0-0.5c0-0.1,0-0.1,0-0.2c0-0.2,0-0.3,0-0.5c0,0,0,0,0-0.1c0-0.2,0-0.3,0-0.5
	c0-0.5,0.3-0.9,0.6-1.1l0.2-0.1l0.3,0.5l0.4-0.1l0.2,0.7l0,0l0.4-1l0.3,0.1c0.4,0.1,0.7,0.4,0.9,0.8v0.1c0.1,0.3,0.2,0.7,0.1,1v0.1
	v0.1c0,0.1,0,0.2,0,0.3c0.1,0.2,0.1,0.4,0.1,0.6c0,0,0,0.1,0,0.1v0.1c0,0,0,0.1,0,0.1c0,0.2,0,0.4-0.1,0.6c0,0.1,0.1,0.3,0.1,0.4
	c0,0.1,0,0.2,0,0.3c0,0,0,0.1,0,0.1c0,0.1,0,0.3,0,0.4c0,0,0,0.1,0,0.1c0,0.2,0,0.4-0.1,0.6v0.1l0,0c0.1,0.1,0.1,0.3,0.1,0.4
	c0,0.3,0,0.5-0.1,0.8c0,0,0,0.1,0,0.1v0.1v0.1c0,0.1,0,0.2,0,0.3c0,0.1,0,0.2,0,0.2c0,0.1,0,0.3,0,0.4c0,0.1,0,0.2,0,0.3
	s0,0.1,0,0.1c0,0.2,0,0.3-0.1,0.5c0.1,0.2,0.1,0.5,0,0.7c0,0.1,0,0.1,0,0.2v0.1c0.1,0.2,0.1,0.5,0.1,0.7c0,0.1,0,0.2-0.1,0.3
	c0.1,0.2,0.1,0.4,0.1,0.6c0,0.3-0.1,0.6-0.3,0.9c0.2,0.3,0.3,0.6,0.3,1c0,0.2,0,0.3-0.1,0.5v0.1c0,0.1,0,0.1,0,0.2
	c0.1,0.2,0.1,0.3,0.1,0.5c0,0.1,0,0.1,0,0.2c0,0.1,0,0.1,0,0.2c0,0.1,0,0.3,0,0.4c0,0.1,0,0.2,0.1,0.3c0,0.2,0,0.4-0.1,0.6v0.1
	c0,0.2,0,0.4-0.1,0.6c0,0,0,0.1,0,0.1c0.1,0.2,0.1,0.5,0,0.7c0.1,0.3,0.2,0.7,0.1,1v0.1l0,0c0,0.1,0,0.3,0,0.4c0,0.1,0,0.2,0,0.4
	l0,0c0,0.1,0,0.3,0,0.4c0,0.1,0,0.2,0,0.2c0,0.1,0,0.2,0,0.3c0,0.1,0,0.1,0,0.2c-0.1,0.3-0.1,0.7,0,1c0,0.3,0,0.6-0.1,0.9
	c0,0.1,0,0.1-0.1,0.2v0.1c0,0.2,0,0.3,0,0.5c-0.1,0.5-0.5,0.9-1,1.1L211.5,186.1z"/>
<path class="st3" d="M113.8,4.9c-0.2,0-0.3,0-0.5-0.1c-0.3,0.1-0.5,0.1-0.8,0h-0.2h-0.3c-0.1,0-0.3,0-0.4,0l0,0
	c-0.5,0-1-0.2-1.4-0.5c-0.6-0.3-0.9-0.9-1-1.5V2.4h0.4V2.2l-0.4-0.1V1.9c0.2-0.7,0.7-1.3,1.4-1.4c0.4-0.2,0.8-0.4,1.2-0.3h0.3
	c0.1,0,0.3,0,0.4,0h0.1c0.1,0,0.2,0,0.3,0c0.2,0,0.3,0,0.5,0h0.5h0.2h0.1c0.3-0.1,0.7-0.1,1,0h0.2h0.3c0.1,0,0.3,0,0.4,0
	c0.2,0,0.3,0,0.5,0C117,0,117.2,0,117.5,0c0.2,0,0.4,0,0.6,0.1h0.2c0.2,0,0.5,0,0.7,0.1c0.2,0,0.4,0,0.5,0c0.9,0,1.7,0.7,1.9,1.6V2
	l-0.2,0.1v0.4h0.1v0.1l0,0V3c0,0.3-0.1,0.6-0.3,0.9c-0.3,0.5-0.8,0.9-1.4,1c-0.1,0-0.2,0-0.4,0c-0.2,0-0.3,0-0.5,0
	c-0.1,0-0.2,0-0.4,0h-0.4c-0.1,0-0.2,0-0.3,0h-0.3c-0.2,0-0.4,0-0.6,0h-0.4c-0.1,0-0.2,0-0.3,0c-0.2,0-0.3,0-0.5,0h-0.6h-0.4
	c-0.1,0-0.3,0-0.4,0h-0.2c-0.1,0-0.2,0-0.3,0L113.8,4.9z"/>
<path class="st3" d="M27,186.2c-0.4,0-0.7-0.2-1-0.4h0l-0.2-0.1c-0.3-0.1-0.6-0.3-0.8-0.5L25,185c-0.1-0.1-0.2-0.1-0.3-0.2
	c-0.1-0.1-0.2-0.2-0.2-0.3c-0.2-0.1-0.3-0.2-0.4-0.4c-0.1-0.1-0.2-0.2-0.3-0.2c-0.1-0.1-0.2-0.3-0.3-0.4l-0.1-0.1
	c-0.1-0.1-0.2-0.2-0.3-0.3c-0.1-0.1-0.2-0.2-0.3-0.3l-0.1-0.1c-0.1-0.1-0.2-0.1-0.2-0.2c-0.1-0.1-0.1-0.2-0.2-0.2L22,182
	c-0.2-0.1-0.4-0.3-0.6-0.6c-0.2-0.1-0.3-0.3-0.4-0.6c-0.2-0.1-0.3-0.2-0.4-0.3c-0.1-0.1-0.2-0.2-0.3-0.4l-0.1-0.1
	c-0.1-0.1-0.2-0.2-0.3-0.3c-0.1-0.1-0.2-0.2-0.2-0.3c-0.1-0.1-0.2-0.1-0.2-0.2c-0.1-0.1-0.1-0.1-0.2-0.2l0,0
	c-0.1-0.1-0.3-0.1-0.4-0.2c-0.2-0.1-0.3-0.3-0.4-0.5l0,0l0,0l-0.2-0.2l-0.1-0.1l-0.1-0.1c-0.2-0.1-0.3-0.3-0.4-0.5v-0.1
	c-0.1-0.1-0.1-0.1-0.2-0.2l-0.3-0.2l-0.1-0.1c-0.1,0-0.1-0.1-0.2-0.1c-0.1-0.1-0.2-0.2-0.3-0.3c-0.4-0.4-0.5-1.1-0.3-1.6l0.1-0.2
	l0.3,0.1l0,0l0.3-0.4l0.4,0.3l-0.3-0.5l0.3-0.2c0.3-0.2,0.7-0.3,1-0.2c0.5,0.1,0.9,0.3,1.2,0.7c0.1,0.1,0.3,0.2,0.4,0.3l0.1,0.1
	c0.1,0.1,0.1,0.1,0.2,0.2l0,0c0.1,0.1,0.2,0.1,0.2,0.2l0.1,0.1l0.1,0.1c0.1,0.1,0.2,0.2,0.2,0.2c0.1,0.1,0.2,0.2,0.2,0.3l0.2,0.2
	c0.1,0.1,0.3,0.3,0.4,0.4l0.2,0.2l0.1,0.1l0.2,0.1l0.1,0.1l0.1,0.1c0.1,0.1,0.2,0.2,0.2,0.3c0.1,0.1,0.2,0.2,0.2,0.3
	c0.2,0.1,0.3,0.2,0.5,0.4l0.1,0.1c0.1,0.1,0.2,0.1,0.2,0.2c0.1,0.1,0.2,0.3,0.3,0.4c0.2,0.1,0.4,0.2,0.5,0.4
	c0.1,0.1,0.2,0.2,0.2,0.3c0.1,0.1,0.2,0.1,0.3,0.2l0,0.1c0,0,0.1,0.1,0.1,0.1c0,0,0.1,0.1,0.1,0.1l0.2,0.1c0.2,0.2,0.4,0.4,0.5,0.7
	c0.1,0,0.1,0.1,0.2,0.1c0.3,0.1,0.5,0.3,0.7,0.6c0,0,0.1,0.1,0.1,0.1l0.1,0.1l0.2,0.2l0.1,0.1l0,0c0.1,0,0.1,0.1,0.2,0.1
	c0.1,0.1,0.2,0.2,0.3,0.4c0.3,0.2,0.5,0.5,0.6,0.9l0,0c0.4,0.5,0.4,1.2,0,1.7l-0.2,0.3l-0.6-0.4l-0.2,0.2l0,0l0.2,0.6h-0.1
	C27.2,186.1,27.1,186.1,27,186.2z"/>
<path class="st3" d="M27.2,186.2c-0.3,0-0.6-0.1-0.8-0.2l-0.3-0.2l0.4-0.6l-0.2-0.2l0,0l-0.6,0.1v-0.1c-0.1-0.5,0-1.1,0.4-1.4l0,0
	l0.2-0.2c0.1-0.3,0.3-0.6,0.5-0.8l0.1-0.1c0.1-0.1,0.1-0.2,0.2-0.3c0.1-0.1,0.2-0.2,0.3-0.2c0.1-0.2,0.3-0.3,0.4-0.4
	c0.1-0.1,0.2-0.2,0.3-0.3c0.1-0.1,0.3-0.2,0.5-0.3c0,0,0.1-0.1,0.1-0.1c0.1-0.1,0.2-0.2,0.3-0.3c0.1-0.1,0.2-0.2,0.3-0.3l0.1-0.1
	c0.1-0.1,0.1-0.2,0.2-0.3c0.1-0.1,0.2-0.2,0.3-0.2c0-0.1,0.1-0.1,0.1-0.2c0.1-0.2,0.3-0.4,0.6-0.6c0.2-0.2,0.4-0.3,0.6-0.4
	c0.1-0.2,0.2-0.3,0.3-0.4c0.1-0.1,0.2-0.2,0.4-0.3c0,0,0-0.1,0.1-0.1c0.1-0.1,0.2-0.2,0.3-0.3c0.1-0.1,0.2-0.2,0.3-0.2
	c0.1-0.1,0.1-0.2,0.2-0.3c0.1-0.1,0.1-0.1,0.2-0.1l0,0c0.1-0.1,0.1-0.3,0.2-0.4c0.1-0.2,0.3-0.3,0.5-0.4l0,0l0,0
	c0-0.1,0.1-0.2,0.2-0.2l0.1-0.1l0.2-0.2c0.1-0.2,0.3-0.3,0.5-0.4l0.1-0.1c0.1-0.1,0.1-0.1,0.2-0.2c0.1-0.1,0.1-0.2,0.2-0.2l0.1-0.1
	c0-0.1,0.1-0.1,0.2-0.2c0.1-0.1,0.2-0.2,0.3-0.3c0.4-0.4,1-0.5,1.6-0.3l0.2,0.1l-0.1,0.3l0,0l0.3,0.2l-0.3,0.4l0.6-0.4l0.2,0.3
	c0.2,0.3,0.3,0.7,0.2,1c-0.1,0.5-0.4,0.9-0.8,1.1c-0.1,0.1-0.2,0.3-0.3,0.4l-0.1,0.2l-0.2,0.2l0,0c-0.1,0.1-0.1,0.2-0.2,0.3
	l-0.1,0.1l-0.1,0.1c-0.1,0.1-0.2,0.2-0.3,0.2l0,0c-0.1,0.1-0.2,0.2-0.3,0.3c0,0.1-0.1,0.2-0.2,0.2c-0.1,0.2-0.3,0.3-0.5,0.4
	l-0.2,0.3l-0.1,0.1c0,0.1-0.1,0.1-0.2,0.2l-0.1,0.1l-0.1,0.1c-0.1,0.1-0.2,0.2-0.3,0.2c-0.1,0.1-0.2,0.2-0.3,0.3
	c-0.1,0.2-0.2,0.3-0.4,0.5c0,0-0.1,0.1-0.2,0.1c-0.1,0.1-0.1,0.2-0.2,0.3c-0.1,0.1-0.3,0.2-0.4,0.3c-0.1,0.2-0.2,0.4-0.4,0.5
	c-0.1,0.1-0.2,0.2-0.4,0.2c-0.1,0.1-0.1,0.2-0.2,0.3l-0.1,0.1l-0.1,0.1c0,0.1-0.1,0.1-0.2,0.1l-0.1,0.2c-0.1,0.1-0.2,0.2-0.4,0.3
	c-0.1,0.1-0.2,0.2-0.3,0.2c-0.1,0.1-0.1,0.1-0.2,0.2c-0.1,0.3-0.3,0.5-0.6,0.7c0,0-0.1,0.1-0.1,0.1l-0.1,0.1
	c-0.1,0.1-0.1,0.2-0.2,0.2l-0.1,0.1l0,0l-0.1,0.2c-0.1,0.1-0.2,0.2-0.4,0.3c-0.2,0.3-0.5,0.5-0.9,0.6l-0.1,0.1
	C27.9,186.1,27.6,186.2,27.2,186.2z"/>
<path class="st3" d="M73.7,187c-0.2,0-0.3,0-0.5-0.1l-1.2-0.3l-0.2-0.1l-0.7-0.3l-0.7,0.1h-0.8l-0.7,0.4c-0.5,0.3-1,0.3-1.6,0.1
	l-0.9-0.3h-0.6l-0.8,0.2c-0.3,0.1-0.6,0.1-0.9,0.1l-0.9-0.2l-0.9,0.1H62h-1.2c-0.1,0-0.2,0-0.2,0l-0.7-0.1l-0.7,0.2
	c-0.2,0.1-0.4,0.1-0.6,0.1l-2.3-0.1l-1.2-0.1c-0.2,0-0.4-0.1-0.6-0.1l-0.5-0.2l-0.5,0.1c-0.1,0.1-0.3,0.1-0.5,0.1l-3.3,0.2l-1.1,0.2
	c-0.1,0-0.3,0-0.4,0h-1.2h-0.2l-1.2-0.1l-1.1-0.1c-0.2,0-0.4,0-0.6-0.1l-0.9-0.3h-0.5l-0.8,0.3l-1.2,0.3c-0.5,0.1-1,0.1-1.5-0.2
	l-0.2-0.1l-0.2,0.1c-0.4,0.2-0.9,0.3-1.3,0.2l-0.9-0.2h-0.9l-1.1,0.1c-0.4,0-0.8,0-1.1-0.2l-0.2-0.1l-0.2,0.1
	c-0.6,0.3-1.4,0.3-2-0.1l-0.2-0.1l-0.1,0.1c-0.3,0.2-0.7,0.3-1.1,0.2l-1.2-0.2h-0.1l-0.6-0.1l-0.6,0.3c-0.5,0.2-1.1,0.2-1.6,0
	l-0.3-0.1l-0.3,0.1c-0.5,0.2-1,0.3-1.5,0.1l-0.9-0.4l-0.9-0.1H21l-0.8-0.2l-0.6,0.1l-1,0.3c-0.1,0-0.3,0.1-0.5,0.1l-1.1,0.1
	l-1.1,0.1h-0.1h-1.2c-0.3,0-0.6,0-0.8-0.1l-0.4-0.2l-0.4,0.2c-0.3,0.1-0.6,0.2-0.9,0.2l-2.2-0.1c-0.2,0-0.3,0-0.5-0.1l-0.8-0.2
	l-0.8,0.1H7.6H6.5l-2.2,0.1c-0.1,0-0.3,0-0.4,0L3,186.5l-0.9,0.1c-0.3,0.1-0.7,0-1-0.1L0,186.1l1.4-3.8l0.7,0.2l0.6-0.1
	c0.2,0,0.4,0,0.5,0l1,0.1l2.2-0.1h1.1l1-0.1c0.3,0,0.5,0,0.8,0.1l0.9,0.3l1.6,0.1l0.7-0.3c0.5-0.2,1.1-0.2,1.6,0l0.8,0.3h0.6
	l1.1-0.1h0.1h0.9l0.9-0.3c0.1,0,0.2,0,0.3-0.1l1.2-0.1c0.2,0,0.5,0,0.7,0l1,0.2l1,0.1c0.2,0,0.3,0.1,0.5,0.1l0.4,0.1l0.4-0.2
	c0.5-0.2,1.1-0.2,1.7,0l0.4,0.2l0.4-0.1c0.3-0.1,0.7-0.2,1.1-0.1l1.6,0.2l0.6-0.3c0.6-0.3,1.4-0.3,2,0.1l0.2,0.1l0.1-0.1
	c0.6-0.3,1.2-0.3,1.8,0l0.6,0.3l0.6-0.1h0.1l1.2-0.1c0.2,0,0.3,0,0.5,0l0.5,0.1l0.5-0.3c0.6-0.3,1.3-0.3,1.9,0l0.5,0.2l0.4-0.1
	l1.1-0.3c0.2-0.1,0.5-0.1,0.7-0.1l1.2,0.1c0.2,0,0.4,0.1,0.6,0.1l0.9,0.3l0.9,0.1l1.2,0.1H48l1-0.2h0.2l1.2-0.1h0.1l2-0.1l0.9-0.3
	c0.4-0.1,0.9-0.1,1.3,0.1l0.9,0.3l2.8,0.1l0.8-0.2c0.3-0.1,0.6-0.1,0.9-0.1l1,0.2H62l1-0.1c0.2,0,0.3,0,0.5,0l0.7,0.1l0.7-0.2
	c0.2-0.1,0.5-0.1,0.7-0.1l1.2,0.1c0.2,0,0.3,0,0.5,0.1l0.4,0.1l0.4-0.2c0.3-0.2,0.6-0.2,0.9-0.2h1.1l1.1-0.1c0.3,0,0.6,0,0.9,0.1
	l1.4,0.5l0.5-0.2c0.2-0.1,0.4-0.1,0.6-0.2l1.2-0.2c0.4,0,0.8,0,1.2,0.2l0.3,0.1l0.3-0.1c0.4-0.2,0.9-0.3,1.3-0.1l1.1,0.3l1.9,0.3
	l0.8-0.1c0.2,0,0.3,0,0.5,0h1l1-0.1c0.2,0,0.4,0,0.6,0l0.8,0.2l0.6-0.1l1-0.4c0.4-0.1,0.9-0.1,1.3,0l0.9,0.3h0.6l0.9-0.2
	c0.4-0.1,0.8-0.1,1.2,0.1l0.4,0.2l0.4-0.2c0.5-0.2,1-0.2,1.5,0l0.8,0.3h0.8h0.8l0.8-0.3c0.6-0.3,1.3-0.2,1.9,0.1l0.3,0.2l0.2-0.1
	c0.3-0.1,0.7-0.2,1.1-0.1l0.9,0.1h0.7l0.9-0.3c0.2-0.1,0.5-0.1,0.7-0.1l1.2,0.1h1.1c0.2,0,0.3,0,0.5,0.1l0.9,0.2l5.6-0.3
	c0.1,0,0.2,0,0.3,0l1,0.1h1c0.1,0,0.2,0,0.4,0l1.2,0.2l0.2,0.1l0.6,0.2l0.6-0.2c0.1,0,0.2,0,0.4-0.1l2.4-0.2c0.2,0,0.3,0,0.5,0
	l0.8,0.1l0.8-0.1c0.2,0,0.4,0,0.5,0l0.9,0.1l0.9-0.2c0.2,0,0.3,0,0.5,0l1.2,0.1c0.2,0,0.5,0.1,0.7,0.2l0.6,0.2l0.6-0.1h0.3h0.9
	l0.9-0.3c0.4-0.1,0.8-0.1,1.2,0l1.8,0.4l0.7-0.2c0.3-0.1,0.5-0.1,0.8,0l0.8,0.1l2-0.3c0.3-0.1,0.7,0,1,0.1l0.9,0.3h0.4l0.7-0.3
	c0.3-0.1,0.5-0.1,0.8-0.1h0.9l1-0.2c0.2,0,0.4,0,0.5,0l2.4,0.2c0.2,0,0.3,0,0.5,0.1l0.3,0.1l0.4-0.2c0.5-0.2,1-0.3,1.5-0.2l1.9,0.5
	l0.8-0.1c0.2,0,0.4,0,0.6,0l1,0.1h0.8l0.9-0.2c0.1,0,0.2,0,0.3,0h1l1-0.2c0.5-0.1,0.9-0.1,1.4,0.1l0.3,0.1l0.3-0.1
	c0.6-0.3,1.2-0.3,1.8,0l0.7,0.4h0.3l0.8-0.4c0.2-0.1,0.4-0.1,0.7-0.2l1.2-0.1c0.3,0,0.6,0,0.9,0.1l0.8,0.3h1.1l1,0.1l1-0.1
	c0.2,0,0.3,0,0.5,0l0.6,0.1l0.7-0.2c0.3-0.1,0.6-0.1,0.9-0.1l0.6,0.1l0.6-0.3c0.4-0.2,0.9-0.2,1.3-0.1l0.9,0.2h0.8l1-0.1
	c0.3,0,0.6,0,0.9,0.1l0.6,0.2l0.6-0.1c0.1,0,0.2,0,0.4,0h1.2h0.2l1.2,0.1c0.2,0,0.3,0,0.5,0.1l0.4,0.1l0.4-0.2
	c0.5-0.3,1.2-0.3,1.7-0.1l0.6,0.2l0.5-0.1c0.2,0,0.3-0.1,0.5-0.1h1.2c0.2,0,0.4,0,0.6,0.1l0.3,0.1l0.4-0.2c0.5-0.3,1.1-0.4,1.7-0.1
	l0.9,0.3h0.9h0.2l0.8,0.1l0.6-0.1l1-0.4c0.4-0.2,0.8-0.2,1.2-0.1l1.2,0.3h0.1l0.6,0.2l0.6-0.2c0.2,0,0.4-0.1,0.6-0.1l1.2,0.1h0.1
	l1.2,0.1h0.1l1,0.2h0.5l0.8-0.4c0.6-0.3,1.2-0.3,1.8,0l0.4,0.2l0.3-0.1c0.4-0.2,0.9-0.2,1.4,0l0.5,0.2l0.5-0.2c0.3-0.1,0.7-0.1,1,0
	l0.8,0.2l0.7-0.1l1.1-0.3c0.4-0.1,0.9-0.1,1.3,0.1l0.6,0.2l0.6-0.1c0.1,0,0.3,0,0.4,0l2.3-0.1c0.1,0,0.3,0,0.4,0l0.7,0.1l0.8-0.2
	c0.5-0.1,1-0.1,1.4,0.1l0.8,0.4h0.7l0.8-0.1l0.9-0.3c0.1,0,0.3-0.1,0.4-0.1l1.2-0.2c0.2,0,0.4,0,0.7,0l1.2,0.2l-0.8,3.9l-0.9-0.2
	l-0.6,0.1l-1,0.4c-0.2,0.1-0.4,0.1-0.6,0.1l-1.2,0.1h-0.2h-1.2c-0.3,0-0.6-0.1-0.8-0.2l-0.5-0.2l-0.4,0.1c-0.3,0.1-0.6,0.1-0.9,0.1
	l-1-0.2l-2,0.1l-1,0.2c-0.4,0.1-0.8,0.1-1.2-0.1l-0.5-0.2l-0.5,0.1h-0.2l-1.2,0.2c-0.2,0-0.5,0-0.8,0l-0.7-0.1l-0.7,0.2
	c-0.4,0.1-0.9,0.1-1.3-0.1l-0.5-0.2l-0.5,0.2c-0.5,0.2-1.1,0.2-1.6-0.1l-0.3-0.1l-0.3,0.1c-0.3,0.1-0.5,0.2-0.8,0.2h-1.2
	c-0.1,0-0.3,0-0.4,0l-1.1-0.2l-1.8-0.1l-0.9,0.2c-0.3,0.1-0.7,0.1-1.1,0l-1.6-0.4l-0.6,0.2c-0.1,0.1-0.3,0.1-0.4,0.1l-1.2,0.2
	c-0.2,0-0.5,0-0.7,0l-1.1-0.2l-1.1-0.1c-0.2,0-0.4-0.1-0.6-0.1l-0.3-0.1l-0.4,0.2c-0.5,0.3-1.1,0.4-1.7,0.2l-0.9-0.3h-0.6l-0.9,0.2
	c-0.4,0.1-0.8,0.1-1.2-0.1l-0.3-0.1l-0.3,0.2c-0.5,0.3-1,0.3-1.5,0.1l-0.9-0.3H183h-0.9l-1,0.2c-0.4,0.1-0.8,0.1-1.1-0.1l-0.7-0.3
	l-0.7,0.1h-0.2h-1.2c-0.1,0-0.3,0-0.4-0.1l-0.5-0.1l-0.5,0.2c-0.3,0.2-0.7,0.2-1.1,0.2l-0.7-0.1l-0.7,0.2c-0.3,0.1-0.7,0.1-1,0.1
	l-0.9-0.2l-0.9,0.1c-0.1,0-0.2,0-0.3,0L169,187h-1.1c-0.3,0-0.5-0.1-0.8-0.2l-0.7-0.3H166l-0.9,0.4c-0.2,0.1-0.5,0.2-0.8,0.2h-1.2
	c-0.3,0-0.6-0.1-0.9-0.2l-0.3-0.1l-0.3,0.1c-0.6,0.3-1.2,0.3-1.8,0l-0.5-0.2l-0.5,0.1c-0.1,0-0.3,0.1-0.4,0.1h-1l-1,0.2
	c-0.1,0-0.3,0-0.4,0H155h-0.3l-0.9-0.1l-0.9,0.1c-0.3,0.1-0.5,0.1-0.8,0l-1.6-0.4l-0.5,0.2c-0.5,0.3-1.1,0.3-1.6,0.1l-0.9-0.3
	l-1.8-0.2l-0.9,0.2c-0.1,0-0.3,0-0.4,0h-0.8l-0.8,0.3c-0.3,0.1-0.6,0.2-0.9,0.1l-1.2-0.1c-0.2,0-0.3-0.1-0.5-0.1l-0.7-0.2l-1.8,0.3
	c-0.2,0-0.5,0-0.7,0l-0.8-0.1l-0.8,0.2c-0.3,0.1-0.6,0.1-0.9,0l-1.8-0.4l-0.6,0.2c-0.2,0.1-0.4,0.1-0.6,0.1h-1l-1,0.2
	c-0.4,0.1-0.8,0-1.2-0.1l-0.8-0.4h-0.6l-0.9,0.2c-0.2,0-0.4,0-0.6,0l-0.9-0.1l-0.9,0.1c-0.2,0-0.4,0-0.6,0l-0.9-0.2l-1.9,0.1l-1,0.3
	c-0.4,0.1-0.7,0.1-1.1,0l-1.1-0.3l-0.9-0.2h-1.2l-1-0.1l-5.6,0.3c-0.2,0-0.4,0-0.6,0l-0.9-0.2h-0.9h-0.9l-0.8,0.3
	c-0.2,0.1-0.3,0.1-0.5,0.1l-1.2,0.1c-0.2,0-0.3,0-0.5,0l-0.6-0.1l-0.6,0.3c-0.6,0.2-1.3,0.2-1.8-0.1l-0.3-0.1l-0.2,0.1
	c-0.3,0.1-0.6,0.2-0.9,0.2h-1.2h-1.1c-0.2,0-0.5,0-0.7-0.1l-0.4-0.2l-0.4,0.2c-0.5,0.2-1.1,0.2-1.6,0l-0.6-0.2l-0.5,0.1
	c-0.1,0-0.3,0-0.4,0H90c-0.2,0-0.4,0-0.6-0.1l-0.5-0.2l-0.5,0.2l-0.3,0.1l-1.2,0.2c-0.3,0.1-0.6,0.1-0.8,0l-0.9-0.2l-0.9,0.1H84
	h-0.9l-0.9,0.2c-0.2,0-0.5,0-0.7,0l-2.3-0.4H79l-0.4-0.1l-0.5,0.2c-0.6,0.3-1.2,0.3-1.8,0l-0.6-0.3h-0.2l-0.9,0.4
	C74.3,187,74,187,73.7,187z"/>
</svg>
