<?xml version="1.0" encoding="utf-8"?>
<!-- Generator: Adobe Illustrator 26.0.3, SVG Export Plug-In . SVG Version: 6.00 Build 0)  -->
<svg version="1.1" id="Layer_1" xmlns="http://www.w3.org/2000/svg" xmlns:xlink="http://www.w3.org/1999/xlink" x="0px" y="0px"
	 viewBox="0 0 230.2 187.2" style="enable-background:new 0 0 230.2 187.2;" xml:space="preserve">
<style type="text/css">
	.st0{fill:#201F1A;}
	.st1{fill:#F9DB02;}
	.st2{fill:#F7DB06;}
	.st3{fill:#1E1F1A;}
	.st4{fill:#D5EEFB;}
</style>
<path class="st0" d="M73.7,187c-0.2,0-0.3,0-0.5-0.1l-1.2-0.3l-0.2-0.1l-0.7-0.3l-0.7,0.1h-0.8l-0.7,0.4c-0.5,0.3-1,0.3-1.6,0.1
	l-0.9-0.3h-0.6l-0.8,0.2c-0.3,0.1-0.6,0.1-0.9,0.1l-0.9-0.2l-0.9,0.1H62h-1.2c-0.1,0-0.2,0-0.2,0l-0.7-0.1l-0.7,0.2
	c-0.2,0.1-0.4,0.1-0.6,0.1l-2.3-0.1l-1.2-0.1c-0.2,0-0.4-0.1-0.6-0.1l-0.5-0.2l-0.5,0.1c-0.1,0.1-0.3,0.1-0.5,0.1l-3.4,0.2l-1.1,0.2
	c-0.1,0-0.3,0-0.4,0h-1.2h-0.2l-1.2-0.1l-1.1-0.1c-0.2,0-0.4,0-0.6-0.1l-0.9-0.3h-0.5l-0.8,0.3l-1.2,0.3c-0.5,0.1-1,0.1-1.5-0.2
	l-0.2-0.1l-0.2,0.1c-0.4,0.2-0.9,0.3-1.3,0.2l-0.9-0.2h-0.9l-1.1,0.1c-0.4,0-0.8,0-1.1-0.2l-0.2-0.1l-0.2,0.1
	c-0.6,0.3-1.4,0.3-2-0.1l-0.2-0.1l-0.1,0.1c-0.3,0.2-0.7,0.3-1.1,0.2l-1.2-0.2h-0.1l-0.6-0.1l-0.6,0.3c-0.5,0.2-1.1,0.2-1.6,0
	l-0.3-0.1l-0.3,0.1c-0.5,0.2-1,0.3-1.5,0.1l-1-0.4l-0.9-0.1H21l-0.8-0.2l-0.6,0.1l-1,0.3c-0.1,0-0.3,0.1-0.5,0.1l-1.1,0.1l-1.1,0.1
	h-0.1h-1.2c-0.3,0-0.6,0-0.8-0.1l-0.4-0.2l-0.4,0.2c-0.3,0.1-0.6,0.2-0.9,0.2l-2.2-0.1c-0.2,0-0.3,0-0.5-0.1l-0.8-0.2l-0.8,0.1H7.6
	H6.5l-2.2,0.1c-0.1,0-0.3,0-0.4,0L3,186.5l-0.9,0.1c-0.3,0.1-0.7,0-1-0.1L0,186.1l1.4-3.8l0.7,0.2l0.6-0.1c0.2,0,0.4,0,0.5,0l1,0.1
	l2.2-0.1h1.1l1-0.1c0.3,0,0.5,0,0.8,0.1l0.9,0.3l1.6,0.1l0.7-0.3c0.5-0.2,1.1-0.2,1.6,0l0.8,0.3h0.6l1.1-0.1h0.1h0.9l0.9-0.3
	c0.1,0,0.2,0,0.3-0.1l1.2-0.1c0.2,0,0.5,0,0.7,0l1,0.2l1,0.1c0.2,0,0.3,0.1,0.5,0.1l0.4,0.1l0.4-0.2c0.5-0.2,1.1-0.2,1.7,0l0.4,0.2
	l0.4-0.1c0.3-0.1,0.7-0.2,1.1-0.1l1.6,0.2l0.6-0.3c0.6-0.3,1.4-0.3,2,0.1l0.2,0.1l0.1-0.1c0.6-0.3,1.2-0.3,1.8,0l0.6,0.3l0.6-0.1
	h0.1l1.2-0.1c0.2,0,0.3,0,0.5,0l0.5,0.1l0.5-0.3c0.6-0.3,1.3-0.3,1.9,0l0.5,0.2l0.4-0.1l1.1-0.3c0.2-0.1,0.5-0.1,0.7-0.1l1.2,0.1
	c0.2,0,0.4,0.1,0.6,0.1l0.9,0.3l0.9,0.1l1.2,0.1H48l1-0.2h0.2l1.2-0.1h0.1l2-0.1l0.9-0.3c0.4-0.1,0.9-0.1,1.3,0.1l0.9,0.3l2.8,0.1
	l0.8-0.2c0.3-0.1,0.6-0.1,0.9-0.1l1,0.2H62l1-0.1c0.2,0,0.3,0,0.5,0l0.7,0.1l0.7-0.2c0.2-0.1,0.5-0.1,0.7-0.1l1.2,0.1
	c0.2,0,0.3,0,0.5,0.1l0.4,0.1l0.4-0.2c0.3-0.2,0.7-0.2,1-0.2h1.1l1.1-0.1c0.3,0,0.6,0,0.9,0.1l1.4,0.5l0.5-0.2
	c0.2-0.1,0.4-0.1,0.6-0.2l1.2-0.2c0.4,0,0.8,0,1.2,0.2l0.3,0.1l0.3-0.1c0.4-0.2,0.9-0.3,1.3-0.1l1.1,0.3l1.9,0.3l0.8-0.1
	c0.2,0,0.3,0,0.5,0h1l1-0.1c0.2,0,0.4,0,0.6,0l0.8,0.2l0.6-0.1l1-0.4c0.4-0.1,0.9-0.1,1.3,0l0.9,0.3h0.6l0.9-0.2
	c0.4-0.1,0.8-0.1,1.2,0.1l0.4,0.2l0.4-0.2c0.5-0.2,1-0.2,1.5,0l0.8,0.3h0.8h0.8l0.8-0.3c0.6-0.3,1.3-0.2,1.9,0.1l0.3,0.2l0.2-0.1
	c0.3-0.1,0.7-0.2,1.1-0.1l0.9,0.1h0.7l0.9-0.3c0.2-0.1,0.5-0.1,0.7-0.1l1.2,0.1h1.1c0.2,0,0.3,0,0.4,0.1l0.9,0.2l5.6-0.3
	c0.1,0,0.2,0,0.3,0l1,0.1h1c0.1,0,0.2,0,0.4,0l1.2,0.2l0.2,0.1l0.6,0.2l0.6-0.2c0.1,0,0.2,0,0.4-0.1l2.4-0.2c0.2,0,0.3,0,0.5,0
	l0.8,0.1l0.8-0.1c0.2,0,0.4,0,0.5,0l0.9,0.1l0.9-0.2c0.2,0,0.3,0,0.5,0l1.2,0.1c0.2,0,0.5,0.1,0.7,0.2l0.6,0.2l0.6-0.1h0.3h0.9
	l0.9-0.3c0.4-0.1,0.8-0.1,1.2,0l1.8,0.4l0.7-0.2c0.3-0.1,0.5-0.1,0.8,0l0.8,0.1l2-0.3c0.3-0.1,0.7,0,1,0.1l0.9,0.3h0.4l0.7-0.3
	c0.3-0.1,0.5-0.1,0.8-0.1h0.9l1-0.2c0.2,0,0.4,0,0.5,0l2.4,0.2c0.2,0,0.3,0,0.5,0.1l0.3,0.1l0.4-0.2c0.5-0.2,1-0.3,1.5-0.2l1.9,0.5
	l0.8-0.1c0.2,0,0.4,0,0.6,0l1,0.1h0.8l0.9-0.2c0.1,0,0.2,0,0.3,0h1l1-0.2c0.5-0.1,0.9-0.1,1.4,0.1l0.3,0.1l0.3-0.1
	c0.6-0.3,1.2-0.3,1.8,0l0.7,0.4h0.3l0.8-0.4c0.2-0.1,0.4-0.1,0.7-0.2l1.2-0.1c0.3,0,0.6,0,0.9,0.1l0.8,0.3h1l1,0.1l1-0.1
	c0.2,0,0.3,0,0.5,0l0.6,0.1l0.7-0.2c0.3-0.1,0.6-0.1,0.9-0.1l0.6,0.1l0.6-0.3c0.4-0.2,0.9-0.2,1.3-0.1l0.9,0.2h0.8l1-0.1
	c0.3,0,0.6,0,0.9,0.1l0.6,0.2l0.6-0.1c0.1,0,0.2,0,0.4,0h1.2h0.2l1.2,0.1c0.2,0,0.3,0,0.5,0.1l0.4,0.1l0.4-0.2
	c0.5-0.3,1.2-0.3,1.7-0.1l0.6,0.2l0.5-0.1c0.2,0,0.3-0.1,0.5-0.1h1.2c0.2,0,0.4,0,0.6,0.1l0.3,0.1l0.4-0.2c0.5-0.3,1.1-0.4,1.7-0.1
	l0.9,0.3h0.9c0.1,0,0.1,0,0.2,0l0.8,0.1l0.6-0.1l1-0.4c0.4-0.2,0.8-0.2,1.2-0.1l1.2,0.3h0.1l0.6,0.2l0.6-0.2c0.2,0,0.4-0.1,0.6-0.1
	l1.2,0.1h0.1l1.2,0.1h0.1l1,0.2h0.5l0.8-0.4c0.6-0.3,1.2-0.3,1.8,0l0.4,0.2l0.3-0.1c0.4-0.2,0.9-0.2,1.4,0l0.5,0.2l0.5-0.2
	c0.3-0.1,0.7-0.1,1,0l0.8,0.2l0.7-0.1l1.1-0.3c0.4-0.1,0.9-0.1,1.3,0.1l0.6,0.2l0.6-0.1c0.1,0,0.3,0,0.4,0l2.3-0.1
	c0.1,0,0.3,0,0.4,0l0.7,0.1l0.8-0.2c0.5-0.1,1-0.1,1.4,0.1l0.8,0.4h0.7l0.8-0.1l0.9-0.3c0.1,0,0.3-0.1,0.4-0.1l1.2-0.2
	c0.2,0,0.4,0,0.7,0l1.2,0.2l-0.8,3.9l-0.9-0.2l-0.6,0.1l-1,0.4c-0.2,0.1-0.4,0.1-0.6,0.1l-1.2,0.1h-0.2h-1.2c-0.3,0-0.6-0.1-0.8-0.2
	l-0.5-0.2l-0.4,0.1c-0.3,0.1-0.6,0.1-0.9,0.1l-1-0.2l-2,0.1l-1,0.2c-0.4,0.1-0.8,0.1-1.2-0.1l-0.5-0.2l-0.5,0.1h-0.2l-1.2,0.2
	c-0.2,0-0.5,0-0.8,0l-0.7-0.1l-0.7,0.2c-0.4,0.1-0.9,0.1-1.3-0.1l-0.5-0.2l-0.5,0.2c-0.5,0.2-1.1,0.2-1.6-0.1l-0.3-0.1l-0.3,0.1
	c-0.3,0.1-0.5,0.2-0.8,0.2h-1.2c-0.1,0-0.3,0-0.4,0l-1.1-0.2l-1.8-0.1l-0.9,0.2c-0.3,0.1-0.7,0.1-1.1,0l-1.6-0.4l-0.6,0.2
	c-0.1,0.1-0.3,0.1-0.4,0.1l-1.2,0.2c-0.2,0-0.5,0-0.7,0l-1.1-0.2l-1.1-0.1c-0.2,0-0.4-0.1-0.6-0.1l-0.3-0.1l-0.4,0.2
	c-0.5,0.3-1.1,0.4-1.7,0.2l-0.9-0.3H189l-0.9,0.2c-0.4,0.1-0.8,0.1-1.2-0.1l-0.3-0.1l-0.3,0.2c-0.5,0.3-1,0.3-1.5,0.1l-0.9-0.3H183
	h-0.9l-1,0.2c-0.4,0.1-0.8,0.1-1.1-0.1l-0.7-0.3l-0.7,0.1h-0.2h-1.2c-0.1,0-0.3,0-0.4-0.1l-0.5-0.1l-0.5,0.2
	c-0.3,0.2-0.7,0.2-1.1,0.2l-0.7-0.1l-0.7,0.2c-0.3,0.1-0.7,0.1-1,0.1l-0.9-0.2l-0.9,0.1c-0.1,0-0.2,0-0.3,0l-1.1-0.1H168
	c-0.3,0-0.5-0.1-0.8-0.2l-0.7-0.3H166l-0.9,0.4c-0.2,0.1-0.5,0.2-0.8,0.2h-1.2c-0.3,0-0.6-0.1-0.9-0.2l-0.3-0.1l-0.3,0.1
	c-0.6,0.3-1.2,0.3-1.8,0l-0.5-0.2l-0.5,0.1c-0.1,0-0.3,0.1-0.4,0.1h-1l-1,0.2c-0.1,0-0.3,0-0.4,0h-1h-0.3l-0.9-0.1l-0.9,0.1
	c-0.3,0.1-0.5,0.1-0.8,0l-1.6-0.4l-0.5,0.2c-0.5,0.3-1.1,0.3-1.6,0.1l-0.9-0.3l-1.8-0.2l-0.9,0.2c-0.1,0-0.3,0-0.4,0h-0.8l-0.8,0.3
	c-0.3,0.1-0.6,0.2-0.9,0.1l-1.2-0.1c-0.2,0-0.3-0.1-0.5-0.1l-0.7-0.2l-1.8,0.3c-0.2,0-0.5,0-0.7,0l-0.8-0.1l-0.8,0.2
	c-0.3,0.1-0.6,0.1-0.9,0l-1.8-0.4l-0.6,0.2c-0.2,0.1-0.4,0.1-0.6,0.1h-1l-1,0.2c-0.4,0.1-0.8,0-1.2-0.1l-0.8-0.4h-0.6l-0.9,0.2
	c-0.2,0-0.4,0-0.6,0l-0.9-0.1l-0.9,0.1c-0.2,0-0.4,0-0.6,0l-0.9-0.2l-1.9,0.1l-1,0.3c-0.4,0.1-0.7,0.1-1.1,0L117,186l-0.9-0.2h-1.2
	l-1-0.1l-5.6,0.3c-0.2,0-0.4,0-0.6,0l-0.9-0.2h-0.9H105l-0.8,0.3c-0.2,0.1-0.3,0.1-0.5,0.1l-1.2,0.1c-0.2,0-0.3,0-0.5,0l-0.6-0.1
	l-0.6,0.3c-0.6,0.2-1.3,0.2-1.8-0.1l-0.3-0.2l-0.2,0.1c-0.3,0.1-0.6,0.2-0.9,0.2h-1.2h-1.1c-0.2,0-0.5,0-0.7-0.1l-0.4-0.2l-0.4,0.2
	c-0.5,0.2-1.1,0.2-1.6,0l-0.6-0.2l-0.5,0.1c-0.1,0-0.3,0-0.4,0H90c-0.2,0-0.4,0-0.6-0.1l-0.5-0.2l-0.5,0.2l-0.3,0.1l-1.2,0.2
	c-0.3,0.1-0.6,0.1-0.8,0l-0.9-0.2l-0.9,0.1H84h-0.9l-0.9,0.2c-0.2,0-0.5,0-0.7,0l-2.3-0.4H79l-0.4-0.1l-0.5,0.2
	c-0.6,0.3-1.2,0.3-1.8,0l-0.6-0.3h-0.2l-0.9,0.4C74.3,187,74,187,73.7,187z"/>
<g>
	<path class="st1" d="M178.8,56.7v41.6c0,11.3-4.1,22.2-11.5,30.7c-10.8,12.5-28.4,29.4-48.6,36c-20.2-6.6-37.8-23.5-48.7-36
		c-7.4-8.5-11.5-19.4-11.5-30.7V56.7c0-2.7,1.5-5.2,4-6.4c23-11,43.2-26,51.8-32.7c2.6-2,6.2-2,8.8,0c8.6,6.7,28.8,21.7,51.8,32.7
		C177.2,51.5,178.8,54,178.8,56.7z"/>
	<path class="st2" d="M118.7,166.1c-0.1,0-0.2,0-0.3-0.1l-2-0.6l-0.2-0.1l-0.6-0.3c-0.4-0.2-0.8-0.4-1.2-0.6l-1.9-0.6
		c-0.1,0-0.1,0-0.2-0.1l-0.6-0.3c-0.4-0.2-0.9-0.4-1.3-0.7l-2.4-1.3c-0.4-0.2-0.9-0.5-1.3-0.7l-2-1c-0.6-0.3-1.2-0.7-1.8-1l-1.8-1
		c-0.7-0.4-1.2-0.9-1.8-1.3l-1.8-1c-0.6-0.3-1.2-0.7-1.8-1c-0.1,0-0.1-0.1-0.2-0.1l-1.6-1.4c-0.4-0.3-0.8-0.6-1.2-0.9l-0.5-0.4
		l-1.7-1.2l-0.1-0.1c-0.3-0.3-0.7-0.7-1-1l-0.4-0.5l-1.7-1.1c-0.1,0-0.1-0.1-0.2-0.1l-1.4-1.5l-0.5-0.4c-0.4-0.3-0.7-0.6-1.1-0.9
		l-1.7-1.7c-0.6-0.4-1.1-0.8-1.6-1.2c-0.1-0.1-0.1-0.1-0.2-0.2l-1.2-1.6l-1.3-1l-0.3-0.2l-0.1-0.1l-1.4-1.6l-1.9-1.9
		c-0.4-0.3-0.8-0.7-1.1-1l-1.5-1.7c-0.3-0.3-0.6-0.7-1-1.1l-1-1.2c-0.3-0.4-0.6-0.8-0.9-1.1l-0.4-0.5c-0.3-0.4-0.6-0.7-0.9-1.1
		c-0.1-0.2-0.3-0.4-0.4-0.6c-0.3-0.4-0.6-0.8-0.9-1.2c-0.1-0.2-0.2-0.4-0.4-0.5c-0.3-0.4-0.6-0.8-0.8-1.2l-0.3-0.5
		c-0.3-0.4-0.6-0.9-0.8-1.3l-0.3-0.5c-0.3-0.5-0.5-0.9-0.8-1.4l-0.2-0.5c-0.2-0.5-0.5-1-0.7-1.6l-0.2-0.3c-0.2-0.5-0.5-1.1-0.7-1.6
		l-0.4-0.3c-0.2-0.6-0.4-1.2-0.6-1.8s-0.4-1.4-0.5-2.1s-0.5-1.3-0.7-2c-0.2-0.9-0.4-1.5-0.6-2.2s-0.3-1.5-0.4-2.1
		c-0.1-0.6-0.2-1.5-0.2-2.2s-0.2-1.4-0.3-2.1s0-1.4,0-2.2s-0.1-1.4-0.1-2.1v-2.2V95l0.2-2.1l-0.1-2.1v-2.2l-0.2-2v-0.2l0.3-4.2
		l-0.1-2.1v-0.2l0.1-2.1l-0.2-4.2v-0.1l0.2-2.1l0.1-2l-0.2-2.1v-0.1v-2.1l-0.1-2l0.1-4.3l0.2-2.1c-0.1-0.8-0.1-1.6,0.1-2.3l0-0.3
		c0.3-0.8,0.7-1.5,1.3-2.1c0.5-0.6,1.1-1.1,1.8-1.6c0.6-0.4,1.2-0.8,1.8-1.1l0.1-0.1l2-0.9l1.9-0.9l1.8-1l1.9-1l1.7-1.1l0.2-0.1
		l1.9-0.7c0.4-0.3,0.7-0.6,1.1-0.8l0.5-0.4c0.1-0.1,0.2-0.2,0.3-0.2l1.9-0.8c0.6-0.3,1.2-0.7,1.7-1l1.7-1.3l1.9-1.2l0.1-0.1l1.9-0.9
		l3.6-2.2l1.7-1.2l1.8-1.1l1.6-1.4l0.1-0.1l1.7-1.1l1.6-1.4l0.2-0.1l1.8-1.1l1.7-1.2l1.7-1l0.1-0.1l1.8-1l1.6-1.3l3.5-2.6l1.8-1.1
		l1.4-1.5c0.1-0.1,0.1-0.1,0.2-0.2l0.1-0.1c0.6-0.4,1.2-0.7,1.8-1c0.7-0.4,1.4-0.7,2.2-0.9c0.8-0.2,1.7-0.2,2.5-0.1
		c0.8,0.2,1.5,0.4,2.2,0.8c0.7,0.2,1.4,0.5,2.1,0.9c0.1,0,0.1,0.1,0.2,0.1l1.6,1.5l1.6,1.3L129,21l1.7,1.2l1.8,1l0.1,0.1l3.3,2.7
		l1.8,1.1l3.6,2.6L143,31l1.7,1.1l1.9,0.9c0.1,0,0.2,0.1,0.2,0.2l1.5,1.3l1.8,0.9l0.2,0.1l1.6,1.2l1.8,0.9l0.1,0.1
		c0.6,0.4,1.2,0.8,1.8,1.2l1.8,1l1.9,0.9c0.1,0,0.1,0.1,0.1,0.1l1.7,1.2L163,43l3.8,2l1.9,1.1l2,1l0.2,0.1l1.8,1.2l2,1
		c0.6,0.3,1.3,0.6,1.8,1c0.7,0.4,1.3,0.9,1.8,1.5c0.5,0.7,1,1.4,1.3,2.2c0.2,0.8,0.3,1.7,0.3,2.6l-2-0.1c0-0.6,0-1.3-0.2-1.9
		c-0.2-0.6-0.5-1.1-0.9-1.6c-0.4-0.4-0.8-0.8-1.3-1.1s-1-0.6-1.6-0.9l-0.2-0.1l-1.9-1l-0.1-0.1l-1.7-1.2l-1.9-0.8H168l-1.9-1.2
		l-3.8-2l-1.9-0.9l-0.2-0.1l-1.7-1.2l-1.9-0.9l-1.9-1c-0.7-0.4-1.2-0.8-1.8-1.2l-1.9-1l-0.1-0.1l-1.6-1.3l-1.8-0.9
		c-0.1,0-0.1-0.1-0.2-0.1l-1.5-1.3l-1.8-0.9c0,0-0.1,0-0.1-0.1l-1.8-1.2l-3.5-2.6l-1.7-1.2l-1.8-1.1l-0.1-0.1l-3.2-2.7l-1.8-1
		l-1.9-1.2l-0.4,0.2l-3.3-2.7l-1.5-1.5c-0.5-0.3-1.1-0.5-1.6-0.7c-0.1,0-0.2-0.1-0.3-0.1c-0.5-0.3-1.1-0.5-1.7-0.7
		c-0.6-0.1-1.2-0.1-1.7,0c-0.6,0.1-1.1,0.4-1.6,0.7c-0.1,0-0.1,0.1-0.2,0.1c-0.6,0.2-1.1,0.5-1.6,0.8l0,0l-1.4,1.5
		c-0.1,0.1-0.1,0.1-0.2,0.2l-1.8,1.2l-3.4,2.5l-1.7,1.3l-0.1,0.1l-1.8,1l-1.7,1.2l-1.8,1.3l-1.8,1.1L97,31.4l-0.1,0.1l-1.8,1.1
		l-1.6,1.3l-0.1,0.2l-1.8,1.1l-1.7,1.2l-3.7,2.2l-0.1,0.1l-1.9,0.9l-1.8,1.1l-1.7,1.1v0.1c-0.6,0.4-1.2,0.7-1.9,1.1l-0.1,0.1
		l-1.9,0.8l-0.4,0.2l-1.2,1c-0.1,0.1-0.1,0.1-0.2,0.1l-1.9,0.7L71.4,47l-1.9,1l-1.9,1.1l-2,1l-2,0.9c-0.5,0.3-1,0.6-1.5,1H62
		c-0.5,0.3-1,0.7-1.3,1.2c-0.4,0.5-0.7,1-0.9,1.5c-0.1,0.6-0.1,1.2,0,1.7c0,0.1,0,0.2,0,0.2l-0.2,2.1l-0.1,4.2l0.1,2.1v2.1l0.2,2.1
		v0.1l-0.1,2.1l-0.2,2.1l0.2,4.2l-0.2,2.4l0.1,2.1v0.1l-0.3,4.2l0.2,2v2.2l0.1,2.1c0,0.1,0,0.1,0,0.2l-0.2,2.1v2
		c0,0.6,0.1,1.3,0.1,2v0.1c0,0.8,0,1.4,0,2.1s0.2,1.4,0.3,2v0.1c0,0.7,0.1,1.4,0.2,2.1c0.1,0.7,0.2,1.3,0.4,2c0.2,0.7,0.3,1.2,0.5,2
		c0.2,0.6,0.4,1.3,0.7,1.9c0,0.1,0,0.1,0,0.2c0.1,0.6,0.3,1.3,0.5,1.9c0.2,0.6,0.4,1.2,0.6,1.8l0.1,0.3c0.2,0.5,0.4,1,0.6,1.5
		l0.2,0.4c0.2,0.5,0.4,1,0.7,1.5l0.2,0.5c0.2,0.4,0.4,0.8,0.7,1.3l0.3,0.5c0.2,0.4,0.5,0.8,0.8,1.2l0.4,0.6c0.2,0.4,0.5,0.8,0.8,1.1
		l0.4,0.6c0.2,0.4,0.5,0.7,0.8,1.1l0.5,0.6c0.2,0.3,0.5,0.7,0.8,1c0.3,0.3,0.3,0.4,0.5,0.6c0.3,0.4,0.6,0.8,0.9,1.1l0.5,0.6l0.4,0.5
		c0.3,0.4,0.6,0.7,0.9,1l1.4,1.6c0.3,0.3,0.7,0.6,1,0.9l0.5,0.4l1.6,1.6l1.6,1.7c0.4,0.4,0.9,0.7,1.4,1.1c0.1,0.1,0.1,0.1,0.2,0.2
		l1.2,1.6c0.5,0.4,1,0.7,1.5,1.1l0.1,0.1l0.1,0.1l1.6,1.4l1,0.9l0.6,0.5l0.1,0.1l1.5,1.6l1.7,1.1c0.1,0,0.1,0.1,0.2,0.1L91,148
		l0.9,0.9l2.3,1.6c0.4,0.3,0.7,0.6,1.1,0.8l0.1,0.1l1.6,1.3c0.6,0.4,1.2,0.7,1.8,1l1.9,1.1l0.1,0.1c0.5,0.4,1.1,0.8,1.7,1.2l1.8,1
		c0.6,0.4,1.1,0.7,1.7,1l0.1,0.1l1.9,0.9l0.1,0.1c0.4,0.3,0.8,0.5,1.2,0.7l2.4,1.3c0.4,0.2,0.8,0.4,1.2,0.6l0.6,0.3l2,0.6
		c0.1,0,0.2,0,0.2,0.1c0.4,0.2,0.8,0.4,1.2,0.6l0.6,0.3l1.5,0.5l1.6-0.8l0.2-0.1l0.7-0.2c0.4-0.1,0.9-0.2,1.3-0.4l2-0.6l0.6-0.3
		c0.4-0.2,0.8-0.4,1.2-0.6l2.1-1.1c0.5-0.3,1-0.6,1.4-1c0.1,0,0.1-0.1,0.2-0.1l1.9-0.9c0.6-0.3,1.2-0.6,1.7-1l1.7-1.2l0.1-0.1
		c0.6-0.3,1.2-0.7,1.8-1l1.7-1.2c0.5-0.3,0.9-0.6,1.3-0.9l0.4-0.3l1.8-1.1c0.3-0.3,0.6-0.6,1-0.9l0.6-0.5l1.8-1.3l3.3-2.6l1.7-1.2
		l0.5-0.5c0.3-0.3,0.6-0.6,0.9-1l1.6-1.5c0.5-0.5,1-1,1.5-1.4l1.5-1.5c0.3-0.4,0.7-0.7,1-1.1l0.4-0.4l3.4-3.3
		c0.4-0.4,0.8-0.8,1.2-1.2l1.7-1.5l1.3-1.5l0.4-0.5c0.3-0.4,0.6-0.8,0.8-1.1l0.4-0.5c0.3-0.4,0.6-0.8,0.8-1.2l0.1-0.2l0.4-0.4
		c0.3-0.3,0.6-0.6,0.9-1l0.2-0.4c0.2-0.5,0.4-0.9,0.6-1.4c0-0.1,0.1-0.1,0.1-0.2l0.3-0.4c0.3-0.4,0.6-0.9,0.9-1.3l0.2-0.3
		c0.3-0.5,0.5-1,0.8-1.5l0.1-0.3c0.2-0.5,0.5-1.1,0.7-1.6l0.1-0.2c0.3-0.6,0.7-1.1,1-1.7c0.1-0.6,0.3-1.3,0.4-1.9
		c0-0.1,0.1-0.2,0.1-0.3c0.3-0.5,0.6-1.1,0.9-1.7c0.1-0.7,0.2-1.3,0.3-1.9c0-0.1,0-0.1,0-0.2c0.2-0.7,0.4-1.4,0.5-2s0.3-1.3,0.5-2
		s0-1.3,0-2c0-0.1,0-0.2,0-0.3c0.1-0.6,0.3-1.2,0.4-1.9c0-0.6-0.1-1.2-0.2-1.9c0-0.1,0-0.2,0-0.2c0.1-0.7,0.1-1.4,0.2-2.1l0.1-2.1
		l0.1-2.1l-0.1-2l-0.2-2.1l-0.1-6.4v-0.1l0.2-2l-0.2-2v-0.1l0.1-4.2l0.2-2.1V70v-2.2v-4.2l0.1-2.2l-0.1-2v-0.1l0.2-2.1l2,0.2l-0.2,2
		l0.1,2l-0.1,2.2v4.2v2.1V72v0.1l-0.2,2.1l-0.1,4.1l0.2,2c0,0.1,0,0.2,0,0.2l-0.2,2.1l0.1,6.3l0.2,2l0.1,2.2l-0.1,2.2l-0.1,2.1
		c-0.1,0.7-0.1,1.4-0.2,2.1c0.1,0.8,0.1,1.4,0.2,2.1c0,0.1,0,0.1,0,0.2c-0.1,0.7-0.3,1.4-0.4,2c0,0.7,0,1.4-0.1,2.1v0.1
		c-0.1,0.7-0.3,1.4-0.5,2.1s-0.3,1.2-0.5,2s-0.2,1.3-0.3,2.1c0,0.1,0,0.2-0.1,0.3c-0.3,0.7-0.7,1.3-1,1.8c-0.1,0.7-0.3,1.4-0.4,2
		c0,0.1,0,0.2-0.1,0.2c-0.4,0.6-0.7,1.2-1.1,1.8s-0.5,1.1-0.7,1.6l-0.1,0.3c-0.2,0.5-0.5,1.1-0.8,1.6l-0.2,0.3c-0.3,0.5-0.6,1-1,1.5
		l-0.2,0.3c-0.2,0.5-0.4,0.9-0.7,1.4l-0.2,0.5c0,0.1-0.1,0.2-0.1,0.2c-0.4,0.4-0.8,0.8-1.1,1.2l-0.3,0.3c-0.3,0.4-0.5,0.8-0.8,1.2
		l-0.4,0.5c-0.3,0.4-0.6,0.8-0.9,1.2l-0.4,0.5l-0.1,0.1l-1.4,1.6l-1.7,1.5c-0.3,0.4-0.7,0.8-1.1,1.2l-3.7,3.7
		c-0.4,0.4-0.7,0.8-1.1,1.2l-1.5,1.5c-0.5,0.5-1.1,1-1.6,1.5l-1.5,1.5c-0.3,0.3-0.6,0.6-0.9,1l-0.5,0.6l-0.1,0.1l-1.8,1.2l-5,3.9
		l-0.5,0.4c-0.4,0.3-0.7,0.6-1.1,1l-0.1,0.1l-2.2,1.5c-0.4,0.3-0.9,0.6-1.4,0.9l-1.7,1.2c-0.6,0.4-1.2,0.8-1.9,1.1l-1.7,1.2
		c-0.6,0.4-1.3,0.8-2,1.1l-1.9,0.8c-0.5,0.4-0.9,0.7-1.4,1l-0.3,0.2l-0.1,0.1l-1.9,0.9c-0.4,0.2-0.9,0.4-1.3,0.6l-0.6,0.3l-0.1,0.1
		l-2.1,0.6c-0.4,0.1-0.9,0.3-1.3,0.4l-0.6,0.2l-1.8,0.9l-0.2,0.1C118.9,166,118.8,166.1,118.7,166.1z"/>
	<path class="st3" d="M118.8,122.7c-0.2,0-0.4,0-0.6-0.1h-0.1c-0.6-0.2-1.2-0.5-1.6-1c-0.1-0.1-0.3-0.3-0.4-0.4l-0.3-0.2l-0.2-0.1
		l-0.2-0.1l-0.7-0.6l-0.1-0.1l-1-0.9L113,119c-0.5-0.2-0.9-0.7-1.1-1.2l-0.2-0.6l-1.1-1.3l-0.5-0.2c-0.4-0.2-0.7-0.4-0.9-0.7
		l-0.4-0.6l-0.4-0.4l-0.6-0.5c-0.2-0.1-0.3-0.3-0.4-0.5l-0.1-0.2l-0.3-0.1c-0.3-0.1-0.5-0.3-0.7-0.5l-0.6-0.7
		c-0.1-0.1-0.2-0.3-0.3-0.4c-0.4-0.1-0.7-0.3-1-0.6l-0.6-0.6l-0.6-0.5c-0.3-0.3-0.5-0.6-0.6-1l-0.2-0.6c-0.2-0.1-0.5-0.2-0.7-0.3
		l-0.7-0.4c-0.5-0.8-1.1-1.5-1.9-2l-0.4-0.8l-0.7-1l-0.4-0.2c-0.2-0.1-0.3-0.2-0.5-0.4l-0.4-0.5l-0.6-0.4c-0.2-0.2-0.4-0.4-0.5-0.6
		l-0.2-0.3l-0.2-0.1l-0.8-0.3c-0.5-0.2-1-0.6-1.2-1.1L93,98.9l-0.2-0.2l-0.6-0.3c-0.2-0.3-0.5-0.8-0.7-1.3V97
		c-0.6-0.3-1-0.8-1.1-1.4c0-0.2-0.1-0.5-0.1-0.8l-0.2-0.3c0-0.1-0.1-0.1-0.1-0.2l-0.1-0.2c-0.2-0.1-0.4-0.3-0.6-0.4
		c-0.6-0.5-0.8-1.3-0.6-2c-0.3-0.3-0.4-0.7-0.4-1.1V90l-0.1-0.4c-0.2-0.2-0.3-0.5-0.4-0.7c-0.2-0.3-0.2-0.6-0.2-0.9v-0.9
		c0-0.4,0-0.7,0-1.1c0-0.2,0-0.4,0.1-0.5l0.2-0.6c0-0.1,0-0.3,0-0.4s0-0.2,0-0.2c0-0.1,0-0.1,0-0.2v-0.3c0-0.2,0-0.4,0.1-0.7
		l0.1-0.8c0-0.4,0.1-0.8,0.2-1.1l0.2-0.9c0-0.1,0.1-0.2,0.1-0.3c0.1-0.3,0.3-0.5,0.5-0.8l0.1-0.1l0.3-0.7c0.1-0.2,0.2-0.4,0.4-0.6
		l0.6-0.7l0.2-0.2l0.2-0.1H91l0.1-0.2c0-0.2,0-0.4,0-0.5c0.2-0.4,0.4-0.7,0.7-1l0.5-0.7c0.1-0.2,0.3-0.3,0.4-0.4
		c0.2-0.1,0.4-0.3,0.6-0.4c0.1-0.1,0.1-0.1,0.1-0.2l0.2-0.2c0.2-0.2,0.4-0.4,0.6-0.5l0.2-0.1l0.2-0.1c0.1-0.2,0.3-0.4,0.5-0.5
		c0.1-0.1,0.3-0.2,0.4-0.3c0.3-0.2,0.6-0.3,0.9-0.5c0.2-0.1,0.5-0.2,0.8-0.2h0.3l0.1-0.1c0.1-0.1,0.2-0.2,0.4-0.2l0.6-0.3
		c0.2-0.2,0.4-0.3,0.6-0.5c0.4-0.3,0.9-0.5,1.4-0.5h0.1l0.8,0.1h0.3l0.2-0.1h0.1c0.3-0.1,0.7-0.2,1-0.2l0.6,0.1l0.6-0.1h0.4
		c0.3,0,0.5-0.1,0.8-0.1c0.4,0,0.8,0,1.2,0.2c0.2,0.1,0.5,0.3,0.7,0.4h0.1h0.2l0.2-0.1c0.4-0.1,0.8-0.1,1.1,0l0.2,0.1l0.4,0.1
		c0.3,0,0.5,0,0.8,0.1c0.2,0,0.4,0.1,0.6,0.2c0.3,0.2,0.6,0.3,0.9,0.5c0.2,0.1,0.5,0.3,0.7,0.5l0.1,0.1c0.2,0.1,0.3,0.2,0.4,0.4h0.1
		c0.7,0,1.3,0.3,1.6,0.8l0.1,0.2c0.2,0.2,0.3,0.4,0.5,0.7l0.1,0.1l0.2,0.2c0.1,0.1,0.3,0.2,0.4,0.2c0.2,0.1,0.4,0.3,0.6,0.6l0.4,0.6
		l0.3,0.3l0.5,0.3c0.1,0.1,0.3,0.2,0.4,0.3l0.1,0.1c0.3-0.2,0.5-0.2,0.8-0.3l0.1-0.3c0.1-0.3,0.2-0.6,0.4-0.8l0.6-0.7
		c0.3-0.3,0.6-0.5,1-0.6l0.6-0.2l0.3-0.2l0.2-0.1c0.2-0.1,0.4-0.3,0.6-0.4l0.1-0.1l0.4-0.3l0.2-0.2c0.2-0.2,0.5-0.3,0.7-0.4l0.2-0.1
		l0.3-0.3c0.3-0.3,0.6-0.5,1-0.6l0.2-0.1l0.3-0.3c0.4-0.4,0.9-0.6,1.4-0.7c0.3,0,0.5,0,0.8,0h0.1l0.7-0.2c0.2-0.1,0.5-0.2,0.7-0.2
		c0.4-0.1,0.7-0.1,1.1,0l0.3,0.1l0.2-0.1c0.2,0,0.3-0.1,0.5-0.1h0.7h0.3c0.1,0,0.2,0,0.3,0h0.2l0.8,0.1c0.2,0,0.4,0.1,0.6,0.2h0.1
		c0.7-0.3,1.4-0.1,2,0.3l0.2,0.2h0.1c0.3,0,0.5,0,0.7,0.1h0.1l0.8,0.3c0.2,0.1,0.4,0.2,0.6,0.4h0.1c0.7-0.1,1.4,0.2,1.9,0.8l0.4,0.6
		l0.2,0.2l0.2,0.2l0.2,0.2l0.4,0.4l0.3,0.1c0.3,0.1,0.6,0.2,0.9,0.3c0.5,0.2,0.9,0.5,1.1,1l0.4,0.8c0,0.1,0.1,0.1,0.1,0.2
		c0.1,0.1,0.1,0.2,0.1,0.4l0.2,0.1c0.2,0.1,0.4,0.3,0.5,0.5c0.2,0.3,0.3,0.6,0.5,0.8l0.1,0.2l0.1,0.2l0.3,0.8
		c0.1,0.1,0.1,0.3,0.1,0.4l0.1,0.6l0.1,0.2l0.4,0.3c0.6,0.5,0.9,1.3,0.7,2.1v0.1c0.3,0.5,0.4,1.1,0.2,1.7c0,0.1,0,0.1,0,0.2l0.1,0.3
		c0.1,0.4,0.2,0.8,0.1,1.2l-0.1,0.4c0,0.2,0.1,0.3,0.1,0.4l0.2,0.8c0.2,0.6,0,1.2-0.3,1.7l-0.2,0.2c0,0.1,0,0.2,0,0.3
		c0,0.2,0,0.3,0,0.5l-0.2,0.8c-0.1,0.4-0.1,0.7-0.2,1.1c-0.1,0.2-0.1,0.3-0.2,0.5l-0.2,0.3c0,0.1,0,0.1,0,0.2v0.6
		c-0.1,0.6-0.4,1.2-1,1.6l-0.2,0.1l-0.3,0.2l-0.1,0.2c-0.1,0.2-0.2,0.3-0.3,0.5l-0.1,0.6c0,0.1-0.1,0.3-0.1,0.4
		c-0.1,0.3-0.3,0.6-0.4,0.8l-0.1,0.2c-0.2,0.3-0.4,0.5-0.6,0.6l-0.8,0.5l-1.1-1.6l0.5,1.5l0.3,0.2l-0.2,0.2l0.1,0.2l-0.3,0.1
		l-0.1,0.2c-0.1,0.2-0.3,0.4-0.5,0.5l-0.5,0.4l-1,1.2l-0.1,0.1l-0.5,0.5l-0.4,0.6c-0.2,0.3-0.5,0.5-0.8,0.6l-0.6,0.2l-0.6,0.6
		l-0.1,0.4c-0.2,0.7-0.7,1.2-1.4,1.4l-0.4,0.1l-0.1,0.1l-0.5,0.6L136,107l-0.4,0.4l-0.3,0.6c-0.1,0.1-0.1,0.2-0.2,0.3l-0.5,0.7
		c-0.2,0.3-0.4,0.5-0.7,0.6l-0.6,0.3l-0.5,0.4c-0.1,0.1-0.3,0.2-0.4,0.3c-0.8,0.7-1.5,1.5-2.1,2.4l-0.7,0.5l-0.1,0.3
		c-0.1,0.8-0.7,1.4-1.5,1.6c-0.3,0.6-0.8,1-1.4,1.2l-0.3,0.1l-0.1,0.1l-0.1,0.1l-0.6,0.7c-0.1,0.2-0.3,0.3-0.5,0.4v0.2
		c-0.1,0.9-0.8,1.5-1.7,1.6l0,0l-0.3,0.7c-0.1,0.3-0.3,0.5-0.5,0.7l-0.7,0.6c-0.2,0.2-0.4,0.3-0.6,0.4h-0.1H121
		c-0.3,0.1-0.6,0.2-0.9,0.2C119.6,122.6,119.2,122.7,118.8,122.7z M117.8,117.7L117.8,117.7l0.5,0.3c0.2,0.1,0.4,0.2,0.5,0.4
		c0.1,0.1,0.2,0.2,0.2,0.2l0,0h0.2l0,0l0.2-0.4v-0.1l0.4-0.8c0.2-0.5,0.6-0.8,1.1-1c0.2-0.4,0.5-0.8,0.9-1.1l0.5-0.3l0.3-0.4
		l0.5-0.6c0.2-0.3,0.5-0.5,0.9-0.7c0.2-0.7,0.8-1.2,1.4-1.3c0.1-0.3,0.3-0.6,0.6-0.8l0.7-0.5l0.1-0.1l0.1-0.1l0.1-0.2
		c0.2-0.6,0.6-1.1,1.2-1.3c0.2-0.6,0.6-1,1.2-1.2l0.6-0.2l0.4-0.4c0.1-0.1,0.2-0.1,0.3-0.2l0.4-0.2l0.1-0.2l0.3-0.7
		c0.1-0.2,0.2-0.4,0.3-0.5l0.5-0.6l0.5-0.6l0.1-0.1l0.6-0.6c0.2-0.2,0.5-0.4,0.8-0.5c0.1-0.4,0.3-0.7,0.6-0.9l1.3-1.1
		c0.2-0.2,0.4-0.3,0.6-0.4l0.4-0.2l0.2-0.3c0.1-0.1,0.1-0.2,0.2-0.2l0.6-0.6l1.1-1.2c0.1-0.1,0.2-0.2,0.4-0.3l0.4-0.3l0.3-0.4
		c0.2-0.4,0.6-0.6,1-0.8l0.5-0.2l-0.2-0.2l0.4-0.3l0,0l0.1-0.7c0.1-0.3,0.2-0.5,0.3-0.8c0.1-0.2,0.2-0.3,0.3-0.5
		c0-0.1,0.1-0.2,0.1-0.2l0.5-0.7c0.2-0.3,0.4-0.5,0.6-0.6c0-0.3,0.1-0.6,0.3-0.8l0.3-0.5c0-0.1,0-0.2,0.1-0.3v-0.2l0.1-0.6v-0.2
		c0-0.1,0-0.3,0-0.4c-0.1-0.5,0.1-1,0.4-1.4c0-0.1,0-0.1,0-0.2c0-0.2-0.1-0.4-0.1-0.6c-0.1-0.3-0.1-0.7,0-1v-0.2l-0.1-0.2
		c-0.2-0.5-0.3-1-0.1-1.5c-0.3-0.4-0.4-1-0.3-1.5c-0.2-0.2-0.3-0.5-0.4-0.7c0-0.1-0.1-0.2-0.1-0.2l-0.1-0.3
		c-0.1-0.2-0.1-0.3-0.1-0.5l-0.1-0.7l-0.3-0.7v-0.1l-0.4-0.3c-0.4-0.3-0.7-0.7-0.8-1.2c0-0.2-0.1-0.3-0.2-0.5H142
		c-0.1,0-0.2-0.1-0.4-0.1l-0.8-0.4c-0.2-0.1-0.5-0.3-0.6-0.5L140,76l-0.2-0.3l-0.1-0.1l-0.4-0.3c-0.1-0.1-0.2-0.2-0.3-0.3
		c-0.7,0.1-1.4-0.2-1.8-0.8l-0.2-0.3h-0.4c-0.4,0-0.9-0.1-1.2-0.3c-0.6,0.2-1.2,0.1-1.7-0.3l-0.4-0.2H133h-0.5l-0.5,0.2
		c-0.5,0.2-1,0.2-1.5,0l-0.2-0.1l-0.2,0.1h-0.2l-0.9,0.2h-0.4c-0.3,0.4-0.7,0.7-1.2,0.7h-0.1l-0.1,0.2c-0.3,0.4-0.7,0.6-1.1,0.7
		l-0.4,0.1l-0.3,0.2c-0.1,0.1-0.2,0.1-0.3,0.2l-0.3,0.2l-0.3,0.2c-0.2,0.2-0.4,0.3-0.5,0.4c-0.3,0.3-0.6,0.4-1,0.5h-0.1l-0.1,0.4
		c-0.1,0.3-0.3,0.6-0.5,0.9l-0.6,0.7c-0.2,0.2-0.5,0.4-0.9,0.5c0,0.1-0.1,0.2-0.1,0.3c-0.3,0.8-1.1,1.3-1.9,1.2
		c-0.3,0-0.5,0-0.8-0.1c-0.6-0.2-1.1-0.6-1.3-1.1l0,0c-0.2-0.1-0.4-0.2-0.5-0.3l-0.5-0.4l-0.6-0.3c-0.2-0.1-0.3-0.2-0.4-0.3
		l-0.6-0.6l-0.2-0.3l-0.2-0.4l-0.3-0.2c-0.3-0.2-0.6-0.5-0.8-0.8c-0.1-0.2-0.2-0.3-0.3-0.5c-0.7,0-1.3-0.3-1.7-0.8l-0.2-0.2
		l-0.2-0.2l-0.4-0.2l-0.4-0.2h-0.2H109c-0.2,0-0.3,0-0.5-0.1l-0.2-0.1l-0.3,0.1c-0.4,0.1-0.8,0.1-1.2,0l-0.2-0.1
		c-0.2,0-0.3-0.1-0.5-0.2c-0.2-0.1-0.4-0.1-0.6-0.3l-0.1-0.1h-0.2l-0.5-0.1l-0.2,0.1c-0.3,0.1-0.5,0.1-0.8,0h-0.3
		c-0.1,0-0.1,0-0.2,0.1c-0.4,0.2-0.8,0.3-1.3,0.2l-0.7-0.1h-0.1l-0.1,0.1c-0.2,0.1-0.3,0.3-0.5,0.3l-0.3,0.2l-0.2,0.1l-0.4,0.3
		c-0.4,0.4-1,0.6-1.5,0.6h-0.4l0,0l-0.1,0.1l-0.2,0.3c-0.2,0.2-0.4,0.3-0.6,0.4L96.4,76c-0.1,0.1-0.2,0.2-0.2,0.3
		c-0.2,0.2-0.3,0.4-0.6,0.5l-0.3,0.3h-0.1l-0.3,0.4l-0.2,0.3l-0.2,0.7c-0.1,0.5-0.5,0.9-0.9,1.2c-0.1,0.1-0.2,0.1-0.3,0.2L93.2,80
		l-0.3,0.3l-0.2,0.5c0,0.1-0.1,0.2-0.1,0.2l-0.2,0.3c0,0-0.1,0.1-0.1,0.2l-0.2,0.6c0,0.2-0.1,0.4-0.1,0.6l-0.3,1c0,0.2,0,0.3,0,0.5
		v0.3c0,0.1,0,0.2,0,0.3c0,0.1,0,0.2,0,0.3c0,0.3,0,0.5-0.1,0.8l-0.2,0.6c0,0.1,0,0.2,0,0.4c0,0,0,0.1,0,0.2v0.3v0.1l0.2,0.3
		c0.1,0.2,0.2,0.3,0.2,0.5l0.1,0.4c0,0.1,0.1,0.2,0.1,0.3c0.1,0.2,0.1,0.4,0.1,0.6v0.1l0,0c0.6,0.5,0.8,1.2,0.7,1.9
		c0.1,0.1,0.2,0.3,0.3,0.5l0.3,0.7l0.4,0.6c0.1,0.2,0.2,0.4,0.3,0.7c0.6,0.3,0.9,0.9,1,1.5l0,0c0.2,0.1,0.3,0.2,0.5,0.4
		c0.1,0.1,0.2,0.2,0.3,0.3l0.2,0.2c0.2,0.2,0.3,0.4,0.4,0.6v0.1h0.2c0.1,0,0.2,0.1,0.3,0.1l0.8,0.4c0.3,0.2,0.6,0.4,0.8,0.8l0.3,0.4
		l0.4,0.3c0.1,0.1,0.2,0.2,0.3,0.3l0.4,0.4l0.5,0.3c0.3,0.2,0.5,0.4,0.6,0.6l1,1.5c0,0.1,0.1,0.1,0.1,0.2h0.1
		c0.8,0.2,1.4,0.8,1.5,1.6v0l0.4,0.1c0.6,0.1,1.1,0.5,1.4,1.1l0.4,0.8c0.1,0.1,0.1,0.2,0.1,0.3l0.1,0.4l0.2,0.2
		c0.1,0,0.1,0.1,0.2,0.1l0.2,0.2l0.4,0.1c0.7,0.1,1.3,0.6,1.5,1.2l0.3,0.6l0.4,0.2c0.4,0.2,0.7,0.4,0.9,0.8l0.3,0.5l0.4,0.3
		c0.1,0.1,0.2,0.1,0.2,0.2l0.6,0.6c0.1,0.1,0.1,0.2,0.2,0.2l0.2,0.2l0.3,0.1c0.3,0.1,0.5,0.3,0.7,0.5l1.2,1.3l0.6,0.8
		c0.1,0.2,0.3,0.4,0.3,0.6l0.1,0.1c0.2,0.1,0.4,0.2,0.5,0.3l0.7,0.6l0.1,0.1l0.6,0.6L117.8,117.7z"/>
	<path class="st4" d="M56.6,63.2L41.2,75.7c-2.1,1.7-3.3,4.3-3.3,7v33.9c0,5,4,9,9,9h24c5,0,9-4,9-9V82.7c0-2.7-1.2-5.3-3.3-7
		L61.2,63.2C59.9,62.1,58,62.1,56.6,63.2z M58.9,74.5c-1.7,0-3-1.3-3-3c0-1.7,1.3-3,3-3c1.7,0,3,1.3,3,3
		C61.9,73.2,60.6,74.5,58.9,74.5L58.9,74.5z"/>
	<path class="st0" d="M58.6,75.7c-0.2,0-0.4-0.1-0.6-0.2c-0.1,0-0.1,0-0.2-0.1h-0.1c-0.1,0-0.3,0-0.4,0c-0.1,0-0.2-0.1-0.3-0.2
		c-0.1,0-0.2-0.1-0.3-0.1c-0.1-0.1-0.2-0.1-0.3-0.2l-0.2-0.1c-0.2-0.1-0.4-0.3-0.4-0.6c-0.1-0.1-0.3-0.2-0.4-0.3
		c-0.1-0.1-0.1-0.3-0.2-0.4S55,73.2,54.9,73c0-0.1,0-0.2,0-0.3c-0.1-0.1-0.2-0.3-0.2-0.5c0-0.1,0-0.1,0-0.2c-0.1-0.3-0.1-0.6,0-0.9
		c0-0.1,0-0.1,0.1-0.2c0-0.2,0-0.4,0.1-0.5c0-0.1,0-0.2,0.1-0.3c0-0.1,0.1-0.1,0.1-0.2c0-0.3,0.1-0.5,0.2-0.7
		c0.1-0.1,0.2-0.2,0.3-0.2l0.1-0.1c0.1-0.2,0.2-0.4,0.3-0.5s0.2-0.2,0.4-0.2h0.1c0.1-0.1,0.2-0.2,0.3-0.2l0.1-0.1
		c0.1-0.1,0.3-0.2,0.5-0.2h0.1c0.1,0,0.2,0,0.3,0c0.2-0.2,0.4-0.3,0.6-0.3c0.2,0,0.4,0,0.6,0.1c0.1,0,0.2,0,0.3,0h0.4
		c0.1,0,0.3,0,0.4,0c0.2,0,0.4,0.1,0.6,0.2c0.1,0,0.3,0.1,0.4,0.2c0.2,0.1,0.4,0.3,0.4,0.5c0.2,0,0.4,0.1,0.5,0.3
		c0.1,0.1,0.2,0.2,0.2,0.3l0.1,0.2l0,0c0,0,0,0.1,0.1,0.1c0,0,0.1,0.1,0.1,0.2c0.1,0.1,0.2,0.2,0.2,0.3s0,0.1,0.1,0.2
		c0.1,0.2,0.2,0.4,0.2,0.6c0,0.1,0,0.3,0,0.4v0.1v0.1c0.1,0.3,0,0.6-0.1,0.8l0,0c0,0.1,0,0.3-0.1,0.4c0,0.2,0,0.4-0.1,0.5
		c0,0.1,0,0.3-0.1,0.4c-0.1,0.2-0.2,0.3-0.4,0.4c-0.1,0.2-0.2,0.3-0.3,0.4l0,0c-0.1,0.2-0.3,0.4-0.5,0.5l-0.1,0.1
		c-0.2,0.2-0.4,0.2-0.6,0.3c-0.1,0.1-0.3,0.2-0.4,0.3c-0.1,0-0.2,0.1-0.2,0.1c-0.1,0-0.2,0-0.2,0c-0.2,0.1-0.5,0.1-0.7,0
		C59,75.5,58.8,75.6,58.6,75.7L58.6,75.7z M58.6,73.3L58.6,73.3L58.6,73.3c0.2,0,0.4,0,0.5,0l0,0h0.1l0.1-0.1h0.1
		c0.1,0,0.1-0.1,0.2-0.1l0.2-0.1l0,0c0.1-0.1,0.1-0.1,0.2-0.2s0.2-0.2,0.3-0.3v-0.1l0,0c0-0.1,0.1-0.3,0.1-0.4l0.1-0.1
		c0-0.1,0-0.2,0-0.3c0-0.2,0.1-0.3,0.2-0.5c-0.2-0.1-0.3-0.3-0.3-0.5c0-0.1,0-0.2-0.1-0.3l0,0v-0.1L60.1,70L60,69.9h-0.1
		c-0.1,0-0.1-0.1-0.2-0.2h-0.1c-0.1,0-0.2-0.1-0.3-0.2c-0.1,0-0.2-0.1-0.3-0.1h-0.1c-0.1,0-0.2,0-0.4,0c-0.2,0.1-0.3,0.2-0.5,0.2
		l0,0l0,0.5l-0.2,0.1c0,0.1-0.1,0.1-0.2,0.2l-0.1,0.1c0,0,0,0.1-0.1,0.1c0,0,0,0,0,0.1c-0.1,0.1-0.1,0.2-0.2,0.2
		c0,0.1,0,0.2-0.1,0.3c0,0.1-0.1,0.3-0.2,0.4l0,0c0.1,0.2,0.2,0.4,0.2,0.6v0.1l0.1,0.1c0.1,0.1,0.1,0.2,0.2,0.2v0.1v0.1v0.1
		c0,0.1,0.1,0.1,0.1,0.2l0,0c0.1,0,0.1,0.1,0.2,0.1l0.2-0.1H58c0.1,0,0.1,0.1,0.2,0.1l0,0C58.3,73.2,58.5,73.3,58.6,73.3z"/>
	<path class="st0" d="M61,74.3c-0.2,0-0.4-0.1-0.6-0.2l0,0h-0.1c-0.2,0-0.4-0.1-0.6-0.2c-0.1,0-0.2-0.1-0.3-0.1s-0.2-0.1-0.2-0.2
		h-0.1c-0.3,0-0.6-0.2-0.8-0.5h-0.1L58,73c-0.2,0-0.4-0.1-0.5-0.2c-0.1-0.1-0.2-0.2-0.2-0.3c-0.1-0.1-0.1-0.1-0.2-0.2
		c-0.1,0-0.2-0.1-0.3-0.2L56.7,72c-0.1-0.1-0.3-0.2-0.4-0.3l-0.1-0.1c-0.1-0.1-0.2-0.3-0.2-0.4c-0.3,0-0.5-0.2-0.7-0.4
		c-0.1-0.1-0.2-0.3-0.2-0.5c-0.1-0.1-0.2-0.3-0.3-0.4c-0.1-0.1-0.2-0.1-0.3-0.2s-0.3-0.2-0.3-0.3c-0.2-0.1-0.3-0.3-0.3-0.5
		c-0.1-0.1-0.2-0.2-0.2-0.4c-0.2-0.2-0.2-0.5-0.2-0.8c-0.2-0.1-0.4-0.3-0.5-0.5c-0.1-0.1-0.1-0.2-0.1-0.3s-0.1-0.2-0.1-0.2
		s0-0.1-0.1-0.1c0-0.1-0.1-0.2-0.1-0.2c-0.1-0.1-0.2-0.2-0.2-0.4c0-0.1,0-0.2,0-0.3c-0.1-0.1-0.2-0.3-0.2-0.5v-0.1
		c0-0.1,0-0.3,0-0.4l0,0l-0.1-0.1v-0.1c-0.1-0.2-0.1-0.4,0-0.6c0-0.1,0-0.2,0-0.3l0,0C52,63.5,52,63.3,52,63.2c0,0,0,0,0-0.1
		c-0.1-0.2-0.1-0.3-0.1-0.5v-0.1c-0.2-0.3-0.2-0.6,0-0.9c-0.1-0.2-0.1-0.4,0-0.6v-0.1c-0.1-0.2-0.1-0.5,0-0.7v-0.1
		c-0.1-0.3-0.2-0.6-0.1-0.9c0-0.3,0-0.6,0-0.9c0-0.1,0.1-0.2,0.1-0.3v-0.1c0-0.3,0.1-0.6,0.4-0.8c-0.1-0.2-0.1-0.4,0-0.5
		c0.1-0.2,0.2-0.4,0.3-0.5s0.1-0.2,0.2-0.3l0.1-0.1c0-0.1,0.1-0.3,0.1-0.4c0.1-0.1,0.2-0.2,0.3-0.3c0-0.1,0.1-0.2,0.1-0.3
		c0.1-0.1,0.2-0.2,0.4-0.3c0-0.1,0.1-0.2,0.1-0.2c0.2-0.2,0.4-0.3,0.6-0.4l0.1-0.1h0.1c0.1-0.2,0.2-0.3,0.4-0.4
		c0.3-0.2,0.5-0.2,0.6-0.2h0.1c0.1-0.2,0.3-0.3,0.6-0.4c0.1,0,0.2,0,0.3,0c0,0,0.1,0,0.2-0.1c0.1-0.1,0.3-0.2,0.5-0.2
		c0.1,0,0.2,0,0.3,0c0.3-0.2,0.8-0.2,1.1,0.1l0.1,0.1l-0.6,0.8l0.1,0.1l0.6,0.3l-0.2,0.3c-0.1,0.2-0.3,0.4-0.6,0.5h-0.1
		c-0.1,0.1-0.3,0.1-0.4,0.1h-0.2c-0.1,0.1-0.2,0.1-0.4,0.2l0,0c-0.1,0.1-0.2,0.2-0.3,0.2h-0.1h-0.2h-0.1h-0.1
		c-0.1,0.1-0.2,0.1-0.3,0.2l-0.1,0.2l0,0c-0.1,0.2-0.2,0.3-0.3,0.4c0,0,0,0.1-0.1,0.1c-0.1,0.1-0.2,0.2-0.3,0.3c0,0,0,0.1-0.1,0.1
		c-0.1,0.1-0.2,0.3-0.3,0.3c0,0.1-0.1,0.1-0.1,0.2c0,0.1-0.1,0.1-0.1,0.2c0,0.1,0,0.2,0,0.3c0,0.2-0.1,0.3-0.2,0.4
		c0,0.1-0.1,0.1-0.1,0.2l0,0c0,0.1,0,0.2,0,0.2v0.1v0.1c0,0.1,0,0.1,0,0.2c0,0.1-0.1,0.2-0.1,0.2c0,0.1,0,0.2,0,0.3v0.1l0,0
		c0,0.1,0,0.2,0,0.3v0.1c0,0.2,0,0.3-0.1,0.5c0.1,0.2,0.1,0.5,0,0.8V61c0,0.1,0,0.2,0.1,0.3c0,0.1,0,0.2,0,0.2
		c0.1,0.2,0.1,0.4,0.1,0.6c0,0.1-0.1,0.2-0.1,0.3v0.1c0.1,0.1,0.2,0.3,0.2,0.5s0,0.5-0.2,0.7v0.1v0.1c0.1,0.1,0.1,0.3,0.1,0.4l0,0
		v0.1c0.2,0.1,0.3,0.3,0.4,0.6c0,0.1,0,0.2,0,0.4l0,0v0.1l0.1,0.2c0.1,0.2,0.1,0.3,0.1,0.5c0.2,0.1,0.3,0.3,0.3,0.6
		c0.1,0.2,0.2,0.3,0.3,0.6l0.1,0.1c0.1,0,0.1,0.1,0.2,0.2c0.1,0.1,0.2,0.3,0.2,0.4l0.1,0.1c0.1,0.1,0.2,0.2,0.2,0.3
		c0.1,0.1,0.1,0.2,0.2,0.3c0.1,0.1,0.2,0.2,0.3,0.3l0.2,0.2l0.1,0.1c0.2,0,0.4,0.2,0.6,0.4l0.1,0.1c0,0.1,0.1,0.1,0.1,0.2
		c0.2,0.1,0.3,0.2,0.4,0.3c0.1,0.1,0.2,0.1,0.2,0.2l0.1,0.1c0.1,0,0.2,0.1,0.2,0.1c0.1,0.1,0.1,0.1,0.2,0.2c0.1,0,0.2,0.1,0.3,0.1
		l0,0h0.1c0.2,0.1,0.3,0.2,0.4,0.4H60h0.1l0.2,0.1c0.1,0,0.3,0.1,0.4,0.2l0.1,0.1c0.1,0,0.1,0.1,0.2,0.2c0.1,0,0.2,0.1,0.3,0.1
		c0.4,0.1,0.7,0.4,0.8,0.8l0.1,0.2l-1,0.2l0.1,0.7h-0.2L61,74.3z"/>
	<path class="st3" d="M45.6,112.5v-0.9h-0.1l0.1-0.2V111l-0.2-0.1l-0.9,0.2l-0.1-0.4c-0.1-0.4,0-0.8,0.2-1.1l0.1-0.2
		c0.1-0.2,0.2-0.4,0.3-0.5l0.2-0.1c0.1-0.1,0.2-0.1,0.4-0.2c0.1-0.2,0.3-0.4,0.5-0.6l0,0c0-0.1,0.1-0.1,0.1-0.2
		c0.1-0.2,0.2-0.3,0.3-0.5l0.1-0.1c0.1-0.1,0.1-0.1,0.2-0.2c0.1,0,0.1-0.1,0.2-0.1l0.1-0.1c0.1-0.2,0.3-0.3,0.5-0.4
		c0.1-0.1,0.1-0.2,0.2-0.2l0.1-0.1c0.1-0.3,0.3-0.5,0.6-0.7l0.1-0.2c0.1-0.2,0.3-0.3,0.5-0.4c0-0.1,0.1-0.2,0.2-0.2
		c0.2-0.2,0.3-0.3,0.6-0.4c0.1-0.1,0.2-0.2,0.3-0.3c0.1-0.1,0.2-0.1,0.3-0.2c0.1-0.2,0.1-0.4,0.2-0.5c0.2-0.2,0.4-0.4,0.6-0.5
		c0.1-0.1,0.1-0.1,0.2-0.2l0.1-0.1c0.1-0.1,0.1-0.2,0.2-0.3l0.1-0.1c0-0.1,0.1-0.1,0.1-0.2c0.1-0.1,0.1-0.1,0.2-0.2s0.2-0.2,0.3-0.2
		c0.1-0.1,0.2-0.3,0.3-0.4l0.1-0.1l0,0c0.1-0.1,0.2-0.3,0.4-0.4c0-0.1,0.1-0.1,0.1-0.1c0.2-0.2,0.4-0.3,0.6-0.4
		c0.2-0.4,0.5-0.6,0.8-0.8c0,0,0-0.1,0.1-0.1c0.1-0.1,0.1-0.2,0.2-0.3c0.1-0.1,0.2-0.2,0.3-0.2c0.1-0.3,0.3-0.5,0.6-0.7
		c0.2-0.1,0.3-0.2,0.5-0.2l0.1-0.1c0.1-0.3,0.2-0.5,0.4-0.7c0.3-0.3,0.6-0.4,1-0.4l0.1-0.1l0.1-0.1c0.1-0.2,0.2-0.3,0.4-0.4l0,0
		l0.1-0.1c0-0.4,0.2-0.7,0.5-1c0.1-0.1,0.3-0.2,0.5-0.3l0,0l0.1-0.1c0.1-0.1,0.1-0.2,0.2-0.2c0.1-0.1,0.2-0.2,0.4-0.3
		c0.1-0.3,0.3-0.6,0.6-0.8c0.2-0.3,0.4-0.5,0.7-0.6l0.2-0.2l0,0c0-0.1,0.1-0.2,0.2-0.3c0.3-0.1,0.6-0.4,0.7-0.7
		c0.1-0.2,0.3-0.3,0.5-0.4c0.1-0.1,0.3-0.3,0.4-0.4c0.1-0.2,0.3-0.4,0.5-0.6l0.4-0.2l0.2-0.1c0.1-0.4,0.3-0.7,0.6-0.9l0.2-0.1
		c0.1-0.1,0.2-0.1,0.3-0.2c0.1-0.2,0.3-0.4,0.4-0.6c0.1-0.1,0.2-0.3,0.4-0.3c0.1-0.1,0.1-0.2,0.2-0.2c0.1-0.1,0.2-0.2,0.2-0.2
		c0.3-0.1,0.5-0.4,0.7-0.7l0.1-0.1l0.1-0.1c0.2-0.2,0.4-0.4,0.7-0.5c0-0.1,0.1-0.2,0.2-0.3l0.1-0.2c0.1-0.1,0.2-0.2,0.3-0.3
		c0.1-0.2,0.3-0.3,0.5-0.4l0.2-0.1c0.1-0.1,0.2-0.1,0.4-0.2c0.1-0.1,0.2-0.2,0.3-0.3c0.1-0.2,0.3-0.3,0.4-0.4
		c0.3-0.2,0.8-0.3,1.2-0.2l0.4,0.1l-0.4,1.4l1.1,0.2v0.2c-0.1,0.4-0.3,0.8-0.7,1l-0.1,0.1c-0.1,0.2-0.3,0.4-0.5,0.6
		C72,87,72,87.1,71.9,87.2c-0.1,0.1-0.2,0.2-0.3,0.2c-0.1,0.5-0.5,0.9-1,1l0,0l-0.2,0.2c-0.1,0.3-0.2,0.5-0.4,0.7
		c-0.1,0.1-0.3,0.2-0.4,0.3l-0.2,0.1c-0.1,0.2-0.2,0.3-0.3,0.4l-0.2,0.1c-0.1,0.2-0.3,0.4-0.5,0.5l-0.2,0.1
		c-0.5,0.3-0.7,0.3-0.8,0.4c0,0.3-0.2,0.7-0.5,0.9c-0.2,0.2-0.4,0.3-0.7,0.4c-0.3,0.2-0.6,0.4-0.7,0.8c-0.1,0.2-0.2,0.4-0.3,0.5
		c-0.1,0.3-0.4,0.5-0.6,0.6c-0.1,0.2-0.2,0.3-0.4,0.4c-0.2,0.3-0.5,0.4-0.8,0.5c0,0.3-0.2,0.6-0.4,0.9c-0.1,0.1-0.2,0.2-0.4,0.3
		c-0.1,0.1-0.1,0.2-0.2,0.2l-0.1,0.1c-0.1,0.1-0.1,0.1-0.2,0.2c-0.1,0.2-0.2,0.3-0.3,0.4s-0.2,0.1-0.2,0.2c-0.1,0.3-0.3,0.5-0.5,0.6
		L61,98.3c-0.1,0.1-0.3,0.2-0.4,0.3l-0.1,0.2l-0.1,0.1c-0.2,0.2-0.4,0.4-0.7,0.5c-0.1,0.1-0.2,0.1-0.3,0.1c-0.1,0.2-0.2,0.3-0.4,0.4
		l0,0c-0.1,0.2-0.3,0.4-0.5,0.6c-0.1,0.2-0.2,0.3-0.3,0.5c-0.2,0.2-0.4,0.3-0.7,0.4c-0.1,0.2-0.3,0.4-0.5,0.6l-0.3,0.1
		c-0.1,0.3-0.4,0.6-0.7,0.7l-0.1,0.1c-0.2,0.3-0.5,0.5-0.9,0.6c-0.1,0.3-0.2,0.5-0.4,0.7c-0.1,0.1-0.1,0.2-0.2,0.2
		c-0.1,0.1-0.2,0.2-0.3,0.2c-0.2,0.3-0.5,0.6-0.8,0.7c0,0.2-0.1,0.4-0.3,0.6c-0.3,0.3-0.7,0.5-1.1,0.8c-0.1,0.2-0.2,0.3-0.3,0.5
		c-0.1,0.1-0.2,0.2-0.4,0.3c-0.1,0.3-0.4,0.6-0.7,0.7c0,0.1-0.1,0.2-0.1,0.2c-0.2,0.3-0.5,0.5-0.9,0.6l0,0c-0.1,0.2-0.2,0.4-0.4,0.6
		c-0.2,0.2-0.4,0.3-0.6,0.4c-0.1,0.3-0.3,0.5-0.5,0.7c-0.1,0.1-0.2,0.2-0.4,0.2c-0.1,0.2-0.3,0.5-0.5,0.6c-0.1,0.1-0.1,0.1-0.2,0.1
		C46.7,112.1,46.2,112.5,45.6,112.5L45.6,112.5z"/>
	<path class="st3" d="M50.9,96.5L50.9,96.5c-0.2,0-0.4,0-0.5-0.1l-0.3-0.1l0,0h-0.2l-0.3-0.1l0,0c-0.3,0-0.6-0.1-0.8-0.3
		c-0.3,0-0.6-0.2-0.8-0.4c-0.2-0.1-0.3-0.2-0.4-0.4h-0.2L47.3,95c-0.3-0.2-0.6-0.5-0.7-0.9l-0.1-0.2c-0.3-0.4-0.5-0.7-0.7-1.1
		c-0.1-0.1-0.3-0.3-0.3-0.5c-0.1-0.3-0.1-0.6-0.1-0.9c-0.1-0.2-0.1-0.5-0.1-0.7v-0.1c-0.1-0.3-0.1-0.7,0-1v-0.1
		c0.3-0.5,0.5-1.1,0.5-1.7c0-0.1,0.1-0.2,0.1-0.4c0.1-0.1,0.1-0.2,0.2-0.3c0.1-0.3,0.4-0.6,0.7-0.8l0,0c0.1-0.2,0.2-0.4,0.3-0.6
		c0.2-0.2,0.5-0.4,0.8-0.5c0.1,0,0.2-0.1,0.2-0.1h0.1c0.1-0.2,0.3-0.3,0.5-0.4c0.1-0.1,0.3-0.1,0.4-0.1c0.1-0.1,0.3-0.2,0.4-0.2
		c0.2-0.1,0.4-0.1,0.5-0.1c0.1-0.1,0.2-0.1,0.3-0.1c0.3-0.1,0.7,0,1,0.2c0.5-0.1,0.9,0,1.3,0.2c0.3,0,0.6,0,0.8,0.2
		c0.1,0,0.2,0.1,0.3,0.1c0.3,0.1,0.5,0.2,0.7,0.3c0.1,0,0.1,0.1,0.2,0.2c0.2,0.1,0.4,0.2,0.6,0.4c0.1,0.2,0.3,0.4,0.3,0.6
		c0.1,0.1,0.1,0.2,0.1,0.2l0,0c0.2,0.2,0.4,0.4,0.5,0.6c0.1,0.1,0.2,0.2,0.3,0.4c0,0.1,0.1,0.2,0.1,0.3c0.3,0.3,0.5,0.6,0.5,1
		c0,0.2,0,0.4-0.1,0.6v0.1c0.1,0.3,0.2,0.5,0.2,0.8c0,0.2-0.1,0.4-0.2,0.6v0.1c0,0.2,0,0.4,0,0.6l0.1,0.4c0,0.3-0.1,0.6-0.3,0.8
		L56.6,93c-0.1,0.1-0.2,0.2-0.3,0.3c0,0.3-0.1,0.7-0.4,0.9c-0.2,0.2-0.5,0.4-0.7,0.5c-0.1,0.1-0.2,0.2-0.4,0.3
		c-0.1,0.1-0.2,0.2-0.3,0.3c-0.1,0.2-0.3,0.3-0.5,0.4c-0.2,0.2-0.5,0.3-0.8,0.4c-0.5,0.2-1,0.3-1.5,0.1
		C51.5,96.4,51.2,96.5,50.9,96.5z M50.6,93L50.6,93L50.6,93c0.2,0,0.4-0.1,0.5-0.1h0.1h0.2h0.3l0.2-0.1c0.1-0.1,0.3-0.1,0.5-0.1
		c0.1-0.1,0.3-0.2,0.5-0.2c0.1-0.2,0.2-0.3,0.4-0.4c0.1-0.3,0.2-0.5,0.4-0.7l0,0c0-0.1,0-0.2,0.1-0.3c0-0.1,0-0.2,0.1-0.3
		c0-0.1,0-0.2,0-0.3c0-0.1,0-0.1,0-0.2s0-0.1,0-0.2v0c0-0.2,0-0.3,0-0.5c-0.2-0.3-0.3-0.6-0.4-0.9v-0.1h-0.1
		c-0.3-0.1-0.5-0.2-0.7-0.4l-0.3-0.1l0,0L52.2,88c-0.2,0-0.3,0-0.4-0.1h-0.1h-0.1h-0.1c-0.1,0-0.3,0-0.4-0.1c-0.1,0-0.2,0.1-0.3,0.1
		h-0.2h-0.1c-0.1,0-0.2,0.1-0.3,0.1l0,0c-0.2,0.1-0.4,0.2-0.6,0.2l0,0c0,0.1-0.1,0.2-0.1,0.2c-0.1,0.2-0.3,0.3-0.5,0.4l0,0v0.1v0.2
		c0,0.1,0,0.1-0.1,0.2c0,0.1-0.1,0.1-0.1,0.2s-0.1,0.2-0.1,0.3c0,0.1,0,0.1-0.1,0.2v0.1c0,0.1,0,0.3-0.1,0.4c0,0.2,0,0.4,0,0.6v0.1
		l0,0c0.1,0.2,0.2,0.3,0.3,0.5c0,0.1,0,0.1,0,0.2c0.3,0.2,0.5,0.6,0.6,0.9c0.3,0,0.6,0,0.8,0.1C50.4,92.9,50.5,92.9,50.6,93z"/>
	<path class="st3" d="M65.9,111.5L65.9,111.5c-0.2,0-0.4,0-0.5-0.1l-0.3-0.1l0,0h-0.2c-0.1,0-0.2,0-0.3-0.1c-0.2,0-0.4,0-0.6-0.1
		c-0.1,0-0.2-0.1-0.3-0.2c-0.3,0-0.6-0.2-0.8-0.4c-0.2-0.1-0.3-0.2-0.4-0.4l-0.1-0.1l-0.2-0.1c-0.3-0.2-0.6-0.5-0.7-0.9l-0.1-0.2
		c-0.2-0.1-0.3-0.3-0.4-0.5l0,0c-0.2-0.2-0.3-0.4-0.4-0.6c-0.1-0.1-0.3-0.3-0.3-0.5c-0.1-0.3-0.1-0.6-0.1-0.9
		c-0.1-0.2-0.1-0.4-0.1-0.7v-0.1c-0.1-0.3-0.1-0.7,0-1v-0.1c0-0.3,0.2-0.7,0.4-0.9c0-0.3,0-0.5,0.2-0.7c0-0.1,0.1-0.2,0.1-0.4
		c0.1-0.1,0.1-0.2,0.2-0.3c0.1-0.3,0.4-0.6,0.7-0.8l0,0c0.1-0.2,0.2-0.4,0.3-0.6c0.2-0.2,0.5-0.4,0.8-0.5c0.1,0,0.1-0.1,0.2-0.1h0.1
		c0.1-0.1,0.3-0.3,0.5-0.4c0.1-0.1,0.3-0.1,0.5-0.1c0.3-0.2,0.6-0.3,0.9-0.3c0.1-0.1,0.2-0.1,0.3-0.1c0.3-0.1,0.7,0,1,0.2
		c0.2-0.1,0.5-0.1,0.7,0c0.2,0,0.5,0.1,0.6,0.3c0.3,0,0.6,0.1,0.8,0.2c0.1,0.1,0.2,0.1,0.3,0.2c0.3,0,0.5,0.2,0.7,0.3
		c0.1,0.1,0.1,0.1,0.2,0.2c0.2,0.1,0.4,0.2,0.6,0.4c0.1,0.2,0.3,0.4,0.3,0.6c0,0.1,0.1,0.2,0.1,0.2l0,0c0.2,0.2,0.4,0.4,0.5,0.6
		c0.1,0.1,0.2,0.2,0.2,0.4c0,0.1,0.1,0.2,0.1,0.3c0.3,0.3,0.5,0.6,0.5,1c0,0.2,0,0.4-0.1,0.6v0.1c0.2,0.3,0.2,0.5,0.2,0.8
		c0,0.2-0.1,0.4-0.2,0.6v0.1c0,0.2,0,0.4,0,0.6c0,0.1,0,0.1-0.1,0.2c0,0.3-0.1,0.6-0.3,0.8l-0.1,0.1c-0.1,0.1-0.2,0.2-0.3,0.3
		c0,0.7-0.5,1.2-1.1,1.4c-0.1,0.1-0.2,0.2-0.4,0.3c-0.1,0.1-0.2,0.2-0.3,0.3c-0.1,0.2-0.3,0.3-0.5,0.4c-0.2,0.2-0.5,0.3-0.8,0.4
		c-0.2,0.1-0.4,0.2-0.6,0.2c-0.3,0.1-0.7,0.1-1,0C66.4,111.5,66.2,111.5,65.9,111.5z M65.6,108L65.6,108h0.2c0.1,0,0.3-0.1,0.4-0.1
		h0.1h0.2h0.3l0.2-0.1c0.1-0.1,0.3-0.1,0.4-0.1c0.1-0.1,0.3-0.2,0.4-0.2l0,0c0.1-0.1,0.2-0.3,0.4-0.4c0.1-0.3,0.2-0.5,0.4-0.8l0,0
		c0-0.1,0-0.2,0.1-0.3c0-0.1,0-0.2,0.1-0.3c0-0.1,0-0.2,0-0.3c0-0.1,0-0.1,0-0.2v-0.1V105c0-0.2,0-0.3,0-0.5
		c-0.1-0.1-0.1-0.2-0.2-0.3c-0.1-0.2-0.2-0.4-0.2-0.6v-0.1h-0.1c-0.3-0.1-0.5-0.2-0.7-0.4h-0.1l0,0h-0.2c-0.2,0-0.3,0-0.4-0.1h-0.2
		h-0.1h-0.1c-0.1,0-0.3,0-0.4-0.1l-0.3,0.1h-0.1h-0.1c-0.1,0-0.2,0.1-0.3,0.1l0,0c-0.2,0.1-0.4,0.2-0.6,0.2l0,0
		c0,0.1-0.1,0.2-0.1,0.2c-0.1,0.2-0.3,0.3-0.5,0.4L64,104v0.1c0,0.1,0,0.1-0.1,0.2l-0.1,0.2c0,0.1-0.1,0.2-0.1,0.3
		c0,0.1,0,0.1,0,0.2v0.1c0,0.1,0,0.3-0.1,0.4c0,0.2,0,0.4,0,0.6v0.1c0,0,0,0,0,0.1c0.1,0.1,0.2,0.3,0.2,0.5c0,0.1,0,0.1,0,0.2
		c0.1,0.1,0.2,0.2,0.3,0.3c0.1,0.2,0.2,0.4,0.3,0.6c0.3,0,0.6,0,0.8,0.1C65.4,108,65.5,108,65.6,108z"/>
</g>
</svg>
