<svg xmlns="http://www.w3.org/2000/svg" viewBox="0 0 48 48"><defs><style>.cls-1{fill:#fffffb;}.cls-2{fill:#fddb00;}.cls-3{fill:#201f1b;}</style></defs><g id="Design"><circle class="cls-1" cx="24" cy="24" r="24"/><circle class="cls-2" cx="24" cy="14" r="8"/><path class="cls-2" d="M24,25A14,14,0,0,0,10.1,37.35,1.49,1.49,0,0,0,11.59,39H36.41a1.49,1.49,0,0,0,1.49-1.65A14,14,0,0,0,24,25Z"/><path class="cls-3" d="M26.29,29.2a1.23,1.23,0,0,1,.88.38,1.27,1.27,0,0,1-.06,1.78L24,34.47l-3.11-3.11a1.27,1.27,0,0,1-.06-1.78,1.22,1.22,0,0,1,1.76,0L24,31l1.41-1.41a1.23,1.23,0,0,1,.88-.37m0-2a3.23,3.23,0,0,0-2.29.95,3.22,3.22,0,0,0-4.61,0,3.28,3.28,0,0,0,.09,4.58l4.16,4.17a.51.51,0,0,0,.72,0l4.16-4.17a3.28,3.28,0,0,0,.09-4.58,3.2,3.2,0,0,0-2.32-1Z"/></g></svg>