<?xml version="1.0" encoding="utf-8"?>
<!-- Generator: Adobe Illustrator 26.0.3, SVG Export Plug-In . SVG Version: 6.00 Build 0)  -->
<svg version="1.1" id="Layer_1" xmlns="http://www.w3.org/2000/svg" xmlns:xlink="http://www.w3.org/1999/xlink" x="0px" y="0px"
	 viewBox="0 0 229.5 165.9" style="enable-background:new 0 0 229.5 165.9;" xml:space="preserve">
<style type="text/css">
	.st0{fill:#FEDA00;}
	.st1{fill:#FFFFFF;}
	.st2{fill:none;stroke:#20201B;stroke-width:2.5;stroke-linecap:round;stroke-linejoin:round;}
	.st3{fill:none;stroke:#201F1A;stroke-width:2.5;stroke-linejoin:round;}
	.st4{fill:#F9DB02;}
	.st5{fill:none;stroke:#F7DB06;stroke-width:2;stroke-linejoin:round;}
	.st6{fill:none;stroke:#201F1B;stroke-width:2.5;stroke-linejoin:round;}
	.st7{fill:none;stroke:#1E1F1A;stroke-width:2.5;stroke-linejoin:round;}
	.st8{fill:#1E1F1A;}
</style>
<polygon class="st0" points="44.6,159.1 44.5,159.8 44.4,160.6 44.2,161.3 43.7,161.9 43.3,162.5 42.7,163 42.2,163.5 41.6,163.9 
	40.8,164 40.1,164.2 39.4,164.3 38.6,164.2 37.9,164.1 37.3,163.7 36.6,163.5 36,163 35.5,162.5 35.1,161.9 34.7,161.3 34.3,160.6 
	34.3,159.8 34.1,159.1 34.3,158.4 34.5,157.7 34.7,157 35.1,156.3 35.5,155.8 36,155.2 36.6,154.7 37.2,154.4 37.9,154.1 38.7,154 
	39.4,153.9 40.1,153.9 40.8,154.2 41.6,154.4 42.2,154.7 42.8,155.2 43.2,155.8 43.7,156.4 44.2,156.9 44.3,157.7 44.5,158.4 "/>
<polygon class="st1" points="54.6,120.5 54.7,121.3 54.5,122 54.5,122.7 54.4,123.5 54.3,124.2 54.3,124.9 54.2,125.7 53.9,126.4 
	53.9,127.1 53.7,127.8 53.4,128.5 53.1,129.2 52.9,129.9 52.8,130.6 52.4,131.3 52.1,131.9 51.8,132.6 51.5,133.3 51.1,133.9 
	50.9,134.6 50.5,135.2 50.2,134.6 49.9,133.9 49.5,133.3 49.1,132.6 48.9,132 48.6,131.3 48.4,130.6 48.1,129.9 47.9,129.2 
	47.6,128.5 47.4,127.8 47.3,127.1 47,126.4 46.9,125.7 46.8,124.9 46.7,124.2 46.6,123.5 46.5,122.7 46.4,122 46.4,121.3 
	46.3,120.5 46.4,119.8 46.4,119.1 46.4,118.3 46.6,117.6 46.8,116.9 46.9,116.2 46.8,115.4 47,114.7 47.2,114 47.4,113.3 
	47.6,112.5 47.8,111.8 48,111.1 48.4,110.5 48.5,109.7 48.9,109.1 49.1,108.4 49.5,107.8 49.8,107.1 50.1,106.4 50.5,105.8 
	50.9,106.4 51.3,107.1 51.5,107.8 51.8,108.5 52.1,109.1 52.4,109.8 52.7,110.5 53,111.2 53.2,111.8 53.5,112.5 53.6,113.3 
	53.9,113.9 53.9,114.7 54.1,115.4 54.2,116.1 54.3,116.9 54.5,117.6 54.5,118.3 54.5,119.1 54.6,119.8 "/>
<polygon class="st2" points="54.6,120.5 54.7,121.3 54.5,122 54.5,122.7 54.4,123.5 54.3,124.2 54.3,124.9 54.2,125.7 53.9,126.4 
	53.9,127.1 53.7,127.8 53.4,128.5 53.1,129.2 52.9,129.9 52.8,130.6 52.4,131.3 52.1,131.9 51.8,132.6 51.5,133.3 51.1,133.9 
	50.9,134.6 50.5,135.2 50.2,134.6 49.9,133.9 49.5,133.3 49.1,132.6 48.9,132 48.6,131.3 48.4,130.6 48.1,129.9 47.9,129.2 
	47.6,128.5 47.4,127.8 47.3,127.1 47,126.4 46.9,125.7 46.8,124.9 46.7,124.2 46.6,123.5 46.5,122.7 46.4,122 46.4,121.3 
	46.3,120.5 46.4,119.8 46.4,119.1 46.4,118.3 46.6,117.6 46.8,116.9 46.9,116.2 46.8,115.4 47,114.7 47.2,114 47.4,113.3 
	47.6,112.5 47.8,111.8 48,111.1 48.4,110.5 48.5,109.7 48.9,109.1 49.1,108.4 49.5,107.8 49.8,107.1 50.1,106.4 50.5,105.8 
	50.9,106.4 51.3,107.1 51.5,107.8 51.8,108.5 52.1,109.1 52.4,109.8 52.7,110.5 53,111.2 53.2,111.8 53.5,112.5 53.6,113.3 
	53.9,113.9 53.9,114.7 54.1,115.4 54.2,116.1 54.3,116.9 54.5,117.6 54.5,118.3 54.5,119.1 54.6,119.8 "/>
<polygon class="st1" points="43.5,128.5 44,129 44.4,129.6 44.9,130.2 45.4,130.7 45.9,131.3 46.3,131.9 46.7,132.5 47.1,133.2 
	47.6,133.7 47.9,134.4 48.2,135.1 48.7,135.7 48.9,136.4 49.3,137 49.6,137.6 49.9,138.3 50.1,139 50.4,139.7 50.5,140.5 
	50.8,141.1 51,141.9 50.2,141.7 49.6,141.3 48.9,141.2 48.2,140.9 47.5,140.7 46.9,140.3 46.2,140 45.5,139.7 44.9,139.4 
	44.2,139.1 43.5,138.8 42.9,138.4 42.2,138.1 41.7,137.6 41.1,137.1 40.4,136.8 39.9,136.3 39.4,135.8 38.8,135.3 38.2,134.9 
	37.7,134.4 37.1,133.8 36.6,133.3 36.2,132.7 35.7,132.2 35.3,131.5 34.8,131 34.5,130.3 34,129.7 33.7,129.1 33.2,128.5 
	32.9,127.8 32.6,127.2 32.2,126.5 31.9,125.9 31.7,125.2 31.4,124.5 31.1,123.8 30.9,123.1 30.6,122.4 30.4,121.7 30.2,121 
	30.9,121.2 31.6,121.5 32.3,121.7 32.9,122 33.7,122.2 34.4,122.4 35,122.9 35.6,123.2 36.3,123.5 37,123.7 37.6,124.1 38.3,124.4 
	38.8,124.9 39.4,125.3 40.1,125.7 40.7,126.1 41.3,126.5 41.8,127 42.5,127.4 43,127.9 "/>
<polygon class="st2" points="43.5,128.5 44,129 44.4,129.6 44.9,130.2 45.4,130.7 45.9,131.3 46.3,131.9 46.7,132.5 47.1,133.2 
	47.6,133.7 47.9,134.4 48.2,135.1 48.7,135.7 48.9,136.4 49.3,137 49.6,137.6 49.9,138.3 50.1,139 50.4,139.7 50.5,140.5 
	50.8,141.1 51,141.9 50.2,141.7 49.6,141.3 48.9,141.2 48.2,140.9 47.5,140.7 46.9,140.3 46.2,140 45.5,139.7 44.9,139.4 
	44.2,139.1 43.5,138.8 42.9,138.4 42.2,138.1 41.7,137.6 41.1,137.1 40.4,136.8 39.9,136.3 39.4,135.8 38.8,135.3 38.2,134.9 
	37.7,134.4 37.1,133.8 36.6,133.3 36.2,132.7 35.7,132.2 35.3,131.5 34.8,131 34.5,130.3 34,129.7 33.7,129.1 33.2,128.5 
	32.9,127.8 32.6,127.2 32.2,126.5 31.9,125.9 31.7,125.2 31.4,124.5 31.1,123.8 30.9,123.1 30.6,122.4 30.4,121.7 30.2,121 
	30.9,121.2 31.6,121.5 32.3,121.7 32.9,122 33.7,122.2 34.4,122.4 35,122.9 35.6,123.2 36.3,123.5 37,123.7 37.6,124.1 38.3,124.4 
	38.8,124.9 39.4,125.3 40.1,125.7 40.7,126.1 41.3,126.5 41.8,127 42.5,127.4 43,127.9 "/>
<polyline class="st3" points="50.3,164.5 50.6,164.3 50.5,164.2 50.6,164 50.5,163.8 50.5,163.6 50.5,163.5 50.4,163.3 50.7,163.1 
	50.7,163 50.7,162.8 50.4,162.6 50.7,162.4 50.7,162.3 50.6,162.1 50.6,161.9 50.4,161.8 50.3,161.6 50.4,161.4 50.5,161.2 
	50.8,161.1 50.4,160.9 50.7,160.7 50.4,160.6 50.6,160.4 50.6,160.2 50.3,160 50.7,159.9 50.4,159.7 50.7,159.5 50.6,159.4 
	50.6,159.2 50.7,159 50.3,158.8 50.7,158.7 50.5,158.5 50.3,158.3 50.3,158.1 50.6,158 50.6,157.8 50.7,157.6 50.8,157.5 
	50.6,157.3 50.6,157.1 50.6,156.9 50.5,156.8 50.3,156.6 50.6,156.4 50.6,156.2 50.7,156.1 50.7,155.9 50.5,155.7 50.6,155.6 
	50.6,155.4 50.5,155.2 50.7,155 50.4,154.9 50.5,154.7 50.7,154.5 50.3,154.4 50.3,154.2 50.3,154 50.6,153.8 50.8,153.7 
	50.4,153.5 50.3,153.3 50.7,153.2 50.3,153 50.5,152.8 50.6,152.6 50.7,152.5 50.6,152.3 50.6,152.1 50.6,151.9 50.7,151.8 
	50.6,151.6 50.3,151.4 50.5,151.3 50.5,151.1 50.4,150.9 50.7,150.7 50.4,150.6 50.6,150.4 50.6,150.2 50.6,150 50.3,149.9 
	50.8,149.7 50.5,149.5 50.6,149.4 50.5,149.2 50.3,149 50.3,148.8 50.3,148.7 50.5,148.5 50.4,148.3 50.4,148.2 50.4,148 
	50.3,147.8 50.3,147.6 50.4,147.5 50.4,147.3 50.5,147.1 50.7,146.9 50.6,146.8 50.5,146.6 50.4,146.4 50.6,146.3 50.5,146.1 
	50.5,145.9 50.4,145.7 50.4,145.6 50.7,145.4 50.6,145.2 50.6,145 50.3,144.9 50.5,144.7 50.7,144.5 50.5,144.4 50.6,144.2 
	50.5,144 50.4,143.8 50.6,143.7 50.7,143.5 50.4,143.3 50.4,143.1 50.3,143 50.4,142.8 50.5,142.6 50.7,142.4 50.3,142.3 
	50.5,142.1 50.7,141.9 50.6,141.8 50.7,141.6 50.7,141.4 50.6,141.2 50.5,141.1 50.4,140.9 50.7,140.7 50.3,140.6 50.7,140.4 
	50.7,140.2 50.4,140 50.3,139.9 50.6,139.7 50.6,139.5 50.7,139.3 50.6,139.2 50.8,139 50.5,138.8 50.6,138.7 50.3,138.5 
	50.4,138.3 50.5,138.1 50.4,138 50.7,137.8 50.5,137.6 50.5,137.4 50.5,137.3 50.7,137.1 50.3,136.9 50.7,136.8 50.5,136.6 
	50.5,136.4 50.7,136.2 50.3,136.1 50.6,135.9 50.6,135.7 50.7,135.5 50.6,135.4 50.3,135.2 50.5,135 50.7,134.8 50.5,134.7 
	50.5,134.5 50.6,134.3 50.7,134.2 50.7,134 50.4,133.8 50.7,133.6 50.5,133.5 50.8,133.3 50.5,133.1 50.7,132.9 50.6,132.8 
	50.4,132.6 50.7,132.4 50.5,132.2 50.5,132.1 50.5,131.9 50.6,131.7 50.4,131.5 50.7,131.4 50.7,131.2 50.7,131 50.4,130.9 
	50.3,130.7 50.5,130.5 "/>
<path class="st4" d="M175,41.6v41.6c0,11.3-4.1,22.2-11.5,30.7c-10.8,12.5-28.4,29.4-48.7,36c-20.2-6.6-37.8-23.5-48.7-36
	c-7.4-8.5-11.5-19.4-11.5-30.7V41.6c0-2.7,1.6-5.2,4-6.4c23-11,43.2-26,51.8-32.7c2.6-2,6.2-2,8.8,0c8.6,6.7,28.8,21.7,51.8,32.7
	C173.4,36.4,174.9,38.9,175,41.6z"/>
<path class="st5" d="M175.1,41.8l-0.2,2.1l0.1,2.1l-0.1,2.1v2.1v2.1v2.1l0.1,2.1l-0.2,2.1v2.1V63l0.2,2.1l-0.2,2.1v2.1l0.1,2.1v2.1
	l0.2,2.1l0.1,2.1l-0.1,2.1l-0.1,2.1c-0.1,0.7-0.1,1.4-0.2,2.1c0.1,0.7,0.1,1.4,0.2,2.1c-0.1,0.7-0.3,1.4-0.4,2.1c0,0.7,0,1.4,0,2.1
	s-0.3,1.4-0.5,2.1s-0.3,1.4-0.5,2.1s-0.2,1.4-0.3,2.1c-0.3,0.6-0.7,1.3-1,1.9c-0.1,0.7-0.3,1.4-0.5,2.1c-0.3,0.6-0.7,1.2-1.1,1.8
	s-0.6,1.3-0.9,1.9s-0.6,1.3-1,1.9s-0.8,1.2-1.2,1.8s-0.6,1.3-0.9,1.9c-0.5,0.5-1,1-1.5,1.5s-0.8,1.2-1.2,1.8s-0.8,1.1-1.3,1.7
	l-1.4,1.6l-1.6,1.4c-0.5,0.5-1,1-1.5,1.5l-1.6,1.5l-1.5,1.5c-0.5,0.5-1,1.1-1.4,1.6l-1.5,1.5c-0.5,0.5-1,1-1.6,1.5l-1.6,1.5
	c-0.5,0.5-1,1-1.5,1.5l-1.7,1.2l-1.7,1.3l-1.7,1.3l-1.7,1.3c-0.5,0.5-1,1-1.6,1.4l-1.8,1.2c-0.6,0.4-1.1,0.8-1.8,1.2l-1.7,1.3
	c-0.6,0.4-1.2,0.7-1.9,1.1l-1.7,1.2c-0.6,0.4-1.2,0.7-1.9,1l-1.9,0.9c-0.6,0.4-1.2,0.8-1.8,1.2l-1.9,0.9c-0.6,0.3-1.3,0.6-1.9,0.9
	l-2,0.6c-0.7,0.2-1.4,0.4-2,0.6l-1.9,1h-0.1l-2-0.6c-0.6-0.3-1.3-0.6-1.9-1l-2.1-0.6c-0.6-0.3-1.3-0.6-1.9-1l-1.9-1
	c-0.6-0.4-1.2-0.7-1.9-1.1l-1.9-0.9c-0.6-0.4-1.2-0.7-1.8-1.1l-1.8-1.1c-0.6-0.4-1.2-0.8-1.7-1.2l-1.8-1.1c-0.6-0.3-1.2-0.7-1.9-1
	l-1.6-1.4c-0.6-0.4-1.1-0.9-1.7-1.3l-1.8-1.2c-0.5-0.5-1-1-1.5-1.5l-1.8-1.2l-1.5-1.6c-0.5-0.5-1.1-0.9-1.6-1.4l-1.6-1.5
	c-0.6-0.4-1.2-0.8-1.7-1.3l-1.3-1.7c-0.6-0.4-1.1-0.9-1.7-1.3l-1.4-1.6l-1.6-1.6c-0.5-0.5-1.1-0.9-1.6-1.4l-1.4-1.6
	c-0.5-0.5-1-1.1-1.4-1.6s-0.9-1.1-1.3-1.7s-0.9-1.1-1.4-1.6c-0.4-0.6-0.9-1.1-1.3-1.7s-0.8-1.1-1.2-1.8s-0.8-1.2-1.1-1.8
	s-0.7-1.2-1-1.9s-0.6-1.3-0.9-2s-0.6-1.3-0.8-2s-0.5-1.4-0.7-2s-0.4-1.4-0.5-2.1s-0.5-1.3-0.7-2s-0.4-1.4-0.5-2.1s-0.3-1.4-0.4-2.1
	s-0.2-1.4-0.2-2.1s-0.2-1.4-0.3-2.1s0-1.4,0-2.1s-0.1-1.4-0.1-2.1v-2.1l0.2-2.1l-0.1-2.1v-2.1l-0.2-2.1l0.2-2.1l0.1-2.1l-0.1-2.1
	l0.1-2.1l-0.1-2.1l-0.2-2.1l0.2-2.1l0.1-2.1l-0.3-2.1V50l-0.1-2.1v-2.1l0.1-2.1l0.2-2.1c-0.1-0.7-0.1-1.4,0.1-2.2
	c0.3-0.7,0.7-1.3,1.2-1.9c0.5-0.5,1-1,1.6-1.4c0.6-0.4,1.1-0.8,1.8-1.1l2-0.9l1.9-0.9l1.8-1.1l1.9-1l1.8-1.2l2-0.8
	c0.6-0.4,1.2-0.9,1.7-1.3l2-0.8c0.6-0.3,1.2-0.7,1.8-1.1l1.7-1.3l1.8-1.2l2-0.9l1.7-1.1l1.8-1.1l1.8-1.2l1.8-1.1l1.7-1.3l1.9-1.1
	l1.6-1.4l1.8-1.1l1.8-1.2l1.7-1.3l1.9-1.1l1.6-1.4l1.7-1.3l1.7-1.3l1.8-1.2l1.5-1.6c0.6-0.4,1.2-0.7,1.9-1c0.6-0.4,1.3-0.7,2-0.8
	c0.7-0.1,1.4-0.1,2.1,0c0.7,0.1,1.4,0.4,2,0.8c0.7,0.2,1.4,0.5,2,0.8l1.6,1.5l1.6,1.3l1.7,1.4l1.8,1.2l1.9,1.1l1.7,1.4l1.7,1.4
	l1.8,1.1l1.8,1.2l1.7,1.3l1.7,1.3l1.8,1.2l2,0.9l1.6,1.4l1.9,1l1.7,1.3l1.9,1l1.8,1.2l1.9,1l1.9,0.9l1.7,1.3l1.9,0.9l1.9,1l1.9,1
	l1.9,1.1l2,0.8l1.8,1.2l1.9,1c0.7,0.3,1.3,0.6,1.9,1c0.6,0.4,1.2,0.8,1.6,1.4c0.5,0.6,0.8,1.2,1.1,1.9c0.2,0.7,0.3,1.4,0.3,2.2"/>
<circle class="st1" cx="174.8" cy="117.1" r="22.4"/>
<path class="st6" d="M152.2,117l0.3-0.7l-0.1-0.7l0.1-0.7c0-0.2,0-0.5,0.1-0.7l0.1-0.7l0.1-0.7c0-0.2,0-0.5,0.1-0.7l0.4-0.6l0.2-0.7
	c0.1-0.2,0.2-0.4,0.3-0.7l-0.1-0.8l0.5-0.6c0.1-0.2,0.1-0.4,0.2-0.7l0.2-0.7l0.3-0.6c0-0.2,0.1-0.5,0.1-0.7l0.3-0.6l0.5-0.5
	c0.1-0.2,0.3-0.4,0.4-0.6l0.6-0.4l0.2-0.8c0.2-0.1,0.5-0.2,0.7-0.4l0.2-0.7l0.6-0.4c0.2-0.1,0.3-0.3,0.5-0.5l0.3-0.7l0.8-0.1
	c0.1-0.2,0.2-0.5,0.3-0.8l0.8-0.1l0.5-0.5c0.2-0.1,0.4-0.3,0.6-0.4l0.7-0.2l0.4-0.7c0.3,0,0.5,0,0.8,0l0.6-0.5l0.5-0.5
	c0.2-0.1,0.4-0.2,0.7-0.3h0.8l0.7-0.2l0.7-0.1l0.7-0.2l0.6-0.3l0.7-0.2l0.7-0.1l0.7-0.1l0.7-0.3c0.2,0.1,0.5,0.2,0.7,0.2h0.7h0.8
	c0.2,0,0.5,0,0.7,0l0.7-0.2l0.7,0.1c0.2,0,0.5,0,0.7,0.1l0.7,0.1l0.7,0.2c0.2,0,0.5-0.1,0.7-0.1l0.7,0.2l0.6,0.4l0.8-0.2l0.7,0.2
	l0.7,0.2l0.6,0.5L184,97h0.8l0.7,0.2l0.4,0.7l0.8,0.1l0.5,0.5l0.5,0.5l0.5,0.5l0.6,0.3l0.5,0.5l0.6,0.4l0.4,0.6
	c0.2,0.1,0.4,0.3,0.6,0.4l0.7,0.4l0.3,0.7c0.2,0.2,0.3,0.4,0.4,0.6l0.6,0.5l0.2,0.7c0.2,0.1,0.4,0.3,0.6,0.4l0.1,0.8l0.4,0.6
	c0.1,0.2,0.2,0.4,0.3,0.6l0.6,0.5l-0.1,0.8c0.2,0.2,0.4,0.4,0.5,0.5l0.1,0.7l0.3,0.6c0.2,0.2,0.3,0.4,0.4,0.6l0.2,0.7l0.2,0.7
	c0,0.2,0,0.5,0,0.7l0.1,0.7l0.1,0.7c0.1,0.2,0.1,0.5,0.1,0.7l0.1,0.7l0.1,0.7c0,0.2,0,0.5-0.1,0.7v0.7l-0.2,0.7l-0.2,0.7l0.1,0.7
	l-0.1,0.7l-0.1,0.7c-0.1,0.2-0.2,0.4-0.3,0.7l-0.1,0.7l-0.3,0.7c0,0.2,0,0.5-0.1,0.7l-0.3,0.7l-0.5,0.6c0,0.2-0.1,0.5-0.1,0.7
	l-0.3,0.7l-0.1,0.8c-0.2,0.2-0.3,0.4-0.5,0.5l-0.5,0.5l-0.2,0.7c-0.1,0.2-0.3,0.3-0.5,0.5l-0.3,0.6l-0.3,0.6
	c-0.2,0.1-0.4,0.3-0.7,0.4l-0.5,0.5l-0.3,0.7c-0.2,0.2-0.4,0.3-0.5,0.5l-0.4,0.6l-0.6,0.4c-0.2,0.1-0.4,0.3-0.6,0.4l-0.7,0.2
	l-0.3,0.8c-0.2,0.1-0.5,0.2-0.7,0.2l-0.7,0.2l-0.6,0.5c-0.2,0.1-0.4,0.2-0.7,0.2l-0.6,0.3l-0.6,0.4c-0.2,0.1-0.4,0.2-0.6,0.3
	l-0.6,0.4l-0.8-0.1c-0.2,0.2-0.4,0.4-0.6,0.6l-0.8-0.2l-0.7,0.2c-0.2,0.2-0.4,0.3-0.6,0.5l-0.7,0.1l-0.8-0.2c-0.2,0-0.5,0.1-0.7,0.1
	h-0.7l-0.7,0.1l-0.7-0.1l-0.7,0.2l-0.7-0.1l-0.7,0.3c-0.2-0.1-0.5-0.2-0.7-0.3l-0.7-0.1h-0.7c-0.2-0.1-0.4-0.3-0.6-0.4h-0.7
	l-0.7-0.1c-0.2-0.1-0.5-0.1-0.7-0.2l-0.6-0.5l-0.8,0.1c-0.2-0.2-0.4-0.4-0.5-0.6l-0.7-0.1l-0.6-0.3c-0.2-0.2-0.4-0.4-0.5-0.6h-0.8
	l-0.5-0.6c-0.2-0.1-0.4-0.3-0.6-0.4l-0.5-0.5l-0.7-0.3c-0.3-0.1-0.5-0.1-0.7-0.2l-0.4-0.6l-0.4-0.6c-0.2-0.1-0.4-0.2-0.6-0.4
	l-0.4-0.5l-0.4-0.6c-0.1-0.2-0.3-0.4-0.4-0.6l-0.4-0.6l-0.7-0.4c0-0.3-0.1-0.5-0.1-0.8l-0.6-0.5l-0.1-0.8c-0.2-0.2-0.4-0.3-0.5-0.5
	l-0.2-0.7l-0.4-0.6c-0.2-0.2-0.3-0.4-0.5-0.6v-0.8l-0.4-0.6c-0.1-0.2-0.2-0.4-0.2-0.7l-0.2-0.7l-0.1-0.7c-0.1-0.2-0.3-0.4-0.4-0.7
	l0.2-0.8l-0.1-0.7c-0.1-0.2-0.1-0.5-0.1-0.7l-0.3-0.7l-0.1-0.7l0.1-0.7"/>
<polyline class="st3" points="0.3,164.2 1.4,164.5 2.6,164.4 3.7,164.5 4.9,164.4 6.1,164.4 7.2,164.4 8.4,164.4 9.5,164.6 
	10.7,164.6 11.8,164.7 13,164.3 14.1,164.6 15.3,164.6 16.4,164.5 17.6,164.5 18.8,164.3 19.9,164.2 21.1,164.4 22.2,164.4 
	23.4,164.7 24.5,164.3 25.7,164.7 26.8,164.4 28,164.5 29.2,164.6 30.3,164.2 31.5,164.7 32.6,164.3 33.8,164.6 34.9,164.6 
	36.1,164.5 37.3,164.6 38.4,164.3 39.6,164.6 40.7,164.5 41.9,164.2 43.1,164.3 44.2,164.5 45.4,164.6 46.6,164.7 47.7,164.7 
	48.9,164.6 50,164.5 51.2,164.5 52.4,164.4 53.5,164.2 54.7,164.5 55.9,164.5 57,164.6 58.2,164.6 59.3,164.4 60.5,164.5 
	61.7,164.5 62.8,164.5 64,164.6 65.1,164.4 66.3,164.4 67.4,164.7 68.6,164.3 69.8,164.3 70.9,164.2 72.1,164.5 73.2,164.7 
	74.4,164.3 75.6,164.2 76.7,164.6 77.9,164.3 79,164.4 80.2,164.6 81.4,164.7 82.5,164.5 83.7,164.6 84.8,164.5 86,164.7 
	87.2,164.5 88.3,164.2 89.5,164.5 90.6,164.5 91.8,164.3 93,164.6 94.1,164.3 95.3,164.6 96.5,164.6 97.6,164.6 98.8,164.2 
	100,164.7 101.1,164.4 102.3,164.5 103.5,164.4 104.6,164.2 105.8,164.2 106.9,164.2 108.1,164.4 109.3,164.3 110.4,164.3 
	111.6,164.3 112.7,164.2 113.9,164.2 115.1,164.3 116.2,164.3 117.4,164.5 118.6,164.7 119.7,164.5 120.9,164.4 122,164.4 
	123.2,164.5 124.4,164.4 125.5,164.5 126.7,164.3 127.9,164.4 129,164.7 130.2,164.5 131.4,164.5 132.5,164.2 133.7,164.4 
	134.9,164.6 136,164.4 137.2,164.5 138.3,164.4 139.5,164.3 140.7,164.6 141.8,164.6 143,164.4 144.2,164.4 145.3,164.3 
	146.5,164.3 147.7,164.4 148.8,164.7 150,164.3 151.2,164.5 152.3,164.7 153.5,164.5 154.6,164.6 155.8,164.7 157,164.5 
	158.1,164.5 159.3,164.3 160.4,164.7 161.6,164.3 162.8,164.6 163.9,164.6 165.1,164.3 166.3,164.3 167.4,164.6 168.6,164.6 
	169.8,164.6 170.9,164.6 172.1,164.7 173.2,164.4 174.4,164.5 175.6,164.2 176.7,164.4 177.9,164.4 179.1,164.3 180.2,164.6 
	181.4,164.4 182.6,164.4 183.7,164.4 184.9,164.7 186.1,164.3 187.2,164.6 188.4,164.4 189.6,164.4 190.7,164.7 191.9,164.2 
	193.1,164.5 194.2,164.6 195.4,164.7 196.6,164.5 197.7,164.2 198.9,164.4 200.1,164.6 201.2,164.4 202.4,164.4 203.6,164.5 
	204.7,164.7 205.9,164.7 207.1,164.3 208.2,164.7 209.4,164.4 210.6,164.7 211.7,164.5 212.9,164.6 214.1,164.5 215.2,164.3 
	216.4,164.6 217.6,164.4 218.8,164.4 219.9,164.4 221.1,164.5 222.3,164.3 223.5,164.7 224.6,164.7 225.8,164.6 227,164.4 
	228.2,164.3 229.4,164.4 "/>
<polyline class="st7" points="175,139.4 174.7,139.6 174.8,139.7 174.7,139.8 174.8,139.9 174.8,140.1 174.8,140.2 174.8,140.3 
	174.6,140.4 174.6,140.6 174.5,140.7 174.9,140.8 174.5,140.9 174.6,141.1 174.7,141.2 174.7,141.3 174.9,141.5 175,141.6 
	174.8,141.7 174.8,141.8 174.5,142 174.9,142.1 174.5,142.2 174.8,142.3 174.7,142.5 174.6,142.6 175,142.7 174.5,142.8 174.9,143 
	174.6,143.1 174.6,143.2 174.7,143.3 174.5,143.5 174.9,143.6 174.5,143.7 174.7,143.9 175,144 174.9,144.1 174.7,144.2 
	174.6,144.4 174.5,144.5 174.5,144.6 174.6,144.7 174.7,144.9 174.7,145 174.8,145.1 175,145.2 174.7,145.4 174.6,145.5 
	174.6,145.6 174.6,145.8 174.8,145.9 174.7,146 174.7,146.1 174.7,146.3 174.6,146.4 174.8,146.5 174.8,146.6 174.5,146.8 
	174.9,146.9 174.9,147 175,147.1 174.7,147.3 174.5,147.4 174.9,147.5 175,147.7 174.6,147.8 174.9,147.9 174.8,148 174.6,148.2 
	174.5,148.3 174.7,148.4 174.6,148.5 174.7,148.7 174.5,148.8 174.7,148.9 175,149 174.7,149.2 174.7,149.3 174.9,149.4 
	174.6,149.6 174.9,149.7 174.6,149.8 174.6,149.9 174.6,150.1 175,150.2 174.5,150.3 174.8,150.4 174.7,150.6 174.7,150.7 
	175,150.8 175,150.9 175,151.1 174.8,151.2 174.8,151.3 174.9,151.5 174.9,151.6 175,151.7 175,151.8 174.9,152 174.9,152.1 
	174.7,152.2 174.5,152.3 174.7,152.5 174.8,152.6 174.8,152.7 174.7,152.9 174.8,153 174.7,153.1 174.9,153.2 174.8,153.4 
	174.5,153.5 174.7,153.6 174.7,153.7 175,153.9 174.8,154 174.6,154.1 174.8,154.3 174.7,154.4 174.8,154.5 174.9,154.6 
	174.6,154.8 174.6,154.9 174.8,155 174.8,155.1 174.9,155.3 174.9,155.4 174.8,155.5 174.5,155.6 174.9,155.8 174.7,155.9 
	174.5,156 174.7,156.2 174.6,156.3 174.5,156.4 174.7,156.5 174.7,156.7 174.9,156.8 174.5,156.9 174.9,157 174.6,157.2 
	174.6,157.3 174.9,157.4 174.9,157.6 174.6,157.7 174.6,157.8 174.6,157.9 174.6,158.1 174.5,158.2 174.8,158.3 174.7,158.4 
	175,158.6 174.8,158.7 174.8,158.8 174.9,158.9 174.6,159.1 174.8,159.2 174.8,159.3 174.8,159.5 174.5,159.6 174.9,159.7 
	174.6,159.8 174.8,160 174.8,160.1 174.5,160.2 174.9,160.3 174.7,160.5 174.6,160.6 174.5,160.7 174.7,160.9 175,161 174.8,161.1 
	174.6,161.2 174.8,161.4 174.7,161.5 174.7,161.6 174.5,161.8 174.5,161.9 174.9,162 174.5,162.1 174.8,162.3 174.5,162.4 
	174.7,162.5 174.6,162.6 174.7,162.8 174.9,162.9 174.6,163 174.7,163.2 174.8,163.3 174.8,163.4 174.7,163.5 174.9,163.7 
	174.5,163.8 174.5,163.9 174.6,164 174.8,164.2 174.9,164.3 174.8,164.4 "/>
<circle class="st1" cx="191.9" cy="151.1" r="6.3"/>
<path class="st6" d="M185.3,151l0.3-0.2l-0.1-0.2l0.1-0.2c0-0.1,0-0.1,0-0.2V150v-0.2c0-0.1,0-0.1,0-0.2l0.3-0.1l0.1-0.2
	c0-0.1,0.1-0.1,0.1-0.2l-0.2-0.3l0.4-0.1c0-0.1,0-0.1,0-0.2v-0.2l0.1-0.2l-0.1-0.3v-0.2l0.2-0.1l0.2-0.1h0.3l-0.2-0.4
	c0.1,0,0.3,0,0.4,0l-0.1-0.3l0.2-0.1c0.1,0,0.1-0.1,0.2-0.1l-0.1-0.4l0.5,0.2c0-0.1-0.1-0.3-0.1-0.4l0.4,0.2l0.1-0.2
	c0-0.1,0.1-0.1,0.1-0.1h0.2v-0.5l0.4,0.2l0.1-0.3l0.1-0.3h0.2l0.3,0.2h0.2h0.2h0.2l0.2-0.2l0.2-0.1h0.2l0.2-0.1l0.2-0.2
	c0.1,0.1,0.2,0.2,0.2,0.3h0.2h0.2h0.2l0.2-0.2l0.2,0.1h0.2h0.2l0.2,0.2l0.2-0.2l0.2,0.1l0.1,0.3l0.3-0.3l0.2,0.1h0.2l0.1,0.3
	l0.1,0.2l0.3-0.2h0.2v0.4l0.4-0.2l0.1,0.3l0.1,0.2l0.1,0.2h0.2l0.1,0.2l0.2,0.1v0.2h0.2h0.3v0.3l0.1,0.1l0.3,0.1l-0.1,0.3
	c0.1,0,0.2,0,0.4,0l-0.1,0.3l0.1,0.2c0,0.1,0.1,0.1,0.1,0.2h0.4l-0.3,0.4c0.1,0,0.2,0,0.4,0.1v0.2l0.1,0.2c0.1,0,0.2,0.1,0.3,0.1
	v0.2v0.2c0,0.1-0.1,0.2-0.1,0.2l0.1,0.2l0.1,0.2c0,0.1,0,0.1,0.1,0.2l0.1,0.2v0.2c0,0.1-0.1,0.1-0.1,0.2v0.2l-0.2,0.2l-0.2,0.2
	l0.2,0.2v0.2v0.2l-0.2,0.2l0.1,0.2l-0.1,0.2c0,0.1,0.1,0.2,0.1,0.2l-0.1,0.2l-0.4,0.1c0,0.1,0,0.2,0.1,0.2l-0.1,0.2l0.1,0.3
	c-0.1,0-0.2,0.1-0.3,0.1l-0.2,0.1l0.1,0.3c-0.1,0-0.1,0.1-0.2,0.1v0.2v0.2h-0.3l-0.2,0.1l0.1,0.4l-0.2,0.1l-0.1,0.2l-0.2,0.1
	l-0.2,0.1l-0.3-0.1l0.1,0.4c-0.1,0-0.2,0-0.3-0.1h-0.3l-0.1,0.2c-0.1,0-0.1,0-0.2,0l-0.2,0.1l-0.1,0.2l-0.2,0.1l-0.1,0.2l-0.3-0.3
	c0,0.1,0,0.3-0.1,0.4l-0.3-0.3l-0.2,0.1l-0.1,0.4l-0.2,0.1l-0.2-0.3h-0.2h-0.2l-0.2,0.1l-0.2-0.1l-0.2,0.2l-0.2-0.1l-0.2,0.3
	c-0.1-0.1-0.1-0.1-0.2-0.2h-0.2h-0.2c-0.1-0.1-0.1-0.2-0.1-0.3l-0.2,0.1H190l-0.2-0.1l-0.1-0.3l-0.3,0.3c0-0.1-0.1-0.2-0.1-0.4
	l-0.2,0.1l-0.2-0.1c0-0.1,0-0.2-0.1-0.3l-0.4,0.3v-0.3c-0.1,0-0.1-0.1-0.1-0.1l-0.1-0.2h-0.2c-0.1,0-0.2,0.1-0.4,0.1v-0.2v-0.3h-0.3
	l-0.1-0.2l-0.1-0.2c0-0.1,0-0.2,0-0.2l-0.1-0.1l-0.4,0.1c0.1-0.1,0.1-0.3,0.2-0.4h-0.3l0.1-0.3l-0.3-0.1l0.1-0.2l-0.2-0.1l-0.3-0.1
	l0.2-0.3l-0.2-0.1c0-0.1-0.1-0.1-0.1-0.2l-0.1-0.2l0.1-0.2l-0.2-0.2l0.3-0.3v-0.2l-0.1-0.2l-0.2-0.3l-0.1-0.2l0.1-0.2"/>
<polyline class="st7" points="192.1,157.4 191.8,157.4 191.9,157.4 191.8,157.5 191.9,157.5 191.9,157.6 191.9,157.6 192,157.6 
	191.7,157.7 191.7,157.7 191.7,157.7 192,157.8 191.7,157.8 191.7,157.8 191.8,157.9 191.8,157.9 192,157.9 192.1,158 191.9,158 
	191.9,158.1 191.6,158.1 192,158.1 191.6,158.2 191.9,158.2 191.8,158.2 191.7,158.3 192.1,158.3 191.6,158.3 192,158.4 
	191.7,158.4 191.8,158.4 191.8,158.5 191.7,158.5 192.1,158.6 191.7,158.6 191.9,158.6 192.1,158.7 192.1,158.7 191.8,158.7 
	191.7,158.8 191.7,158.8 191.6,158.8 191.8,158.9 191.8,158.9 191.8,158.9 191.9,159 192.1,159 191.8,159.1 191.8,159.1 
	191.7,159.1 191.7,159.2 191.9,159.2 191.8,159.2 191.8,159.3 191.8,159.3 191.7,159.3 191.9,159.4 191.9,159.4 191.7,159.4 
	192,159.5 192,159.5 192.1,159.6 191.8,159.6 191.6,159.6 192,159.7 192.1,159.7 191.7,159.7 192.1,159.8 191.9,159.8 191.8,159.8 
	191.6,159.9 191.8,159.9 191.7,159.9 191.8,160 191.7,160 191.8,160.1 192.1,160.1 191.8,160.1 191.9,160.2 192,160.2 191.7,160.2 
	192,160.3 191.7,160.3 191.8,160.3 191.7,160.4 192.1,160.4 191.6,160.5 191.9,160.5 191.8,160.5 191.9,160.6 192.1,160.6 
	192.1,160.6 192.1,160.7 191.9,160.7 192,160.7 192,160.8 192,160.8 192.1,160.8 192.1,160.9 192,160.9 192,161 191.9,161 
	191.6,161 191.8,161.1 191.9,161.1 191.9,161.1 191.8,161.2 191.9,161.2 191.8,161.2 192,161.3 191.9,161.3 191.6,161.3 
	191.8,161.4 191.8,161.4 192.1,161.5 191.9,161.5 191.7,161.5 191.9,161.6 191.8,161.6 191.9,161.6 192,161.7 191.8,161.7 
	191.7,161.7 192,161.8 191.9,161.8 192.1,161.9 192,161.9 191.9,161.9 191.7,162 192,162 191.8,162 191.7,162.1 191.8,162.1 
	191.7,162.1 191.7,162.2 191.8,162.2 191.8,162.2 192,162.3 191.7,162.3 192,162.4 191.7,162.4 191.7,162.4 192,162.5 192.1,162.5 
	191.7,162.5 191.7,162.6 191.7,162.6 191.8,162.6 191.6,162.7 191.9,162.7 191.8,162.7 192.1,162.8 191.9,162.8 191.9,162.9 
	192,162.9 191.7,162.9 191.9,163 191.9,163 191.9,163 191.7,163.1 192,163.1 191.7,163.1 191.9,163.2 191.9,163.2 191.6,163.3 
	192.1,163.3 191.8,163.3 191.8,163.4 191.6,163.4 191.8,163.4 192.1,163.5 191.9,163.5 191.7,163.5 191.9,163.6 191.9,163.6 
	191.8,163.6 191.7,163.7 191.7,163.7 192,163.8 191.6,163.8 191.9,163.8 191.6,163.9 191.8,163.9 191.7,163.9 191.8,164 192,164 
	191.7,164 191.9,164.1 191.9,164.1 191.9,164.2 191.8,164.2 192,164.2 191.7,164.3 191.6,164.3 191.7,164.3 191.9,164.4 192,164.4 
	191.9,164.4 "/>
<polyline class="st6" points="175,106.3 174.7,106.4 174.8,106.5 174.7,106.6 174.8,106.7 174.8,106.8 174.8,106.9 174.8,107 
	174.6,107.2 174.6,107.3 174.5,107.4 174.9,107.5 174.5,107.6 174.6,107.7 174.7,107.8 174.7,107.9 174.9,108 175,108.1 
	174.8,108.2 174.8,108.4 174.5,108.5 174.9,108.6 174.5,108.7 174.8,108.8 174.7,108.9 174.6,109 175,109.1 174.5,109.2 
	174.9,109.3 174.6,109.4 174.6,109.6 174.7,109.7 174.5,109.8 174.9,109.9 174.5,110 174.7,110.1 175,110.2 174.9,110.3 
	174.7,110.4 174.6,110.5 174.5,110.6 174.5,110.8 174.6,110.9 174.7,111 174.7,111.1 174.8,111.2 175,111.3 174.7,111.4 
	174.6,111.5 174.6,111.6 174.6,111.7 174.8,111.9 174.7,112 174.7,112.1 174.7,112.2 174.6,112.3 174.8,112.4 174.8,112.5 
	174.5,112.6 174.9,112.7 174.9,112.8 175,112.9 174.7,113.1 174.5,113.2 174.9,113.3 175,113.4 174.6,113.5 174.9,113.6 
	174.8,113.7 174.6,113.8 174.5,113.9 174.7,114 174.6,114.1 174.7,114.3 174.5,114.4 174.7,114.5 175,114.6 174.7,114.7 
	174.7,114.8 174.9,114.9 174.6,115 174.9,115.1 174.6,115.2 174.6,115.4 174.6,115.5 175,115.6 174.5,115.7 174.8,115.8 
	174.7,115.9 174.7,116 175,116.1 175,116.2 175,116.3 174.8,116.4 174.8,116.6 174.9,116.7 174.9,116.8 175,116.9 175,117 
	174.9,117.1 174.9,117.2 174.7,117.3 174.5,117.4 174.7,117.5 174.8,117.7 174.8,117.8 174.7,117.9 174.8,118 174.7,118.1 
	174.9,118.2 174.8,118.3 174.5,118.4 174.7,118.5 174.7,118.6 175,118.8 174.8,118.9 174.6,119 174.8,119.1 174.7,119.2 
	174.8,119.3 174.9,119.4 174.6,119.5 174.6,119.6 174.8,119.7 174.8,119.8 174.9,120 174.9,120.1 174.8,120.2 174.5,120.3 
	174.9,120.4 174.7,120.5 174.5,120.6 174.7,120.7 174.6,120.8 174.5,120.9 174.7,121.1 174.7,121.2 174.9,121.3 174.5,121.4 
	174.9,121.5 174.6,121.6 174.6,121.7 174.9,121.8 174.9,121.9 174.6,122 174.6,122.2 174.6,122.3 174.6,122.4 174.5,122.5 
	174.8,122.6 174.7,122.7 175,122.8 174.8,122.9 174.8,123 174.9,123.1 174.6,123.2 174.8,123.4 174.8,123.5 174.8,123.6 
	174.5,123.7 174.9,123.8 174.6,123.9 174.8,124 174.8,124.1 174.5,124.2 174.9,124.3 174.7,124.5 174.6,124.6 174.5,124.7 
	174.7,124.8 175,124.9 174.8,125 174.6,125.1 174.8,125.2 174.7,125.3 174.7,125.4 174.5,125.6 174.5,125.7 174.9,125.8 
	174.5,125.9 174.8,126 174.5,126.1 174.7,126.2 174.6,126.3 174.7,126.4 174.9,126.5 174.6,126.7 174.7,126.8 174.8,126.9 
	174.8,127 174.7,127.1 174.9,127.2 174.5,127.3 174.5,127.4 174.6,127.5 174.8,127.7 174.9,127.8 174.8,127.9 "/>
<polyline class="st6" points="185.5,117.3 185.4,117 185.3,117.1 185.2,117 185.1,117.1 185,117.1 184.9,117.1 184.8,117.2 
	184.7,116.9 184.6,116.9 184.5,116.9 184.3,117.2 184.2,116.9 184.1,116.9 184,117 183.9,117 183.8,117.2 183.7,117.3 183.6,117.1 
	183.5,117.1 183.4,116.8 183.3,117.2 183.2,116.9 183,117.1 182.9,117 182.8,117 182.7,117.3 182.6,116.9 182.5,117.2 182.4,116.9 
	182.3,117 182.2,117 182.1,116.9 182,117.3 181.8,116.9 181.7,117.1 181.6,117.3 181.5,117.3 181.4,117 181.3,116.9 181.2,116.9 
	181.1,116.8 181,117 180.9,117 180.7,117 180.6,117.1 180.5,117.3 180.4,117 180.3,117 180.2,116.9 180.1,116.9 180,117.1 
	179.9,117 179.8,117 179.7,117.1 179.5,116.9 179.4,117.1 179.3,117.1 179.2,116.9 179.1,117.3 179,117.3 178.9,117.3 178.8,117 
	178.7,116.8 178.6,117.2 178.5,117.3 178.3,116.9 178.2,117.3 178.1,117.1 178,117 177.9,116.9 177.8,117 177.7,116.9 177.6,117 
	177.5,116.9 177.4,117 177.2,117.3 177.1,117.1 177,117.1 176.9,117.2 176.8,116.9 176.7,117.2 176.6,117 176.5,117 176.4,116.9 
	176.3,117.3 176.2,116.8 176,117.1 175.9,117 175.8,117.1 175.7,117.3 175.6,117.3 175.5,117.3 175.4,117.1 175.3,117.2 
	175.2,117.2 175.1,117.2 174.9,117.3 174.8,117.3 174.7,117.2 174.6,117.2 174.5,117.1 174.4,116.9 174.3,117 174.2,117.1 
	174.1,117.1 174,117 173.8,117.1 173.7,117.1 173.6,117.2 173.5,117.2 173.4,116.8 173.3,117 173.2,117 173.1,117.3 173,117.1 
	172.9,116.9 172.8,117.1 172.6,117 172.5,117.1 172.4,117.2 172.3,117 172.2,116.9 172.1,117.2 172,117.1 171.9,117.3 171.8,117.2 
	171.7,117.1 171.5,116.9 171.4,117.3 171.3,117.1 171.2,116.9 171.1,117 171,116.9 170.9,116.9 170.8,117 170.7,117 170.6,117.2 
	170.4,116.9 170.3,117.2 170.2,116.9 170.1,116.9 170,117.2 169.9,117.3 169.8,117 169.7,117 169.6,116.9 169.5,117 169.4,116.8 
	169.2,117.1 169.1,117 169,117.3 168.9,117.1 168.8,117.1 168.7,117.2 168.6,116.9 168.5,117.1 168.4,117.1 168.3,117.1 
	168.1,116.9 168,117.2 167.9,116.9 167.8,117.1 167.7,117.1 167.6,116.8 167.5,117.3 167.4,117 167.3,117 167.2,116.9 167,117 
	166.9,117.3 166.8,117.1 166.7,116.9 166.6,117.1 166.5,117.1 166.4,117 166.3,116.9 166.2,116.9 166.1,117.2 165.9,116.8 
	165.8,117.1 165.7,116.8 165.6,117.1 165.5,116.9 165.4,117 165.3,117.2 165.2,116.9 165.1,117.1 165,117.1 164.8,117.1 164.7,117 
	164.6,117.2 164.5,116.9 164.4,116.8 164.3,116.9 164.2,117.2 164.1,117.3 164,117.1 "/>
<path class="st8" d="M116.6,106.8c-0.2,0-0.4,0-0.6-0.1h-0.1c-0.6-0.2-1.2-0.5-1.6-0.9l-0.4-0.4c-0.1-0.1-0.2-0.1-0.3-0.2l-0.2-0.1
	l-0.2-0.2l-0.7-0.5l-0.1-0.1l-1-0.9l-0.6-0.2c-0.5-0.2-0.9-0.7-1.1-1.2l-0.2-0.6l-1.1-1.3l-0.5-0.2c-0.4-0.2-0.7-0.4-0.9-0.7
	l-0.4-0.6l-0.4-0.4l-0.6-0.5c-0.2-0.1-0.3-0.3-0.4-0.5l-0.1-0.2l-0.3-0.1c-0.3-0.1-0.5-0.3-0.7-0.5l-0.6-0.7
	c-0.1-0.1-0.2-0.3-0.3-0.4c-0.4-0.1-0.7-0.3-1-0.6l-0.5-0.6l-0.6-0.5c-0.3-0.3-0.5-0.6-0.6-1l-0.2-0.6c-0.3,0-0.5-0.2-0.7-0.3
	l-0.7-0.5c-0.4-0.2-0.6-0.6-0.8-1c-0.5-0.2-0.9-0.5-1.1-1l-0.4-0.7l-0.7-1l-0.4-0.2c-0.2-0.1-0.3-0.2-0.5-0.4l-0.5-0.5L94,85.9
	c-0.2-0.2-0.4-0.4-0.5-0.6L93.3,85l-0.2-0.1l-0.8-0.3c-0.5-0.2-1-0.6-1.2-1.1L91,83l-0.2-0.2l-0.6-0.3c-0.5-0.3-0.8-0.7-0.9-1.2
	v-0.1c-0.6-0.3-1-0.8-1.1-1.4c-0.1-0.3-0.1-0.5-0.1-0.8L88,78.7c0-0.1-0.1-0.1-0.1-0.2l-0.1-0.3c-0.2-0.1-0.4-0.3-0.6-0.4
	c-0.6-0.5-0.8-1.3-0.6-2c-0.3-0.3-0.4-0.7-0.4-1.1V74c0-0.1-0.1-0.2-0.1-0.4c-0.2-0.2-0.3-0.5-0.4-0.7c-0.2-0.3-0.2-0.6-0.2-0.9
	v-0.8c0-0.4,0-0.7,0-1.1c0-0.2,0-0.4,0.1-0.5l0.2-0.6c0-0.1,0-0.3,0-0.4s0-0.1,0-0.2c0-0.1,0-0.1,0-0.2v-0.3c0-0.2,0-0.5,0.1-0.7
	l0.1-0.9c0-0.4,0.1-0.7,0.2-1.1l0.2-0.9c0-0.1,0.1-0.2,0.1-0.3c0.1-0.3,0.3-0.5,0.5-0.8l0.1-0.1l0.3-0.7c0.1-0.2,0.2-0.4,0.4-0.6
	l0.6-0.7c0.1-0.1,0.1-0.1,0.2-0.2l0.2-0.1l0.1-0.1l0.1-0.2c0-0.1,0.1-0.3,0.2-0.4c0.2-0.4,0.4-0.7,0.6-1l0.5-0.7
	c0.1-0.2,0.3-0.3,0.4-0.4c0.2-0.1,0.4-0.3,0.6-0.4l0.1-0.2l0.2-0.2c0.2-0.2,0.4-0.4,0.6-0.5l0.2-0.1l0.2-0.1
	c0.1-0.2,0.3-0.4,0.5-0.5c0.1-0.1,0.3-0.3,0.4-0.3c0.3-0.2,0.6-0.3,0.9-0.5c0.2-0.1,0.5-0.2,0.8-0.2c0.1,0,0.2,0,0.3,0l0.1-0.1
	c0.1-0.1,0.2-0.2,0.4-0.2c0.2-0.1,0.4-0.2,0.6-0.3s0.4-0.3,0.6-0.5c0.4-0.3,0.9-0.5,1.4-0.5h0.2l0.8,0.1h0.4l0.2-0.1l0.1-0.1
	c0.3-0.2,0.7-0.2,1-0.2l0.6,0.1l0.6-0.1l0.3-0.1c0.3,0,0.5-0.1,0.8-0.1c0.4,0,0.8,0,1.2,0.2l0.7,0.4h0.1l0.2-0.1l0.2-0.1
	c0.4-0.1,0.8-0.1,1.1,0l0.2,0.1l0.4,0.1c0.3,0,0.5,0,0.8,0.1c0.2,0,0.4,0.1,0.6,0.2c0.3,0.2,0.6,0.3,0.9,0.5s0.5,0.3,0.7,0.5
	l0.1,0.1c0.2,0.1,0.3,0.2,0.4,0.4h0.1c0.7,0,1.3,0.3,1.6,0.8l0.1,0.2c0.2,0.2,0.3,0.4,0.4,0.7l0.1,0.1c0,0.1,0.1,0.2,0.2,0.2
	s0.3,0.2,0.4,0.2c0.2,0.1,0.4,0.3,0.6,0.6l0.4,0.6l0.3,0.3l0.5,0.3c0.1,0.1,0.2,0.2,0.4,0.3l0.1,0.1c0.3-0.1,0.5-0.2,0.8-0.3
	l0.1-0.3c0.1-0.3,0.2-0.6,0.4-0.8l0.6-0.7c0.3-0.3,0.6-0.5,1-0.6l0.6-0.2l0.3-0.2l0.2-0.1c0.2-0.1,0.4-0.3,0.6-0.4l0.1-0.1l0.4-0.3
	l0.2-0.2c0.2-0.2,0.5-0.3,0.7-0.4l0.2-0.1c0.1-0.1,0.2-0.2,0.3-0.3c0.3-0.3,0.6-0.5,1-0.6l0.3-0.1l0.3-0.3c0.4-0.4,0.9-0.7,1.4-0.7
	h0.8h0l0.7-0.1c0.2-0.1,0.5-0.2,0.7-0.2c0.4-0.1,0.7-0.1,1.1,0l0.3,0.1l0.2-0.1c0.2-0.1,0.3-0.1,0.5-0.1h0.7h0.3c0.1,0,0.2,0,0.3,0
	h0.2l0.8,0.1c0.2,0,0.4,0.1,0.6,0.2h0.1c0.7-0.3,1.4-0.1,2,0.3l0.2,0.2h0.1c0.3,0,0.5,0,0.7,0.1l0.1,0.1c0.2,0.1,0.5,0.2,0.7,0.3
	c0.2,0.1,0.4,0.2,0.6,0.4h0.1c0.7-0.1,1.4,0.2,1.9,0.8c0.2,0.2,0.3,0.4,0.4,0.6c0.1,0.1,0.2,0.1,0.2,0.2l0.2,0.2
	c0.1,0.1,0.2,0.1,0.2,0.2c0.1,0.1,0.2,0.3,0.4,0.4l0.3,0.1c0.3,0.1,0.6,0.2,0.9,0.3c0.5,0.2,0.9,0.5,1.1,1l0.4,0.8
	c0,0.1,0.1,0.1,0.1,0.2c0.1,0.1,0.1,0.2,0.1,0.4l0.2,0.1c0.2,0.1,0.4,0.3,0.5,0.5c0.2,0.3,0.3,0.6,0.5,0.9l0.1,0.2
	c0,0.1,0.1,0.1,0.1,0.2l0.3,0.8c0.1,0.1,0.1,0.2,0.1,0.4l0.1,0.6c0,0.1,0.1,0.1,0.1,0.2l0.4,0.3c0.6,0.5,0.9,1.3,0.7,2.1
	c0,0,0,0.1,0,0.1c0.3,0.5,0.4,1.1,0.2,1.7l-0.1,0.2c0,0.1,0.1,0.2,0.1,0.3c0.2,0.4,0.2,0.8,0.1,1.2l-0.1,0.4c0,0.1,0.1,0.3,0.1,0.4
	l0.2,0.8c0.2,0.6,0,1.2-0.3,1.7l-0.2,0.2c0,0.1,0,0.2,0,0.3c0,0.2,0,0.3,0,0.5l-0.2,0.8c-0.1,0.4-0.1,0.7-0.2,1.1
	c-0.1,0.2-0.1,0.3-0.2,0.5l-0.2,0.3c0,0.1,0,0.1,0,0.2v0.3c-0.1,0.6-0.4,1.2-1,1.6l-0.2,0.1l-0.3,0.2l-0.1,0.2l-0.3,0.5l-0.1,0.6
	c0,0.1-0.1,0.3-0.1,0.4c-0.1,0.3-0.3,0.6-0.4,0.8l-0.1,0.2c-0.2,0.3-0.4,0.5-0.6,0.6L142,83l-1.1-1.6l0.5,1.5l0.3,0.2l-0.1,0.2
	l0.1,0.2l-0.3,0.1l-0.1,0.2c-0.1,0.2-0.3,0.4-0.5,0.5l-0.5,0.4l-1,1.2l-0.1,0.1l-0.5,0.5l-0.4,0.6c-0.2,0.3-0.5,0.5-0.8,0.6
	l-0.6,0.2l-0.6,0.6l-0.1,0.4c-0.2,0.7-0.7,1.2-1.4,1.4l-0.4,0.1l-0.1,0.1l-0.5,0.6l-0.1,0.1l-0.4,0.4l-0.3,0.6
	c-0.1,0.1-0.1,0.2-0.2,0.4l-0.5,0.7c-0.2,0.3-0.4,0.5-0.7,0.6l-0.6,0.3l-0.5,0.4c-0.1,0.1-0.3,0.2-0.4,0.2c-0.2,0.7-0.7,1.2-1.4,1.4
	c-0.2,0.4-0.4,0.8-0.8,1l-0.7,0.5v0.3c-0.1,0.8-0.7,1.4-1.5,1.6c-0.3,0.6-0.8,1-1.4,1.2l-0.3,0.1l-0.1,0.1l-0.1,0.1l-0.6,0.7
	c-0.1,0.2-0.3,0.3-0.5,0.4v0.1c-0.1,0.9-0.8,1.5-1.6,1.7l0,0l-0.3,0.7c-0.1,0.3-0.3,0.5-0.5,0.7l-0.7,0.6c-0.2,0.2-0.4,0.3-0.6,0.4
	l-0.1,0.1h-0.1c-0.3,0.1-0.6,0.2-0.8,0.2C117.4,106.8,117,106.9,116.6,106.8z M115.6,101.8l0.1,0.1c0.1,0.1,0.3,0.2,0.4,0.2
	c0.2,0.1,0.4,0.2,0.5,0.4l0.2,0.2l0,0h0.2l0,0l0.2-0.4c0,0,0-0.1,0.1-0.1l0.4-0.8c0.2-0.5,0.6-0.8,1.1-1c0.2-0.4,0.5-0.8,0.9-1.1
	l0.5-0.3l0.3-0.4L121,98c0.2-0.3,0.5-0.6,0.9-0.7c0.2-0.7,0.8-1.2,1.4-1.3c0.1-0.3,0.3-0.6,0.6-0.8l0.7-0.5l0.1-0.1l0.1-0.1l0.1-0.2
	c0.2-0.6,0.6-1.1,1.2-1.3c0.2-0.6,0.6-1,1.2-1.2l0.6-0.2l0.4-0.4c0.1-0.1,0.2-0.1,0.3-0.2l0.4-0.2l0.1-0.2l0.3-0.7
	c0.1-0.2,0.2-0.4,0.3-0.5l0.5-0.6l0.5-0.6l0.1-0.1l0.6-0.6c0.2-0.2,0.5-0.4,0.8-0.5c0.1-0.4,0.3-0.7,0.6-0.9l1.2-1.1
	c0.2-0.1,0.4-0.3,0.6-0.4l0.4-0.2l0.2-0.3c0.1-0.1,0.1-0.2,0.2-0.2l0.6-0.6l1.1-1.2c0.1-0.1,0.2-0.2,0.4-0.3l0.4-0.3l0.3-0.4
	c0.2-0.3,0.6-0.6,1-0.8l0.5-0.2l-0.2-0.2l0.4-0.3l0,0l0.1-0.7c0-0.3,0.2-0.5,0.3-0.7c0.1-0.2,0.2-0.3,0.3-0.5c0-0.1,0.1-0.2,0.1-0.2
	l0.5-0.8c0.2-0.3,0.4-0.5,0.7-0.6c0-0.3,0.1-0.6,0.3-0.8l0.3-0.5c0-0.1,0.1-0.2,0.1-0.3V74l0.1-0.6c0-0.1,0-0.1,0-0.2
	c0-0.1,0-0.3-0.1-0.4c-0.1-0.5,0.1-1,0.4-1.4v-0.2c0-0.2-0.1-0.4-0.1-0.6c-0.1-0.3-0.1-0.7,0-1v-0.1l-0.1-0.2
	c-0.2-0.5-0.3-1-0.1-1.5c-0.3-0.4-0.4-1-0.3-1.5c-0.2-0.2-0.3-0.5-0.4-0.7l-0.1-0.2l-0.1-0.3c-0.1-0.2-0.1-0.3-0.1-0.5l-0.1-0.7
	l-0.3-0.7v-0.1l-0.4-0.3c-0.4-0.3-0.7-0.7-0.8-1.2c0-0.2-0.1-0.3-0.1-0.5H140l-0.4-0.1l-0.8-0.4c-0.2-0.1-0.5-0.3-0.6-0.5l-0.2-0.2
	l-0.2-0.3l-0.1-0.1c-0.1-0.1-0.2-0.2-0.4-0.3c-0.1-0.1-0.2-0.2-0.3-0.3c-0.7,0.1-1.4-0.2-1.8-0.8l-0.2-0.3l0,0c-0.1,0-0.3,0-0.4,0
	c-0.4,0-0.9-0.1-1.2-0.3c-0.6,0.2-1.2,0.1-1.7-0.3l-0.4-0.2h-0.3h-0.5l-0.5,0.2c-0.5,0.2-1,0.2-1.5,0l-0.2-0.1l-0.2,0.1l-0.2,0.1
	l-0.9,0.2h-0.4c-0.3,0.4-0.8,0.7-1.2,0.7h-0.1l-0.1,0.2c-0.3,0.4-0.7,0.6-1.1,0.7l-0.4,0.1l-0.3,0.3c-0.1,0.1-0.2,0.1-0.3,0.2
	l-0.3,0.2l-0.3,0.2l-0.5,0.4c-0.3,0.3-0.6,0.4-1,0.5h-0.1l-0.1,0.4c-0.1,0.3-0.3,0.6-0.5,0.9l-0.6,0.6c-0.2,0.3-0.5,0.4-0.9,0.5
	c0,0.1-0.1,0.2-0.1,0.3c-0.3,0.8-1.1,1.2-1.9,1.2c-0.3,0-0.5,0-0.8-0.1c-0.6-0.2-1.1-0.6-1.3-1.1l0,0c-0.2-0.1-0.4-0.2-0.5-0.3
	l-0.5-0.4l-0.6-0.3c-0.2-0.1-0.3-0.2-0.4-0.4l-0.6-0.6c-0.1-0.1-0.1-0.2-0.2-0.2l-0.2-0.4l-0.3-0.2c-0.3-0.2-0.6-0.5-0.8-0.8
	c-0.1-0.2-0.2-0.3-0.3-0.5c-0.7,0-1.3-0.3-1.7-0.9l-0.2-0.2c-0.1-0.1-0.1-0.1-0.2-0.2l-0.4-0.2l-0.4-0.2h-0.2h-0.3
	c-0.2,0-0.3-0.1-0.5-0.1l-0.2-0.1l-0.3,0.1c-0.4,0.1-0.8,0.1-1.2,0l-0.2-0.1c-0.2,0-0.3-0.1-0.5-0.2c-0.2-0.1-0.4-0.1-0.6-0.3
	c0,0-0.1-0.1-0.1-0.1h-0.2c-0.1,0-0.3,0.1-0.5,0.1l-0.2,0.1c-0.3,0.1-0.5,0.1-0.8,0h-0.3l-0.2,0.1c-0.4,0.2-0.8,0.3-1.3,0.2
	c-0.2,0-0.5-0.1-0.8-0.1H99l-0.1,0.1c-0.2,0.1-0.3,0.3-0.5,0.3L98.1,58l-0.2,0.1l-0.4,0.3c-0.4,0.4-1,0.6-1.5,0.6h-0.4l0,0l-0.1,0.1
	l-0.2,0.3c-0.2,0.2-0.4,0.3-0.6,0.4c-0.1,0.1-0.2,0.1-0.4,0.2L94,60.4c-0.2,0.2-0.3,0.4-0.6,0.6l-0.3,0.2L93,61.2l-0.3,0.4
	c-0.1,0.1-0.2,0.2-0.2,0.3l-0.2,0.6c-0.2,0.5-0.5,0.9-0.9,1.2c-0.1,0.1-0.2,0.1-0.3,0.2l-0.1,0.1l-0.3,0.3l-0.2,0.5
	c0,0.1-0.1,0.2-0.1,0.2l-0.2,0.3L90,65.6l-0.2,0.6c0,0.2-0.1,0.4-0.1,0.6l-0.1,0.9c0,0.2,0,0.3,0,0.5v0.3c0,0.1,0,0.2,0,0.3
	s0,0.2,0,0.3c0,0.3,0,0.5-0.1,0.8l-0.2,0.6v0.4c0,0.1,0,0.1,0,0.1v0.4v0.1l0.2,0.3c0.1,0.2,0.2,0.3,0.2,0.5c0,0.1,0.1,0.2,0.1,0.4
	s0,0.2,0.1,0.3c0.1,0.2,0.1,0.4,0.1,0.6v0.1l0,0c0.6,0.5,0.8,1.2,0.7,1.9c0.1,0.1,0.2,0.3,0.3,0.5l0.3,0.7l0.4,0.6
	c0.1,0.2,0.2,0.4,0.3,0.7c0.6,0.3,0.9,0.9,1,1.5l0,0c0.2,0.1,0.3,0.2,0.5,0.4c0.1,0.1,0.2,0.2,0.3,0.3l0.2,0.2
	c0.2,0.2,0.3,0.4,0.4,0.7v0.1h0.1c0.1,0,0.2,0.1,0.3,0.1l0.8,0.4c0.3,0.2,0.6,0.4,0.8,0.8l0.2,0.4l0.4,0.3c0.1,0.1,0.2,0.2,0.3,0.2
	l0.4,0.4l0.5,0.3c0.3,0.2,0.5,0.4,0.6,0.6l1,1.5l0.1,0.2h0.1c0.8,0.2,1.4,0.8,1.5,1.6v0.1l0.4,0.1c0.6,0.1,1.1,0.5,1.4,1.1l0.4,0.8
	c0.1,0.1,0.1,0.2,0.1,0.3l0.1,0.4l0.2,0.2c0.1,0,0.1,0.1,0.1,0.1l0.2,0.2l0.4,0.1c0.7,0.1,1.2,0.6,1.5,1.2l0.3,0.6l0.4,0.2
	c0.4,0.2,0.7,0.4,0.9,0.8l0.3,0.5l0.4,0.3c0.1,0.1,0.2,0.1,0.2,0.2l0.6,0.6c0.1,0.1,0.1,0.2,0.2,0.3l0.2,0.2l0.3,0.1
	c0.3,0.1,0.5,0.3,0.7,0.5l1.2,1.3l0.6,0.8c0.2,0.2,0.3,0.4,0.3,0.6l0.1,0.1c0.2,0.1,0.4,0.2,0.5,0.3l0.7,0.6l0.1,0.1l0.6,0.5
	L115.6,101.8z"/>
</svg>
